<?xml version="1.0" ?>
<svg xmlns="http://www.w3.org/2000/svg" shape-rendering="geometricPrecision" height="95" width="75" version="1.1">
	<rect width="100%" fill="#fff" height="100%"/>
	<g transform="translate(-299.65 -302.17)">
		<g transform="translate(-.47178 .50149)">
			<g fill="#006c00" transform="translate(5.38 334.39)">
				<path d="m351.84-5.8703c1.2666 0.0000492 2.9333 0.63338 5 1.9 2.1333 1.2667 3.6333 2.0334 4.5 2.3v0.6c-0.3334 0.26671-1.3667 0.56671-3.1 0.9-1.6667 0.33338-2.8001 1-3.4 2l-2.3 7.3c-0.40006 1.1334-2.7334 4.3667-7 9.7-2.6667 3.3334-4 6.3334-4 9-0.00004 1.2 0.59995 2.6 1.8 4.2 1.2666 1.6 3.1666 2.4667 5.7 2.6 0.26661 0.000008 0.69995 0.30001 1.3 0.9h-22.3c0.39997-0.33333 1.2333-0.69999 2.5-1.1 1.2666-0.46666 2.1-0.86666 2.5-1.2-0.0667-0.26666-0.20004-0.83332-0.4-1.7-0.20004-0.86665-0.3667-1.5333-0.5-2-0.13337-0.46665-0.33337-1.0333-0.6-1.7-0.2667-0.66665-0.5667-1.2-0.9-1.6-0.33337-0.46665-0.73337-0.83332-1.2-1.1-0.00003-0.06665-0.40003-0.09998-1.2-0.1-1.9334 0.000018-5.4334 0.96668-10.5 2.9-5 1.8667-8.4667 2.8-10.4 2.8-0.66668 0.000012-1.5667-0.13332-2.7-0.4-1.1333-0.26665-1.7333-0.49999-1.8-0.7 0.99999-0.86665 2.4333-2.2667 4.3-4.2-0.0667-0.19998-0.26668-0.36665-0.6-0.5-0.33334-0.19998-0.66668-0.33332-1-0.4h-0.5v-0.6c0.0667-0.13331 0.19999-0.29998 0.4-0.5 2.0667-0.39998 3.7333-0.79998 5-1.2 1.3333-0.39998 3.4666-1.4333 6.4-3.1 3-1.7333 6.4333-4.1 10.3-7.1l15.2-12.5c0.79995-1.1333 1.5333-2.0333 2.2-2.7 0.66662-0.66662 1.6333-1.2666 2.9-1.8 1.2666-0.59995 2.7333-0.89995 4.4-0.9m-22 29.5c0.3333 0.000019 1.0666 0.50002 2.2 1.5 1.2 1 1.8666 1.5334 2 1.6l7.4-6.6c4.4666-4 7.0666-6.7 7.8-8.1l4-9c1.7333-2.3333 2.5999-3.7666 2.6-4.3-0.00006-0.79995-0.56673-1.6-1.7-2.4-1.1334-0.86662-2.1667-1.3-3.1-1.3-1.0667 0.0000483-2.4667 0.76671-4.2 2.3-1.7334 1.4667-5.2667 4.4667-10.6 9-5.2667 4.4667-11.467 9.2334-18.6 14.3 0.19998 0.53336 0.86664 0.96669 2 1.3 1.1333 0.26669 1.9 0.40002 2.3 0.4l7.3-2.3c3.0666-0.99998 5.8333-2.2 8.3-3.6 2.4666-1.4 4.3333-2.7666 5.6-4.1 1.2666-1.3333 2.2333-2.5 2.9-3.5 0.66662-1.0666 0.99995-1.9 1-2.5v-0.6c-0.60005-0.19996-1.7-0.4333-3.3-0.7 0.13329-0.79996 0.29995-1.2333 0.5-1.3h0.2c0.13329 0.06671 0.33329 0.10004 0.6 0.1 1.1333 0.000039 2.1 0.23337 2.9 0.7 0.86661 0.4667 1.4 0.8667 1.6 1.2 0.26661 0.33337 0.39995 0.5667 0.4 0.7-0.00005 0.13337-0.23339 0.43337-0.7 0.9l-0.6 0.8c-1.2 2.5334-3.8 5.1-7.8 7.7s-8.0667 4.6334-12.2 6.1c-1.0667 0.33335-2.9667 0.73335-5.7 1.2-2.7334 0.40002-5.2667 0.93335-7.6 1.6-2.6 0.66668-3.9667 1-4.1 1-1.7334 0.60002-3.0333 1.3667-3.9 2.3v1h3.7c1.1333 0.000014 2.8666-0.59998 5.2-1.8 0.53331-0.39998 1.2333-0.86665 2.1-1.4 4.8666-1.4666 8.7-2.2 11.5-2.2m5.1 6.4c-0.00004 1 0.36663 1.9667 1.1 2.9 0.73329 0.86668 1.6666 1.3 2.8 1.3 1.6666 0.000009 2.5-0.76666 2.5-2.3-0.00004-1.0667-0.63338-2.1667-1.9-3.3-1.2667-1.2-2.4667-1.9333-3.6-2.2-0.60004 1.4667-0.90004 2.6667-0.9 3.6" fill="#006c00"/>
			</g>
			<g fill="#9c0000" transform="translate(-83.361 337.76)">
				<path d="m440.93-4.9533c-0.00006 1-0.43339 1.5-1.3 1.5-1.0001 0.0000435-1.5001-0.49996-1.5-1.5-0.00006-0.79995 0.49994-1.2 1.5-1.2 0.86661 0.0000462 1.2999 0.40005 1.3 1.2" fill="#9c0000"/>
			</g>
		</g>
	</g>
</svg>
