<?xml version="1.0" ?>
<svg xmlns="http://www.w3.org/2000/svg" shape-rendering="geometricPrecision" height="95" width="75" version="1.1">
	<rect width="100%" fill="#fff" height="100%"/>
	<g transform="translate(-327.14 -280.38)">
		<g fill="#006c00" transform="translate(173.72 303.8)">
			<path d="m195.72 61.233c-1.6667-0.13334-3.3334-0.20001-5-0.2-1.6667-0.000009-3.3 0.06666-4.9 0.2 0.1333-5.6 0.19997-11.167 0.2-16.7-0.00003-5.5333-0.0667-11.067-0.2-16.6 1.6666 0.13336 3.3 0.20002 4.9 0.2 1.6666 0.000024 3.3333-0.06664 5-0.2-0.13338 5.5334-0.20004 11.067-0.2 16.6-0.00004 5.6 0.0666 11.167 0.2 16.7m-2-31.2c-1 0.000022-2 0.000022-3 0-0.93337 0.000022-1.9 0.000022-2.9 0 0.0666 4 0.1 7.9 0.1 11.7h5.7c-0.00004-3.8 0.0333-7.7 0.1-11.7m-0.1 15.5v-2h-5.7v2h5.7m0.1 13.6c-0.0667-4.2667-0.10004-8.1667-0.1-11.7h-5.7c-0.00003 3.6667-0.0334 7.5667-0.1 11.7 0.99996-0.06667 1.9666-0.10001 2.9-0.1 0.99996-0.000007 2 0.03333 3 0.1m2-38.8c-1.6667-0.1333-3.3334-0.19997-5-0.2-1.6667 0.000032-3.3 0.0667-4.9 0.2 0.1333-5.6 0.19997-11.167 0.2-16.7-0.00003-5.5333-0.0667-11.067-0.2-16.6 1.6666 0.1334 3.3 0.20006 4.9 0.2 1.6666 0.000065 3.3333-0.0666 5-0.2-0.13338 5.5334-0.20004 11.067-0.2 16.6-0.00004 5.6 0.0666 11.167 0.2 16.7m-2-31.2c-1 0.000063-2 0.000063-3 0-0.93337 0.000063-1.9 0.000063-2.9 0 0.0666 4.0001 0.1 7.9001 0.1 11.7h5.7c-0.00004-3.7999 0.0333-7.6999 0.1-11.7m-0.1 15.5v-2h-5.7v2h5.7m0.1 13.6c-0.0667-4.2666-0.10004-8.1666-0.1-11.7h-5.7c-0.00003 3.6667-0.0334 7.5667-0.1 11.7 0.99996-0.06663 1.9666-0.09997 2.9-0.1 0.99996 0.000034 2 0.03337 3 0.1" fill="#006c00"/>
		</g>
	</g>
</svg>
