<?xml version="1.0" ?>
<svg xmlns="http://www.w3.org/2000/svg" shape-rendering="geometricPrecision" height="95" width="75" version="1.1">
	<rect width="100%" fill="#fff" height="100%"/>
	<g transform="translate(-415.72 -514.95)"/>
	<g transform="translate(-541.74 -515.7)">
		<g fill="#006c00" transform="translate(386.81 546.35)">
			<path d="m216.83 54c-1.6667-0.13334-3.3334-0.20001-5-0.2-1.6667-0.000009-3.3 0.06666-4.9 0.2 0.13328-5.6 0.19995-11.167 0.2-16.7-0.00005-5.5333-0.0667-11.067-0.2-16.6 1.6666 0.13336 3.3 0.20002 4.9 0.2 1.6666 0.000024 3.3333-0.06664 5-0.2-0.13339 5.5334-0.20006 11.067-0.2 16.6-0.00006 5.6 0.0666 11.167 0.2 16.7m-2-31.2c-1.0001 0.000022-2.0001 0.000022-3 0-0.93339 0.000022-1.9 0.000022-2.9 0 0.0666 4 0.0999 7.9 0.1 11.7h5.7c-0.00006-3.8 0.0333-7.7 0.1-11.7m-0.1 15.5v-2h-5.7v2h5.7m0.1 13.6c-0.0667-4.2667-0.10006-8.1667-0.1-11.7h-5.7c-0.00005 3.6667-0.0334 7.5667-0.1 11.7 0.99995-0.06667 1.9666-0.10001 2.9-0.1 0.99994-0.000007 1.9999 0.03333 3 0.1m2-38.8c-1.6667-0.1333-3.3334-0.19997-5-0.2-1.6667 0.000032-3.3 0.0667-4.9 0.2 0.13328-5.6 0.19995-11.167 0.2-16.7-0.00005-5.5333-0.0667-11.067-0.2-16.6 1.6666 0.1334 3.3 0.20006 4.9 0.2 1.6666 0.000065 3.3333-0.0666 5-0.2-0.13339 5.5334-0.20006 11.067-0.2 16.6-0.00006 5.6 0.0666 11.167 0.2 16.7m-2-31.2c-1.0001 0.000063-2.0001 0.000063-3 0-0.93339 0.000063-1.9 0.000063-2.9 0 0.0666 4.0001 0.0999 7.9001 0.1 11.7h5.7c-0.00006-3.7999 0.0333-7.6999 0.1-11.7m-0.1 15.5v-2h-5.7v2h5.7m0.1 13.6c-0.0667-4.2666-0.10006-8.1666-0.1-11.7h-5.7c-0.00005 3.6667-0.0334 7.5667-0.1 11.7 0.99995-0.06663 1.9666-0.09997 2.9-0.1 0.99994 0.000034 1.9999 0.03337 3 0.1m-37.2 43c-1.6667-0.13334-3.3334-0.20001-5-0.2-1.6667-0.000009-3.3 0.06666-4.9 0.2 0.13332-5.6 0.19999-11.167 0.2-16.7-0.00001-5.5333-0.0667-11.067-0.2-16.6 1.6666 0.13336 3.3 0.20002 4.9 0.2 1.6666 0.000024 3.3333-0.06664 5-0.2-0.13335 5.5334-0.20002 11.067-0.2 16.6-0.00002 5.6 0.0666 11.167 0.2 16.7m-2-31.2c-1 0.000022-2 0.000022-3 0-0.93335 0.000022-1.9 0.000022-2.9 0 0.0667 4 0.1 7.9 0.1 11.7h5.7c-0.00002-3.8 0.0333-7.7 0.1-11.7m-0.1 15.5v-2h-5.7v2h5.7m0.1 13.6c-0.0667-4.2667-0.10002-8.1667-0.1-11.7h-5.7c-0.00001 3.6667-0.0333 7.5667-0.1 11.7 0.99999-0.06667 1.9666-0.10001 2.9-0.1 0.99998-0.000007 2 0.03333 3 0.1m2-38.8c-1.6667-0.1333-3.3334-0.19997-5-0.2-1.6667 0.000032-3.3 0.0667-4.9 0.2 0.13332-5.6 0.19999-11.167 0.2-16.7-0.00001-5.5333-0.0667-11.067-0.2-16.6 1.6666 0.1334 3.3 0.20006 4.9 0.2 1.6666 0.000065 3.3333-0.0666 5-0.2-0.13335 5.5334-0.20002 11.067-0.2 16.6-0.00002 5.6 0.0666 11.167 0.2 16.7m-2-31.2c-1 0.000063-2 0.000063-3 0-0.93335 0.000063-1.9 0.000063-2.9 0 0.0667 4.0001 0.1 7.9001 0.1 11.7h5.7c-0.00002-3.7999 0.0333-7.6999 0.1-11.7m-0.1 15.5v-2h-5.7v2h5.7m0.1 13.6c-0.0667-4.2666-0.10002-8.1666-0.1-11.7h-5.7c-0.00001 3.6667-0.0333 7.5667-0.1 11.7 0.99999-0.06663 1.9666-0.09997 2.9-0.1 0.99998 0.000034 2 0.03337 3 0.1" fill="#006c00"/>
		</g>
	</g>
</svg>
