<?xml version="1.0" ?>
<svg xmlns="http://www.w3.org/2000/svg" shape-rendering="geometricPrecision" height="95" width="75" version="1.1">
	<rect width="100%" fill="#fff" height="100%"/>
	<g transform="translate(-562.83 -478.74)"/>
	<g transform="translate(-650.71 -477.98)">
		<g fill="#9c0000" transform="translate(540.22 517.98)">
			<path d="m152.79 24.206c-1.6667-0.13332-3.3334-0.19999-5-0.2-1.6667 0.000012-3.3 0.06668-4.9 0.2 0.1333-5.6 0.19997-11.167 0.2-16.7-0.00003-5.5333-0.0667-11.067-0.2-16.6 1.6666 0.13338 3.3 0.20004 4.9 0.2 1.6666 0.0000449 3.3333-0.066622 5-0.2-0.13338 5.5334-0.20004 11.067-0.2 16.6-0.00004 5.6 0.0666 11.167 0.2 16.7m-2-31.2c-1 0.000043-2 0.000043-3 0-0.93337 0.000043-1.9 0.000043-2.9 0 0.0666 4 0.1 7.9 0.1 11.7h5.7c-0.00004-3.8 0.0333-7.7 0.1-11.7m-0.1 15.5v-2h-5.7v2h5.7m0.1 13.6c-0.0667-4.2666-0.10004-8.1666-0.1-11.7h-5.7c-0.00003 3.6667-0.0334 7.5667-0.1 11.7 0.99997-0.06665 1.9666-0.09999 2.9-0.1 0.99996 0.000014 2 0.03335 3 0.1" fill="#9c0000"/>
		</g>
	</g>
	<g transform="translate(-747.69 -478.74)">
		<path d="m809.59 563.39c-1.6667-0.13334-3.3334-0.20001-5-0.2-1.6667-0.00001-3.3 0.0667-4.9 0.2 0.13328-5.6 0.19995-11.167 0.2-16.7-0.00005-5.5333-0.0667-11.067-0.2-16.6 1.6666 0.13336 3.2999 0.20002 4.9 0.2 1.6666 0.00002 3.3333-0.0666 5-0.2-0.1334 5.5334-0.20006 11.067-0.2 16.6-0.00006 5.6 0.0666 11.167 0.2 16.7m-2-31.2c-1.0001 0.00002-2.0001 0.00002-3 0-0.93339 0.00002-1.9001 0.00002-2.9 0 0.0666 4 0.0999 7.9 0.1 11.7h5.7c-0.00006-3.8 0.0333-7.7 0.1-11.7m-0.1 15.5v-2h-5.7v2h5.7m0.1 13.6c-0.0667-4.2667-0.10006-8.1667-0.1-11.7h-5.7c-0.00005 3.6667-0.0334 7.5667-0.1 11.7 0.99994-0.0667 1.9666-0.10001 2.9-0.1 0.99994-0.00001 1.9999 0.0333 3 0.1m2-38.8c-1.6667-0.1333-3.3334-0.19997-5-0.2-1.6667 0.00003-3.3 0.0667-4.9 0.2 0.13328-5.6 0.19995-11.167 0.2-16.7-0.00005-5.5333-0.0667-11.067-0.2-16.6 1.6666 0.1334 3.2999 0.20006 4.9 0.2 1.6666 0.00006 3.3333-0.0666 5-0.2-0.1334 5.5334-0.20006 11.067-0.2 16.6-0.00006 5.6 0.0666 11.167 0.2 16.7m-2-31.2c-1.0001 0.00006-2.0001 0.00006-3 0-0.93339 0.00006-1.9001 0.00006-2.9 0 0.0666 4.0001 0.0999 7.9 0.1 11.7h5.7c-0.00006-3.8 0.0333-7.6999 0.1-11.7m-0.1 15.5v-2h-5.7v2h5.7m0.1 13.6c-0.0667-4.2666-0.10006-8.1666-0.1-11.7h-5.7c-0.00005 3.6667-0.0334 7.5667-0.1 11.7 0.99994-0.0666 1.9666-0.1 2.9-0.1 0.99994 0.00003 1.9999 0.0334 3 0.1m-37.2 43c-1.6667-0.13334-3.3334-0.20001-5-0.2-1.6667-0.00001-3.3 0.0667-4.9 0.2 0.13332-5.6 0.19999-11.167 0.2-16.7-0.00001-5.5333-0.0667-11.067-0.2-16.6 1.6666 0.13336 3.3 0.20002 4.9 0.2 1.6666 0.00002 3.3333-0.0666 5-0.2-0.13336 5.5334-0.20002 11.067-0.2 16.6-0.00002 5.6 0.0666 11.167 0.2 16.7m-2-31.2c-1 0.00002-2 0.00002-3 0-0.93335 0.00002-1.9 0.00002-2.9 0 0.0667 4 0.1 7.9 0.1 11.7h5.7c-0.00002-3.8 0.0333-7.7 0.1-11.7m-0.1 15.5v-2h-5.7v2h5.7m0.1 13.6c-0.0667-4.2667-0.10002-8.1667-0.1-11.7h-5.7c-0.00002 3.6667-0.0334 7.5667-0.1 11.7 0.99998-0.0667 1.9666-0.10001 2.9-0.1 0.99998-0.00001 2 0.0333 3 0.1m2-38.8c-1.6667-0.1333-3.3334-0.19997-5-0.2-1.6667 0.00003-3.3 0.0667-4.9 0.2 0.13332-5.6 0.19999-11.167 0.2-16.7-0.00001-5.5333-0.0667-11.067-0.2-16.6 1.6666 0.1334 3.3 0.20006 4.9 0.2 1.6666 0.00006 3.3333-0.0666 5-0.2-0.13336 5.5334-0.20002 11.067-0.2 16.6-0.00002 5.6 0.0666 11.167 0.2 16.7m-2-31.2c-1 0.00006-2 0.00006-3 0-0.93335 0.00006-1.9 0.00006-2.9 0 0.0667 4.0001 0.1 7.9 0.1 11.7h5.7c-0.00002-3.8 0.0333-7.6999 0.1-11.7m-0.1 15.5v-2h-5.7v2h5.7m0.1 13.6c-0.0667-4.2666-0.10002-8.1666-0.1-11.7h-5.7c-0.00002 3.6667-0.0334 7.5667-0.1 11.7 0.99998-0.0666 1.9666-0.1 2.9-0.1 0.99998 0.00003 2 0.0334 3 0.1" fill="#006c00"/>
	</g>
</svg>
