<?xml version="1.0" encoding="UTF-8" standalone="no"?>
<svg xmlns="http://www.w3.org/2000/svg" shape-rendering="geometricPrecision" height="95" width="75" version="1.1"><rect width="100%" fill="#fff" height="100%"/><g transform="translate(-783.17 -460.47)"><g transform="translate(747.69 478.74)"><path d="m97.333 66.374c-1.6667-0.13334-3.3334-0.20001-5-0.2-1.6667-0.000009-3.3001 0.06666-4.9 0.2 0.13328-5.6 0.19994-11.167 0.2-16.7-0.000055-5.5333-0.06672-11.067-0.2-16.6 1.6666 0.13336 3.2999 0.20002 4.9 0.2 1.6666 0.000024 3.3333-0.06664 5-0.2-0.1334 5.5334-0.20006 11.067-0.2 16.6-0.000064 5.6 0.0666 11.167 0.2 16.7m-2-31.2c-1.0001 0.000022-2.0001 0.000022-3 0-0.93339 0.000022-1.9001 0.000022-2.9 0 0.06661 4 0.09994 7.9 0.1 11.7h5.7c-0.000062-3.8 0.03327-7.7 0.1-11.7m-0.1 15.5v-2h-5.7v2h5.7m0.1 13.6c-0.06673-4.2667-0.10006-8.1667-0.1-11.7h-5.7c-0.000057 3.6667-0.03339 7.5667-0.1 11.7 0.99994-0.06667 1.9666-0.10001 2.9-0.1 0.99994-0.000007 1.9999 0.03333 3 0.1m2-38.8c-1.6667-0.1333-3.3334-0.19997-5-0.2-1.6667 0.000032-3.3001 0.0667-4.9 0.2 0.13328-5.6 0.19994-11.167 0.2-16.7-0.000055-5.5333-0.06672-11.067-0.2-16.6 1.6666 0.1334 3.2999 0.20007 4.9 0.2 1.6666 0.0000653 3.3333-0.066601 5-0.2-0.1334 5.5334-0.20006 11.067-0.2 16.6-0.000064 5.6 0.0666 11.167 0.2 16.7m-2-31.2c-1.0001 0.0000634-2.0001 0.0000634-3 0-0.93339 0.0000634-1.9001 0.0000634-2.9 0 0.06661 4.0001 0.09994 7.9001 0.1 11.7h5.7c-0.000062-3.7999 0.03327-7.6999 0.1-11.7m-0.1 15.5v-2h-5.7v2h5.7m0.1 13.6c-0.06673-4.2666-0.10006-8.1666-0.1-11.7h-5.7c-0.000057 3.6667-0.03339 7.5667-0.1 11.7 0.99994-0.06663 1.9666-0.09997 2.9-0.1 0.99994 0.000034 1.9999 0.03337 3 0.1m-37.1 43c-1.6667-0.13334-3.3334-0.20001-5-0.2-1.6667-0.000009-3.3 0.06666-4.9 0.2 0.13332-5.6 0.19998-11.167 0.2-16.7-0.000016-5.5333-0.06668-11.067-0.2-16.6 1.6666 0.13336 3.3 0.20002 4.9 0.2 1.6666 0.000024 3.3333-0.06664 5-0.2-0.13336 5.5334-0.20002 11.067-0.2 16.6-0.000025 5.6 0.06664 11.167 0.2 16.7m-2-31.2c-1 0.000022-2 0.000022-3 0-0.93335 0.000022-1.9 0.000022-2.9 0 0.06665 4 0.09998 7.9 0.1 11.7h5.7c-0.000023-3.8 0.03331-7.7 0.1-11.7m-0.1 15.5v-2h-5.7v2h5.7m0.1 13.6c-0.06669-4.2667-0.10002-8.1667-0.1-11.7h-5.7c-0.000018 3.6667-0.03335 7.5667-0.1 11.7 0.99998-0.06667 1.9666-0.10001 2.9-0.1 0.99998-0.000007 2 0.03333 3 0.1m2-38.8c-1.6667-0.1333-3.3334-0.19997-5-0.2-1.6667 0.000032-3.3 0.0667-4.9 0.2 0.13332-5.6 0.19998-11.167 0.2-16.7-0.000016-5.5333-0.06668-11.067-0.2-16.6 1.6666 0.1334 3.3 0.20007 4.9 0.2 1.6666 0.0000653 3.3333-0.066601 5-0.2-0.13336 5.5334-0.20002 11.067-0.2 16.6-0.000025 5.6 0.06664 11.167 0.2 16.7m-2-31.2c-1 0.0000634-2 0.0000634-3 0-0.93335 0.0000634-1.9 0.0000634-2.9 0 0.06665 4.0001 0.09998 7.9001 0.1 11.7h5.7c-0.000023-3.7999 0.03331-7.6999 0.1-11.7m-0.1 15.5v-2h-5.7v2h5.7m0.1 13.6c-0.06669-4.2666-0.10002-8.1666-0.1-11.7h-5.7c-0.000018 3.6667-0.03335 7.5667-0.1 11.7 0.99998-0.06663 1.9666-0.09997 2.9-0.1 0.99998 0.000034 2 0.03337 3 0.1m21.6 43c-1.6667-0.13334-3.3334-0.20001-5-0.2-1.6667-0.000009-3.3 0.06666-4.9 0.2 0.1333-5.6 0.19996-11.167 0.2-16.7-0.000035-5.5333-0.0667-11.067-0.2-16.6 1.6666 0.13336 3.3 0.20002 4.9 0.2 1.6666 0.000024 3.3333-0.06664 5-0.2-0.13338 5.5334-0.20004 11.067-0.2 16.6-0.000045 5.6 0.06662 11.167 0.2 16.7m-2-31.2c-1 0.000022-2 0.000022-3 0-0.93337 0.000022-1.9 0.000022-2.9 0 0.06663 4 0.09996 7.9 0.1 11.7h5.7c-0.000043-3.8 0.03329-7.7 0.1-11.7m-0.1 15.5v-2h-5.7v2h5.7m0.1 13.6c-0.06671-4.2667-0.10004-8.1667-0.1-11.7h-5.7c-0.000037 3.6667-0.03337 7.5667-0.1 11.7 0.99996-0.06667 1.9666-0.10001 2.9-0.1 0.99996-0.000007 2 0.03333 3 0.1m2-38.8c-1.6667-0.1333-3.3334-0.19997-5-0.2-1.6667 0.000032-3.3 0.0667-4.9 0.2 0.1333-5.6 0.19996-11.167 0.2-16.7-0.000035-5.5333-0.0667-11.067-0.2-16.6 1.6666 0.1334 3.3 0.20007 4.9 0.2 1.6666 0.0000653 3.3333-0.066601 5-0.2-0.13338 5.5334-0.20004 11.067-0.2 16.6-0.000045 5.6 0.06662 11.167 0.2 16.7m-2-31.2c-1 0.0000634-2 0.0000634-3 0-0.93337 0.0000634-1.9 0.0000634-2.9 0 0.06663 4.0001 0.09996 7.9001 0.1 11.7h5.7c-0.000043-3.7999 0.03329-7.6999 0.1-11.7m-0.1 15.5v-2h-5.7v2h5.7m0.1 13.6c-0.06671-4.2666-0.10004-8.1666-0.1-11.7h-5.7c-0.000037 3.6667-0.03337 7.5667-0.1 11.7 0.99996-0.06663 1.9666-0.09997 2.9-0.1 0.99996 0.000034 2 0.03337 3 0.1" fill="#006c00"/></g></g></svg>
