<?xml version="1.0" encoding="UTF-8" standalone="no"?>
<svg xmlns="http://www.w3.org/2000/svg" shape-rendering="geometricPrecision" height="95" width="75" version="1.1"><rect width="100%" fill="#fff" height="100%"/><g transform="translate(-699.2 -459.11)"><path d="m741.5 490.01c-1.6667-0.13329-3.3334-0.19995-5-0.2-1.6667 0.00005-3.3334 0.0667-5 0.2 0.1333-4.2 0.19996-8.4 0.2-12.6-0.00004-4.1999-0.0667-8.3999-0.2-12.6 1.6666 0.1334 3.3333 0.20007 5 0.2 1.6666 0.00007 3.3333-0.0666 5-0.2-0.13338 4.2001-0.20005 8.4001-0.2 12.6-0.00005 4.2 0.0666 8.4 0.2 12.6m-2-23.1c-1 0.00007-2 0.00007-3 0h-3c0.0666 1.6667 0.1333 4.2334 0.2 7.7h5.6c-0.00004-0.46661 0.0666-3.0333 0.2-7.7m-0.2 11.5v-2h-5.6v2h5.6m0.2 9.5c-0.13338-4.4666-0.20004-7.0333-0.2-7.7h-5.6c-0.00004 0.40005-0.0667 2.9667-0.2 7.7 0.99996-0.0666 2-0.0999 3-0.1l3 0.1" fill="#9c0000"/><path d="m760.85 548.26c-1.6667-0.13335-3.3334-0.20001-5-0.2-1.6667-0.00001-3.3334 0.0666-5 0.2 0.13328-4.2 0.19994-8.4 0.2-12.6-0.00006-4.2-0.0667-8.4-0.2-12.6 1.6666 0.13335 3.3333 0.20001 5 0.2 1.6666 0.00001 3.3333-0.0666 5-0.2-0.1334 4.2-0.20006 8.4-0.2 12.6-0.00006 4.2 0.0666 8.4 0.2 12.6m-2-23.1c-1.0001 0.00001-2.0001 0.00001-3 0h-3c0.0666 1.6667 0.13328 4.2333 0.2 7.7h5.6c-0.00006-0.46666 0.0666-3.0333 0.2-7.7m-0.2 11.5v-2h-5.6v2h5.6m0.2 9.5c-0.1334-4.4667-0.20006-7.0333-0.2-7.7h-5.6c-0.00006 0.4-0.0667 2.9667-0.2 7.7 0.99994-0.0667 1.9999-0.10001 3-0.1l3 0.1m2-27.1c-1.6667-0.13332-3.3334-0.19998-5-0.2-1.6667 0.00002-3.3334 0.0667-5 0.2 0.13328-4.2 0.19994-8.4 0.2-12.6-0.00006-4.2-0.0667-8.4-0.2-12.6 1.6666 0.13337 3.3333 0.20004 5 0.2 1.6666 0.00004 3.3333-0.0666 5-0.2-0.1334 4.2-0.20006 8.4-0.2 12.6-0.00006 4.2 0.0666 8.4 0.2 12.6m-2-23.1c-1.0001 0.00004-2.0001 0.00004-3 0h-3c0.0666 1.6667 0.13328 4.2334 0.2 7.7h5.6c-0.00006-0.46663 0.0666-3.0333 0.2-7.7m-0.2 11.5v-2h-5.6v2h5.6m0.2 9.5c-0.1334-4.4666-0.20006-7.0333-0.2-7.7h-5.6c-0.00006 0.40003-0.0667 2.9667-0.2 7.7 0.99994-0.0666 1.9999-0.1 3-0.1l3 0.1m-37.1 31.3c-1.6667-0.13335-3.3334-0.20001-5-0.2-1.6667-0.00001-3.3334 0.0666-5 0.2 0.13332-4.2 0.19998-8.4 0.2-12.6-0.00002-4.2-0.0667-8.4-0.2-12.6 1.6666 0.13335 3.3333 0.20001 5 0.2 1.6666 0.00001 3.3333-0.0666 5-0.2-0.13336 4.2-0.20003 8.4-0.2 12.6-0.00003 4.2 0.0666 8.4 0.2 12.6m-2-23.1c-1 0.00001-2 0.00001-3 0h-3c0.0667 1.6667 0.13332 4.2333 0.2 7.7h5.6c-0.00002-0.46666 0.0666-3.0333 0.2-7.7m-0.2 11.5v-2h-5.6v2h5.6m0.2 9.5c-0.13336-4.4667-0.20002-7.0333-0.2-7.7h-5.6c-0.00002 0.4-0.0667 2.9667-0.2 7.7 0.99998-0.0667 2-0.10001 3-0.1l3 0.1m2-27.1c-1.6667-0.13332-3.3334-0.19998-5-0.2-1.6667 0.00002-3.3334 0.0667-5 0.2 0.13332-4.2 0.19998-8.4 0.2-12.6-0.00002-4.2-0.0667-8.4-0.2-12.6 1.6666 0.13337 3.3333 0.20004 5 0.2 1.6666 0.00004 3.3333-0.0666 5-0.2-0.13336 4.2-0.20003 8.4-0.2 12.6-0.00003 4.2 0.0666 8.4 0.2 12.6m-2-23.1c-1 0.00004-2 0.00004-3 0h-3c0.0667 1.6667 0.13332 4.2334 0.2 7.7h5.6c-0.00002-0.46663 0.0666-3.0333 0.2-7.7m-0.2 11.5v-2h-5.6v2h5.6m0.2 9.5c-0.13336-4.4666-0.20002-7.0333-0.2-7.7h-5.6c-0.00002 0.40003-0.0667 2.9667-0.2 7.7 0.99998-0.0666 2-0.1 3-0.1l3 0.1m21.5 31.3c-1.6667-0.13335-3.3334-0.20001-5-0.2-1.6667-0.00001-3.3334 0.0666-5 0.2 0.1333-4.2 0.19996-8.4 0.2-12.6-0.00004-4.2-0.0667-8.4-0.2-12.6 1.6666 0.13335 3.3333 0.20001 5 0.2 1.6666 0.00001 3.3333-0.0666 5-0.2-0.13338 4.2-0.20005 8.4-0.2 12.6-0.00005 4.2 0.0666 8.4 0.2 12.6m-2-23.1c-1 0.00001-2 0.00001-3 0h-3c0.0666 1.6667 0.1333 4.2333 0.2 7.7h5.6c-0.00004-0.46666 0.0666-3.0333 0.2-7.7m-0.2 11.5v-2h-5.6v2h5.6m0.2 9.5c-0.13338-4.4667-0.20004-7.0333-0.2-7.7h-5.6c-0.00004 0.4-0.0667 2.9667-0.2 7.7 0.99996-0.0667 2-0.10001 3-0.1l3 0.1m2-27.1c-1.6667-0.13332-3.3334-0.19998-5-0.2-1.6667 0.00002-3.3334 0.0667-5 0.2 0.1333-4.2 0.19996-8.4 0.2-12.6-0.00004-4.2-0.0667-8.4-0.2-12.6 1.6666 0.13337 3.3333 0.20004 5 0.2 1.6666 0.00004 3.3333-0.0666 5-0.2-0.13338 4.2-0.20005 8.4-0.2 12.6-0.00005 4.2 0.0666 8.4 0.2 12.6m-2-23.1c-1 0.00004-2 0.00004-3 0h-3c0.0666 1.6667 0.1333 4.2334 0.2 7.7h5.6c-0.00004-0.46663 0.0666-3.0333 0.2-7.7m-0.2 11.5v-2h-5.6v2h5.6m0.2 9.5c-0.13338-4.4666-0.20004-7.0333-0.2-7.7h-5.6c-0.00004 0.40003-0.0667 2.9667-0.2 7.7 0.99996-0.0666 2-0.1 3-0.1l3 0.1" fill="#006c00"/></g></svg>
