<?xml version="1.0" ?>
<svg xmlns="http://www.w3.org/2000/svg" shape-rendering="geometricPrecision" height="95" width="75" version="1.1">
	<rect width="100%" fill="#fff" height="100%"/>
	<g transform="translate(-761.45 -446.14)">
		<g fill="#006c00" transform="translate(597.68 464.87)">
			<path d="m225.67 25.019c-1.6667-0.1333-3.3334-0.19997-5-0.2-1.6667 0.000032-3.3334 0.0667-5 0.2v-0.8l-0.8 0.6-13.8-19.9-13.7 19.9-0.8-0.6v0.8c-1.6667-0.1333-3.3334-0.19997-5-0.2-1.6667 0.000032-3.3334 0.0667-5 0.2 0.13332-5.6 0.19999-11.167 0.2-16.7-0.00001-5.5333-0.0667-11.067-0.2-16.6 1.6666 0.1334 3.3333 0.20007 5 0.2 1.6666 0.0000653 3.3333-0.066601 5-0.2-0.13336 5.7334-0.20002 11.567-0.2 17.5l11.9-17.4c0.86663 0.7334 1.8 1.4667 2.8 2.2 1.0666-0.73327 2.0333-1.4666 2.9-2.2l11.9 17.4c-0.00005-6.1333-0.0667-11.967-0.2-17.5 1.6666 0.1334 3.3333 0.20007 5 0.2 1.6666 0.0000653 3.3333-0.066601 5-0.2-0.1334 5.5334-0.20006 11.067-0.2 16.6-0.00006 5.5334 0.0666 11.1 0.2 16.7m0 40.9c-1.6667-0.13334-3.3334-0.20001-5-0.2-1.6667-0.000009-3.3334 0.06666-5 0.2 0.13328-5.8 0.19995-11.633 0.2-17.5l-11.9 17.3-2.9-2.2-2.8 2.2-11.9-17.3c-0.00002 6.0667 0.0666 11.9 0.2 17.5-1.6667-0.13334-3.3334-0.20001-5-0.2-1.6667-0.000009-3.3334 0.06666-5 0.2 0.13332-5.5333 0.19999-11.067 0.2-16.6-0.00001-5.6-0.0667-11.167-0.2-16.7 1.6666 0.13336 3.3333 0.20002 5 0.2 1.6666 0.000024 3.3333-0.06664 5-0.2v0.8l0.8-0.7 13.7 20c4.6-6.3333 9.2-13 13.8-20l0.8 0.7v-0.8c1.6666 0.13336 3.3333 0.20002 5 0.2 1.6666 0.000024 3.3333-0.06664 5-0.2-0.1334 5.5334-0.20006 11.1-0.2 16.7-0.00006 5.5333 0.0666 11.067 0.2 16.6m-2-72.1c-1.0001 0.0000634-2.0001 0.0000634-3 0h-3c0.0666 4.0001 0.0999 7.9001 0.1 11.7h5.7c-0.00006-3.7999 0.0666-7.6999 0.2-11.7m-0.2 15.5v-2h-5.7v2h5.7m-18.8-12.8-1.2-1.8-0.6 0.5 1.8 1.3m19 26.4c-0.1334-4.1333-0.20006-8.0333-0.2-11.7h-5.7c-0.00006 3-0.0334 6.9-0.1 11.7 0.99994-0.06663 1.9999-0.09997 3-0.1l3 0.1m-13.6-18.5-4.2-6.1-3.6 4.9 3.2 4.4 4.6-3.2m2.2 3.1-1.1-1.6-4.6 3.3 1.1 1.6 4.6-3.3m3.6 5-2.5-3.5-4.6 3.3 6.6 9.6 0.3-0.2 0.2-9.2m-12.3-14.4c-1.6667-1.0666-3.2667-2.1999-4.8-3.4l-6.6 9.7 4.6 3.2 6.8-9.5m-7.9 11.1-4.6-3.3-1.1 1.6 4.6 3.3 1.1-1.6m-11.1-15.4c-1 0.0000634-2 0.0000634-3 0h-3c0.13332 4.0001 0.19999 7.9001 0.2 11.7h5.6c-0.00002-3.7999 0.0666-7.6999 0.2-11.7m39.1 40.9c-1.0001 0.06669-2.0001 0.10002-3 0.1l-3-0.1c0.0666 4.2667 0.0999 8.1667 0.1 11.7h5.7c-0.00006-3.7333 0.0666-7.6333 0.2-11.7m-30.2-22.4-4.6-3.3-2.5 3.5c-0.00002 1.2667 0.0333 4.3334 0.1 9.2l0.4 0.2 6.6-9.6m-9.1-3v-2h-5.6v2h5.6m39.1 40.9v-1.9h-5.7v1.9h5.7m-7.6-5.2c-0.00005-1.2667-0.0667-4.3-0.2-9.1l-0.3-0.3-6.6 9.7 4.6 3.3 2.5-3.6m-31.3-22.1c-0.13335-4.2666-0.20002-8.1666-0.2-11.7h-5.6c-0.00001 3.6667-0.0667 7.5667-0.2 11.7 0.99998-0.06663 2-0.09997 3-0.1l3 0.1m39.1 40.9c-0.1334-4.0667-0.20006-7.9667-0.2-11.7h-5.7c-0.00006 3.7333-0.0334 7.6333-0.1 11.7 0.99994-0.06667 1.9999-0.10001 3-0.1l3 0.1m-11.4-13.7-4.6-3.3-1.1 1.6 4.6 3.3 1.1-1.6m-2.2 3.1-4.6-3.3-6.8 9.5c1.6666 1.1333 3.2666 2.3 4.8 3.5l6.6-9.7m-16.6-7.9-6.6-9.7-0.4 0.3-0.1 9.1 2.5 3.6 4.6-3.3m2.2 3.1-1.1-1.6-4.6 3.3 1.1 1.6 4.6-3.3m4.3 6-3.2-4.5-4.6 3.3 4.2 6.1 3.6-4.9m-15.4-19.7c-1 0.06669-2 0.10002-3 0.1l-3-0.1c0.13332 4.0667 0.19999 7.9667 0.2 11.7h5.6c-0.00002-3 0.0666-6.9 0.2-11.7m14.8 27.6c-0.53337-0.4-1.1334-0.8-1.8-1.2l1.2 1.8 0.6-0.6m-15-12.1v-1.9h-5.6v1.9h5.6m0.2 13.6c-0.13335-4.0667-0.20002-7.9667-0.2-11.7h-5.6c-0.00001 3.7333-0.0667 7.6333-0.2 11.7 0.99998-0.06667 2-0.10001 3-0.1l3 0.1" fill="#006c00"/>
		</g>
	</g>
</svg>
