<?xml version="1.0" ?>
<svg xmlns="http://www.w3.org/2000/svg" shape-rendering="geometricPrecision" height="95" width="75" version="1.1">
	<rect width="100%" fill="#fff" height="100%"/>
	<g transform="translate(-829.39 -411.35)">
		<path d="m893.89 458.85c-0.00007 7.7334-2.6667 14.2-8 19.4-5.2667 5.2-11.667 7.8-19.2 7.8-7.6 0-14.033-2.6333-19.3-7.9-5.2-5.3333-7.8-11.767-7.8-19.3-0.00002-7.5333 2.6333-13.933 7.9-19.2 5.2666-5.2666 11.667-7.9 19.2-7.9 7.7333 0.00005 14.2 2.6667 19.4 8 5.1999 5.2667 7.7999 11.633 7.8 19.1m-2 0c-0.00007-7.0666-2.4667-13.033-7.4-17.9-4.8667-4.8666-10.8-7.3-17.8-7.3-7 0.00005-12.933 2.4667-17.8 7.4-4.8667 4.8667-7.3 10.8-7.3 17.8-0.00002 7.1334 2.4333 13.133 7.3 18 4.9333 4.8 10.867 7.2 17.8 7.2 7.1333 0 13.1-2.4333 17.9-7.3 4.8666-4.9333 7.2999-10.9 7.3-17.9m-25.2-22.2c6.4 0.00005 11.7 2.2 15.9 6.6 4.2666 4.3334 6.3999 9.5334 6.4 15.6-0.00007 6.3334-2.1667 11.633-6.5 15.9-4.3334 4.2667-9.6 6.4-15.8 6.4-6.2667 0.00001-11.533-2.1667-15.8-6.5-4.2667-4.4-6.4-9.6666-6.4-15.8-0.00002-6.3333 2.1666-11.6 6.5-15.8 4.4-4.2666 9.6333-6.4 15.7-6.4m-14.4 36.7c4 3.8667 8.8 5.8 14.4 5.8 5.6 0.00001 10.4-1.9333 14.4-5.8 3.9999-3.9333 5.9999-8.7666 6-14.5-0.00006-5.6-2.0001-10.367-6-14.3-3.9334-4-8.7334-6-14.4-6-5.7334 0.00005-10.567 2-14.5 6-3.8667 3.9334-5.8 8.7-5.8 14.3-0.00002 5.7334 1.9666 10.567 5.9 14.5" fill="#10106c"/>
		<path d="m862.59 454.75c1.1333-1.1333 2.5-1.7 4.1-1.7 1.6 0.00003 2.9666 0.5667 4.1 1.7 1.2 1.0667 1.8 2.4334 1.8 4.1-0.00005 1.7334-0.56672 3.1667-1.7 4.3-1.1334 1.0667-2.5334 1.6-4.2 1.6-1.6667 0.00002-3.0667-0.56664-4.2-1.7-1.0667-1.2-1.6-2.6-1.6-4.2-0.00004-1.6666 0.56663-3.0333 1.7-4.1m4.1 8c1.1333 0.00002 2.0666-0.36664 2.8-1.1 0.79995-0.79997 1.2-1.7333 1.2-2.8-0.00005-1.0666-0.40005-1.9666-1.2-2.7-0.73338-0.79997-1.6667-1.2-2.8-1.2-1.1334 0.00003-2.0667 0.40003-2.8 1.2-0.73337 0.73336-1.1 1.6334-1.1 2.7-0.00004 1.1334 0.36663 2.0667 1.1 2.8 0.79996 0.73336 1.7333 1.1 2.8 1.1" fill="#10106c"/>
		<path d="m880.19 453.35c1.6666 0.00003 3.0333 0.53337 4.1 1.6 1.0666 1.0667 1.5999 2.4334 1.6 4.1-0.00006 1.6-0.5334 2.9-1.6 3.9-1.0001 1-2.3667 1.5-4.1 1.5h-3.8c1.7999 3.1334 2.6999 5.2 2.7 6.2-0.00006 1.5334-0.56672 2.8667-1.7 4-1.0667 1.1333-2.4334 1.7-4.1 1.7-0.46672 0.00001-0.93338-0.0333-1.4-0.1-0.40005-0.13332-0.80005-0.33332-1.2-0.6-0.33338-0.33332-0.63338-0.59999-0.9-0.8-0.26671-0.26665-0.56671-0.63332-0.9-1.1-0.33338-0.53332-0.60005-0.93332-0.8-1.2-0.13338-0.26665-0.36671-0.69999-0.7-1.3-0.33338-0.59998-0.56671-0.99998-0.7-1.2-1.6 2.9334-2.8334 4.7-3.7 5.3-0.80004 0.60001-1.7667 0.90001-2.9 0.9-1.6 0.00001-2.9667-0.53332-4.1-1.6-1.1334-1.0666-1.7-2.3333-1.7-3.8-0.00003-1.0666 0.9333-3.2 2.8-6.4h-3.8c-1.6667 0.00002-3.0334-0.53331-4.1-1.6-1.0667-1.1333-1.6-2.5-1.6-4.1-0.00002-1.6666 0.49997-2.9666 1.5-3.9 1.0666-0.99997 2.4666-1.5 4.2-1.5h3.8c-1.8-3.1333-2.7-5.2333-2.7-6.3-0.00003-1.5333 0.5333-2.8333 1.6-3.9 1.1333-1.1333 2.5333-1.7 4.2-1.7 0.59996 0.00005 1.1333 0.10005 1.6 0.3 0.53329 0.20005 0.93329 0.40005 1.2 0.6 0.33329 0.20005 0.69996 0.60004 1.1 1.2 0.46662 0.60004 0.76662 1 0.9 1.2 0.13329 0.20004 0.43329 0.73337 0.9 1.6 0.46662 0.80004 0.73329 1.2667 0.8 1.4 1.7333-3 3-4.8 3.8-5.4 0.79995-0.53329 1.7666-0.79995 2.9-0.8 1.6 0.00005 2.9666 0.53338 4.1 1.6 1.1333 1.0667 1.6999 2.3334 1.7 3.8-0.00006 1-0.93339 3.1334-2.8 6.4h3.8m-6.9 21c1.0666 0.00001 1.9666-0.33332 2.7-1 0.73328-0.73332 1.1-1.6333 1.1-2.7-0.00005-0.66665-0.16672-1.3-0.5-1.9l-3.6-6.3h7.2c2.4666 0.00002 3.6999-1.2 3.7-3.6-0.00006-2.4-1.2334-3.6-3.7-3.6h-7.2l3.6-6.2c0.39995-0.73329 0.59995-1.4666 0.6-2.2-0.00005-0.93329-0.36672-1.7333-1.1-2.4-0.73339-0.66662-1.6-0.99996-2.6-1-1.3334 0.00004-2.3667 0.63338-3.1 1.9l-3.7 6.3-3.6-6.3c-0.73337-1.3333-1.7-2-2.9-2-1.0667 0.00004-2 0.36671-2.8 1.1-0.73337 0.73338-1.1 1.6-1.1 2.6-0.00003 0.66671 0.19997 1.3334 0.6 2l3.6 6.2h-7.2c-2.4667 0.00003-3.7 1.2-3.7 3.6-0.00003 2.4 1.2333 3.6 3.7 3.6h7.2l-3.6 6.3c-0.4667 0.73335-0.70003 1.4334-0.7 2.1-0.00003 0.93335 0.36663 1.7334 1.1 2.4 0.79996 0.66668 1.7 1 2.7 1 1.3333 0.00001 2.3666-0.63332 3.1-1.9l3.6-6.2 3.7 6.2c0.73328 1.3334 1.7 2 2.9 2" fill="#9c0000"/>
		<g fill="#9c0000" transform="translate(817.89 349.02)">
			<path d="m50.791 109.83c-0.00005 1.3334-0.66671 2-2 2-1.2667 0.00003-1.9-0.66664-1.9-2-0.00004-1.2666 0.63329-1.9 1.9-1.9 1.3333 0.00003 2 0.63336 2 1.9" fill="#9c0000"/>
		</g>
	</g>
</svg>
