<?xml version="1.0" ?>
<svg xmlns="http://www.w3.org/2000/svg" shape-rendering="geometricPrecision" height="95" width="75" version="1.1">
	<rect width="100%" fill="#fff" height="100%"/>
	<g transform="translate(-862.34 -406.46)">
		<path d="m920.04 475.96c-0.00006 5.8-2.0001 10.633-6 14.5-3.9334 3.9333-8.7334 5.9-14.4 5.9-5.7334-0.00002-10.567-2-14.5-6-3.8667-3.9333-5.8-8.7-5.8-14.3-0.00002-5.6666 1.9666-10.467 5.9-14.4 3.9333-4 8.7333-6 14.4-6 5.8 0.00003 10.633 2 14.5 6 3.9333 3.9334 5.8999 8.7 5.9 14.3m-1.5 0c-0.00006-5.2667-1.8334-9.7333-5.5-13.4-3.6667-3.6666-8.1334-5.5-13.4-5.5-5.2667 0.00003-9.7334 1.8667-13.4 5.6-3.6 3.6667-5.4 8.1-5.4 13.3-0.00002 5.4 1.8333 9.9 5.5 13.5 3.6666 3.6 8.1 5.4 13.3 5.4 5.3333-0.00001 9.8-1.8333 13.4-5.5 3.6666-3.6667 5.4999-8.1333 5.5-13.4m-18.9-16.6c4.8 0.00002 8.7666 1.6334 11.9 4.9 3.1999 3.2667 4.7999 7.1667 4.8 11.7-0.00006 4.8-1.6334 8.8-4.9 12-3.2 3.2-7.1334 4.8-11.8 4.8-4.7334-0.00001-8.7-1.6667-11.9-5-3.2-3.2667-4.8-7.2-4.8-11.8-0.00002-4.7333 1.6333-8.6666 4.9-11.8 3.3333-3.2 7.2666-4.8 11.8-4.8m-10.8 27.5c3 2.9333 6.6 4.4 10.8 4.4 4.2-0.00001 7.8-1.4667 10.8-4.4s4.5-6.5667 4.5-10.9c-0.00005-4.2-1.5-7.7666-4.5-10.7-2.9334-3-6.5334-4.5-10.8-4.5-4.3334 0.00002-7.9667 1.5-10.9 4.5-2.8667 2.9334-4.3 6.5-4.3 10.7-0.00003 4.3333 1.4666 7.9667 4.4 10.9m20.9-15c1.2666 0.00001 2.3 0.40001 3.1 1.2 0.79995 0.80001 1.1999 1.8333 1.2 3.1-0.00006 1.2-0.40005 2.1667-1.2 2.9-0.73339 0.73334-1.7667 1.1-3.1 1.1h-2.8c1.3333 2.4 2 3.9667 2 4.7-0.00005 1.1333-0.43338 2.1333-1.3 3-0.80005 0.86666-1.8334 1.3-3.1 1.3-0.33338-0.00001-0.66671-0.0667-1-0.2-0.33338-0.0667-0.63338-0.20001-0.9-0.4-0.26671-0.20001-0.50004-0.40001-0.7-0.6-0.20004-0.20001-0.43338-0.50001-0.7-0.9-0.20004-0.33334-0.36671-0.6-0.5-0.8-0.13337-0.2-0.33337-0.53334-0.6-1-0.26671-0.4-0.43337-0.7-0.5-0.9-1.2 2.2-2.1334 3.5333-2.8 4-0.60004 0.46666-1.3334 0.69999-2.2 0.7-1.2-0.00001-2.2334-0.40001-3.1-1.2-0.80003-0.8-1.2-1.7667-1.2-2.9-0.00003-0.8 0.69997-2.4 2.1-4.8h-2.9c-1.2 0-2.2-0.4-3-1.2-0.80003-0.8-1.2-1.8-1.2-3-0.00003-1.2667 0.36664-2.2667 1.1-3 0.79997-0.73332 1.8333-1.1 3.1-1.1h2.9c-1.3334-2.3333-2-3.9-2-4.7-0.00003-1.1333 0.39997-2.1 1.2-2.9 0.79997-0.86665 1.8333-1.3 3.1-1.3 0.46663 0.00002 0.86663 0.0667 1.2 0.2 0.39996 0.13335 0.69996 0.30002 0.9 0.5 0.26663 0.13335 0.56663 0.43335 0.9 0.9 0.33329 0.40002 0.5333 0.70002 0.6 0.9 0.13329 0.13335 0.36663 0.53335 0.7 1.2 0.33329 0.60001 0.53329 0.93335 0.6 1 1.2666-2.2666 2.2-3.6 2.8-4 0.59996-0.39998 1.3333-0.59998 2.2-0.6 1.2 0.00002 2.2333 0.40002 3.1 1.2 0.86662 0.80002 1.3 1.7334 1.3 2.8-0.00005 0.73335-0.70005 2.3334-2.1 4.8h2.8m-5.2 15.8c0.79995-0.00001 1.4666-0.26667 2-0.8 0.59995-0.53334 0.89995-1.2 0.9-2-0.00005-0.53334-0.13338-1-0.4-1.4l-2.7-4.8h5.4c1.8666 0 2.8-0.9 2.8-2.7-0.00005-1.8-0.93339-2.7-2.8-2.7h-5.4l2.7-4.6c0.33328-0.53332 0.49995-1.1 0.5-1.7-0.00005-0.66665-0.30005-1.2333-0.9-1.7-0.53338-0.53332-1.1667-0.79998-1.9-0.8-1 0.00002-1.7667 0.46668-2.3 1.4l-2.8 4.7-2.7-4.7c-0.53337-0.99998-1.2667-1.5-2.2-1.5-0.80003 0.00002-1.5 0.30002-2.1 0.9-0.53337 0.53335-0.80003 1.1667-0.8 1.9-0.00003 0.46668 0.1333 0.96668 0.4 1.5l2.7 4.6h-5.4c-1.8 0.00001-2.7 0.90001-2.7 2.7-0.00003 1.8 0.89997 2.7 2.7 2.7h5.4l-2.7 4.8c-0.33337 0.53333-0.50003 1.0333-0.5 1.5-0.00003 0.73333 0.26663 1.3333 0.8 1.8 0.59997 0.53333 1.3 0.79999 2.1 0.8 0.99996-0.00001 1.7666-0.46667 2.3-1.4l2.7-4.7 2.8 4.7c0.53329 0.99999 1.2333 1.5 2.1 1.5m-8-14.7c0.86663-0.86666 1.9-1.3 3.1-1.3 1.2 0.00001 2.2333 0.43334 3.1 1.3 0.86662 0.80001 1.3 1.8 1.3 3-0.00004 1.3333-0.43338 2.4333-1.3 3.3-0.80004 0.8-1.8334 1.2-3.1 1.2-1.2667 0-2.3334-0.43333-3.2-1.3-0.80004-0.93333-1.2-2-1.2-3.2-0.00004-1.2 0.4333-2.2 1.3-3m3.1 6c0.86663 0 1.5666-0.3 2.1-0.9 0.59996-0.6 0.89996-1.3 0.9-2.1-0.00004-0.79999-0.30004-1.4667-0.9-2-0.53338-0.59999-1.2334-0.89999-2.1-0.9-0.86671 0.00001-1.5667 0.30001-2.1 0.9-0.53337 0.53334-0.80004 1.2-0.8 2-0.00004 0.86667 0.26663 1.6 0.8 2.2 0.59996 0.53334 1.3 0.8 2.1 0.8m1.5-3c-0.00004 1-0.50004 1.5-1.5 1.5-0.93337 0-1.4-0.49999-1.4-1.5-0.00004-0.93333 0.46663-1.4 1.4-1.4 0.99996 0.00001 1.5 0.46667 1.5 1.4m18.9-44c-0.00006 5.8-2.0001 10.667-6 14.6-3.9334 3.8667-8.7334 5.8-14.4 5.8-5.7334 0.00003-10.567-1.9666-14.5-5.9-3.8667-4-5.8-8.8-5.8-14.4-0.00002-5.6666 1.9666-10.467 5.9-14.4 3.9333-3.9999 8.7333-5.9999 14.4-6 5.8 0.00007 10.633 2.0001 14.5 6 3.9333 3.9334 5.8999 8.7001 5.9 14.3m-1.5 0c-0.00006-5.2666-1.8334-9.7333-5.5-13.4-3.6667-3.6666-8.1334-5.4999-13.4-5.5-5.2667 0.00007-9.7334 1.8667-13.4 5.6-3.6 3.6667-5.4 8.1001-5.4 13.3-0.00002 5.4 1.8333 9.9 5.5 13.5 3.6666 3.6 8.1 5.4 13.3 5.4 5.3333 0.00003 9.8-1.8333 13.4-5.5 3.6666-3.6666 5.4999-8.1333 5.5-13.4m-18.9-16.6c4.8 0.00007 8.7666 1.6334 11.9 4.9 3.1999 3.2667 4.7999 7.1667 4.8 11.7-0.00006 4.8-1.6334 8.8-4.9 12-3.2 3.2-7.1334 4.8-11.8 4.8-4.7334 0.00003-8.7-1.6333-11.9-4.9-3.2-3.3333-4.8-7.3-4.8-11.9-0.00002-4.7333 1.6333-8.6666 4.9-11.8 3.3333-3.1999 7.2666-4.7999 11.8-4.8m-10.8 27.5c3 2.9334 6.6 4.4 10.8 4.4 4.2 0.00003 7.8-1.4666 10.8-4.4 3-2.9333 4.5-6.5666 4.5-10.9-0.00005-4.2-1.5-7.7666-4.5-10.7-2.9334-2.9999-6.5334-4.4999-10.8-4.5-4.3334 0.00007-7.9667 1.5001-10.9 4.5-2.8667 2.9334-4.3 6.5-4.3 10.7-0.00003 4.3334 1.4666 7.9667 4.4 10.9m20.9-15c1.2666 0.00005 2.3 0.40005 3.1 1.2 0.79995 0.80005 1.1999 1.8334 1.2 3.1-0.00006 1.2-0.40005 2.1667-1.2 2.9-0.73339 0.73338-1.7667 1.1-3.1 1.1h-2.8c1.3333 2.4 2 3.9667 2 4.7-0.00005 1.1334-0.43338 2.1334-1.3 3-0.80005 0.8667-1.8334 1.3-3.1 1.3-0.33338 0.00004-0.66671-0.0333-1-0.1-0.33338-0.1333-0.63338-0.29996-0.9-0.5-0.26671-0.19996-0.50004-0.39996-0.7-0.6-0.20004-0.19996-0.43338-0.46663-0.7-0.8-0.20004-0.39996-0.36671-0.69996-0.5-0.9-0.13337-0.19996-0.33337-0.49996-0.6-0.9-0.26671-0.46663-0.43337-0.79996-0.5-1-1.2 2.2-2.1334 3.5334-2.8 4-0.60004 0.4667-1.3334 0.70004-2.2 0.7-1.2 0.00004-2.2334-0.39996-3.1-1.2-0.80003-0.79996-1.2-1.7666-1.2-2.9-0.00003-0.79996 0.69997-2.4 2.1-4.8h-2.9c-1.2 0.00005-2.2-0.39995-3-1.2-0.80003-0.79995-1.2-1.8-1.2-3-0.00003-1.2666 0.36664-2.2666 1.1-3 0.79997-0.73328 1.8333-1.1 3.1-1.1h2.9c-1.3334-2.3333-2-3.8999-2-4.7-0.00003-1.1333 0.39997-2.0999 1.2-2.9 0.79997-0.8666 1.8333-1.2999 3.1-1.3 0.46663 0.00006 0.86663 0.0667 1.2 0.2 0.39996 0.1334 0.69996 0.30006 0.9 0.5 0.26663 0.1334 0.56663 0.4334 0.9 0.9 0.33329 0.40006 0.5333 0.70006 0.6 0.9 0.13329 0.13339 0.36663 0.53339 0.7 1.2 0.33329 0.60006 0.53329 0.93339 0.6 1 1.2666-2.2666 2.2-3.5999 2.8-4 0.59996-0.39994 1.3333-0.59994 2.2-0.6 1.2 0.00006 2.2333 0.40006 3.1 1.2 0.86662 0.80006 1.3 1.7334 1.3 2.8-0.00005 0.73339-0.70005 2.3334-2.1 4.8h2.8m-5.2 15.8c0.79995 0.00004 1.4666-0.26663 2-0.8 0.59995-0.53329 0.89995-1.2 0.9-2-0.00005-0.53329-0.13338-0.99996-0.4-1.4l-2.7-4.8h5.4c1.8666 0.00005 2.8-0.89995 2.8-2.7-0.00005-1.8-0.93339-2.7-2.8-2.7h-5.4l2.7-4.6c0.33328-0.53328 0.49995-1.0999 0.5-1.7-0.00005-0.66661-0.30005-1.2333-0.9-1.7-0.53338-0.53327-1.1667-0.79994-1.9-0.8-1 0.00006-1.7667 0.46673-2.3 1.4l-2.8 4.7-2.7-4.7c-0.53337-0.99994-1.2667-1.4999-2.2-1.5-0.80003 0.00006-1.5 0.30006-2.1 0.9-0.53337 0.53339-0.80003 1.1667-0.8 1.9-0.00003 0.46673 0.1333 0.96672 0.4 1.5l2.7 4.6h-5.4c-1.8 0.00005-2.7 0.90005-2.7 2.7-0.00003 1.8 0.89997 2.7 2.7 2.7h5.4l-2.7 4.8c-0.33337 0.53338-0.50003 1.0334-0.5 1.5-0.00003 0.73337 0.26663 1.3667 0.8 1.9 0.59997 0.46671 1.3 0.70004 2.1 0.7 0.99996 0.00004 1.7666-0.46663 2.3-1.4l2.7-4.7 2.8 4.7c0.53329 1 1.2333 1.5 2.1 1.5m-8-14.7c0.86663-0.86661 1.9-1.3 3.1-1.3 1.2 0.00005 2.2333 0.43339 3.1 1.3 0.86662 0.80005 1.3 1.8 1.3 3-0.00004 1.3334-0.43338 2.4334-1.3 3.3-0.80004 0.80005-1.8334 1.2-3.1 1.2-1.2667 0.00005-2.3334-0.43329-3.2-1.3-0.80004-0.93329-1.2-2-1.2-3.2-0.00004-1.2 0.4333-2.2 1.3-3m3.1 6c0.86663 0.00005 1.5666-0.29995 2.1-0.9 0.59996-0.59995 0.89996-1.3 0.9-2.1-0.00004-0.79995-0.30004-1.4666-0.9-2-0.53338-0.59995-1.2334-0.89995-2.1-0.9-0.86671 0.00005-1.5667 0.30005-2.1 0.9-0.53337 0.53338-0.80004 1.2-0.8 2-0.00004 0.86672 0.26663 1.6 0.8 2.2 0.59996 0.53338 1.3 0.80005 2.1 0.8m1.5-3c-0.00004 1-0.50004 1.5-1.5 1.5-0.93337 0.00005-1.4-0.49995-1.4-1.5-0.00004-0.93328 0.46663-1.4 1.4-1.4 0.99996 0.00005 1.5 0.46672 1.5 1.4" fill="#10106c"/>
	</g>
</svg>
