<?xml version="1.0" encoding="UTF-8" standalone="no"?>
<svg xmlns="http://www.w3.org/2000/svg" shape-rendering="geometricPrecision" height="95" width="75" version="1.1"><rect width="100%" fill="#fff" height="100%"/><g transform="translate(-336.69 -433.51)"></g><g transform="translate(-456.33 -432.43)"><g fill="#10106c" transform="translate(-1.4786 -.65714)"><path d="m523.36 496.19c-0.00007 3.8667-1.3334 7.1-4 9.7-2.6001 2.5333-5.7334 3.8-9.4 3.8-3.8001-0.00001-7-1.3-9.6-3.9-2.6-2.6667-3.9-5.8667-3.9-9.6-0.00005-3.7333 1.3-6.9 3.9-9.5 2.6666-2.6 5.8666-3.9 9.6-3.9 3.7999 0.00002 6.9666 1.3334 9.5 4 2.5999 2.6 3.8999 5.7334 3.9 9.4m-1 0c-0.00007-3.4667-1.2334-6.4-3.7-8.8-2.4001-2.4-5.3334-3.6-8.8-3.6-3.4001 0.00002-6.3334 1.2-8.8 3.6-2.4 2.4-3.6 5.3333-3.6 8.8-0.00005 3.5333 1.2 6.5 3.6 8.9 2.4666 2.4 5.4333 3.6 8.9 3.6 3.4666 0 6.3999-1.2 8.8-3.6 2.3999-2.4667 3.5999-5.4333 3.6-8.9m-12.4-10.9c3.1333 0.00002 5.7333 1.0667 7.8 3.2 2.1333 2.1334 3.1999 4.7 3.2 7.7-0.00007 3.1333-1.0667 5.7667-3.2 7.9-2.1334 2.1333-4.7334 3.2-7.8 3.2-3.1334 0-5.7667-1.0667-7.9-3.2-2.0667-2.2-3.1-4.8333-3.1-7.9-0.00005-3.1333 1.0666-5.7333 3.2-7.8 2.1333-2.0666 4.7333-3.1 7.8-3.1m-7.2 18.1c2 1.9333 4.3666 2.9 7.1 2.9 2.7999 0 5.1666-0.96667 7.1-2.9 1.9999-1.9333 2.9999-4.3333 3-7.2-0.00007-2.7333-0.96673-5.0666-2.9-7-1.9334-2-4.3001-3-7.1-3-2.8667 0.00002-5.2667 1-7.2 3-1.9334 1.9334-2.9 4.2667-2.9 7-0.00005 2.8667 0.96662 5.2667 2.9 7.2m13.8-9.9c0.8666 0.00001 1.5666 0.26668 2.1 0.8 0.53327 0.53334 0.79993 1.2 0.8 2-0.00007 0.80001-0.26673 1.4667-0.8 2-0.5334 0.46667-1.2334 0.70001-2.1 0.7h-1.8c0.8666 1.5333 1.2999 2.5667 1.3 3.1-0.00007 0.73333-0.26673 1.4-0.8 2-0.5334 0.53333-1.2334 0.8-2.1 0.8h-0.7c-0.20006-0.0667-0.40006-0.16667-0.6-0.3-0.13339-0.2-0.26673-0.33333-0.4-0.4-0.13339-0.13333-0.30006-0.33333-0.5-0.6-0.13339-0.26667-0.26673-0.46667-0.4-0.6-0.0667-0.13333-0.16673-0.33333-0.3-0.6-0.13339-0.33333-0.23339-0.53333-0.3-0.6-0.80006 1.4667-1.4334 2.3333-1.9 2.6-0.40006 0.33333-0.86672 0.5-1.4 0.5-0.80005 0-1.5-0.26667-2.1-0.8-0.53339-0.53333-0.80005-1.1667-0.8-1.9-0.00005-0.53333 0.46661-1.6 1.4-3.2h-1.9c-0.80005 0.00001-1.4667-0.26666-2-0.8-0.53338-0.53333-0.80005-1.2-0.8-2-0.00005-0.79999 0.23328-1.4333 0.7-1.9 0.53328-0.53332 1.2333-0.79999 2.1-0.8h1.9c-0.86672-1.5333-1.3-2.5666-1.3-3.1-0.00005-0.73332 0.26661-1.3666 0.8-1.9 0.53328-0.59998 1.2-0.89998 2-0.9 0.33328 0.00002 0.59994 0.0667 0.8 0.2 0.26661 0.0667 0.46661 0.16668 0.6 0.3 0.19994 0.0667 0.39994 0.26668 0.6 0.6 0.19994 0.26668 0.33328 0.46668 0.4 0.6 0.0666 0.0667 0.19994 0.30001 0.4 0.7 0.26661 0.40001 0.43327 0.63335 0.5 0.7 0.79994-1.4666 1.3999-2.3333 1.8-2.6 0.39994-0.26665 0.89994-0.39998 1.5-0.4 0.79994 0.00002 1.4666 0.26668 2 0.8 0.53327 0.53335 0.79993 1.1667 0.8 1.9-0.00007 0.46668-0.4334 1.5-1.3 3.1h1.8m-3.4 10.4c0.53327 0 0.9666-0.16667 1.3-0.5 0.39994-0.33333 0.59994-0.76667 0.6-1.3-0.00006-0.33333-0.0667-0.66666-0.2-1l-1.8-3.1h3.5c1.2666 0.00001 1.8999-0.56666 1.9-1.7-0.00007-1.2-0.6334-1.8-1.9-1.8h-3.5l1.8-3.1c0.13327-0.39999 0.19994-0.76665 0.2-1.1-0.00006-0.46665-0.16673-0.86665-0.5-1.2-0.3334-0.33332-0.76673-0.49998-1.3-0.5-0.66673 0.00002-1.1667 0.33335-1.5 1l-1.8 3.1-1.8-3.1c-0.40006-0.66665-0.90006-0.99998-1.5-1-0.53339 0.00002-1 0.20002-1.4 0.6-0.33339 0.33335-0.50005 0.73335-0.5 1.2-0.00005 0.33335 0.1 0.66668 0.3 1l1.8 3.1h-3.6c-1.2 0.00001-1.8 0.60001-1.8 1.8-0.00005 1.1333 0.59995 1.7 1.8 1.7h3.6l-1.8 3.1c-0.20005 0.4-0.30005 0.76667-0.3 1.1-0.00005 0.46667 0.16661 0.86667 0.5 1.2 0.39995 0.33333 0.83328 0.5 1.3 0.5 0.66661 0 1.1999-0.33333 1.6-1l1.8-3 1.8 3c0.33327 0.66667 0.79994 1 1.4 1m-5.3-9.7c0.59994-0.53332 1.2666-0.79999 2-0.8 0.79994 0.00001 1.4999 0.26668 2.1 0.8 0.59994 0.53334 0.89994 1.2 0.9 2-0.00006 0.86667-0.30006 1.6-0.9 2.2-0.53339 0.53334-1.2334 0.80001-2.1 0.8-0.80006 0.00001-1.4667-0.29999-2-0.9-0.53339-0.59999-0.80006-1.3-0.8-2.1-0.00006-0.79999 0.26661-1.4667 0.8-2m2.1 4c0.53327 0.00001 0.96661-0.19999 1.3-0.6 0.39994-0.39999 0.59994-0.86666 0.6-1.4-0.00006-0.53332-0.20006-0.96666-0.6-1.3-0.33339-0.39999-0.80006-0.59999-1.4-0.6-0.53339 0.00001-1.0001 0.20001-1.4 0.6-0.33339 0.33334-0.50006 0.76668-0.5 1.3-0.00006 0.60001 0.19994 1.1 0.6 1.5 0.39994 0.33334 0.86661 0.50001 1.4 0.5m0.9-2c-0.00006 0.66667-0.30006 1-0.9 1-0.66673 0.00001-1.0001-0.33333-1-1-0.00006-0.59999 0.33327-0.89999 1-0.9 0.59994 0.00001 0.89994 0.30001 0.9 0.9m12.5-31.2c-0.00007 3.8667-1.3334 7.1-4 9.7-2.6001 2.5334-5.7334 3.8-9.4 3.8-3.8001 0.00003-7-1.3-9.6-3.9-2.6-2.6666-3.9-5.8666-3.9-9.6-0.00005-3.7333 1.3-6.9 3.9-9.5 2.6666-2.6 5.8666-3.9 9.6-3.9 3.7999 0.00005 6.9666 1.3334 9.5 4 2.5999 2.6 3.8999 5.7334 3.9 9.4m-1 0c-0.00007-3.4666-1.2334-6.4-3.7-8.8-2.4001-2.4-5.3334-3.6-8.8-3.6-3.4001 0.00005-6.3334 1.2-8.8 3.6-2.4 2.4-3.6 5.3334-3.6 8.8-0.00005 3.5334 1.2 6.5 3.6 8.9 2.4666 2.4 5.4333 3.6 8.9 3.6 3.4666 0.00003 6.3999-1.2 8.8-3.6 2.3999-2.4666 3.5999-5.4333 3.6-8.9m-12.4-10.9c3.1333 0.00005 5.7333 1.0667 7.8 3.2 2.1333 2.1334 3.1999 4.7 3.2 7.7-0.00007 3.1334-1.0667 5.7667-3.2 7.9-2.1334 2.1334-4.7334 3.2-7.8 3.2-3.1334 0.00003-5.7667-1.0666-7.9-3.2-2.0667-2.2-3.1-4.8333-3.1-7.9-0.00005-3.1333 1.0666-5.7333 3.2-7.8 2.1333-2.0666 4.7333-3.1 7.8-3.1m-7.2 18.1c2 1.9334 4.3666 2.9 7.1 2.9 2.7999 0.00003 5.1666-0.96664 7.1-2.9 1.9999-1.9333 2.9999-4.3333 3-7.2-0.00007-2.7333-0.96673-5.0666-2.9-7-1.9334-2-4.3001-3-7.1-3-2.8667 0.00005-5.2667 1-7.2 3-1.9334 1.9334-2.9 4.2667-2.9 7-0.00005 2.8667 0.96662 5.2667 2.9 7.2m13.8-9.9c0.8666 0.00004 1.5666 0.26671 2.1 0.8 0.53327 0.53337 0.79993 1.2 0.8 2-0.00007 0.80004-0.26673 1.4667-0.8 2-0.5334 0.4667-1.2334 0.70004-2.1 0.7h-1.8c0.8666 1.5334 1.2999 2.5667 1.3 3.1-0.00007 0.73337-0.26673 1.4-0.8 2-0.5334 0.53336-1.2334 0.80003-2.1 0.8-0.20006 0.00003-0.4334 0.00003-0.7 0-0.20006-0.0666-0.40006-0.16664-0.6-0.3-0.13339-0.19997-0.26673-0.3333-0.4-0.4-0.13339-0.1333-0.30006-0.3333-0.5-0.6-0.13339-0.26663-0.26673-0.46663-0.4-0.6-0.0667-0.1333-0.16673-0.3333-0.3-0.6-0.13339-0.3333-0.23339-0.5333-0.3-0.6-0.80006 1.4667-1.4334 2.3334-1.9 2.6-0.40006 0.33336-0.86672 0.50003-1.4 0.5-0.80005 0.00003-1.5-0.26664-2.1-0.8-0.53339-0.5333-0.80005-1.1666-0.8-1.9-0.00005-0.5333 0.46661-1.6 1.4-3.2h-1.9c-0.80005 0.00004-1.4667-0.26663-2-0.8-0.53338-0.5333-0.80005-1.2-0.8-2-0.00005-0.79996 0.23328-1.4333 0.7-1.9 0.53328-0.53329 1.2333-0.79996 2.1-0.8h1.9c-0.86672-1.5333-1.3-2.5666-1.3-3.1-0.00005-0.73329 0.26661-1.3666 0.8-1.9 0.53328-0.59995 1.2-0.89995 2-0.9 0.33328 0.00005 0.59994 0.0667 0.8 0.2 0.26661 0.0667 0.46661 0.16671 0.6 0.3 0.19994 0.0667 0.39994 0.26671 0.6 0.6 0.19994 0.26671 0.33328 0.46671 0.4 0.6 0.0666 0.0667 0.19994 0.30005 0.4 0.7 0.26661 0.40005 0.43327 0.63338 0.5 0.7 0.79994-1.4666 1.3999-2.3333 1.8-2.6 0.39994-0.26662 0.89994-0.39995 1.5-0.4 0.79994 0.00005 1.4666 0.26671 2 0.8 0.53327 0.53338 0.79993 1.1667 0.8 1.9-0.00007 0.46671-0.4334 1.5-1.3 3.1h1.8m-3.4 10.4c0.53327 0.00003 0.9666-0.16663 1.3-0.5 0.39994-0.3333 0.59994-0.76663 0.6-1.3-0.00006-0.3333-0.0667-0.66663-0.2-1l-1.8-3.1h3.5c1.2666 0.00004 1.8999-0.56663 1.9-1.7-0.00007-1.2-0.6334-1.8-1.9-1.8h-3.5l1.8-3.1c0.13327-0.39996 0.19994-0.76662 0.2-1.1-0.00006-0.46662-0.16673-0.86662-0.5-1.2-0.3334-0.33329-0.76673-0.49995-1.3-0.5-0.66673 0.00005-1.1667 0.33338-1.5 1l-1.8 3.1-1.8-3.1c-0.40006-0.66662-0.90006-0.99995-1.5-1-0.53339 0.00005-1 0.20005-1.4 0.6-0.33339 0.33338-0.50005 0.73338-0.5 1.2-0.00005 0.33338 0.1 0.66671 0.3 1l1.8 3.1h-3.6c-1.2 0.00004-1.8 0.60004-1.8 1.8-0.00005 1.1334 0.59995 1.7 1.8 1.7h3.6l-1.8 3.1c-0.20005 0.40003-0.30005 0.7667-0.3 1.1-0.00005 0.4667 0.16661 0.8667 0.5 1.2 0.39995 0.33337 0.83328 0.50003 1.3 0.5 0.66661 0.00003 1.1999-0.3333 1.6-1l1.8-3 1.8 3c0.33327 0.6667 0.79994 1 1.4 1m-5.3-9.7c0.59994-0.53329 1.2666-0.79996 2-0.8 0.79994 0.00004 1.4999 0.26671 2.1 0.8 0.59994 0.53337 0.89994 1.2 0.9 2-0.00006 0.86671-0.30006 1.6-0.9 2.2-0.53339 0.53337-1.2334 0.80004-2.1 0.8-0.80006 0.00004-1.4667-0.29996-2-0.9-0.53339-0.59996-0.80006-1.3-0.8-2.1-0.00006-0.79996 0.26661-1.4666 0.8-2m2.1 4c0.53327 0.00004 0.96661-0.19996 1.3-0.6 0.39994-0.39996 0.59994-0.86663 0.6-1.4-0.00006-0.53329-0.20006-0.96663-0.6-1.3-0.33339-0.39996-0.80006-0.59996-1.4-0.6-0.53339 0.00004-1.0001 0.20004-1.4 0.6-0.33339 0.33337-0.50006 0.76671-0.5 1.3-0.00006 0.60004 0.19994 1.1 0.6 1.5 0.39994 0.33337 0.86661 0.50004 1.4 0.5m0.9-2c-0.00006 0.66671-0.30006 1-0.9 1-0.66673 0.00004-1.0001-0.33329-1-1-0.00006-0.59996 0.33327-0.89996 1-0.9 0.59994 0.00004 0.89994 0.30004 0.9 0.9m-17 31.2c-0.00004 3.8667-1.3334 7.1-4 9.7-2.6 2.5333-5.7334 3.8-9.4 3.8-3.8-0.00001-7-1.3-9.6-3.9-2.6-2.6667-3.9-5.8667-3.9-9.6-0.00002-3.7333 1.3-6.9 3.9-9.5 2.6666-2.6 5.8666-3.9 9.6-3.9 3.8 0.00002 6.9666 1.3334 9.5 4 2.6 2.6 3.9 5.7334 3.9 9.4m-1 0c-0.00004-3.4667-1.2334-6.4-3.7-8.8-2.4-2.4-5.3334-3.6-8.8-3.6-3.4 0.00002-6.3334 1.2-8.8 3.6-2.4 2.4-3.6 5.3333-3.6 8.8-0.00002 3.5333 1.2 6.5 3.6 8.9 2.4666 2.4 5.4333 3.6 8.9 3.6 3.4666 0 6.4-1.2 8.8-3.6 2.4-2.4667 3.6-5.4333 3.6-8.9m-12.4-10.9c3.1333 0.00002 5.7333 1.0667 7.8 3.2 2.1333 2.1334 3.2 4.7 3.2 7.7-0.00004 3.1333-1.0667 5.7667-3.2 7.9-2.1334 2.1333-4.7334 3.2-7.8 3.2-3.1334 0-5.7667-1.0667-7.9-3.2-2.0667-2.2-3.1-4.8333-3.1-7.9-0.00002-3.1333 1.0666-5.7333 3.2-7.8 2.1333-2.0666 4.7333-3.1 7.8-3.1m-7.2 18.1c2 1.9333 4.3666 2.9 7.1 2.9 2.8 0 5.1666-0.96667 7.1-2.9 2-1.9333 3-4.3333 3-7.2-0.00004-2.7333-0.96671-5.0666-2.9-7-1.9334-2-4.3-3-7.1-3-2.8667 0.00002-5.2667 1-7.2 3-1.9334 1.9334-2.9 4.2667-2.9 7-0.00002 2.8667 0.96665 5.2667 2.9 7.2m13.8-9.9c0.86663 0.00001 1.5666 0.26668 2.1 0.8 0.53329 0.53334 0.79996 1.2 0.8 2-0.00004 0.80001-0.26671 1.4667-0.8 2-0.53337 0.46667-1.2334 0.70001-2.1 0.7h-1.8c0.86663 1.5333 1.3 2.5667 1.3 3.1-0.00004 0.73333-0.2667 1.4-0.8 2-0.53337 0.53333-1.2334 0.8-2.1 0.8h-0.7c-0.20003-0.0667-0.40003-0.16667-0.6-0.3-0.13336-0.2-0.2667-0.33333-0.4-0.4-0.13336-0.13333-0.30003-0.33333-0.5-0.6-0.13336-0.26667-0.2667-0.46667-0.4-0.6-0.0667-0.13333-0.1667-0.33333-0.3-0.6-0.13336-0.33333-0.23336-0.53333-0.3-0.6-0.80003 1.4667-1.4334 2.3333-1.9 2.6-0.40003 0.33333-0.86669 0.5-1.4 0.5-0.80003 0-1.5-0.26667-2.1-0.8-0.53336-0.53333-0.80002-1.1667-0.8-1.9-0.00002-0.53333 0.46664-1.6 1.4-3.2h-1.9c-0.80002 0.00001-1.4667-0.26666-2-0.8-0.53335-0.53333-0.80002-1.2-0.8-2-0.00002-0.79999 0.23331-1.4333 0.7-1.9 0.53331-0.53332 1.2333-0.79999 2.1-0.8h1.9c-0.86669-1.5333-1.3-2.5666-1.3-3.1-0.00002-0.73332 0.26664-1.3666 0.8-1.9 0.53331-0.59998 1.2-0.89998 2-0.9 0.33331 0.00002 0.59997 0.0667 0.8 0.2 0.26664 0.0667 0.46664 0.16668 0.6 0.3 0.19997 0.0667 0.39997 0.26668 0.6 0.6 0.19997 0.26668 0.3333 0.46668 0.4 0.6 0.0666 0.0667 0.19997 0.30001 0.4 0.7 0.26664 0.40001 0.4333 0.63335 0.5 0.7 0.79997-1.4666 1.4-2.3333 1.8-2.6 0.39997-0.26665 0.89997-0.39998 1.5-0.4 0.79997 0.00002 1.4666 0.26668 2 0.8 0.5333 0.53335 0.79996 1.1667 0.8 1.9-0.00004 0.46668-0.43337 1.5-1.3 3.1h1.8m-3.4 10.4c0.5333 0 0.96663-0.16667 1.3-0.5 0.39997-0.33333 0.59997-0.76667 0.6-1.3-0.00003-0.33333-0.0667-0.66666-0.2-1l-1.8-3.1h3.5c1.2666 0.00001 1.9-0.56666 1.9-1.7-0.00004-1.2-0.63337-1.8-1.9-1.8h-3.5l1.8-3.1c0.1333-0.39999 0.19997-0.76665 0.2-1.1-0.00003-0.46665-0.1667-0.86665-0.5-1.2-0.33337-0.33332-0.7667-0.49998-1.3-0.5-0.6667 0.00002-1.1667 0.33335-1.5 1l-1.8 3.1-1.8-3.1c-0.40003-0.66665-0.90003-0.99998-1.5-1-0.53336 0.00002-1 0.20002-1.4 0.6-0.33336 0.33335-0.50002 0.73335-0.5 1.2-0.00002 0.33335 0.1 0.66668 0.3 1l1.8 3.1h-3.6c-1.2 0.00001-1.8 0.60001-1.8 1.8-0.00002 1.1333 0.59998 1.7 1.8 1.7h3.6l-1.8 3.1c-0.20002 0.4-0.30002 0.76667-0.3 1.1-0.00002 0.46667 0.16664 0.86667 0.5 1.2 0.39997 0.33333 0.83331 0.5 1.3 0.5 0.66664 0 1.2-0.33333 1.6-1l1.8-3 1.8 3c0.3333 0.66667 0.79997 1 1.4 1m-5.3-9.7c0.59997-0.53332 1.2666-0.79999 2-0.8 0.79997 0.00001 1.5 0.26668 2.1 0.8 0.59997 0.53334 0.89997 1.2 0.9 2-0.00003 0.86667-0.30003 1.6-0.9 2.2-0.53336 0.53334-1.2334 0.80001-2.1 0.8-0.80003 0.00001-1.4667-0.29999-2-0.9-0.53336-0.59999-0.80003-1.3-0.8-2.1-0.00003-0.79999 0.26664-1.4667 0.8-2m2.1 4c0.5333 0.00001 0.96664-0.19999 1.3-0.6 0.39997-0.39999 0.59997-0.86666 0.6-1.4-0.00003-0.53332-0.20003-0.96666-0.6-1.3-0.33336-0.39999-0.80003-0.59999-1.4-0.6-0.53336 0.00001-1 0.20001-1.4 0.6-0.33336 0.33334-0.50003 0.76668-0.5 1.3-0.00003 0.60001 0.19997 1.1 0.6 1.5 0.39997 0.33334 0.86664 0.50001 1.4 0.5m0.9-2c-0.00003 0.66667-0.30003 1-0.9 1-0.6667 0.00001-1-0.33333-1-1-0.00003-0.59999 0.3333-0.89999 1-0.9 0.59997 0.00001 0.89997 0.30001 0.9 0.9m12.5-31.2c-0.00004 3.8667-1.3334 7.1-4 9.7-2.6 2.5334-5.7334 3.8-9.4 3.8-3.8 0.00003-7-1.3-9.6-3.9-2.6-2.6666-3.9-5.8666-3.9-9.6-0.00002-3.7333 1.3-6.9 3.9-9.5 2.6666-2.6 5.8666-3.9 9.6-3.9 3.8 0.00005 6.9666 1.3334 9.5 4 2.6 2.6 3.9 5.7334 3.9 9.4m-1 0c-0.00004-3.4666-1.2334-6.4-3.7-8.8-2.4-2.4-5.3334-3.6-8.8-3.6-3.4 0.00005-6.3334 1.2-8.8 3.6-2.4 2.4-3.6 5.3334-3.6 8.8-0.00002 3.5334 1.2 6.5 3.6 8.9 2.4666 2.4 5.4333 3.6 8.9 3.6 3.4666 0.00003 6.4-1.2 8.8-3.6 2.4-2.4666 3.6-5.4333 3.6-8.9m-12.4-10.9c3.1333 0.00005 5.7333 1.0667 7.8 3.2 2.1333 2.1334 3.2 4.7 3.2 7.7-0.00004 3.1334-1.0667 5.7667-3.2 7.9-2.1334 2.1334-4.7334 3.2-7.8 3.2-3.1334 0.00003-5.7667-1.0666-7.9-3.2-2.0667-2.2-3.1-4.8333-3.1-7.9-0.00002-3.1333 1.0666-5.7333 3.2-7.8 2.1333-2.0666 4.7333-3.1 7.8-3.1m-7.2 18.1c2 1.9334 4.3666 2.9 7.1 2.9 2.8 0.00003 5.1666-0.96664 7.1-2.9 2-1.9333 3-4.3333 3-7.2-0.00004-2.7333-0.96671-5.0666-2.9-7-1.9334-2-4.3-3-7.1-3-2.8667 0.00005-5.2667 1-7.2 3-1.9334 1.9334-2.9 4.2667-2.9 7-0.00002 2.8667 0.96665 5.2667 2.9 7.2m13.8-9.9c0.86663 0.00004 1.5666 0.26671 2.1 0.8 0.53329 0.53337 0.79996 1.2 0.8 2-0.00004 0.80004-0.26671 1.4667-0.8 2-0.53337 0.4667-1.2334 0.70004-2.1 0.7h-1.8c0.86663 1.5334 1.3 2.5667 1.3 3.1-0.00004 0.73337-0.2667 1.4-0.8 2-0.53337 0.53336-1.2334 0.80003-2.1 0.8-0.20003 0.00003-0.43337 0.00003-0.7 0-0.20003-0.0666-0.40003-0.16664-0.6-0.3-0.13336-0.19997-0.2667-0.3333-0.4-0.4-0.13336-0.1333-0.30003-0.3333-0.5-0.6-0.13336-0.26663-0.2667-0.46663-0.4-0.6-0.0667-0.1333-0.1667-0.3333-0.3-0.6-0.13336-0.3333-0.23336-0.5333-0.3-0.6-0.80003 1.4667-1.4334 2.3334-1.9 2.6-0.40003 0.33336-0.86669 0.50003-1.4 0.5-0.80003 0.00003-1.5-0.26664-2.1-0.8-0.53336-0.5333-0.80002-1.1666-0.8-1.9-0.00002-0.5333 0.46664-1.6 1.4-3.2h-1.9c-0.80002 0.00004-1.4667-0.26663-2-0.8-0.53335-0.5333-0.80002-1.2-0.8-2-0.00002-0.79996 0.23331-1.4333 0.7-1.9 0.53331-0.53329 1.2333-0.79996 2.1-0.8h1.9c-0.86669-1.5333-1.3-2.5666-1.3-3.1-0.00002-0.73329 0.26664-1.3666 0.8-1.9 0.53331-0.59995 1.2-0.89995 2-0.9 0.33331 0.00005 0.59997 0.0667 0.8 0.2 0.26664 0.0667 0.46664 0.16671 0.6 0.3 0.19997 0.0667 0.39997 0.26671 0.6 0.6 0.19997 0.26671 0.3333 0.46671 0.4 0.6 0.0666 0.0667 0.19997 0.30005 0.4 0.7 0.26664 0.40005 0.4333 0.63338 0.5 0.7 0.79997-1.4666 1.4-2.3333 1.8-2.6 0.39997-0.26662 0.89997-0.39995 1.5-0.4 0.79997 0.00005 1.4666 0.26671 2 0.8 0.5333 0.53338 0.79996 1.1667 0.8 1.9-0.00004 0.46671-0.43337 1.5-1.3 3.1h1.8m-3.4 10.4c0.5333 0.00003 0.96663-0.16663 1.3-0.5 0.39997-0.3333 0.59997-0.76663 0.6-1.3-0.00003-0.3333-0.0667-0.66663-0.2-1l-1.8-3.1h3.5c1.2666 0.00004 1.9-0.56663 1.9-1.7-0.00004-1.2-0.63337-1.8-1.9-1.8h-3.5l1.8-3.1c0.1333-0.39996 0.19997-0.76662 0.2-1.1-0.00003-0.46662-0.1667-0.86662-0.5-1.2-0.33337-0.33329-0.7667-0.49995-1.3-0.5-0.6667 0.00005-1.1667 0.33338-1.5 1l-1.8 3.1-1.8-3.1c-0.40003-0.66662-0.90003-0.99995-1.5-1-0.53336 0.00005-1 0.20005-1.4 0.6-0.33336 0.33338-0.50002 0.73338-0.5 1.2-0.00002 0.33338 0.1 0.66671 0.3 1l1.8 3.1h-3.6c-1.2 0.00004-1.8 0.60004-1.8 1.8-0.00002 1.1334 0.59998 1.7 1.8 1.7h3.6l-1.8 3.1c-0.20002 0.40003-0.30002 0.7667-0.3 1.1-0.00002 0.4667 0.16664 0.8667 0.5 1.2 0.39997 0.33337 0.83331 0.50003 1.3 0.5 0.66664 0.00003 1.2-0.3333 1.6-1l1.8-3 1.8 3c0.3333 0.6667 0.79997 1 1.4 1m-5.3-9.7c0.59997-0.53329 1.2666-0.79996 2-0.8 0.79997 0.00004 1.5 0.26671 2.1 0.8 0.59997 0.53337 0.89997 1.2 0.9 2-0.00003 0.86671-0.30003 1.6-0.9 2.2-0.53336 0.53337-1.2334 0.80004-2.1 0.8-0.80003 0.00004-1.4667-0.29996-2-0.9-0.53336-0.59996-0.80003-1.3-0.8-2.1-0.00003-0.79996 0.26664-1.4666 0.8-2m2.1 4c0.5333 0.00004 0.96664-0.19996 1.3-0.6 0.39997-0.39996 0.59997-0.86663 0.6-1.4-0.00003-0.53329-0.20003-0.96663-0.6-1.3-0.33336-0.39996-0.80003-0.59996-1.4-0.6-0.53336 0.00004-1 0.20004-1.4 0.6-0.33336 0.33337-0.50003 0.76671-0.5 1.3-0.00003 0.60004 0.19997 1.1 0.6 1.5 0.39997 0.33337 0.86664 0.50004 1.4 0.5m0.9-2c-0.00003 0.66671-0.30003 1-0.9 1-0.6667 0.00004-1-0.33329-1-1-0.00003-0.59996 0.3333-0.89996 1-0.9 0.59997 0.00004 0.89997 0.30004 0.9 0.9" fill="#10106c"/></g></g></svg>
