<?xml version="1.0" ?>
<svg xmlns="http://www.w3.org/2000/svg" shape-rendering="geometricPrecision" height="95" width="75" version="1.1">
	<rect width="100%" fill="#fff" height="100%"/>
	<g transform="translate(-497.66 -416.18)">
		<path d="m548.46 463.68c-0.00005 3.8667-1.3334 7.1-4 9.7-2.6 2.5334-5.7334 3.8-9.4 3.8-3.8 0.00001-7-1.3-9.6-3.9-2.6-2.6666-3.9-5.8666-3.9-9.6-0.00003-3.7333 1.3-6.9 3.9-9.5 2.6666-2.6 5.8666-3.9 9.6-3.9 3.8 0.00004 6.9666 1.3334 9.5 4 2.6 2.6 3.9 5.7334 3.9 9.4m-1 0c-0.00005-3.4666-1.2334-6.4-3.7-8.8-2.4-2.4-5.3334-3.6-8.8-3.6-3.4 0.00004-6.3334 1.2-8.8 3.6-2.4 2.4-3.6 5.3334-3.6 8.8-0.00003 3.5334 1.2 6.5 3.6 8.9 2.4666 2.4 5.4333 3.6 8.9 3.6 3.4666 0.00001 6.4-1.2 8.8-3.6 2.4-2.4666 3.6-5.4333 3.6-8.9m-12.4-10.9c3.1333 0.00004 5.7333 1.0667 7.8 3.2 2.1333 2.1334 3.2 4.7 3.2 7.7-0.00005 3.1334-1.0667 5.7667-3.2 7.9-2.1334 2.1334-4.7334 3.2-7.8 3.2-3.1334 0.00001-5.7667-1.0666-7.9-3.2-2.0667-2.2-3.1-4.8333-3.1-7.9-0.00003-3.1333 1.0666-5.7333 3.2-7.8 2.1333-2.0666 4.7333-3.1 7.8-3.1m-7.2 18.1c2 1.9334 4.3666 2.9 7.1 2.9 2.8 0.00001 5.1666-0.96665 7.1-2.9 2-1.9333 3-4.3333 3-7.2-0.00005-2.7333-0.96672-5.0666-2.9-7-1.9334-2-4.3-3-7.1-3-2.8667 0.00003-5.2667 1-7.2 3-1.9334 1.9334-2.9 4.2667-2.9 7-0.00003 2.8667 0.96664 5.2667 2.9 7.2m13.8-9.9c0.86662 0.00003 1.5666 0.26669 2.1 0.8 0.53328 0.53336 0.79995 1.2 0.8 2-0.00005 0.80002-0.26672 1.4667-0.8 2-0.53338 0.46669-1.2334 0.70002-2.1 0.7h-1.8c0.86662 1.5334 1.3 2.5667 1.3 3.1-0.00005 0.73335-0.26671 1.4-0.8 2-0.53338 0.53335-1.2334 0.80002-2.1 0.8-0.20004 0.00002-0.43338 0.00002-0.7 0-0.20004-0.0666-0.40004-0.16665-0.6-0.3-0.13337-0.19998-0.26671-0.33332-0.4-0.4-0.13337-0.13332-0.30004-0.33332-0.5-0.6-0.13337-0.26665-0.26671-0.46665-0.4-0.6-0.0667-0.13332-0.16671-0.33332-0.3-0.6-0.13337-0.33331-0.23337-0.53331-0.3-0.6-0.80004 1.4667-1.4334 2.3334-1.9 2.6-0.40004 0.33335-0.8667 0.50002-1.4 0.5-0.80004 0.00002-1.5-0.26665-2.1-0.8-0.53337-0.53332-0.80003-1.1666-0.8-1.9-0.00003-0.53331 0.46663-1.6 1.4-3.2h-1.9c-0.80003 0.00002-1.4667-0.26664-2-0.8-0.53336-0.53331-0.80003-1.2-0.8-2-0.00003-0.79997 0.2333-1.4333 0.7-1.9 0.5333-0.53331 1.2333-0.79997 2.1-0.8h1.9c-0.8667-1.5333-1.3-2.5666-1.3-3.1-0.00003-0.7333 0.26663-1.3666 0.8-1.9 0.5333-0.59997 1.2-0.89997 2-0.9 0.3333 0.00003 0.59996 0.0667 0.8 0.2 0.26663 0.0667 0.46663 0.1667 0.6 0.3 0.19996 0.0667 0.39996 0.2667 0.6 0.6 0.19996 0.2667 0.33329 0.4667 0.4 0.6 0.0666 0.0667 0.19996 0.30003 0.4 0.7 0.26663 0.40003 0.43329 0.63336 0.5 0.7 0.79996-1.4666 1.4-2.3333 1.8-2.6 0.39996-0.26663 0.89996-0.39997 1.5-0.4 0.79996 0.00003 1.4666 0.2667 2 0.8 0.53329 0.53337 0.79995 1.1667 0.8 1.9-0.00005 0.4667-0.43338 1.5-1.3 3.1h1.8m-3.4 10.4c0.53329 0.00002 0.96662-0.16665 1.3-0.5 0.39996-0.33332 0.59996-0.76665 0.6-1.3-0.00004-0.33331-0.0667-0.66665-0.2-1l-1.8-3.1h3.5c1.2666 0.00002 1.9-0.56664 1.9-1.7-0.00005-1.2-0.63338-1.8-1.9-1.8h-3.5l1.8-3.1c0.13329-0.39997 0.19996-0.76664 0.2-1.1-0.00004-0.46664-0.16671-0.86664-0.5-1.2-0.33338-0.3333-0.76671-0.49997-1.3-0.5-0.66671 0.00003-1.1667 0.33337-1.5 1l-1.8 3.1-1.8-3.1c-0.40004-0.66663-0.90004-0.99997-1.5-1-0.53337 0.00003-1 0.20003-1.4 0.6-0.33337 0.33336-0.50003 0.73336-0.5 1.2-0.00003 0.33336 0.1 0.6667 0.3 1l1.8 3.1h-3.6c-1.2 0.00003-1.8 0.60003-1.8 1.8-0.00003 1.1334 0.59997 1.7 1.8 1.7h3.6l-1.8 3.1c-0.20003 0.40002-0.30003 0.76669-0.3 1.1-0.00003 0.46668 0.16663 0.86668 0.5 1.2 0.39996 0.33335 0.8333 0.50002 1.3 0.5 0.66663 0.00002 1.2-0.33332 1.6-1l1.8-3 1.8 3c0.33329 0.66668 0.79996 1 1.4 1m-5.3-9.7c0.59996-0.53331 1.2666-0.79997 2-0.8 0.79996 0.00003 1.5 0.26669 2.1 0.8 0.59996 0.53336 0.89996 1.2 0.9 2-0.00004 0.86669-0.30004 1.6-0.9 2.2-0.53337 0.53336-1.2334 0.80002-2.1 0.8-0.80004 0.00002-1.4667-0.29998-2-0.9-0.53337-0.59998-0.80004-1.3-0.8-2.1-0.00004-0.79997 0.26663-1.4666 0.8-2m2.1 4c0.53329 0.00002 0.96663-0.19998 1.3-0.6 0.39996-0.39998 0.59996-0.86664 0.6-1.4-0.00004-0.53331-0.20004-0.96664-0.6-1.3-0.33337-0.39997-0.80004-0.59997-1.4-0.6-0.53337 0.00003-1 0.20003-1.4 0.6-0.33337 0.33336-0.50004 0.76669-0.5 1.3-0.00004 0.60002 0.19996 1.1 0.6 1.5 0.39996 0.33336 0.86663 0.50002 1.4 0.5m0.9-2c-0.00004 0.66669-0.30004 1-0.9 1-0.66671 0.00002-1-0.33331-1-1-0.00004-0.59997 0.33329-0.89997 1-0.9 0.59996 0.00003 0.89996 0.30003 0.9 0.9" fill="#9c0000"/>
		<path d="m533.31 492.98c-0.00004 3.8667-1.3334 7.0667-4 9.6-2.6 2.6-5.7334 3.9-9.4 3.9-3.8-0.00002-7-1.3334-9.6-4-2.6-2.6-3.9-5.7667-3.9-9.5-0.00001-3.7333 1.3-6.9 3.9-9.5 2.6666-2.6 5.8666-3.9 9.6-3.9 3.8 0.00001 6.9666 1.3333 9.5 4 2.6 2.6 3.9 5.7333 3.9 9.4m-1 0c-0.00004-3.4667-1.2334-6.4-3.7-8.8-2.4-2.4-5.3334-3.6-8.8-3.6-3.4 0.00001-6.3334 1.2-8.8 3.6-2.4 2.4-3.6 5.3333-3.6 8.8-0.00001 3.5333 1.2 6.5 3.6 8.9 2.4666 2.4 5.4333 3.6 8.9 3.6 3.4666-0.00002 6.4-1.2334 8.8-3.7 2.4-2.4 3.6-5.3333 3.6-8.8m-12.4-10.9c3.1333 0.00001 5.7333 1.0667 7.8 3.2 2.1333 2.1333 3.2 4.7 3.2 7.7-0.00004 3.1333-1.0667 5.7667-3.2 7.9-2.1334 2.1333-4.7334 3.2-7.8 3.2-3.1334-0.00001-5.7667-1.1-7.9-3.3-2.0667-2.1333-3.1-4.7333-3.1-7.8-0.00001-3.1333 1.0666-5.7333 3.2-7.8 2.1333-2.0667 4.7333-3.1 7.8-3.1m-7.2 18.1c2 1.9333 4.3666 2.9 7.1 2.9 2.8-0.00001 5.1666-0.96668 7.1-2.9 2-1.9333 3-4.3333 3-7.2-0.00004-2.7333-0.9667-5.0667-2.9-7-1.9334-2-4.3-3-7.1-3-2.8667 0.00001-5.2667 1-7.2 3-1.9334 1.9333-2.9 4.2667-2.9 7-0.00002 2.8667 0.96665 5.2667 2.9 7.2m13.8-9.9c0.86663 0 1.5666 0.26666 2.1 0.8 0.5333 0.53333 0.79996 1.2 0.8 2-0.00004 0.79999-0.2667 1.4333-0.8 1.9-0.53337 0.53333-1.2334 0.79999-2.1 0.8h-1.8c0.86664 1.5333 1.3 2.5667 1.3 3.1-0.00003 0.73332-0.2667 1.3666-0.8 1.9-0.53336 0.59999-1.2334 0.89999-2.1 0.9-0.20003-0.00001-0.43336-0.0333-0.7-0.1-0.20003-0.00001-0.40003-0.10001-0.6-0.3-0.13336-0.13335-0.26669-0.26668-0.4-0.4-0.13336-0.0667-0.30003-0.23334-0.5-0.5-0.13336-0.26668-0.26669-0.46668-0.4-0.6-0.0667-0.13334-0.16669-0.36668-0.3-0.7-0.13336-0.26668-0.23336-0.43334-0.3-0.5-0.80003 1.4667-1.4334 2.3333-1.9 2.6-0.40002 0.33332-0.86669 0.49999-1.4 0.5-0.80002-0.00001-1.5-0.26668-2.1-0.8-0.53335-0.53334-0.80002-1.1667-0.8-1.9-0.00002-0.53334 0.46665-1.6 1.4-3.2h-1.9c-0.80002-0.00001-1.4667-0.26667-2-0.8-0.53335-0.53334-0.80002-1.2-0.8-2-0.00002-0.8 0.23332-1.4333 0.7-1.9 0.53332-0.53334 1.2333-0.8 2.1-0.8h1.9c-0.86669-1.5333-1.3-2.5667-1.3-3.1-0.00002-0.73333 0.26665-1.3667 0.8-1.9 0.53331-0.6 1.2-0.9 2-0.9 0.33331 0 0.59998 0.0667 0.8 0.2 0.26664 0.0667 0.46664 0.16667 0.6 0.3 0.19998 0.0667 0.39998 0.26667 0.6 0.6 0.19998 0.26667 0.33331 0.46667 0.4 0.6 0.0666 0.0667 0.19997 0.3 0.4 0.7 0.26664 0.4 0.43331 0.63334 0.5 0.7 0.79997-1.4667 1.4-2.3333 1.8-2.6 0.39997-0.26666 0.89997-0.4 1.5-0.4 0.79997 0 1.4666 0.26667 2 0.8 0.5333 0.53334 0.79997 1.1667 0.8 1.9-0.00003 0.46667-0.43336 1.5-1.3 3.1h1.8m-3.4 10.4c0.5333-0.00001 0.96664-0.16668 1.3-0.5 0.39997-0.33334 0.59997-0.76668 0.6-1.3-0.00003-0.33334-0.0667-0.66668-0.2-1l-1.8-3.1h3.5c1.2666-0.00001 1.9-0.6 1.9-1.8-0.00003-1.1333-0.63337-1.7-1.9-1.7h-3.5l1.8-3.1c0.1333-0.4 0.19997-0.76666 0.2-1.1-0.00003-0.46666-0.1667-0.86666-0.5-1.2-0.33336-0.33333-0.7667-0.5-1.3-0.5-0.6667 0-1.1667 0.33334-1.5 1l-1.8 3.1-1.8-3.1c-0.40002-0.66666-0.90002-1-1.5-1-0.53336 0-1 0.2-1.4 0.6-0.33335 0.33334-0.50002 0.73334-0.5 1.2-0.00002 0.33333 0.1 0.66667 0.3 1l1.8 3.1h-3.6c-1.2 0-1.8 0.56666-1.8 1.7-0.00002 1.2 0.59998 1.8 1.8 1.8h3.6l-1.8 3.1c-0.20002 0.39999-0.30002 0.76666-0.3 1.1-0.00002 0.46666 0.16665 0.86666 0.5 1.2 0.39998 0.33332 0.83331 0.49999 1.3 0.5 0.66664-0.00001 1.2-0.33334 1.6-1l1.8-3 1.8 3c0.33331 0.66666 0.79997 0.99999 1.4 1m-5.3-9.7c0.59998-0.53334 1.2666-0.8 2-0.8 0.79997 0 1.5 0.26666 2.1 0.8 0.59997 0.53333 0.89997 1.2 0.9 2-0.00003 0.86666-0.30003 1.5667-0.9 2.1-0.53336 0.59999-1.2334 0.89999-2.1 0.9-0.80002-0.00001-1.4667-0.30001-2-0.9-0.53336-0.60001-0.80002-1.3-0.8-2.1-0.00002-0.8 0.26664-1.4667 0.8-2m2.1 4c0.53331-0.00001 0.96664-0.20001 1.3-0.6 0.39997-0.40001 0.59997-0.86667 0.6-1.4-0.00003-0.53334-0.20003-0.96667-0.6-1.3-0.33336-0.4-0.80003-0.6-1.4-0.6-0.53336 0-1 0.2-1.4 0.6-0.33336 0.33333-0.50002 0.76666-0.5 1.3-0.00002 0.59999 0.19998 1.0667 0.6 1.4 0.39998 0.39999 0.86664 0.59999 1.4 0.6m0.9-2c-0.00003 0.66666-0.30003 0.99999-0.9 1-0.66669-0.00001-1-0.33334-1-1-0.00002-0.6 0.33331-0.9 1-0.9 0.59997 0 0.89997 0.3 0.9 0.9m12.5-58.6c-0.00004 3.8667-1.3334 7.1-4 9.7-2.6 2.5334-5.7334 3.8-9.4 3.8-3.8 0.00004-7-1.3-9.6-3.9-2.6-2.6666-3.9-5.8666-3.9-9.6-0.00001-3.7333 1.3-6.8999 3.9-9.5 2.6666-2.5999 5.8666-3.8999 9.6-3.9 3.8 0.00007 6.9666 1.3334 9.5 4 2.6 2.6001 3.9 5.7334 3.9 9.4m-1 0c-0.00004-3.4666-1.2334-6.3999-3.7-8.8-2.4-2.3999-5.3334-3.5999-8.8-3.6-3.4 0.00007-6.3334 1.2001-8.8 3.6-2.4 2.4001-3.6 5.3334-3.6 8.8-0.00001 3.5334 1.2 6.5 3.6 8.9 2.4666 2.4 5.4333 3.6 8.9 3.6 3.4666 0.00004 6.4-1.2 8.8-3.6 2.4-2.4666 3.6-5.4333 3.6-8.9m-12.4-10.9c3.1333 0.00007 5.7333 1.0667 7.8 3.2 2.1333 2.1334 3.2 4.7001 3.2 7.7-0.00004 3.1334-1.0667 5.7667-3.2 7.9-2.1334 2.1334-4.7334 3.2-7.8 3.2-3.1334 0.00004-5.7667-1.0666-7.9-3.2-2.0667-2.2-3.1-4.8333-3.1-7.9-0.00001-3.1333 1.0666-5.7333 3.2-7.8 2.1333-2.0666 4.7333-3.0999 7.8-3.1m-7.2 18.1c2 1.9334 4.3666 2.9 7.1 2.9 2.8 0.00004 5.1666-0.96662 7.1-2.9 2-1.9333 3-4.3333 3-7.2-0.00004-2.7333-0.9667-5.0666-2.9-7-1.9334-1.9999-4.3-2.9999-7.1-3-2.8667 0.00007-5.2667 1.0001-7.2 3-1.9334 1.9334-2.9 4.2667-2.9 7-0.00002 2.8667 0.96665 5.2667 2.9 7.2m13.8-9.9c0.86663 0.00006 1.5666 0.26672 2.1 0.8 0.5333 0.53339 0.79996 1.2001 0.8 2-0.00004 0.80005-0.2667 1.4667-0.8 2-0.53337 0.46672-1.2334 0.70005-2.1 0.7h-1.8c0.86664 1.5334 1.3 2.5667 1.3 3.1-0.00003 0.73338-0.2667 1.4-0.8 2-0.53336 0.53338-1.2334 0.80005-2.1 0.8-0.20003 0.00005-0.43336 0.00005-0.7 0-0.20003-0.0666-0.40003-0.16662-0.6-0.3-0.13336-0.19995-0.26669-0.33329-0.4-0.4-0.13336-0.13329-0.30003-0.33329-0.5-0.6-0.13336-0.26662-0.26669-0.46662-0.4-0.6-0.0667-0.13329-0.16669-0.33329-0.3-0.6-0.13336-0.33328-0.23336-0.53328-0.3-0.6-0.80003 1.4667-1.4334 2.3334-1.9 2.6-0.40002 0.33338-0.86669 0.50005-1.4 0.5-0.80002 0.00005-1.5-0.26662-2.1-0.8-0.53335-0.53329-0.80002-1.1666-0.8-1.9-0.00002-0.53328 0.46665-1.6 1.4-3.2h-1.9c-0.80002 0.00005-1.4667-0.26661-2-0.8-0.53335-0.53328-0.80002-1.2-0.8-2-0.00002-0.79994 0.23332-1.4333 0.7-1.9 0.53332-0.53328 1.2333-0.79994 2.1-0.8h1.9c-0.86669-1.5333-1.3-2.5666-1.3-3.1-0.00002-0.73327 0.26665-1.3666 0.8-1.9 0.53331-0.59994 1.2-0.89994 2-0.9 0.33331 0.00006 0.59998 0.0667 0.8 0.2 0.26664 0.0667 0.46664 0.16673 0.6 0.3 0.19998 0.0667 0.39998 0.26673 0.6 0.6 0.19998 0.26673 0.33331 0.46673 0.4 0.6 0.0666 0.0667 0.19997 0.30006 0.4 0.7 0.26664 0.40006 0.43331 0.63339 0.5 0.7 0.79997-1.4666 1.4-2.3333 1.8-2.6 0.39997-0.2666 0.89997-0.39994 1.5-0.4 0.79997 0.00006 1.4666 0.26673 2 0.8 0.5333 0.5334 0.79997 1.1667 0.8 1.9-0.00003 0.46673-0.43336 1.5001-1.3 3.1h1.8m-3.4 10.4c0.5333 0.00005 0.96664-0.16662 1.3-0.5 0.39997-0.33329 0.59997-0.76662 0.6-1.3-0.00003-0.33328-0.0667-0.66662-0.2-1l-1.8-3.1h3.5c1.2666 0.00005 1.9-0.56661 1.9-1.7-0.00003-1.1999-0.63337-1.7999-1.9-1.8h-3.5l1.8-3.1c0.1333-0.39994 0.19997-0.76661 0.2-1.1-0.00003-0.4666-0.1667-0.8666-0.5-1.2-0.33336-0.33327-0.7667-0.49994-1.3-0.5-0.6667 0.00006-1.1667 0.3334-1.5 1l-1.8 3.1-1.8-3.1c-0.40002-0.6666-0.90002-0.99994-1.5-1-0.53336 0.00006-1 0.20006-1.4 0.6-0.33335 0.3334-0.50002 0.7334-0.5 1.2-0.00002 0.33339 0.1 0.66673 0.3 1l1.8 3.1h-3.6c-1.2 0.00006-1.8 0.60006-1.8 1.8-0.00002 1.1334 0.59998 1.7 1.8 1.7h3.6l-1.8 3.1c-0.20002 0.40005-0.30002 0.76672-0.3 1.1-0.00002 0.46671 0.16665 0.86671 0.5 1.2 0.39998 0.33338 0.83331 0.50005 1.3 0.5 0.66664 0.00005 1.2-0.33329 1.6-1l1.8-3 1.8 3c0.33331 0.66671 0.79997 1 1.4 1m-5.3-9.7c0.59998-0.53328 1.2666-0.79994 2-0.8 0.79997 0.00006 1.5 0.26672 2.1 0.8 0.59997 0.53339 0.89997 1.2001 0.9 2-0.00003 0.86672-0.30003 1.6-0.9 2.2-0.53336 0.53339-1.2334 0.80005-2.1 0.8-0.80002 0.00005-1.4667-0.29995-2-0.9-0.53336-0.59995-0.80002-1.3-0.8-2.1-0.00002-0.79994 0.26664-1.4666 0.8-2m2.1 4c0.53331 0.00005 0.96664-0.19995 1.3-0.6 0.39997-0.39995 0.59997-0.86661 0.6-1.4-0.00003-0.53328-0.20003-0.96661-0.6-1.3-0.33336-0.39994-0.80003-0.59994-1.4-0.6-0.53336 0.00006-1 0.20006-1.4 0.6-0.33336 0.33339-0.50002 0.76672-0.5 1.3-0.00002 0.60005 0.19998 1.1 0.6 1.5 0.39998 0.33339 0.86664 0.50005 1.4 0.5m0.9-2c-0.00003 0.66672-0.30003 1-0.9 1-0.66669 0.00005-1-0.33328-1-1-0.00002-0.59994 0.33331-0.89994 1-0.9 0.59997 0.00006 0.89997 0.30006 0.9 0.9m42.8 58.6c-0.00007 3.8667-1.3334 7.0667-4 9.6-2.6001 2.6-5.7334 3.9-9.4 3.9-3.8-0.00002-7-1.3334-9.6-4-2.6-2.6-3.9-5.7667-3.9-9.5-0.00004-3.7333 1.3-6.9 3.9-9.5 2.6666-2.6 5.8666-3.9 9.6-3.9 3.7999 0.00001 6.9666 1.3333 9.5 4 2.5999 2.6 3.8999 5.7333 3.9 9.4m-1 0c-0.00007-3.4667-1.2334-6.4-3.7-8.8-2.4001-2.4-5.3334-3.6-8.8-3.6-3.4 0.00001-6.3334 1.2-8.8 3.6-2.4 2.4-3.6 5.3333-3.6 8.8-0.00004 3.5333 1.2 6.5 3.6 8.9 2.4666 2.4 5.4333 3.6 8.9 3.6 3.4666-0.00002 6.3999-1.2334 8.8-3.7 2.3999-2.4 3.5999-5.3333 3.6-8.8m-12.4-10.9c3.1333 0.00001 5.7333 1.0667 7.8 3.2 2.1333 2.1333 3.1999 4.7 3.2 7.7-0.00007 3.1333-1.0667 5.7667-3.2 7.9-2.1334 2.1333-4.7334 3.2-7.8 3.2-3.1334-0.00001-5.7667-1.1-7.9-3.3-2.0667-2.1333-3.1-4.7333-3.1-7.8-0.00005-3.1333 1.0666-5.7333 3.2-7.8 2.1333-2.0667 4.7333-3.1 7.8-3.1m-7.2 18.1c2 1.9333 4.3666 2.9 7.1 2.9 2.7999-0.00001 5.1666-0.96668 7.1-2.9 1.9999-1.9333 2.9999-4.3333 3-7.2-0.00007-2.7333-0.96673-5.0667-2.9-7-1.9334-2-4.3001-3-7.1-3-2.8667 0.00001-5.2667 1-7.2 3-1.9334 1.9333-2.9 4.2667-2.9 7-0.00005 2.8667 0.96662 5.2667 2.9 7.2m13.8-9.9c0.8666 0 1.5666 0.26666 2.1 0.8 0.53327 0.53333 0.79993 1.2 0.8 2-0.00007 0.79999-0.26673 1.4333-0.8 1.9-0.5334 0.53333-1.2334 0.79999-2.1 0.8h-1.8c0.8666 1.5333 1.2999 2.5667 1.3 3.1-0.00006 0.73332-0.26673 1.3666-0.8 1.9-0.53339 0.59999-1.2334 0.89999-2.1 0.9-0.20006-0.00001-0.43339-0.0333-0.7-0.1-0.20006-0.00001-0.40006-0.10001-0.6-0.3-0.13339-0.13335-0.26672-0.26668-0.4-0.4-0.13339-0.0667-0.30006-0.23334-0.5-0.5-0.13339-0.26668-0.26672-0.46668-0.4-0.6-0.0667-0.13334-0.16672-0.36668-0.3-0.7-0.13339-0.26668-0.23339-0.43334-0.3-0.5-0.80006 1.4667-1.4334 2.3333-1.9 2.6-0.40005 0.33332-0.86672 0.49999-1.4 0.5-0.80005-0.00001-1.5-0.26668-2.1-0.8-0.53338-0.53334-0.80005-1.1667-0.8-1.9-0.00005-0.53334 0.46662-1.6 1.4-3.2h-1.9c-0.80005-0.00001-1.4667-0.26667-2-0.8-0.53338-0.53334-0.80005-1.2-0.8-2-0.00005-0.8 0.23329-1.4333 0.7-1.9 0.53329-0.53334 1.2333-0.8 2.1-0.8h1.9c-0.86672-1.5333-1.3-2.5667-1.3-3.1-0.00005-0.73333 0.26662-1.3667 0.8-1.9 0.53328-0.6 1.2-0.9 2-0.9 0.33328 0 0.59995 0.0667 0.8 0.2 0.26661 0.0667 0.46661 0.16667 0.6 0.3 0.19995 0.0667 0.39995 0.26667 0.6 0.6 0.19994 0.26667 0.33328 0.46667 0.4 0.6 0.0666 0.0667 0.19994 0.3 0.4 0.7 0.26661 0.4 0.43328 0.63334 0.5 0.7 0.79994-1.4667 1.3999-2.3333 1.8-2.6 0.39994-0.26666 0.89994-0.4 1.5-0.4 0.79994 0 1.4666 0.26667 2 0.8 0.53327 0.53334 0.79994 1.1667 0.8 1.9-0.00006 0.46667-0.4334 1.5-1.3 3.1h1.8m-3.4 10.4c0.53327-0.00001 0.96661-0.16668 1.3-0.5 0.39994-0.33334 0.59994-0.76668 0.6-1.3-0.00006-0.33334-0.0667-0.66668-0.2-1l-1.8-3.1h3.5c1.2666-0.00001 1.8999-0.6 1.9-1.8-0.00006-1.1333-0.6334-1.7-1.9-1.7h-3.5l1.8-3.1c0.13327-0.4 0.19994-0.76666 0.2-1.1-0.00006-0.46666-0.16673-0.86666-0.5-1.2-0.33339-0.33333-0.76673-0.5-1.3-0.5-0.66673 0-1.1667 0.33334-1.5 1l-1.8 3.1-1.8-3.1c-0.40005-0.66666-0.90005-1-1.5-1-0.53339 0-1 0.2-1.4 0.6-0.33338 0.33334-0.50005 0.73334-0.5 1.2-0.00005 0.33333 0.1 0.66667 0.3 1l1.8 3.1h-3.6c-1.2 0-1.8 0.56666-1.8 1.7-0.00005 1.2 0.59995 1.8 1.8 1.8h3.6l-1.8 3.1c-0.20005 0.39999-0.30005 0.76666-0.3 1.1-0.00005 0.46666 0.16662 0.86666 0.5 1.2 0.39995 0.33332 0.83328 0.49999 1.3 0.5 0.66661-0.00001 1.2-0.33334 1.6-1l1.8-3 1.8 3c0.33328 0.66666 0.79994 0.99999 1.4 1m-5.3-9.7c0.59995-0.53334 1.2666-0.8 2-0.8 0.79994 0 1.4999 0.26666 2.1 0.8 0.59994 0.53333 0.89994 1.2 0.9 2-0.00006 0.86666-0.30006 1.5667-0.9 2.1-0.53339 0.59999-1.2334 0.89999-2.1 0.9-0.80006-0.00001-1.4667-0.30001-2-0.9-0.53339-0.60001-0.80005-1.3-0.8-2.1-0.00005-0.8 0.26661-1.4667 0.8-2m2.1 4c0.53328-0.00001 0.96661-0.20001 1.3-0.6 0.39994-0.40001 0.59994-0.86667 0.6-1.4-0.00006-0.53334-0.20006-0.96667-0.6-1.3-0.33339-0.4-0.80006-0.6-1.4-0.6-0.53339 0-1.0001 0.2-1.4 0.6-0.33339 0.33333-0.50005 0.76666-0.5 1.3-0.00005 0.59999 0.19995 1.0667 0.6 1.4 0.39994 0.39999 0.86661 0.59999 1.4 0.6m0.9-2c-0.00006 0.66666-0.30006 0.99999-0.9 1-0.66672-0.00001-1.0001-0.33334-1-1-0.00006-0.6 0.33328-0.9 1-0.9 0.59994 0 0.89994 0.3 0.9 0.9m12.5-58.6c-0.00007 3.8667-1.3334 7.1-4 9.7-2.6001 2.5334-5.7334 3.8-9.4 3.8-3.8 0.00004-7-1.3-9.6-3.9-2.6-2.6666-3.9-5.8666-3.9-9.6-0.00004-3.7333 1.3-6.8999 3.9-9.5 2.6666-2.5999 5.8666-3.8999 9.6-3.9 3.7999 0.00007 6.9666 1.3334 9.5 4 2.5999 2.6001 3.8999 5.7334 3.9 9.4m-1 0c-0.00007-3.4666-1.2334-6.3999-3.7-8.8-2.4001-2.3999-5.3334-3.5999-8.8-3.6-3.4 0.00007-6.3334 1.2001-8.8 3.6-2.4 2.4001-3.6 5.3334-3.6 8.8-0.00004 3.5334 1.2 6.5 3.6 8.9 2.4666 2.4 5.4333 3.6 8.9 3.6 3.4666 0.00004 6.3999-1.2 8.8-3.6 2.3999-2.4666 3.5999-5.4333 3.6-8.9m-12.4-10.9c3.1333 0.00007 5.7333 1.0667 7.8 3.2 2.1333 2.1334 3.1999 4.7001 3.2 7.7-0.00007 3.1334-1.0667 5.7667-3.2 7.9-2.1334 2.1334-4.7334 3.2-7.8 3.2-3.1334 0.00004-5.7667-1.0666-7.9-3.2-2.0667-2.2-3.1-4.8333-3.1-7.9-0.00005-3.1333 1.0666-5.7333 3.2-7.8 2.1333-2.0666 4.7333-3.0999 7.8-3.1m-7.2 18.1c2 1.9334 4.3666 2.9 7.1 2.9 2.7999 0.00004 5.1666-0.96662 7.1-2.9 1.9999-1.9333 2.9999-4.3333 3-7.2-0.00007-2.7333-0.96673-5.0666-2.9-7-1.9334-1.9999-4.3001-2.9999-7.1-3-2.8667 0.00007-5.2667 1.0001-7.2 3-1.9334 1.9334-2.9 4.2667-2.9 7-0.00005 2.8667 0.96662 5.2667 2.9 7.2m13.8-9.9c0.8666 0.00006 1.5666 0.26672 2.1 0.8 0.53327 0.53339 0.79993 1.2001 0.8 2-0.00007 0.80006-0.26673 1.4667-0.8 2-0.5334 0.46672-1.2334 0.70005-2.1 0.7h-1.8c0.8666 1.5334 1.2999 2.5667 1.3 3.1-0.00006 0.73338-0.26673 1.4-0.8 2-0.53339 0.53338-1.2334 0.80005-2.1 0.8-0.20006 0.00005-0.43339 0.00005-0.7 0-0.20006-0.0666-0.40006-0.16662-0.6-0.3-0.13339-0.19995-0.26672-0.33329-0.4-0.4-0.13339-0.13329-0.30006-0.33329-0.5-0.6-0.13339-0.26662-0.26672-0.46662-0.4-0.6-0.0667-0.13328-0.16672-0.33328-0.3-0.6-0.13339-0.33328-0.23339-0.53328-0.3-0.6-0.80006 1.4667-1.4334 2.3334-1.9 2.6-0.40005 0.33338-0.86672 0.50005-1.4 0.5-0.80005 0.00005-1.5-0.26662-2.1-0.8-0.53338-0.53329-0.80005-1.1666-0.8-1.9-0.00005-0.53328 0.46662-1.6 1.4-3.2h-1.9c-0.80005 0.00005-1.4667-0.26661-2-0.8-0.53338-0.53328-0.80005-1.2-0.8-2-0.00005-0.79994 0.23329-1.4333 0.7-1.9 0.53329-0.53328 1.2333-0.79994 2.1-0.8h1.9c-0.86672-1.5333-1.3-2.5666-1.3-3.1-0.00005-0.73327 0.26662-1.3666 0.8-1.9 0.53328-0.59994 1.2-0.89994 2-0.9 0.33328 0.00006 0.59995 0.0667 0.8 0.2 0.26661 0.0667 0.46661 0.16673 0.6 0.3 0.19995 0.0667 0.39995 0.26673 0.6 0.6 0.19994 0.26673 0.33328 0.46673 0.4 0.6 0.0666 0.0667 0.19994 0.30006 0.4 0.7 0.26661 0.40006 0.43328 0.63339 0.5 0.7 0.79994-1.4666 1.3999-2.3333 1.8-2.6 0.39994-0.2666 0.89994-0.39994 1.5-0.4 0.79994 0.00006 1.4666 0.26673 2 0.8 0.53327 0.5334 0.79994 1.1667 0.8 1.9-0.00006 0.46673-0.4334 1.5001-1.3 3.1h1.8m-3.4 10.4c0.53327 0.00005 0.96661-0.16662 1.3-0.5 0.39994-0.33329 0.59994-0.76662 0.6-1.3-0.00006-0.33328-0.0667-0.66662-0.2-1l-1.8-3.1h3.5c1.2666 0.00005 1.8999-0.56661 1.9-1.7-0.00006-1.1999-0.6334-1.7999-1.9-1.8h-3.5l1.8-3.1c0.13327-0.39994 0.19994-0.76661 0.2-1.1-0.00006-0.4666-0.16673-0.8666-0.5-1.2-0.33339-0.33327-0.76673-0.49994-1.3-0.5-0.66673 0.00006-1.1667 0.3334-1.5 1l-1.8 3.1-1.8-3.1c-0.40005-0.6666-0.90005-0.99994-1.5-1-0.53339 0.00006-1 0.20006-1.4 0.6-0.33338 0.3334-0.50005 0.7334-0.5 1.2-0.00005 0.33339 0.1 0.66673 0.3 1l1.8 3.1h-3.6c-1.2 0.00006-1.8 0.60006-1.8 1.8-0.00005 1.1334 0.59995 1.7 1.8 1.7h3.6l-1.8 3.1c-0.20005 0.40005-0.30005 0.76672-0.3 1.1-0.00005 0.46672 0.16662 0.86671 0.5 1.2 0.39995 0.33338 0.83328 0.50005 1.3 0.5 0.66661 0.00005 1.2-0.33329 1.6-1l1.8-3 1.8 3c0.33328 0.66671 0.79994 1 1.4 1m-5.3-9.7c0.59995-0.53328 1.2666-0.79994 2-0.8 0.79994 0.00006 1.4999 0.26672 2.1 0.8 0.59994 0.53339 0.89994 1.2001 0.9 2-0.00006 0.86672-0.30006 1.6-0.9 2.2-0.53339 0.53339-1.2334 0.80005-2.1 0.8-0.80006 0.00005-1.4667-0.29995-2-0.9-0.53339-0.59995-0.80005-1.3-0.8-2.1-0.00005-0.79994 0.26661-1.4666 0.8-2m2.1 4c0.53328 0.00005 0.96661-0.19995 1.3-0.6 0.39994-0.39995 0.59994-0.86661 0.6-1.4-0.00006-0.53328-0.20006-0.96661-0.6-1.3-0.33339-0.39994-0.80006-0.59994-1.4-0.6-0.53339 0.00006-1.0001 0.20006-1.4 0.6-0.33339 0.33339-0.50005 0.76672-0.5 1.3-0.00005 0.60005 0.19995 1.1 0.6 1.5 0.39994 0.33339 0.86661 0.50005 1.4 0.5m0.9-2c-0.00006 0.66672-0.30006 1-0.9 1-0.66672 0.00005-1.0001-0.33328-1-1-0.00006-0.59994 0.33328-0.89994 1-0.9 0.59994 0.00006 0.89994 0.30006 0.9 0.9" fill="#10106c"/>
	</g>
</svg>
