<?xml version="1.0" ?>
<svg xmlns="http://www.w3.org/2000/svg" shape-rendering="geometricPrecision" height="95" width="75" version="1.1">
	<rect width="100%" fill="#fff" height="100%"/>
	<g transform="translate(-547.91 -380.28)">
		<g fill="#10106c" transform="translate(374.39 419.09)">
			<path d="m209.37-20.971c-0.00004 3.8667-1.3334 7.1001-4 9.7-2.6 2.5334-5.7334 3.8-9.4 3.8-3.8 0.000044-7-1.3-9.6-3.9-2.6-2.6666-3.9-5.8666-3.9-9.6-0.00001-3.7333 1.3-6.8999 3.9-9.5 2.6666-2.5999 5.8666-3.8999 9.6-3.9 3.8 0.000071 6.9666 1.3334 9.5 4 2.6 2.6001 3.9 5.7334 3.9 9.4m-1 0c-0.00004-3.4666-1.2334-6.3999-3.7-8.8-2.4-2.3999-5.3334-3.5999-8.8-3.6-3.4 0.00007-6.3334 1.2001-8.8 3.6-2.4 2.4001-3.6 5.3334-3.6 8.8-0.00001 3.5334 1.2 6.5001 3.6 8.9 2.4666 2.4 5.4333 3.6 8.9 3.6 3.4666 0.000045 6.4-1.2 8.8-3.6 2.4-2.4666 3.6-5.4333 3.6-8.9m-12.4-10.9c3.1333 0.000069 5.7333 1.0667 7.8 3.2 2.1333 2.1334 3.2 4.7001 3.2 7.7-0.00004 3.1334-1.0667 5.7667-3.2 7.9-2.1334 2.1334-4.7334 3.2-7.8 3.2-3.1334 0.0000464-5.7667-1.0666-7.9-3.2-2.0667-2.1999-3.1-4.8333-3.1-7.9-0.00001-3.1333 1.0666-5.7333 3.2-7.8 2.1333-2.0666 4.7333-3.0999 7.8-3.1m-7.2 18.1c2 1.9334 4.3666 2.9 7.1 2.9 2.8 0.000047 5.1666-0.96662 7.1-2.9 2-1.9333 3-4.3333 3-7.2-0.00004-2.7333-0.9667-5.0666-2.9-7-1.9334-1.9999-4.3-2.9999-7.1-3-2.8667 0.000068-5.2667 1.0001-7.2 3-1.9334 1.9334-2.9 4.2667-2.9 7-0.00002 2.8667 0.96665 5.2667 2.9 7.2m13.8-9.9c0.86663 0.000061 1.5666 0.26673 2.1 0.8 0.5333 0.53339 0.79996 1.2001 0.8 2-0.00004 0.80006-0.2667 1.4667-0.8 2-0.53337 0.46672-1.2334 0.70006-2.1 0.7h-1.8c0.86664 1.5334 1.3 2.5667 1.3 3.1-0.00003 0.73338-0.2667 1.4001-0.8 2-0.53336 0.53338-1.2334 0.80005-2.1 0.8-0.20003 0.000049-0.43336 0.000049-0.7 0-0.20003-0.06662-0.40003-0.16662-0.6-0.3-0.13336-0.19995-0.26669-0.33328-0.4-0.4-0.13336-0.13328-0.30003-0.33328-0.5-0.6-0.13336-0.26662-0.26669-0.46662-0.4-0.6-0.0667-0.13328-0.16669-0.33328-0.3-0.6-0.13336-0.33328-0.23336-0.53328-0.3-0.6-0.80003 1.4667-1.4334 2.3334-1.9 2.6-0.40002 0.33338-0.86669 0.50005-1.4 0.5-0.80002 0.000049-1.5-0.26662-2.1-0.8-0.53335-0.53328-0.80002-1.1666-0.8-1.9-0.00002-0.53328 0.46665-1.5999 1.4-3.2h-1.9c-0.80002 0.000055-1.4667-0.26661-2-0.8-0.53335-0.53328-0.80002-1.1999-0.8-2-0.00002-0.79994 0.23332-1.4333 0.7-1.9 0.53332-0.53327 1.2333-0.79994 2.1-0.8h1.9c-0.86669-1.5333-1.3-2.5666-1.3-3.1-0.00002-0.73327 0.26665-1.3666 0.8-1.9 0.53331-0.59993 1.2-0.89993 2-0.9 0.33331 0.000067 0.59998 0.06673 0.8 0.2 0.26664 0.06673 0.46664 0.16673 0.6 0.3 0.19998 0.06673 0.39998 0.26673 0.6 0.6 0.19998 0.26673 0.33331 0.46673 0.4 0.6 0.0666 0.06673 0.19997 0.30006 0.4 0.7 0.26664 0.40006 0.43331 0.6334 0.5 0.7 0.79997-1.4666 1.4-2.3333 1.8-2.6 0.39997-0.2666 0.89997-0.39993 1.5-0.4 0.79997 0.000066 1.4666 0.26673 2 0.8 0.5333 0.5334 0.79997 1.1667 0.8 1.9-0.00003 0.46673-0.43336 1.5001-1.3 3.1h1.8m-3.4 10.4c0.5333 0.00005 0.96664-0.16662 1.3-0.5 0.39997-0.33328 0.59997-0.76662 0.6-1.3-0.00003-0.33328-0.0667-0.66661-0.2-1l-1.8-3.1h3.5c1.2666 0.000056 1.9-0.56661 1.9-1.7-0.00003-1.1999-0.63337-1.7999-1.9-1.8h-3.5l1.8-3.1c0.1333-0.39994 0.19997-0.7666 0.2-1.1-0.00003-0.4666-0.1667-0.8666-0.5-1.2-0.33336-0.33327-0.7667-0.49993-1.3-0.5-0.6667 0.000066-1.1667 0.3334-1.5 1l-1.8 3.1-1.8-3.1c-0.40002-0.6666-0.90002-0.99993-1.5-1-0.53336 0.000066-1 0.20006-1.4 0.6-0.33335 0.3334-0.50002 0.7334-0.5 1.2-0.00002 0.3334 0.1 0.66673 0.3 1l1.8 3.1h-3.6c-1.2 0.00006-1.8 0.60006-1.8 1.8-0.00002 1.1334 0.59998 1.7001 1.8 1.7h3.6l-1.8 3.1c-0.20002 0.40005-0.30002 0.76672-0.3 1.1-0.00002 0.46672 0.16665 0.86672 0.5 1.2 0.39998 0.33338 0.83331 0.50005 1.3 0.5 0.66664 0.00005 1.2-0.33328 1.6-1l1.8-3 1.8 3c0.33331 0.66672 0.79997 1.0001 1.4 1m-5.3-9.7c0.59998-0.53327 1.2666-0.79994 2-0.8 0.79997 0.000061 1.5 0.26673 2.1 0.8 0.59997 0.53339 0.89997 1.2001 0.9 2-0.00003 0.86672-0.30003 1.6001-0.9 2.2-0.53336 0.53339-1.2334 0.80006-2.1 0.8-0.80003 0.000055-1.4667-0.29994-2-0.9-0.53336-0.59994-0.80002-1.2999-0.8-2.1-0.00002-0.79994 0.26664-1.4666 0.8-2m2.1 4c0.53331 0.000056 0.96664-0.19994 1.3-0.6 0.39997-0.39994 0.59997-0.86661 0.6-1.4-0.00003-0.53328-0.20003-0.96661-0.6-1.3-0.33336-0.39994-0.80003-0.59994-1.4-0.6-0.53336 0.00006-1 0.20006-1.4 0.6-0.33336 0.33339-0.50002 0.76672-0.5 1.3-0.00002 0.60006 0.19998 1.1001 0.6 1.5 0.39998 0.33339 0.86664 0.50006 1.4 0.5m0.9-2c-0.00003 0.66672-0.30003 1.0001-0.9 1-0.66669 0.000057-1-0.33328-1-1-0.00002-0.59994 0.33331-0.89994 1-0.9 0.59997 0.000059 0.89997 0.30006 0.9 0.9m42.4 0c-0.00006 3.8667-1.3334 7.1001-4 9.7-2.6001 2.5334-5.7334 3.8-9.4 3.8-3.8 0.000044-7-1.3-9.6-3.9-2.6-2.6666-3.9-5.8666-3.9-9.6-0.00004-3.7333 1.3-6.8999 3.9-9.5 2.6666-2.5999 5.8666-3.8999 9.6-3.9 3.7999 0.000071 6.9666 1.3334 9.5 4 2.5999 2.6001 3.8999 5.7334 3.9 9.4m-1 0c-0.00006-3.4666-1.2334-6.3999-3.7-8.8-2.4001-2.3999-5.3334-3.5999-8.8-3.6-3.4 0.00007-6.3334 1.2001-8.8 3.6-2.4 2.4001-3.6 5.3334-3.6 8.8-0.00004 3.5334 1.2 6.5001 3.6 8.9 2.4666 2.4 5.4333 3.6 8.9 3.6 3.4666 0.000045 6.3999-1.2 8.8-3.6 2.3999-2.4666 3.5999-5.4333 3.6-8.9m-12.4-10.9c3.1333 0.000069 5.7333 1.0667 7.8 3.2 2.1333 2.1334 3.1999 4.7001 3.2 7.7-0.00006 3.1334-1.0667 5.7667-3.2 7.9-2.1334 2.1334-4.7334 3.2-7.8 3.2-3.1334 0.0000464-5.7667-1.0666-7.9-3.2-2.0667-2.1999-3.1-4.8333-3.1-7.9-0.00004-3.1333 1.0666-5.7333 3.2-7.8 2.1333-2.0666 4.7333-3.0999 7.8-3.1m-7.2 18.1c2 1.9334 4.3666 2.9 7.1 2.9 2.8 0.000047 5.1666-0.96662 7.1-2.9 1.9999-1.9333 2.9999-4.3333 3-7.2-0.00006-2.7333-0.96673-5.0666-2.9-7-1.9334-1.9999-4.3-2.9999-7.1-3-2.8667 0.000068-5.2667 1.0001-7.2 3-1.9334 1.9334-2.9 4.2667-2.9 7-0.00005 2.8667 0.96662 5.2667 2.9 7.2m13.8-9.9c0.86661 0.000061 1.5666 0.26673 2.1 0.8 0.53327 0.53339 0.79994 1.2001 0.8 2-0.00006 0.80006-0.26673 1.4667-0.8 2-0.53339 0.46672-1.2334 0.70006-2.1 0.7h-1.8c0.86661 1.5334 1.2999 2.5667 1.3 3.1-0.00006 0.73338-0.26672 1.4001-0.8 2-0.53339 0.53338-1.2334 0.80005-2.1 0.8-0.20005 0.000049-0.43339 0.000049-0.7 0-0.20005-0.06662-0.40005-0.16662-0.6-0.3-0.13339-0.19995-0.26672-0.33328-0.4-0.4-0.13339-0.13328-0.30005-0.33328-0.5-0.6-0.13339-0.26662-0.26672-0.46662-0.4-0.6-0.0667-0.13328-0.16672-0.33328-0.3-0.6-0.13338-0.33328-0.23338-0.53328-0.3-0.6-0.80005 1.4667-1.4334 2.3334-1.9 2.6-0.40005 0.33338-0.86672 0.50005-1.4 0.5-0.80005 0.000049-1.5-0.26662-2.1-0.8-0.53338-0.53328-0.80005-1.1666-0.8-1.9-0.00005-0.53328 0.46662-1.5999 1.4-3.2h-1.9c-0.80005 0.000055-1.4667-0.26661-2-0.8-0.53338-0.53328-0.80005-1.1999-0.8-2-0.00005-0.79994 0.23329-1.4333 0.7-1.9 0.53329-0.53327 1.2333-0.79994 2.1-0.8h1.9c-0.86672-1.5333-1.3-2.5666-1.3-3.1-0.00005-0.73327 0.26662-1.3666 0.8-1.9 0.53328-0.59993 1.2-0.89993 2-0.9 0.33328 0.000067 0.59995 0.06673 0.8 0.2 0.26662 0.06673 0.46662 0.16673 0.6 0.3 0.19995 0.06673 0.39995 0.26673 0.6 0.6 0.19995 0.26673 0.33328 0.46673 0.4 0.6 0.0666 0.06673 0.19995 0.30006 0.4 0.7 0.26662 0.40006 0.43328 0.6334 0.5 0.7 0.79995-1.4666 1.4-2.3333 1.8-2.6 0.39995-0.2666 0.89995-0.39993 1.5-0.4 0.79994 0.000066 1.4666 0.26673 2 0.8 0.53328 0.5334 0.79994 1.1667 0.8 1.9-0.00006 0.46673-0.43339 1.5001-1.3 3.1h1.8m-3.4 10.4c0.53328 0.00005 0.96661-0.16662 1.3-0.5 0.39994-0.33328 0.59994-0.76662 0.6-1.3-0.00006-0.33328-0.0667-0.66661-0.2-1l-1.8-3.1h3.5c1.2666 0.000056 1.8999-0.56661 1.9-1.7-0.00006-1.1999-0.63339-1.7999-1.9-1.8h-3.5l1.8-3.1c0.13328-0.39994 0.19994-0.7666 0.2-1.1-0.00006-0.4666-0.16672-0.8666-0.5-1.2-0.33339-0.33327-0.76672-0.49993-1.3-0.5-0.66672 0.000066-1.1667 0.3334-1.5 1l-1.8 3.1-1.8-3.1c-0.40005-0.6666-0.90005-0.99993-1.5-1-0.53339 0.000066-1 0.20006-1.4 0.6-0.33338 0.3334-0.50005 0.7334-0.5 1.2-0.00005 0.3334 0.1 0.66673 0.3 1l1.8 3.1h-3.6c-1.2 0.00006-1.8 0.60006-1.8 1.8-0.00005 1.1334 0.59995 1.7001 1.8 1.7h3.6l-1.8 3.1c-0.20005 0.40005-0.30005 0.76672-0.3 1.1-0.00005 0.46672 0.16662 0.86672 0.5 1.2 0.39995 0.33338 0.83328 0.50005 1.3 0.5 0.66661 0.00005 1.2-0.33328 1.6-1l1.8-3 1.8 3c0.33328 0.66672 0.79995 1.0001 1.4 1m-5.3-9.7c0.59995-0.53327 1.2666-0.79994 2-0.8 0.79995 0.000061 1.5 0.26673 2.1 0.8 0.59995 0.53339 0.89995 1.2001 0.9 2-0.00005 0.86672-0.30005 1.6001-0.9 2.2-0.53339 0.53339-1.2334 0.80006-2.1 0.8-0.80005 0.000055-1.4667-0.29994-2-0.9-0.53338-0.59994-0.80005-1.2999-0.8-2.1-0.00005-0.79994 0.26662-1.4666 0.8-2m2.1 4c0.53328 0.000056 0.96661-0.19994 1.3-0.6 0.39995-0.39994 0.59995-0.86661 0.6-1.4-0.00005-0.53328-0.20005-0.96661-0.6-1.3-0.33339-0.39994-0.80005-0.59994-1.4-0.6-0.53338 0.00006-1 0.20006-1.4 0.6-0.33338 0.33339-0.50005 0.76672-0.5 1.3-0.00005 0.60006 0.19995 1.1001 0.6 1.5 0.39995 0.33339 0.86662 0.50006 1.4 0.5m0.9-2c-0.00005 0.66672-0.30005 1.0001-0.9 1-0.66672 0.000057-1-0.33328-1-1-0.00005-0.59994 0.33328-0.89994 1-0.9 0.59995 0.000059 0.89995 0.30006 0.9 0.9" fill="#10106c"/>
		</g>
		<g fill="#9c0000" transform="translate(281.89 420.16)">
			<path d="m301.87 7.6143c-0.00004 3.8667-1.3334 7.1-4 9.7-2.6 2.5334-5.7334 3.8-9.4 3.8-3.8 0.000015-7-1.3-9.6-3.9-2.6-2.6666-3.9-5.8666-3.9-9.6-0.00001-3.7333 1.3-6.9 3.9-9.5 2.6666-2.6 5.8666-3.9 9.6-3.9 3.8 0.0000416 6.9666 1.3334 9.5 4 2.6 2.6 3.9 5.7334 3.9 9.4m-1 0c-0.00004-3.4666-1.2334-6.4-3.7-8.8-2.4-2.4-5.3334-3.6-8.8-3.6-3.4 0.0000406-6.3334 1.2-8.8 3.6-2.4 2.4-3.6 5.3334-3.6 8.8-0.00001 3.5334 1.2 6.5 3.6 8.9 2.4666 2.4 5.4333 3.6 8.9 3.6 3.4666 0.000016 6.4-1.2 8.8-3.6 2.4-2.4666 3.6-5.4333 3.6-8.9m-12.4-10.9c3.1333 0.0000391 5.7333 1.0667 7.8 3.2 2.1333 2.1334 3.2 4.7 3.2 7.7-0.00004 3.1334-1.0667 5.7667-3.2 7.9-2.1334 2.1334-4.7334 3.2-7.8 3.2-3.1334 0.000018-5.7667-1.0666-7.9-3.2-2.0667-2.2-3.1-4.8333-3.1-7.9-0.00001-3.1333 1.0666-5.7333 3.2-7.8 2.1333-2.0666 4.7333-3.1 7.8-3.1m-7.2 18.1c2 1.9334 4.3666 2.9 7.1 2.9 2.8 0.000019 5.1666-0.96665 7.1-2.9 2-1.9333 3-4.3333 3-7.2-0.00004-2.7333-0.9667-5.0666-2.9-7-1.9334-2-4.3-3-7.1-3-2.8667 0.0000382-5.2667 1-7.2 3-1.9334 1.9334-2.9 4.2667-2.9 7-0.00002 2.8667 0.96665 5.2667 2.9 7.2m13.8-9.9c0.86663 0.0000309 1.5666 0.2667 2.1 0.8 0.5333 0.53336 0.79996 1.2 0.8 2-0.00004 0.80003-0.2667 1.4667-0.8 2-0.53337 0.46669-1.2334 0.70003-2.1 0.7h-1.8c0.86664 1.5334 1.3 2.5667 1.3 3.1-0.00003 0.73336-0.2667 1.4-0.8 2-0.53336 0.53335-1.2334 0.80002-2.1 0.8-0.20003 0.00002-0.43336 0.00002-0.7 0-0.20003-0.06665-0.40003-0.16665-0.6-0.3-0.13336-0.19998-0.26669-0.33331-0.4-0.4-0.13336-0.13331-0.30003-0.33331-0.5-0.6-0.13336-0.26664-0.26669-0.46664-0.4-0.6-0.0667-0.13331-0.16669-0.33331-0.3-0.6-0.13336-0.33331-0.23336-0.53331-0.3-0.6-0.80003 1.4667-1.4334 2.3334-1.9 2.6-0.40002 0.33335-0.86669 0.50002-1.4 0.5-0.80002 0.00002-1.5-0.26665-2.1-0.8-0.53335-0.53331-0.80002-1.1666-0.8-1.9-0.00002-0.53331 0.46665-1.6 1.4-3.2h-1.9c-0.80002 0.000026-1.4667-0.26664-2-0.8-0.53335-0.53331-0.80002-1.2-0.8-2-0.00002-0.79997 0.23332-1.4333 0.7-1.9 0.53332-0.5333 1.2333-0.79997 2.1-0.8h1.9c-0.86669-1.5333-1.3-2.5666-1.3-3.1-0.00002-0.7333 0.26665-1.3666 0.8-1.9 0.53331-0.59996 1.2-0.89996 2-0.9 0.33331 0.0000368 0.59998 0.066703 0.8 0.2 0.26664 0.066703 0.46664 0.1667 0.6 0.3 0.19998 0.066703 0.39998 0.2667 0.6 0.6 0.19998 0.2667 0.33331 0.4667 0.4 0.6 0.0666 0.066702 0.19997 0.30003 0.4 0.7 0.26664 0.40003 0.43331 0.63337 0.5 0.7 0.79997-1.4666 1.4-2.3333 1.8-2.6 0.39997-0.26663 0.89997-0.39996 1.5-0.4 0.79997 0.0000367 1.4666 0.2667 2 0.8 0.5333 0.53337 0.79997 1.1667 0.8 1.9-0.00003 0.4667-0.43336 1.5-1.3 3.1h1.8m-3.4 10.4c0.5333 0.000021 0.96664-0.16665 1.3-0.5 0.39997-0.33331 0.59997-0.76664 0.6-1.3-0.00003-0.33331-0.0667-0.66664-0.2-1l-1.8-3.1h3.5c1.2666 0.000027 1.9-0.56664 1.9-1.7-0.00003-1.2-0.63337-1.8-1.9-1.8h-3.5l1.8-3.1c0.1333-0.39997 0.19997-0.76663 0.2-1.1-0.00003-0.46663-0.1667-0.86663-0.5-1.2-0.33336-0.3333-0.7667-0.49996-1.3-0.5-0.6667 0.0000358-1.1667 0.33337-1.5 1l-1.8 3.1-1.8-3.1c-0.40002-0.66663-0.90002-0.99996-1.5-1-0.53336 0.0000358-1 0.20004-1.4 0.6-0.33335 0.33337-0.50002 0.73337-0.5 1.2-0.00002 0.33337 0.1 0.6667 0.3 1l1.8 3.1h-3.6c-1.2 0.00003-1.8 0.60003-1.8 1.8-0.00002 1.1334 0.59998 1.7 1.8 1.7h3.6l-1.8 3.1c-0.20002 0.40002-0.30002 0.76669-0.3 1.1-0.00002 0.46669 0.16665 0.86669 0.5 1.2 0.39998 0.33335 0.83331 0.50002 1.3 0.5 0.66664 0.000021 1.2-0.33331 1.6-1l1.8-3 1.8 3c0.33331 0.66669 0.79997 1 1.4 1m-5.3-9.7c0.59998-0.5333 1.2666-0.79997 2-0.8 0.79997 0.000031 1.5 0.2667 2.1 0.8 0.59997 0.53336 0.89997 1.2 0.9 2-0.00003 0.86669-0.30003 1.6-0.9 2.2-0.53336 0.53336-1.2334 0.80003-2.1 0.8-0.80003 0.000026-1.4667-0.29997-2-0.9-0.53336-0.59997-0.80002-1.3-0.8-2.1-0.00002-0.79997 0.26664-1.4666 0.8-2m2.1 4c0.53331 0.000027 0.96664-0.19997 1.3-0.6 0.39997-0.39997 0.59997-0.86664 0.6-1.4-0.00003-0.5333-0.20003-0.96664-0.6-1.3-0.33336-0.39997-0.80003-0.59997-1.4-0.6-0.53336 0.0000305-1 0.20003-1.4 0.6-0.33336 0.33336-0.50002 0.7667-0.5 1.3-0.00002 0.60003 0.19998 1.1 0.6 1.5 0.39998 0.33336 0.86664 0.50003 1.4 0.5m0.9-2c-0.00003 0.6667-0.30003 1-0.9 1-0.66669 0.000028-1-0.3333-1-1-0.00002-0.59997 0.33331-0.89997 1-0.9 0.59997 0.00003 0.89997 0.30003 0.9 0.9m42.4 0c-0.00006 3.8667-1.3334 7.1-4 9.7-2.6001 2.5334-5.7334 3.8-9.4 3.8-3.8 0.000015-7-1.3-9.6-3.9-2.6-2.6666-3.9-5.8666-3.9-9.6-0.00004-3.7333 1.3-6.9 3.9-9.5 2.6666-2.6 5.8666-3.9 9.6-3.9 3.7999 0.0000416 6.9666 1.3334 9.5 4 2.5999 2.6 3.8999 5.7334 3.9 9.4m-1 0c-0.00006-3.4666-1.2334-6.4-3.7-8.8-2.4001-2.4-5.3334-3.6-8.8-3.6-3.4 0.0000406-6.3334 1.2-8.8 3.6-2.4 2.4-3.6 5.3334-3.6 8.8-0.00004 3.5334 1.2 6.5 3.6 8.9 2.4666 2.4 5.4333 3.6 8.9 3.6 3.4666 0.000016 6.3999-1.2 8.8-3.6 2.3999-2.4666 3.5999-5.4333 3.6-8.9m-12.4-10.9c3.1333 0.0000391 5.7333 1.0667 7.8 3.2 2.1333 2.1334 3.1999 4.7 3.2 7.7-0.00006 3.1334-1.0667 5.7667-3.2 7.9-2.1334 2.1334-4.7334 3.2-7.8 3.2-3.1334 0.000018-5.7667-1.0666-7.9-3.2-2.0667-2.2-3.1-4.8333-3.1-7.9-0.00004-3.1333 1.0666-5.7333 3.2-7.8 2.1333-2.0666 4.7333-3.1 7.8-3.1m-7.2 18.1c2 1.9334 4.3666 2.9 7.1 2.9 2.8 0.000019 5.1666-0.96665 7.1-2.9 1.9999-1.9333 2.9999-4.3333 3-7.2-0.00006-2.7333-0.96673-5.0666-2.9-7-1.9334-2-4.3-3-7.1-3-2.8667 0.0000382-5.2667 1-7.2 3-1.9334 1.9334-2.9 4.2667-2.9 7-0.00005 2.8667 0.96662 5.2667 2.9 7.2m13.8-9.9c0.86661 0.0000309 1.5666 0.2667 2.1 0.8 0.53327 0.53336 0.79994 1.2 0.8 2-0.00006 0.80003-0.26673 1.4667-0.8 2-0.53339 0.46669-1.2334 0.70003-2.1 0.7h-1.8c0.86661 1.5334 1.2999 2.5667 1.3 3.1-0.00006 0.73336-0.26672 1.4-0.8 2-0.53339 0.53335-1.2334 0.80002-2.1 0.8-0.20005 0.00002-0.43339 0.00002-0.7 0-0.20005-0.06665-0.40005-0.16665-0.6-0.3-0.13339-0.19998-0.26672-0.33331-0.4-0.4-0.13339-0.13331-0.30005-0.33331-0.5-0.6-0.13339-0.26664-0.26672-0.46664-0.4-0.6-0.0667-0.13331-0.16672-0.33331-0.3-0.6-0.13338-0.33331-0.23338-0.53331-0.3-0.6-0.80005 1.4667-1.4334 2.3334-1.9 2.6-0.40005 0.33335-0.86672 0.50002-1.4 0.5-0.80005 0.00002-1.5-0.26665-2.1-0.8-0.53338-0.53331-0.80005-1.1666-0.8-1.9-0.00005-0.53331 0.46662-1.6 1.4-3.2h-1.9c-0.80005 0.000026-1.4667-0.26664-2-0.8-0.53338-0.53331-0.80005-1.2-0.8-2-0.00005-0.79997 0.23329-1.4333 0.7-1.9 0.53329-0.5333 1.2333-0.79997 2.1-0.8h1.9c-0.86672-1.5333-1.3-2.5666-1.3-3.1-0.00005-0.7333 0.26662-1.3666 0.8-1.9 0.53328-0.59996 1.2-0.89996 2-0.9 0.33328 0.0000368 0.59995 0.066703 0.8 0.2 0.26662 0.066703 0.46662 0.1667 0.6 0.3 0.19995 0.066703 0.39995 0.2667 0.6 0.6 0.19995 0.2667 0.33328 0.4667 0.4 0.6 0.0666 0.066702 0.19995 0.30003 0.4 0.7 0.26662 0.40003 0.43328 0.63337 0.5 0.7 0.79995-1.4666 1.4-2.3333 1.8-2.6 0.39995-0.26663 0.89995-0.39996 1.5-0.4 0.79994 0.0000367 1.4666 0.2667 2 0.8 0.53328 0.53337 0.79994 1.1667 0.8 1.9-0.00006 0.4667-0.43339 1.5-1.3 3.1h1.8m-3.4 10.4c0.53328 0.000021 0.96661-0.16665 1.3-0.5 0.39994-0.33331 0.59994-0.76664 0.6-1.3-0.00006-0.33331-0.0667-0.66664-0.2-1l-1.8-3.1h3.5c1.2666 0.000027 1.8999-0.56664 1.9-1.7-0.00006-1.2-0.63339-1.8-1.9-1.8h-3.5l1.8-3.1c0.13328-0.39997 0.19994-0.76663 0.2-1.1-0.00006-0.46663-0.16672-0.86663-0.5-1.2-0.33339-0.3333-0.76672-0.49996-1.3-0.5-0.66672 0.0000358-1.1667 0.33337-1.5 1l-1.8 3.1-1.8-3.1c-0.40005-0.66663-0.90005-0.99996-1.5-1-0.53339 0.0000358-1 0.20004-1.4 0.6-0.33338 0.33337-0.50005 0.73337-0.5 1.2-0.00005 0.33337 0.1 0.6667 0.3 1l1.8 3.1h-3.6c-1.2 0.00003-1.8 0.60003-1.8 1.8-0.00005 1.1334 0.59995 1.7 1.8 1.7h3.6l-1.8 3.1c-0.20005 0.40002-0.30005 0.76669-0.3 1.1-0.00005 0.46669 0.16662 0.86669 0.5 1.2 0.39995 0.33335 0.83328 0.50002 1.3 0.5 0.66661 0.000021 1.2-0.33331 1.6-1l1.8-3 1.8 3c0.33328 0.66669 0.79995 1 1.4 1m-5.3-9.7c0.59995-0.5333 1.2666-0.79997 2-0.8 0.79995 0.000031 1.5 0.2667 2.1 0.8 0.59995 0.53336 0.89995 1.2 0.9 2-0.00005 0.86669-0.30005 1.6-0.9 2.2-0.53339 0.53336-1.2334 0.80003-2.1 0.8-0.80005 0.000026-1.4667-0.29997-2-0.9-0.53338-0.59997-0.80005-1.3-0.8-2.1-0.00005-0.79997 0.26662-1.4666 0.8-2m2.1 4c0.53328 0.000027 0.96661-0.19997 1.3-0.6 0.39995-0.39997 0.59995-0.86664 0.6-1.4-0.00005-0.5333-0.20005-0.96664-0.6-1.3-0.33339-0.39997-0.80005-0.59997-1.4-0.6-0.53338 0.0000305-1 0.20003-1.4 0.6-0.33338 0.33336-0.50005 0.7667-0.5 1.3-0.00005 0.60003 0.19995 1.1 0.6 1.5 0.39995 0.33336 0.86662 0.50003 1.4 0.5m0.9-2c-0.00005 0.6667-0.30005 1-0.9 1-0.66672 0.000028-1-0.3333-1-1-0.00005-0.59997 0.33328-0.89997 1-0.9 0.59995 0.00003 0.89995 0.30003 0.9 0.9m-17.4 29.3c-0.00004 3.8667-1.3334 7.0667-4 9.6-2.6 2.6-5.7334 3.9-9.4 3.9-3.8-0.000014-7-1.3333-9.6-4-2.6-2.6-3.9-5.7667-3.9-9.5-0.00001-3.7333 1.3-6.9 3.9-9.5 2.6666-2.6 5.8666-3.9 9.6-3.9 3.8 0.000013 6.9666 1.3333 9.5 4 2.6 2.6 3.9 5.7333 3.9 9.4m-1 0c-0.00004-3.4667-1.2334-6.4-3.7-8.8-2.4-2.4-5.3334-3.6-8.8-3.6-3.4 0.000012-6.3334 1.2-8.8 3.6-2.4 2.4-3.6 5.3333-3.6 8.8-0.00001 3.5333 1.2 6.5 3.6 8.9 2.4666 2.4 5.4333 3.6 8.9 3.6 3.4666-0.000013 6.4-1.2333 8.8-3.7 2.4-2.4 3.6-5.3333 3.6-8.8m-12.4-10.9c3.1333 0.00001 5.7333 1.0667 7.8 3.2 2.1333 2.1333 3.2 4.7 3.2 7.7-0.00004 3.1333-1.0667 5.7667-3.2 7.9-2.1334 2.1333-4.7334 3.2-7.8 3.2-3.1334-0.000012-5.7667-1.1-7.9-3.3-2.0667-2.1333-3.1-4.7333-3.1-7.8-0.00001-3.1333 1.0666-5.7333 3.2-7.8 2.1333-2.0667 4.7333-3.1 7.8-3.1m-7.2 18.1c2 1.9333 4.3666 2.9 7.1 2.9 2.8-0.000011 5.1666-0.96668 7.1-2.9 2-1.9333 3-4.3333 3-7.2-0.00004-2.7333-0.9667-5.0667-2.9-7-1.9334-2-4.3-3-7.1-3-2.8667 0.000009-5.2667 1-7.2 3-1.9334 1.9333-2.9 4.2667-2.9 7-0.00002 2.8667 0.96665 5.2667 2.9 7.2m13.8-9.9c0.86663 0.000002 1.5666 0.26667 2.1 0.8 0.5333 0.53333 0.79996 1.2 0.8 2-0.00004 0.8-0.2667 1.4333-0.8 1.9-0.53337 0.53333-1.2334 0.8-2.1 0.8h-1.8c0.86664 1.5333 1.3 2.5667 1.3 3.1-0.00003 0.73333-0.2667 1.3667-0.8 1.9-0.53336 0.59999-1.2334 0.89999-2.1 0.9-0.20003-0.000009-0.43336-0.03334-0.7-0.1-0.20003-0.000009-0.40003-0.10001-0.6-0.3-0.13336-0.13334-0.26669-0.26668-0.4-0.4-0.13336-0.06667-0.30003-0.23334-0.5-0.5-0.13336-0.26667-0.26669-0.46667-0.4-0.6-0.0667-0.13334-0.16669-0.36667-0.3-0.7-0.13336-0.26667-0.23336-0.43334-0.3-0.5-0.80003 1.4667-1.4334 2.3333-1.9 2.6-0.40002 0.33332-0.86669 0.49999-1.4 0.5-0.80002-0.000009-1.5-0.26668-2.1-0.8-0.53335-0.53334-0.80002-1.1667-0.8-1.9-0.00002-0.53334 0.46665-1.6 1.4-3.2h-1.9c-0.80002-0.000003-1.4667-0.26667-2-0.8-0.53335-0.53334-0.80002-1.2-0.8-2-0.00002-0.8 0.23332-1.4333 0.7-1.9 0.53332-0.53333 1.2333-0.8 2.1-0.8h1.9c-0.86669-1.5333-1.3-2.5667-1.3-3.1-0.00002-0.73333 0.26665-1.3667 0.8-1.9 0.53331-0.59999 1.2-0.89999 2-0.9 0.33331 0.000008 0.59998 0.06668 0.8 0.2 0.26664 0.06667 0.46664 0.16667 0.6 0.3 0.19998 0.06667 0.39998 0.26667 0.6 0.6 0.19998 0.26667 0.33331 0.46667 0.4 0.6 0.0666 0.06667 0.19997 0.30001 0.4 0.7 0.26664 0.4 0.43331 0.63334 0.5 0.7 0.79997-1.4667 1.4-2.3333 1.8-2.6 0.39997-0.26666 0.89997-0.39999 1.5-0.4 0.79997 0.000008 1.4666 0.26667 2 0.8 0.5333 0.53334 0.79997 1.1667 0.8 1.9-0.00003 0.46667-0.43336 1.5-1.3 3.1h1.8m-3.4 10.4c0.5333-0.000008 0.96664-0.16668 1.3-0.5 0.39997-0.33334 0.59997-0.76667 0.6-1.3-0.00003-0.33334-0.0667-0.66667-0.2-1l-1.8-3.1h3.5c1.2666-0.000002 1.9-0.6 1.9-1.8-0.00003-1.1333-0.63337-1.7-1.9-1.7h-3.5l1.8-3.1c0.1333-0.4 0.19997-0.76666 0.2-1.1-0.00003-0.46666-0.1667-0.86666-0.5-1.2-0.33336-0.33333-0.7667-0.49999-1.3-0.5-0.6667 0.000007-1.1667 0.33334-1.5 1l-1.8 3.1-1.8-3.1c-0.40002-0.66666-0.90002-0.99999-1.5-1-0.53336 0.000007-1 0.20001-1.4 0.6-0.33335 0.33334-0.50002 0.73334-0.5 1.2-0.00002 0.33334 0.1 0.66667 0.3 1l1.8 3.1h-3.6c-1.2 0.000001-1.8 0.56667-1.8 1.7-0.00002 1.2 0.59998 1.8 1.8 1.8h3.6l-1.8 3.1c-0.20002 0.39999-0.30002 0.76666-0.3 1.1-0.00002 0.46666 0.16665 0.86666 0.5 1.2 0.39998 0.33332 0.83331 0.49999 1.3 0.5 0.66664-0.000008 1.2-0.33334 1.6-1l1.8-3 1.8 3c0.33331 0.66666 0.79997 0.99999 1.4 1m-5.3-9.7c0.59998-0.53333 1.2666-0.8 2-0.8 0.79997 0.000002 1.5 0.26667 2.1 0.8 0.59997 0.53333 0.89997 1.2 0.9 2-0.00003 0.86666-0.30003 1.5667-0.9 2.1-0.53336 0.6-1.2334 0.9-2.1 0.9-0.80003-0.000004-1.4667-0.3-2-0.9-0.53336-0.6-0.80002-1.3-0.8-2.1-0.00002-0.8 0.26664-1.4667 0.8-2m2.1 4c0.53331-0.000003 0.96664-0.2 1.3-0.6 0.39997-0.4 0.59997-0.86667 0.6-1.4-0.00003-0.53333-0.20003-0.96667-0.6-1.3-0.33336-0.4-0.80003-0.6-1.4-0.6-0.53336 0.000001-1 0.2-1.4 0.6-0.33336 0.33333-0.50002 0.76667-0.5 1.3-0.00002 0.6 0.19998 1.0667 0.6 1.4 0.39998 0.4 0.86664 0.6 1.4 0.6m0.9-2c-0.00003 0.66666-0.30003 1-0.9 1-0.66669-0.000002-1-0.33334-1-1-0.00002-0.6 0.33331-0.9 1-0.9 0.59997 0 0.89997 0.3 0.9 0.9m42.4 0c-0.00006 3.8667-1.3334 7.0667-4 9.6-2.6001 2.6-5.7334 3.9-9.4 3.9-3.8-0.000014-7-1.3333-9.6-4-2.6-2.6-3.9-5.7667-3.9-9.5-0.00004-3.7333 1.3-6.9 3.9-9.5 2.6666-2.6 5.8666-3.9 9.6-3.9 3.7999 0.000013 6.9666 1.3333 9.5 4 2.5999 2.6 3.8999 5.7333 3.9 9.4m-1 0c-0.00006-3.4667-1.2334-6.4-3.7-8.8-2.4001-2.4-5.3334-3.6-8.8-3.6-3.4 0.000012-6.3334 1.2-8.8 3.6-2.4 2.4-3.6 5.3333-3.6 8.8-0.00004 3.5333 1.2 6.5 3.6 8.9 2.4666 2.4 5.4333 3.6 8.9 3.6 3.4666-0.000013 6.3999-1.2333 8.8-3.7 2.3999-2.4 3.5999-5.3333 3.6-8.8m-12.4-10.9c3.1333 0.00001 5.7333 1.0667 7.8 3.2 2.1333 2.1333 3.1999 4.7 3.2 7.7-0.00006 3.1333-1.0667 5.7667-3.2 7.9-2.1334 2.1333-4.7334 3.2-7.8 3.2-3.1334-0.000012-5.7667-1.1-7.9-3.3-2.0667-2.1333-3.1-4.7333-3.1-7.8-0.00004-3.1333 1.0666-5.7333 3.2-7.8 2.1333-2.0667 4.7333-3.1 7.8-3.1m-7.2 18.1c2 1.9333 4.3666 2.9 7.1 2.9 2.8-0.000011 5.1666-0.96668 7.1-2.9 1.9999-1.9333 2.9999-4.3333 3-7.2-0.00006-2.7333-0.96673-5.0667-2.9-7-1.9334-2-4.3-3-7.1-3-2.8667 0.000009-5.2667 1-7.2 3-1.9334 1.9333-2.9 4.2667-2.9 7-0.00005 2.8667 0.96662 5.2667 2.9 7.2m13.8-9.9c0.86661 0.000002 1.5666 0.26667 2.1 0.8 0.53327 0.53333 0.79994 1.2 0.8 2-0.00006 0.8-0.26673 1.4333-0.8 1.9-0.53339 0.53333-1.2334 0.8-2.1 0.8h-1.8c0.86661 1.5333 1.2999 2.5667 1.3 3.1-0.00006 0.73333-0.26672 1.3667-0.8 1.9-0.53339 0.59999-1.2334 0.89999-2.1 0.9-0.20005-0.000009-0.43339-0.03334-0.7-0.1-0.20005-0.000009-0.40005-0.10001-0.6-0.3-0.13339-0.13334-0.26672-0.26668-0.4-0.4-0.13339-0.06667-0.30005-0.23334-0.5-0.5-0.13339-0.26667-0.26672-0.46667-0.4-0.6-0.0667-0.13334-0.16672-0.36667-0.3-0.7-0.13338-0.26667-0.23338-0.43334-0.3-0.5-0.80005 1.4667-1.4334 2.3333-1.9 2.6-0.40005 0.33332-0.86672 0.49999-1.4 0.5-0.80005-0.000009-1.5-0.26668-2.1-0.8-0.53338-0.53334-0.80005-1.1667-0.8-1.9-0.00005-0.53334 0.46662-1.6 1.4-3.2h-1.9c-0.80005-0.000003-1.4667-0.26667-2-0.8-0.53338-0.53334-0.80005-1.2-0.8-2-0.00005-0.8 0.23329-1.4333 0.7-1.9 0.53329-0.53333 1.2333-0.8 2.1-0.8h1.9c-0.86672-1.5333-1.3-2.5667-1.3-3.1-0.00005-0.73333 0.26662-1.3667 0.8-1.9 0.53328-0.59999 1.2-0.89999 2-0.9 0.33328 0.000008 0.59995 0.06668 0.8 0.2 0.26662 0.06667 0.46662 0.16667 0.6 0.3 0.19995 0.06667 0.39995 0.26667 0.6 0.6 0.19995 0.26667 0.33328 0.46667 0.4 0.6 0.0666 0.06667 0.19995 0.30001 0.4 0.7 0.26662 0.4 0.43328 0.63334 0.5 0.7 0.79995-1.4667 1.4-2.3333 1.8-2.6 0.39995-0.26666 0.89995-0.39999 1.5-0.4 0.79994 0.000008 1.4666 0.26667 2 0.8 0.53328 0.53334 0.79994 1.1667 0.8 1.9-0.00006 0.46667-0.43339 1.5-1.3 3.1h1.8m-3.4 10.4c0.53328-0.000008 0.96661-0.16668 1.3-0.5 0.39994-0.33334 0.59994-0.76667 0.6-1.3-0.00006-0.33334-0.0667-0.66667-0.2-1l-1.8-3.1h3.5c1.2666-0.000002 1.8999-0.6 1.9-1.8-0.00006-1.1333-0.63339-1.7-1.9-1.7h-3.5l1.8-3.1c0.13328-0.4 0.19994-0.76666 0.2-1.1-0.00006-0.46666-0.16672-0.86666-0.5-1.2-0.33339-0.33333-0.76672-0.49999-1.3-0.5-0.66672 0.000007-1.1667 0.33334-1.5 1l-1.8 3.1-1.8-3.1c-0.40005-0.66666-0.90005-0.99999-1.5-1-0.53339 0.000007-1 0.20001-1.4 0.6-0.33338 0.33334-0.50005 0.73334-0.5 1.2-0.00005 0.33334 0.1 0.66667 0.3 1l1.8 3.1h-3.6c-1.2 0.000001-1.8 0.56667-1.8 1.7-0.00005 1.2 0.59995 1.8 1.8 1.8h3.6l-1.8 3.1c-0.20005 0.39999-0.30005 0.76666-0.3 1.1-0.00005 0.46666 0.16662 0.86666 0.5 1.2 0.39995 0.33332 0.83328 0.49999 1.3 0.5 0.66661-0.000008 1.2-0.33334 1.6-1l1.8-3 1.8 3c0.33328 0.66666 0.79995 0.99999 1.4 1m-5.3-9.7c0.59995-0.53333 1.2666-0.8 2-0.8 0.79995 0.000002 1.5 0.26667 2.1 0.8 0.59995 0.53333 0.89995 1.2 0.9 2-0.00005 0.86666-0.30005 1.5667-0.9 2.1-0.53339 0.6-1.2334 0.9-2.1 0.9-0.80005-0.000004-1.4667-0.3-2-0.9-0.53338-0.6-0.80005-1.3-0.8-2.1-0.00005-0.8 0.26662-1.4667 0.8-2m2.1 4c0.53328-0.000003 0.96661-0.2 1.3-0.6 0.39995-0.4 0.59995-0.86667 0.6-1.4-0.00005-0.53333-0.20005-0.96667-0.6-1.3-0.33339-0.4-0.80005-0.6-1.4-0.6-0.53338 0.000001-1 0.2-1.4 0.6-0.33338 0.33333-0.50005 0.76667-0.5 1.3-0.00005 0.6 0.19995 1.0667 0.6 1.4 0.39995 0.4 0.86662 0.6 1.4 0.6m0.9-2c-0.00005 0.66666-0.30005 1-0.9 1-0.66672-0.000002-1-0.33334-1-1-0.00005-0.6 0.33328-0.9 1-0.9 0.59995 0 0.89995 0.3 0.9 0.9" fill="#9c0000"/>
		</g>
	</g>
</svg>
