<?xml version="1.0" encoding="UTF-8" standalone="no"?>
<svg xmlns="http://www.w3.org/2000/svg" shape-rendering="geometricPrecision" height="95" width="75" version="1.1"><rect width="100%" fill="#fff" height="100%"/><g transform="translate(-577.81 -364.02)"><g fill="#10106c" transform="translate(547.93 379.86)"><path d="m100.6 13.543c-0.00007 3-1.0334 5.5334-3.1 7.6-2.0667 2-4.5667 3-7.5 3-3.0001 0.000036-5.5334-1.0333-7.6-3.1-2.0001-2.0666-3.0001-4.5666-3-7.5-0.000052-2.9333 1.0333-5.4333 3.1-7.5 2.0666-2.0666 4.5666-3.0999 7.5-3.1 2.9999 0.0000568 5.4999 1.0334 7.5 3.1 2.0666 2.0667 3.0999 4.5667 3.1 7.5m-0.8 0c-0.000072-2.7333-0.96674-5.0333-2.9-6.9-1.8667-1.9333-4.1667-2.8999-6.9-2.9-2.7334 0.000056-5.0667 0.96672-7 2.9-1.8667 1.8667-2.8001 4.1667-2.8 6.9-0.000053 2.8 0.93328 5.1334 2.8 7 1.9333 1.8667 4.2666 2.8 7 2.8 2.7999 0.000036 5.1333-0.9333 7-2.8 1.8666-1.9333 2.7999-4.2666 2.8-7m-9.8-8.7001c2.4666 0.0000549 4.5333 0.86672 6.2 2.6 1.6666 1.7334 2.4999 3.7667 2.5 6.1-0.000071 2.4667-0.86674 4.5334-2.6 6.2-1.6667 1.6667-3.7001 2.5-6.1 2.5-2.4667 0.000038-4.5334-0.8333-6.2-2.5-1.6667-1.7333-2.5001-3.8-2.5-6.2-0.000054-2.4666 0.83328-4.5333 2.5-6.2 1.7333-1.6666 3.7999-2.4999 6.2-2.5m-5.6 14.4c1.5333 1.4667 3.3999 2.2 5.6 2.2 2.1999 0.000038 4.0666-0.73329 5.6-2.2 1.5333-1.5333 2.2999-3.4333 2.3-5.7-0.00007-2.2-0.76674-4.0666-2.3-5.6-1.5334-1.5333-3.4001-2.2999-5.6-2.3-2.2667 0.0000541-4.1667 0.76672-5.7 2.3-1.4667 1.5334-2.2001 3.4-2.2 5.6-0.000055 2.2667 0.76661 4.1667 2.3 5.7m10.8-7.8c0.6666 0.000048 1.1999 0.20005 1.6 0.6 0.4666 0.40005 0.69993 0.93338 0.7 1.6-0.00007 0.60005-0.20007 1.1-0.6 1.5-0.40007 0.40004-0.96674 0.60004-1.7 0.6h-1.4c0.6666 1.2 0.99993 2 1 2.4-0.000067 0.60004-0.2334 1.1334-0.7 1.6-0.40007 0.40004-0.90007 0.60004-1.5 0.6-0.20006 0.000039-0.40006 0.000039-0.6 0-0.1334-0.06663-0.30006-0.13329-0.5-0.2-0.1334-0.13329-0.26673-0.23329-0.4-0.3-0.06673-0.13329-0.16673-0.29996-0.3-0.5-0.1334-0.19996-0.2334-0.33329-0.3-0.4-0.06673-0.13329-0.16673-0.29996-0.3-0.5-0.06673-0.26662-0.1334-0.43329-0.2-0.5-0.66673 1.1334-1.1667 1.8-1.5 2-0.26673 0.26671-0.63339 0.40004-1.1 0.4-0.60006 0.000039-1.1334-0.19996-1.6-0.6-0.46672-0.46663-0.70006-0.96663-0.7-1.5-0.000058-0.39996 0.36661-1.2333 1.1-2.5h-1.4c-0.66672 0.000044-1.2334-0.19996-1.7-0.6-0.40006-0.46662-0.60006-0.99995-0.6-1.6-0.000055-0.66662 0.19994-1.1666 0.6-1.5 0.39994-0.39995 0.96661-0.59995 1.7-0.6h1.4c-0.66672-1.2666-1.0001-2.0999-1-2.5-0.000058-0.59995 0.19994-1.0999 0.6-1.5 0.46661-0.46661 0.99994-0.69995 1.6-0.7 0.26661 0.000053 0.49994 0.06672 0.7 0.2 0.19994 0.066719 0.33327 0.13339 0.4 0.2 0.13327 0.066719 0.2666 0.23339 0.4 0.5 0.19994 0.20005 0.33327 0.33339 0.4 0.4 0.06661 0.066718 0.1666 0.26672 0.3 0.6 0.19994 0.33338 0.33327 0.53338 0.4 0.6 0.6666-1.1999 1.1666-1.8999 1.5-2.1 0.2666-0.19995 0.63327-0.29995 1.1-0.3 0.59993 0.0000529 1.1333 0.20005 1.6 0.6 0.4666 0.40005 0.69993 0.90005 0.7 1.5-0.000067 0.33338-0.36673 1.1667-1.1 2.5h1.4m-2.6 8.1c0.39993 0.00004 0.73327-0.13329 1-0.4 0.2666-0.26663 0.39993-0.59996 0.4-1-0.000067-0.26662-0.06673-0.49996-0.2-0.7l-1.4-2.5h2.8c0.99993 0.000045 1.4999-0.46662 1.5-1.4-0.000069-0.93329-0.50007-1.4-1.5-1.4h-2.8l1.4-2.4c0.19993-0.26662 0.29993-0.56662 0.3-0.9-0.000067-0.33328-0.16673-0.63328-0.5-0.9-0.26673-0.26661-0.60007-0.39995-1-0.4-0.46673 0.0000522-0.86673 0.23339-1.2 0.7l-1.4 2.5-1.4-2.5001c-0.33339-0.46661-0.73339-0.69995-1.2-0.7-0.40006 0.0000522-0.76673 0.13339-1.1 0.4-0.26672 0.26672-0.40006 0.60005-0.4 1-0.000058 0.26672 0.09994 0.53338 0.3 0.8l1.4 2.4h-2.8c-1.0001 0.000048-1.5001 0.46671-1.5 1.4-0.000056 0.93338 0.49994 1.4 1.5 1.4h2.8l-1.4 2.5c-0.20006 0.26671-0.30006 0.53338-0.3 0.8-0.000058 0.33338 0.13328 0.63337 0.4 0.9 0.33327 0.26671 0.69994 0.40004 1.1 0.4 0.46661 0.00004 0.86661-0.23329 1.2-0.7l1.4-2.5 1.4 2.5c0.33327 0.46671 0.73327 0.70004 1.2 0.7m-4.3-7.6c0.4666-0.46662 0.99994-0.69995 1.6-0.7 0.6666 0.000049 1.2333 0.23338 1.7 0.7 0.4666 0.40005 0.69994 0.93338 0.7 1.6-0.000065 0.66671-0.2334 1.2334-0.7 1.7-0.40006 0.40004-0.9334 0.60004-1.6 0.6-0.66673 0.000044-1.2334-0.23329-1.7-0.7-0.40006-0.46662-0.60006-0.99995-0.6-1.6-0.00006-0.66662 0.19994-1.2 0.6-1.6m1.7 3.1c0.39994 0.000045 0.73327-0.13329 1-0.4 0.33327-0.33329 0.49994-0.69995 0.5-1.1-0.000064-0.39995-0.16673-0.73329-0.5-1-0.26673-0.33329-0.6334-0.49995-1.1-0.5-0.40006 0.000048-0.7334 0.16671-1 0.5-0.26673 0.26671-0.40006 0.60005-0.4 1-0.000061 0.46671 0.13327 0.83338 0.4 1.1 0.33327 0.26671 0.69994 0.40004 1.1 0.4m0.8-1.5c-0.000063 0.53338-0.26673 0.80004-0.8 0.8-0.5334 0.000045-0.80006-0.26662-0.8-0.8-0.000062-0.46662 0.2666-0.69995 0.8-0.7 0.53327 0.000047 0.79994 0.23338 0.8 0.7m-13-7.3c-0.00005 3.0001-1.0334 5.5334-3.1 7.6-2.0667 2-4.5667 3-7.5 3-3 0.000043-5.5334-1.0333-7.6-3.1-2-2.0666-3-4.5666-3-7.5-0.000029-2.9333 1.0333-5.4333 3.1-7.5 2.0666-2.0666 4.5666-3.0999 7.5-3.1 3 0.0000641 5.5 1.0334 7.5 3.1 2.0666 2.0667 3.1 4.5667 3.1 7.5m-0.8 0c0-2.7334-0.967-5.0334-2.9-6.9001-1.867-1.9333-4.167-2.9-6.9-2.9-2.7334 0.0000633-5.0667 0.96673-7 2.9-1.8667 1.8667-2.8 4.1667-2.8 6.9-0.00003 2.8001 0.9333 5.1334 2.8 7 1.9333 1.8667 4.2666 2.8 7 2.8 2.8 0.000044 5.1333-0.93329 7-2.8 1.8666-1.9333 2.8-4.2666 2.8-7m-9.8-8.7c2.4666 0.0000622 4.5333 0.86673 6.2 2.6 1.6666 1.7334 2.5 3.7667 2.5 6.1-0.000048 2.4667-0.86671 4.5334-2.6 6.2-1.6667 1.6667-3.7 2.5-6.1 2.5-2.4667 0.000045-4.5334-0.83329-6.2-2.5-1.667-1.733-2.5-3.8001-2.5-6.2001 0-2.4667 0.833-4.5333 2.5-6.2 1.733-1.6667 3.8-2.5 6.2-2.5m-5.6 14.4c1.5333 1.4667 3.4 2.2 5.6 2.2 2.2 0.000046 4.0666-0.73329 5.6-2.2 1.5333-1.5333 2.3-3.4333 2.3-5.7-0.000048-2.1999-0.76671-4.0666-2.3-5.6-1.5334-1.5333-3.4-2.2999-5.6-2.3-2.2667 0.0000614-4.1667 0.76673-5.7 2.3-1.4667 1.5334-2.2 3.4001-2.2 5.6-0.000032 2.2667 0.76663 4.1667 2.3 5.7m10.8-7.8001c0.66662 0.0000556 1.2 0.20006 1.6 0.6 0.46662 0.40005 0.69995 0.93339 0.7 1.6-0.000047 0.60005-0.20005 1.1001-0.6 1.5-0.40005 0.40005-0.96671 0.60005-1.7 0.6h-1.4c0.66662 1.2001 0.99996 2 1 2.4-0.000045 0.60005-0.23338 1.1334-0.7 1.6-0.40004 0.40005-0.90004 0.60005-1.5 0.6-0.20004 0.000047-0.40004 0.000047-0.6 0-0.13338-0.06662-0.30004-0.13329-0.5-0.2-0.13337-0.13329-0.26671-0.23329-0.4-0.3-0.06671-0.13329-0.16671-0.29995-0.3-0.5-0.13337-0.19995-0.23337-0.33328-0.3-0.4-0.06671-0.13328-0.16671-0.29995-0.3-0.5-0.06671-0.26662-0.13337-0.43328-0.2-0.5-0.66671 1.1334-1.1667 1.8-1.5 2-0.2667 0.26671-0.63337 0.40005-1.1 0.4-0.60004 0.000047-1.1334-0.19995-1.6-0.6-0.4667-0.46662-0.70004-0.96662-0.7-1.5-0.000035-0.39995 0.36663-1.2333 1.1-2.5h-1.4c-0.6667 0.0000513-1.2334-0.19995-1.7-0.6-0.40003-0.46661-0.60003-0.99995-0.6-1.6-0.000032-0.66661 0.19997-1.1666 0.6-1.5 0.39997-0.39994 0.96663-0.59994 1.7-0.6h1.4c-0.6667-1.2666-1-2.0999-1-2.5-0.000035-0.59994 0.19996-1.0999 0.6-1.5 0.46663-0.46661 0.99996-0.69994 1.6-0.7 0.26663 0.0000603 0.49996 0.066727 0.7 0.2 0.19996 0.066727 0.3333 0.13339 0.4 0.2 0.1333 0.066726 0.26663 0.23339 0.4 0.5 0.19996 0.20006 0.33329 0.33339 0.4 0.4 0.06663 0.066726 0.16663 0.26673 0.3 0.6 0.19996 0.33339 0.33329 0.53339 0.4 0.6 0.66663-1.1999 1.1666-1.8999 1.5-2.1 0.26662-0.19994 0.63329-0.29994 1.1-0.3 0.59996 0.0000602 1.1333 0.20006 1.6 0.6 0.46662 0.40006 0.69996 0.90006 0.7 1.5-0.000045 0.33339-0.36671 1.1667-1.1 2.5h1.4m-2.6 8.1c0.39996 0.000048 0.73329-0.13329 1-0.4 0.26662-0.26662 0.39996-0.59995 0.4-1-0.000044-0.26662-0.06671-0.49995-0.2-0.7l-1.4-2.5h2.8c0.99995 0.0000521 1.5-0.46661 1.5-1.4-0.000046-0.93328-0.50005-1.3999-1.5-1.4h-2.8l1.4-2.4c0.19996-0.26661 0.29996-0.56661 0.3-0.9-0.000044-0.33327-0.16671-0.63327-0.5-0.9-0.26671-0.26661-0.60004-0.39994-1-0.4-0.46671 0.0000595-0.86671 0.23339-1.2 0.7l-1.4 2.4999-1.4-2.5c-0.33337-0.46661-0.73337-0.69994-1.2-0.7-0.40004 0.0000595-0.7667 0.13339-1.1 0.4-0.2667 0.26673-0.40004 0.60006-0.4 1-0.000036 0.26672 0.09996 0.53339 0.3 0.8l1.4 2.4h-2.8c-1 0.0000549-1.5 0.46672-1.5 1.4-0.000033 0.93339 0.49997 1.4001 1.5 1.4h2.8l-1.4 2.5c-0.20004 0.26672-0.30004 0.53338-0.3 0.8-0.000036 0.33338 0.1333 0.63338 0.4 0.9 0.3333 0.26671 0.69996 0.40005 1.1 0.4 0.46663 0.000048 0.86663-0.23329 1.2-0.7l1.4-2.5 1.4 2.5c0.33329 0.46671 0.73329 0.70005 1.2 0.7m-4.3-7.6001c0.46663-0.46661 0.99996-0.69994 1.6-0.7 0.66663 0.0000558 1.2333 0.23339 1.7 0.7 0.46662 0.40005 0.69996 0.93339 0.7 1.6-0.000042 0.66672-0.23338 1.2334-0.7 1.7-0.40004 0.40005-0.93337 0.60005-1.6 0.6-0.66671 0.0000512-1.2334-0.23328-1.7-0.7-0.40004-0.46661-0.60004-0.99995-0.6-1.6-0.000037-0.66661 0.19996-1.1999 0.6-1.6m1.7 3.1c0.39996 0.000052 0.73329-0.13328 1-0.4 0.33329-0.33328 0.49996-0.69995 0.5-1.1-0.000041-0.39995-0.16671-0.73328-0.5-1-0.26671-0.33328-0.63337-0.49994-1.1-0.5-0.40004 0.000055-0.73337 0.16672-1 0.5-0.2667 0.26672-0.40004 0.60005-0.4 1-0.000038 0.46672 0.1333 0.83339 0.4 1.1 0.33329 0.26672 0.69996 0.40005 1.1 0.4m0.8-1.5c-0.000041 0.53339-0.26671 0.80005-0.8 0.8-0.53337 0.0000527-0.80004-0.26661-0.8-0.8-0.000039-0.46661 0.26663-0.69995 0.8-0.7 0.53329 0.0000542 0.79996 0.23339 0.8 0.7m-13-7.3c-0.000028 3.0001-1.0334 5.5334-3.1 7.6-2.0667 2.0001-4.5667 3.0001-7.5 3-3 0.0000502-5.5333-1.0333-7.6-3.1-2-2.0666-3-4.5666-3-7.5-0.000006-2.9333 1.0333-5.4333 3.1-7.5 2.0667-2.0666 4.5667-3.0999 7.5-3.1 3 0.000071 5.5 1.0334 7.5 3.1 2.0666 2.0667 3.1 4.5667 3.1 7.5m-0.8 0c-0.000027-2.7333-0.96669-5.0333-2.9-6.9-1.8667-1.9333-4.1667-2.8999-6.9-2.9-2.7333 0.000071-5.0667 0.96674-7 2.9-1.8667 1.8667-2.8 4.1667-2.8 6.9-0.000007 2.8001 0.93332 5.1334 2.8 7 1.9333 1.8667 4.2667 2.8001 7 2.8 2.8 0.000051 5.1333-0.93328 7-2.8 1.8666-1.9333 2.8-4.2666 2.8-7m-9.8-8.7c2.4666 0.0000695 4.5333 0.86674 6.2 2.6 1.6666 1.7334 2.5 3.7667 2.5 6.1-0.000026 2.4667-0.86669 4.5334-2.6 6.2-1.6667 1.6667-3.7 2.5001-6.1 2.5-2.4667 0.0000521-4.5333-0.83328-6.2-2.5-1.6667-1.7333-2.5-3.7999-2.5-6.2-0.000008-2.4666 0.83332-4.5333 2.5-6.2 1.7333-1.6666 3.8-2.4999 6.2-2.5m-5.6 14.4c1.5333 1.4667 3.4 2.2001 5.6 2.2 2.2 0.0000529 4.0666-0.73328 5.6-2.2 1.5333-1.5333 2.3-3.4333 2.3-5.7-0.000025-2.1999-0.76669-4.0666-2.3-5.6-1.5334-1.5333-3.4-2.2999-5.6-2.3-2.2667 0.0000687-4.1667 0.76673-5.7 2.3-1.4667 1.5334-2.2 3.4001-2.2 5.6-0.000009 2.2667 0.76666 4.1667 2.3 5.7m10.8-7.8c0.66664 0.0000629 1.2 0.20006 1.6 0.6 0.46664 0.40006 0.69998 0.93339 0.7 1.6-0.000024 0.60006-0.20002 1.1001-0.6 1.5-0.40002 0.40006-0.96669 0.60006-1.7 0.6h-1.4c0.66664 1.2001 0.99998 2.0001 1 2.4-0.000022 0.60006-0.23336 1.1334-0.7 1.6-0.40002 0.40005-0.90002 0.60005-1.5 0.6-0.20002 0.000054-0.40002 0.000054-0.6 0-0.13335-0.066613-0.30002-0.13328-0.5-0.2-0.13335-0.13328-0.26668-0.23328-0.4-0.3-0.06668-0.13328-0.16668-0.29995-0.3-0.5-0.13335-0.19994-0.23335-0.33328-0.3-0.4-0.06668-0.13328-0.16668-0.29994-0.3-0.5-0.06668-0.26661-0.13335-0.43328-0.2-0.5-0.66668 1.1334-1.1667 1.8001-1.5 2-0.26668 0.26672-0.63335 0.40005-1.1 0.4-0.60001 0.000054-1.1333-0.19995-1.6-0.6-0.46668-0.46661-0.70001-0.96661-0.7-1.5-0.000012-0.39994 0.36665-1.2333 1.1-2.5h-1.4c-0.66668 0.0000586-1.2333-0.19994-1.7-0.6-0.40001-0.46661-0.60001-0.99994-0.6-1.6-0.000009-0.66661 0.19999-1.1666 0.6-1.5 0.39999-0.39994 0.96666-0.59994 1.7-0.6h1.4c-0.66668-1.2666-1-2.0999-1-2.5-0.000012-0.59993 0.19999-1.0999 0.6-1.5 0.46665-0.4666 0.99999-0.69993 1.6-0.7 0.26665 0.0000676 0.49998 0.066734 0.7 0.2 0.19998 0.066734 0.33332 0.1334 0.4 0.2 0.13332 0.066734 0.26665 0.2334 0.4 0.5 0.19998 0.20007 0.33332 0.3334 0.4 0.4 0.06665 0.066733 0.16665 0.26673 0.3 0.6 0.19998 0.3334 0.33332 0.5334 0.4 0.6 0.66665-1.1999 1.1666-1.8999 1.5-2.1 0.26665-0.19993 0.63331-0.29993 1.1-0.3 0.59998 0.0000675 1.1333 0.20007 1.6 0.6 0.46664 0.40007 0.69998 0.90007 0.7 1.5-0.000022 0.3334-0.36669 1.1667-1.1 2.5h1.4m-2.6 8.1c0.39998 0.0000548 0.73331-0.13328 1-0.4 0.26665-0.26661 0.39998-0.59994 0.4-1-0.000021-0.26661-0.06669-0.49994-0.2-0.7l-1.4-2.5h2.8c0.99998 0.0000594 1.5-0.46661 1.5-1.4-0.000024-0.93327-0.50002-1.3999-1.5-1.4h-2.8l1.4-2.4c0.19998-0.2666 0.29998-0.5666 0.3-0.9-0.000021-0.33327-0.16669-0.63327-0.5-0.9-0.26669-0.2666-0.60002-0.39993-1-0.4-0.46669 0.0000668-0.86668 0.2334-1.2 0.7l-1.4 2.5-1.4-2.5c-0.33335-0.4666-0.73335-0.69993-1.2-0.7-0.40001 0.0000668-0.76668 0.1334-1.1 0.4-0.26668 0.26673-0.40001 0.60007-0.4 1-0.000013 0.26673 0.09999 0.5334 0.3 0.8l1.4 2.4h-2.8c-1 0.0000622-1.5 0.46673-1.5 1.4-0.00001 0.93339 0.49999 1.4001 1.5 1.4h2.8l-1.4 2.5c-0.20001 0.26672-0.30001 0.53339-0.3 0.8-0.000013 0.33339 0.13332 0.63339 0.4 0.9 0.33332 0.26672 0.69999 0.40005 1.1 0.4 0.46665 0.0000548 0.86665-0.23328 1.2-0.7l1.4-2.5 1.4 2.5c0.33332 0.46672 0.73331 0.70005 1.2 0.7m-4.3-7.6c0.46665-0.4666 0.99998-0.69994 1.6-0.7 0.66665 0.0000631 1.2333 0.2334 1.7 0.7 0.46665 0.40006 0.69998 0.93339 0.7 1.6-0.000019 0.66673-0.23335 1.2334-0.7 1.7-0.40002 0.40006-0.93335 0.60006-1.6 0.6-0.66668 0.0000585-1.2333-0.23327-1.7-0.7-0.40002-0.46661-0.60002-0.99994-0.6-1.6-0.000015-0.66661 0.19998-1.1999 0.6-1.6m1.7 3.1c0.39998 0.0000593 0.73332-0.13327 1-0.4 0.33332-0.33327 0.49998-0.69994 0.5-1.1-0.000018-0.39994-0.16668-0.73327-0.5-1-0.26668-0.33327-0.63335-0.49994-1.1-0.5-0.40002 0.0000623-0.73335 0.16673-1 0.5-0.26668 0.26673-0.40002 0.60006-0.4 1-0.000015 0.46673 0.13332 0.83339 0.4 1.1 0.33332 0.26673 0.69998 0.40006 1.1 0.4m0.8-1.5c-0.000018 0.53339-0.26668 0.80006-0.8 0.8-0.53335 0.00006-0.80002-0.26661-0.8-0.8-0.000016-0.46661 0.26665-0.69994 0.8-0.7 0.53332 0.0000615 0.79998 0.23339 0.8 0.7" fill="#10106c"/></g><g fill="#9c0000" transform="translate(300.97 385.7)"><path d="m310.18 57.04c-0.00004 3-1.0334 5.5-3.1 7.5-2.0667 2.0667-4.5667 3.1-7.5 3.1-3-0.000013-5.5334-1.0333-7.6-3.1-2-2.0667-3-4.5667-3-7.5-0.00002-2.9333 1.0333-5.4333 3.1-7.5 2.0666-2.0667 4.5666-3.1 7.5-3.1 3 0.000008 5.5 1.0333 7.5 3.1 2.0666 2.0667 3.1 4.5667 3.1 7.5m-0.8 0c-0.00004-2.7333-0.9667-5.0333-2.9-6.9-1.8667-1.9333-4.1667-2.9-6.9-2.9-2.7334 0.000007-5.0667 0.96667-7 2.9-1.8667 1.8667-2.8 4.1667-2.8 6.9-0.00002 2.8 0.93332 5.1333 2.8 7 1.9333 1.8667 4.2666 2.8 7 2.8 2.8-0.000012 5.1333-0.96668 7-2.9 1.8666-1.8667 2.8-4.1667 2.8-6.9m-9.8-8.7c2.4666 0.000006 4.5333 0.86667 6.2 2.6 1.6666 1.7333 2.5 3.7667 2.5 6.1-0.00003 2.4667-0.8667 4.5333-2.6 6.2-1.6667 1.6667-3.7 2.5-6.1 2.5-2.4667-0.000011-4.5334-0.86668-6.2-2.6-1.6667-1.6667-2.5-3.7-2.5-6.1-0.00002-2.4667 0.83332-4.5333 2.5-6.2 1.7333-1.6667 3.8-2.5 6.2-2.5m-5.6 14.3c1.5333 1.5333 3.4 2.3 5.6 2.3 2.2-0.00001 4.0666-0.76668 5.6-2.3 1.5333-1.4667 2.3-3.3333 2.3-5.6-0.00003-2.2-0.7667-4.0667-2.3-5.6-1.5334-1.5333-3.4-2.3-5.6-2.3-2.2667 0.000005-4.1667 0.76667-5.7 2.3-1.4667 1.5333-2.2 3.4-2.2 5.6-0.00002 2.2667 0.76665 4.1333 2.3 5.6m10.8-7.7c0.66664 0 1.2 0.2 1.6 0.6 0.46663 0.4 0.69997 0.93333 0.7 1.6-0.00003 0.6-0.20003 1.1-0.6 1.5-0.40003 0.4-0.9667 0.6-1.7 0.6h-1.4c0.66664 1.2 0.99997 2 1 2.4-0.00003 0.59999-0.23336 1.1-0.7 1.5-0.40003 0.46666-0.90003 0.69999-1.5 0.7-0.20003-0.000009-0.40003-0.03334-0.6-0.1-0.13336-0.000009-0.30003-0.06668-0.5-0.2-0.13336-0.06668-0.26669-0.16668-0.4-0.3-0.0667-0.06668-0.16669-0.20001-0.3-0.4-0.13336-0.20001-0.23336-0.36668-0.3-0.5-0.0667-0.06667-0.16669-0.23334-0.3-0.5-0.0667-0.20001-0.13336-0.33334-0.2-0.4-0.66669 1.1333-1.1667 1.8-1.5 2-0.26669 0.26666-0.63336 0.39999-1.1 0.4-0.60002-0.000009-1.1334-0.23334-1.6-0.7-0.46669-0.40001-0.70002-0.86667-0.7-1.4-0.00002-0.40001 0.36665-1.2333 1.1-2.5h-1.4c-0.66669-0.000005-1.2334-0.23334-1.7-0.7-0.40002-0.4-0.60002-0.9-0.6-1.5-0.00002-0.66667 0.19998-1.2 0.6-1.6 0.39998-0.33333 0.96665-0.5 1.7-0.5h1.4c-0.66669-1.2667-1-2.1-1-2.5-0.00002-0.6 0.19998-1.1 0.6-1.5 0.46664-0.46666 0.99998-0.7 1.6-0.7 0.26664 0.000004 0.49998 0.06667 0.7 0.2 0.19998 0.06667 0.33331 0.13334 0.4 0.2 0.13331 0.06667 0.26664 0.23334 0.4 0.5 0.19998 0.2 0.33331 0.33334 0.4 0.4 0.0666 0.06667 0.16664 0.26667 0.3 0.6 0.19997 0.33334 0.33331 0.53334 0.4 0.6 0.66664-1.2 1.1666-1.9 1.5-2.1 0.26664-0.2 0.63331-0.3 1.1-0.3 0.59997 0.000004 1.1333 0.2 1.6 0.6 0.46664 0.4 0.69997 0.9 0.7 1.5-0.00003 0.33334-0.3667 1.1667-1.1 2.5h1.4m-2.6 8.1c0.39997-0.000009 0.7333-0.13334 1-0.4 0.26664-0.26668 0.39997-0.60001 0.4-1-0.00003-0.26667-0.0667-0.50001-0.2-0.7l-1.4-2.5h2.8c0.99997-0.000004 1.5-0.46667 1.5-1.4-0.00003-0.93334-0.50003-1.4-1.5-1.4h-2.8l1.4-2.4c0.19997-0.26666 0.29997-0.56666 0.3-0.9-0.00003-0.33333-0.1667-0.63333-0.5-0.9-0.2667-0.26666-0.60003-0.4-1-0.4-0.46669 0.000003-0.86669 0.23334-1.2 0.7l-1.4 2.5-1.4-2.5c-0.33336-0.46666-0.73336-0.7-1.2-0.7-0.40002 0.000003-0.76669 0.13334-1.1 0.4-0.26669 0.26667-0.40002 0.6-0.4 1-0.00002 0.26667 0.1 0.53334 0.3 0.8l1.4 2.4h-2.8c-1-0.000001-1.5 0.46666-1.5 1.4-0.00002 0.93333 0.49998 1.4 1.5 1.4h2.8l-1.4 2.5c-0.20002 0.26666-0.30002 0.53333-0.3 0.8-0.00002 0.33333 0.13331 0.63332 0.4 0.9 0.33331 0.26666 0.69998 0.39999 1.1 0.4 0.46664-0.000009 0.86664-0.23334 1.2-0.7l1.4-2.5 1.4 2.5c0.33331 0.46666 0.73331 0.69999 1.2 0.7m-4.3-7.7c0.46664-0.4 0.99998-0.6 1.6-0.6 0.66664 0 1.2333 0.2 1.7 0.6 0.46664 0.46666 0.69997 1.0333 0.7 1.7-0.00003 0.66666-0.23336 1.2-0.7 1.6-0.40003 0.46666-0.93336 0.7-1.6 0.7-0.66669-0.000005-1.2334-0.23334-1.7-0.7-0.40002-0.46667-0.60002-1-0.6-1.6-0.00002-0.66667 0.19998-1.2333 0.6-1.7m1.7 3.2c0.39997-0.000004 0.73331-0.16667 1-0.5 0.33331-0.26667 0.49997-0.6 0.5-1-0.00003-0.4-0.16669-0.76667-0.5-1.1-0.26669-0.26667-0.63336-0.4-1.1-0.4-0.40003-0.000001-0.73336 0.13333-1 0.4-0.26669 0.33333-0.40002 0.7-0.4 1.1-0.00002 0.46666 0.13331 0.83333 0.4 1.1 0.33331 0.26666 0.69997 0.4 1.1 0.4m0.8-1.5c-0.00003 0.53333-0.26669 0.8-0.8 0.8-0.53336-0.000003-0.80002-0.26667-0.8-0.8-0.00002-0.46667 0.26664-0.7 0.8-0.7 0.53331-0.000002 0.79997 0.23333 0.8 0.7m39.1-24.3c-0.00007 3-1.0334 5.5334-3.1 7.6-2.0667 2-4.5667 3-7.5 3-3 0.000011-5.5334-1.0333-7.6-3.1-2-2.0666-3-4.5666-3-7.5-0.00004-2.9333 1.0333-5.4333 3.1-7.5 2.0666-2.0666 4.5666-3.1 7.5-3.1 2.9999 0.000032 5.4999 1.0334 7.5 3.1 2.0666 2.0667 3.0999 4.5667 3.1 7.5m-0.8 0c-0.00006-2.7333-0.96673-5.0333-2.9-6.9-1.8667-1.9333-4.1667-2.9-6.9-2.9-2.7334 0.000032-5.0667 0.9667-7 2.9-1.8667 1.8667-2.8 4.1667-2.8 6.9-0.00005 2.8 0.93329 5.1334 2.8 7 1.9333 1.8667 4.2666 2.8 7 2.8 2.7999 0.000012 5.1333-0.93332 7-2.8 1.8666-1.9333 2.7999-4.2666 2.8-7m-9.8-8.7c2.4666 0.00003 4.5333 0.8667 6.2 2.6 1.6666 1.7334 2.4999 3.7667 2.5 6.1-0.00006 2.4667-0.86673 4.5334-2.6 6.2-1.6667 1.6667-3.7001 2.5-6.1 2.5-2.4667 0.000013-4.5334-0.83332-6.2-2.5-1.6667-1.7333-2.5-3.8-2.5-6.2-0.00005-2.4666 0.83329-4.5333 2.5-6.2 1.7333-1.6666 3.8-2.5 6.2-2.5m-5.6 14.4c1.5333 1.4667 3.4 2.2 5.6 2.2 2.1999 0.000014 4.0666-0.73332 5.6-2.2 1.5333-1.5333 2.2999-3.4333 2.3-5.7-0.00006-2.2-0.76673-4.0666-2.3-5.6-1.5334-1.5333-3.4001-2.3-5.6-2.3-2.2667 0.00003-4.1667 0.7667-5.7 2.3-1.4667 1.5334-2.2 3.4-2.2 5.6-0.00005 2.2667 0.76662 4.1667 2.3 5.7m10.8-7.8c0.66661 0.000024 1.1999 0.20002 1.6 0.6 0.4666 0.40002 0.69994 0.93336 0.7 1.6-0.00006 0.60002-0.20006 1.1-0.6 1.5-0.40006 0.40002-0.96673 0.60002-1.7 0.6h-1.4c0.66661 1.2 0.99994 2 1 2.4-0.00006 0.60002-0.23339 1.1333-0.7 1.6-0.40006 0.40002-0.90006 0.60002-1.5 0.6-0.20006 0.000015-0.40006 0.000015-0.6 0-0.13339-0.06665-0.30006-0.13332-0.5-0.2-0.13339-0.13332-0.26672-0.23332-0.4-0.3-0.0667-0.13332-0.16672-0.29998-0.3-0.5-0.13339-0.19998-0.23339-0.33332-0.3-0.4-0.0667-0.13332-0.16672-0.29998-0.3-0.5-0.0667-0.26665-0.13339-0.43332-0.2-0.5-0.66672 1.1334-1.1667 1.8-1.5 2-0.26672 0.26668-0.63339 0.40002-1.1 0.4-0.60005 0.000015-1.1334-0.19998-1.6-0.6-0.46672-0.46665-0.70005-0.96665-0.7-1.5-0.00005-0.39998 0.36662-1.2333 1.1-2.5h-1.4c-0.66672 0.00002-1.2334-0.19998-1.7-0.6-0.40005-0.46665-0.60005-0.99998-0.6-1.6-0.00005-0.66664 0.19995-1.1666 0.6-1.5 0.39995-0.39998 0.96662-0.59998 1.7-0.6h1.4c-0.66672-1.2666-1-2.1-1-2.5-0.00005-0.59997 0.19995-1.1 0.6-1.5 0.46662-0.46664 0.99995-0.69997 1.6-0.7 0.26661 0.000029 0.49995 0.0667 0.7 0.2 0.19995 0.06669 0.33328 0.13336 0.4 0.2 0.13328 0.06669 0.26661 0.23336 0.4 0.5 0.19995 0.20003 0.33328 0.33336 0.4 0.4 0.0666 0.06669 0.16661 0.26669 0.3 0.6 0.19995 0.33336 0.33328 0.53336 0.4 0.6 0.66661-1.2 1.1666-1.9 1.5-2.1 0.26661-0.19997 0.63328-0.29997 1.1-0.3 0.59994 0.000028 1.1333 0.20003 1.6 0.6 0.46661 0.40003 0.69994 0.90003 0.7 1.5-0.00006 0.33336-0.36673 1.1667-1.1 2.5h1.4m-2.6 8.1c0.39994 0.000016 0.73328-0.13332 1-0.4 0.26661-0.26665 0.39994-0.59998 0.4-1-0.00006-0.26665-0.0667-0.49998-0.2-0.7l-1.4-2.5h2.8c0.99994 0.00002 1.4999-0.46665 1.5-1.4-0.00006-0.93331-0.50006-1.4-1.5-1.4h-2.8l1.4-2.4c0.19994-0.26664 0.29994-0.56664 0.3-0.9-0.00006-0.33331-0.16673-0.63331-0.5-0.9-0.26672-0.26664-0.60006-0.39997-1-0.4-0.46672 0.000028-0.86672 0.23336-1.2 0.7l-1.4 2.5-1.4-2.5c-0.33339-0.46664-0.73339-0.69997-1.2-0.7-0.40005 0.000028-0.76672 0.13336-1.1 0.4-0.26672 0.26669-0.40005 0.60003-0.4 1-0.00005 0.26669 0.1 0.53336 0.3 0.8l1.4 2.4h-2.8c-1 0.000023-1.5 0.46669-1.5 1.4-0.00005 0.93335 0.49995 1.4 1.5 1.4h2.8l-1.4 2.5c-0.20005 0.26668-0.30005 0.53335-0.3 0.8-0.00005 0.33335 0.13328 0.63335 0.4 0.9 0.33328 0.26668 0.69995 0.40002 1.1 0.4 0.46661 0.000016 0.86661-0.23332 1.2-0.7l1.4-2.5 1.4 2.5c0.33328 0.46668 0.73328 0.70002 1.2 0.7m-4.3-7.6c0.46661-0.46664 0.99995-0.69998 1.6-0.7 0.66661 0.000024 1.2333 0.23336 1.7 0.7 0.46661 0.40002 0.69994 0.93336 0.7 1.6-0.00006 0.66669-0.23339 1.2334-0.7 1.7-0.40006 0.40002-0.93339 0.60002-1.6 0.6-0.66672 0.000019-1.2334-0.23331-1.7-0.7-0.40005-0.46665-0.60005-0.99998-0.6-1.6-0.00005-0.66664 0.19995-1.2 0.6-1.6m1.7 3.1c0.39994 0.00002 0.73328-0.13331 1-0.4 0.33328-0.33331 0.49994-0.69998 0.5-1.1-0.00006-0.39998-0.16672-0.73331-0.5-1-0.26672-0.33331-0.63339-0.49998-1.1-0.5-0.40005 0.000023-0.73339 0.16669-1 0.5-0.26672 0.26669-0.40005 0.60002-0.4 1-0.00005 0.46669 0.13328 0.83335 0.4 1.1 0.33328 0.26669 0.69995 0.40002 1.1 0.4m0.8-1.5c-0.00006 0.53336-0.26672 0.80002-0.8 0.8-0.53339 0.000021-0.80005-0.26664-0.8-0.8-0.00005-0.46664 0.26661-0.69998 0.8-0.7 0.53328 0.000022 0.79994 0.23336 0.8 0.7m9.8 24.3c-0.00007 3-1.0334 5.5-3.1 7.5-2.0667 2.0667-4.5667 3.1-7.5 3.1-3-0.000013-5.5334-1.0333-7.6-3.1-2-2.0667-3-4.5667-3-7.5-0.00004-2.9333 1.0333-5.4333 3.1-7.5 2.0666-2.0667 4.5666-3.1 7.5-3.1 2.9999 0.000008 5.4999 1.0333 7.5 3.1 2.0666 2.0667 3.0999 4.5667 3.1 7.5m-0.8 0c-0.00006-2.7333-0.96673-5.0333-2.9-6.9-1.8667-1.9333-4.1667-2.9-6.9-2.9-2.7334 0.000007-5.0667 0.96667-7 2.9-1.8667 1.8667-2.8 4.1667-2.8 6.9-0.00005 2.8 0.93329 5.1333 2.8 7 1.9333 1.8667 4.2666 2.8 7 2.8 2.7999-0.000012 5.1333-0.96668 7-2.9 1.8666-1.8667 2.7999-4.1667 2.8-6.9m-9.8-8.7c2.4666 0.000006 4.5333 0.86667 6.2 2.6 1.6666 1.7333 2.4999 3.7667 2.5 6.1-0.00006 2.4667-0.86673 4.5333-2.6 6.2-1.6667 1.6667-3.7001 2.5-6.1 2.5-2.4667-0.000011-4.5334-0.86668-6.2-2.6-1.6667-1.6667-2.5-3.7-2.5-6.1-0.00005-2.4667 0.83329-4.5333 2.5-6.2 1.7333-1.6667 3.8-2.5 6.2-2.5m-5.6 14.3c1.5333 1.5333 3.4 2.3 5.6 2.3 2.1999-0.00001 4.0666-0.76668 5.6-2.3 1.5333-1.4667 2.2999-3.3333 2.3-5.6-0.00006-2.2-0.76673-4.0667-2.3-5.6-1.5334-1.5333-3.4001-2.3-5.6-2.3-2.2667 0.000005-4.1667 0.76667-5.7 2.3-1.4667 1.5333-2.2 3.4-2.2 5.6-0.00005 2.2667 0.76662 4.1333 2.3 5.6m10.8-7.7c0.66661 0 1.1999 0.2 1.6 0.6 0.4666 0.4 0.69994 0.93333 0.7 1.6-0.00006 0.6-0.20006 1.1-0.6 1.5-0.40006 0.4-0.96673 0.6-1.7 0.6h-1.4c0.66661 1.2 0.99994 2 1 2.4-0.00006 0.59999-0.23339 1.1-0.7 1.5-0.40006 0.46666-0.90006 0.69999-1.5 0.7-0.20006-0.000009-0.40006-0.03334-0.6-0.1-0.13339-0.000009-0.30006-0.06668-0.5-0.2-0.13339-0.06668-0.26672-0.16668-0.4-0.3-0.0667-0.06668-0.16672-0.20001-0.3-0.4-0.13339-0.20001-0.23339-0.36668-0.3-0.5-0.0667-0.06667-0.16672-0.23334-0.3-0.5-0.0667-0.20001-0.13339-0.33334-0.2-0.4-0.66672 1.1333-1.1667 1.8-1.5 2-0.26672 0.26666-0.63339 0.39999-1.1 0.4-0.60005-0.000009-1.1334-0.23334-1.6-0.7-0.46672-0.40001-0.70005-0.86667-0.7-1.4-0.00005-0.40001 0.36662-1.2333 1.1-2.5h-1.4c-0.66672-0.000005-1.2334-0.23334-1.7-0.7-0.40005-0.4-0.60005-0.9-0.6-1.5-0.00005-0.66667 0.19995-1.2 0.6-1.6 0.39995-0.33333 0.96662-0.5 1.7-0.5h1.4c-0.66672-1.2667-1-2.1-1-2.5-0.00005-0.6 0.19995-1.1 0.6-1.5 0.46662-0.46666 0.99995-0.7 1.6-0.7 0.26661 0.000004 0.49995 0.06667 0.7 0.2 0.19995 0.06667 0.33328 0.13334 0.4 0.2 0.13328 0.06667 0.26661 0.23334 0.4 0.5 0.19995 0.2 0.33328 0.33334 0.4 0.4 0.0666 0.06667 0.16661 0.26667 0.3 0.6 0.19995 0.33334 0.33328 0.53334 0.4 0.6 0.66661-1.2 1.1666-1.9 1.5-2.1 0.26661-0.2 0.63328-0.3 1.1-0.3 0.59994 0.000004 1.1333 0.2 1.6 0.6 0.46661 0.4 0.69994 0.9 0.7 1.5-0.00006 0.33334-0.36673 1.1667-1.1 2.5h1.4m-2.6 8.1c0.39994-0.000009 0.73328-0.13334 1-0.4 0.26661-0.26668 0.39994-0.60001 0.4-1-0.00006-0.26667-0.0667-0.50001-0.2-0.7l-1.4-2.5h2.8c0.99994-0.000004 1.4999-0.46667 1.5-1.4-0.00006-0.93334-0.50006-1.4-1.5-1.4h-2.8l1.4-2.4c0.19994-0.26666 0.29994-0.56666 0.3-0.9-0.00006-0.33333-0.16673-0.63333-0.5-0.9-0.26672-0.26666-0.60006-0.4-1-0.4-0.46672 0.000003-0.86672 0.23334-1.2 0.7l-1.4 2.5-1.4-2.5c-0.33339-0.46666-0.73339-0.7-1.2-0.7-0.40005 0.000003-0.76672 0.13334-1.1 0.4-0.26672 0.26667-0.40005 0.6-0.4 1-0.00005 0.26667 0.1 0.53334 0.3 0.8l1.4 2.4h-2.8c-1-0.000001-1.5 0.46666-1.5 1.4-0.00005 0.93333 0.49995 1.4 1.5 1.4h2.8l-1.4 2.5c-0.20005 0.26666-0.30005 0.53333-0.3 0.8-0.00005 0.33333 0.13328 0.63332 0.4 0.9 0.33328 0.26666 0.69995 0.39999 1.1 0.4 0.46661-0.000009 0.86661-0.23334 1.2-0.7l1.4-2.5 1.4 2.5c0.33328 0.46666 0.73328 0.69999 1.2 0.7m-4.3-7.7c0.46661-0.4 0.99995-0.6 1.6-0.6 0.66661 0 1.2333 0.2 1.7 0.6 0.46661 0.46666 0.69994 1.0333 0.7 1.7-0.00006 0.66666-0.23339 1.2-0.7 1.6-0.40006 0.46666-0.93339 0.7-1.6 0.7-0.66672-0.000005-1.2334-0.23334-1.7-0.7-0.40005-0.46667-0.60005-1-0.6-1.6-0.00005-0.66667 0.19995-1.2333 0.6-1.7m1.7 3.2c0.39994-0.000004 0.73328-0.16667 1-0.5 0.33328-0.26667 0.49994-0.6 0.5-1-0.00006-0.4-0.16672-0.76667-0.5-1.1-0.26672-0.26667-0.63339-0.4-1.1-0.4-0.40005-0.000001-0.73339 0.13333-1 0.4-0.26672 0.33333-0.40005 0.7-0.4 1.1-0.00005 0.46666 0.13328 0.83333 0.4 1.1 0.33328 0.26666 0.69995 0.4 1.1 0.4m0.8-1.5c-0.00006 0.53333-0.26672 0.8-0.8 0.8-0.53339-0.000003-0.80005-0.26667-0.8-0.8-0.00005-0.46667 0.26661-0.7 0.8-0.7 0.53328-0.000002 0.79994 0.23333 0.8 0.7m-19.4-24.3c-0.00004 3-1.0334 5.5334-3.1 7.6-2.0667 2-4.5667 3-7.5 3-3 0.000011-5.5334-1.0333-7.6-3.1-2-2.0666-3-4.5666-3-7.5-0.00002-2.9333 1.0333-5.4333 3.1-7.5 2.0666-2.0666 4.5666-3.1 7.5-3.1 3 0.000032 5.5 1.0334 7.5 3.1 2.0666 2.0667 3.1 4.5667 3.1 7.5m-0.8 0c-0.00004-2.7333-0.9667-5.0333-2.9-6.9-1.8667-1.9333-4.1667-2.9-6.9-2.9-2.7334 0.000032-5.0667 0.9667-7 2.9-1.8667 1.8667-2.8 4.1667-2.8 6.9-0.00002 2.8 0.93332 5.1334 2.8 7 1.9333 1.8667 4.2666 2.8 7 2.8 2.8 0.000012 5.1333-0.93332 7-2.8 1.8666-1.9333 2.8-4.2666 2.8-7m-9.8-8.7c2.4666 0.00003 4.5333 0.8667 6.2 2.6 1.6666 1.7334 2.5 3.7667 2.5 6.1-0.00003 2.4667-0.8667 4.5334-2.6 6.2-1.6667 1.6667-3.7 2.5-6.1 2.5-2.4667 0.000013-4.5334-0.83332-6.2-2.5-1.6667-1.7333-2.5-3.8-2.5-6.2-0.00002-2.4666 0.83332-4.5333 2.5-6.2 1.7333-1.6666 3.8-2.5 6.2-2.5m-5.6 14.4c1.5333 1.4667 3.4 2.2 5.6 2.2 2.2 0.000014 4.0666-0.73332 5.6-2.2 1.5333-1.5333 2.3-3.4333 2.3-5.7-0.00003-2.2-0.7667-4.0666-2.3-5.6-1.5334-1.5333-3.4-2.3-5.6-2.3-2.2667 0.00003-4.1667 0.7667-5.7 2.3-1.4667 1.5334-2.2 3.4-2.2 5.6-0.00002 2.2667 0.76665 4.1667 2.3 5.7m10.8-7.8c0.66664 0.000024 1.2 0.20002 1.6 0.6 0.46663 0.40002 0.69997 0.93336 0.7 1.6-0.00003 0.60002-0.20003 1.1-0.6 1.5-0.40003 0.40002-0.9667 0.60002-1.7 0.6h-1.4c0.66664 1.2 0.99997 2 1 2.4-0.00003 0.60002-0.23336 1.1333-0.7 1.6-0.40003 0.40002-0.90003 0.60002-1.5 0.6-0.20003 0.000015-0.40003 0.000015-0.6 0-0.13336-0.06665-0.30003-0.13332-0.5-0.2-0.13336-0.13332-0.26669-0.23332-0.4-0.3-0.0667-0.13332-0.16669-0.29998-0.3-0.5-0.13336-0.19998-0.23336-0.33332-0.3-0.4-0.0667-0.13332-0.16669-0.29998-0.3-0.5-0.0667-0.26665-0.13336-0.43332-0.2-0.5-0.66669 1.1334-1.1667 1.8-1.5 2-0.26669 0.26668-0.63336 0.40002-1.1 0.4-0.60002 0.000015-1.1334-0.19998-1.6-0.6-0.46669-0.46665-0.70002-0.96665-0.7-1.5-0.00002-0.39998 0.36665-1.2333 1.1-2.5h-1.4c-0.66669 0.00002-1.2334-0.19998-1.7-0.6-0.40002-0.46665-0.60002-0.99998-0.6-1.6-0.00002-0.66664 0.19998-1.1666 0.6-1.5 0.39998-0.39998 0.96665-0.59998 1.7-0.6h1.4c-0.66669-1.2666-1-2.1-1-2.5-0.00002-0.59997 0.19998-1.1 0.6-1.5 0.46664-0.46664 0.99998-0.69997 1.6-0.7 0.26664 0.000029 0.49998 0.0667 0.7 0.2 0.19998 0.06669 0.33331 0.13336 0.4 0.2 0.13331 0.06669 0.26664 0.23336 0.4 0.5 0.19998 0.20003 0.33331 0.33336 0.4 0.4 0.0666 0.06669 0.16664 0.26669 0.3 0.6 0.19997 0.33336 0.33331 0.53336 0.4 0.6 0.66664-1.2 1.1666-1.9 1.5-2.1 0.26664-0.19997 0.63331-0.29997 1.1-0.3 0.59997 0.000028 1.1333 0.20003 1.6 0.6 0.46664 0.40003 0.69997 0.90003 0.7 1.5-0.00003 0.33336-0.3667 1.1667-1.1 2.5h1.4m-2.6 8.1c0.39997 0.000016 0.7333-0.13332 1-0.4 0.26664-0.26665 0.39997-0.59998 0.4-1-0.00003-0.26665-0.0667-0.49998-0.2-0.7l-1.4-2.5h2.8c0.99997 0.00002 1.5-0.46665 1.5-1.4-0.00003-0.93331-0.50003-1.4-1.5-1.4h-2.8l1.4-2.4c0.19997-0.26664 0.29997-0.56664 0.3-0.9-0.00003-0.33331-0.1667-0.63331-0.5-0.9-0.2667-0.26664-0.60003-0.39997-1-0.4-0.46669 0.000028-0.86669 0.23336-1.2 0.7l-1.4 2.5-1.4-2.5c-0.33336-0.46664-0.73336-0.69997-1.2-0.7-0.40002 0.000028-0.76669 0.13336-1.1 0.4-0.26669 0.26669-0.40002 0.60003-0.4 1-0.00002 0.26669 0.1 0.53336 0.3 0.8l1.4 2.4h-2.8c-1 0.000023-1.5 0.46669-1.5 1.4-0.00002 0.93335 0.49998 1.4 1.5 1.4h2.8l-1.4 2.5c-0.20002 0.26668-0.30002 0.53335-0.3 0.8-0.00002 0.33335 0.13331 0.63335 0.4 0.9 0.33331 0.26668 0.69998 0.40002 1.1 0.4 0.46664 0.000016 0.86664-0.23332 1.2-0.7l1.4-2.5 1.4 2.5c0.33331 0.46668 0.73331 0.70002 1.2 0.7m-4.3-7.6c0.46664-0.46664 0.99997-0.69998 1.6-0.7 0.66664 0.000024 1.2333 0.23336 1.7 0.7 0.46664 0.40002 0.69997 0.93336 0.7 1.6-0.00003 0.66669-0.23336 1.2334-0.7 1.7-0.40003 0.40002-0.93336 0.60002-1.6 0.6-0.66669 0.000019-1.2334-0.23331-1.7-0.7-0.40002-0.46665-0.60002-0.99998-0.6-1.6-0.00002-0.66664 0.19998-1.2 0.6-1.6m1.7 3.1c0.39997 0.00002 0.73331-0.13331 1-0.4 0.33331-0.33331 0.49997-0.69998 0.5-1.1-0.00003-0.39998-0.16669-0.73331-0.5-1-0.26669-0.33331-0.63336-0.49998-1.1-0.5-0.40003 0.000023-0.73336 0.16669-1 0.5-0.26669 0.26669-0.40002 0.60002-0.4 1-0.00002 0.46669 0.13331 0.83335 0.4 1.1 0.33331 0.26669 0.69997 0.40002 1.1 0.4m0.8-1.5c-0.00003 0.53336-0.26669 0.80002-0.8 0.8-0.53336 0.000021-0.80002-0.26664-0.8-0.8-0.00002-0.46664 0.26664-0.69998 0.8-0.7 0.53331 0.000022 0.79997 0.23336 0.8 0.7" fill="#9c0000"/></g></g></svg>
