<?xml version="1.0" encoding="UTF-8" standalone="no"?>
<svg xmlns="http://www.w3.org/2000/svg" shape-rendering="geometricPrecision" height="95" width="75" version="1.1"><rect width="100%" fill="#fff" height="100%"/><g fill="#10106c" transform="translate(-9.5711 9.8944)"><path d="m71.071 48.906c-0.000064 3-1.0334 5.5-3.1 7.5-2.0667 2-4.5334 3-7.4 3-2.9334 0.000006-5.4-0.99999-7.4-3-2-2.0667-3-4.5333-3-7.4-0.000043-2.9333 0.99996-5.4 3-7.4 2-2.0666 4.4666-3.1 7.4-3.1 2.9333 0.000027 5.3999 1.0334 7.4 3.1 2.0666 2 3.0999 4.4334 3.1 7.3m-0.8 0c-0.000063-2.6666-0.96673-4.9333-2.9-6.8-1.8667-1.9333-4.1667-2.9-6.9-2.9-2.6667 0.000026-4.9334 0.96669-6.8 2.9-1.8667 1.8667-2.8 4.1334-2.8 6.8-0.000044 2.8 0.93329 5.1333 2.8 7 1.9333 1.8 4.2333 2.7 6.9 2.7 2.7333 0.000007 5.0333-0.93333 6.9-2.8 1.8666-1.8667 2.7999-4.1667 2.8-6.9m-9.7-8.5c2.4666 0.000025 4.4999 0.83336 6.1 2.5 1.6666 1.6667 2.4999 3.6667 2.5 6-0.000062 2.4667-0.8334 4.5333-2.5 6.2-1.6667 1.6-3.7001 2.4-6.1 2.4-2.4001 0.000008-4.4334-0.83332-6.1-2.5-1.6667-1.6667-2.5-3.7-2.5-6.1-0.000045-2.4 0.83329-4.4 2.5-6 1.7333-1.6666 3.7666-2.5 6.1-2.5m-5.6 14.2c1.5333 1.4667 3.3666 2.2 5.5 2.2 2.1999 0.000009 4.0666-0.73332 5.6-2.2 1.5333-1.5333 2.2999-3.4333 2.3-5.7-0.000061-2.1333-0.76673-3.9666-2.3-5.5-1.4667-1.5333-3.3001-2.3-5.5-2.3-2.2001 0.000024-4.0667 0.76669-5.6 2.3-1.4667 1.5334-2.2 3.3667-2.2 5.5-0.000046 2.2667 0.73329 4.1667 2.2 5.7m10.8-7.8c0.59994 0.000019 1.0999 0.23335 1.5 0.7 0.46661 0.40002 0.69994 0.90002 0.7 1.5-0.000061 0.60002-0.20006 1.1-0.6 1.5-0.40006 0.40001-0.93339 0.60001-1.6 0.6h-1.5c0.73328 1.2 1.0999 2 1.1 2.4-0.000058 0.60001-0.23339 1.1333-0.7 1.6-0.40006 0.40001-0.93339 0.60001-1.6 0.6-0.13339 0.00001-0.30006 0.00001-0.5 0-0.13339-0.06666-0.30006-0.16666-0.5-0.3-0.13339-0.13332-0.26672-0.23332-0.4-0.3-0.06672-0.13332-0.16672-0.26666-0.3-0.4-0.13339-0.19999-0.23339-0.33332-0.3-0.4-0.06672-0.13332-0.16672-0.29999-0.3-0.5-0.06672-0.26666-0.13339-0.43332-0.2-0.5-0.60005 1.0667-1.0667 1.7333-1.4 2-0.33338 0.20001-0.73338 0.30001-1.2 0.3-0.60005 0.00001-1.1334-0.19999-1.6-0.6-0.40005-0.39999-0.60005-0.86666-0.6-1.4-0.000049-0.46665 0.36662-1.3 1.1-2.5h-1.5c-0.60005 0.000014-1.1334-0.19999-1.6-0.6-0.40005-0.46665-0.60005-0.99998-0.6-1.6-0.000046-0.66665 0.19995-1.1666 0.6-1.5 0.39995-0.39998 0.93329-0.59998 1.6-0.6h1.5c-0.73338-1.2-1.1-2-1.1-2.4-0.000049-0.59998 0.19995-1.1 0.6-1.5 0.46662-0.46664 1.0333-0.69998 1.7-0.7 0.19995 0.000023 0.39995 0.06669 0.6 0.2 0.19995 0.06669 0.36662 0.13336 0.5 0.2 0.13328 0.06669 0.26661 0.23336 0.4 0.5 0.19995 0.20002 0.29995 0.33336 0.3 0.4 0.06661 0.06669 0.16661 0.26669 0.3 0.6 0.19995 0.33335 0.33328 0.53335 0.4 0.6 0.66661-1.2 1.1333-1.9 1.4-2.1 0.33328-0.19998 0.73328-0.29998 1.2-0.3 0.59994 0.000023 1.0999 0.20002 1.5 0.6 0.46661 0.40002 0.69994 0.90002 0.7 1.5-0.000058 0.33335-0.36672 1.1334-1.1 2.4h1.5m-2.7 8.1c0.39994 0.00001 0.73328-0.13332 1-0.4 0.33328-0.26666 0.49994-0.59999 0.5-1-0.000058-0.26666-0.06672-0.49999-0.2-0.7l-1.4-2.5h2.8c0.93327 0.000015 1.3999-0.43332 1.4-1.3-0.00006-0.93332-0.46673-1.4-1.4-1.4h-2.8l1.4-2.4c0.13328-0.33331 0.19994-0.63331 0.2-0.9-0.000058-0.33331-0.13339-0.63331-0.4-0.9-0.26672-0.26664-0.60006-0.39998-1-0.4-0.53339 0.000022-0.93339 0.23336-1.2 0.7l-1.4 2.5-1.4-2.5c-0.26672-0.46664-0.63338-0.69998-1.1-0.7-0.40005 0.000022-0.76672 0.13336-1.1 0.4-0.26672 0.26669-0.40005 0.60002-0.4 1-0.00005 0.26669 0.06662 0.53335 0.2 0.8l1.4 2.4h-2.8c-0.93338 0.000018-1.4 0.46668-1.4 1.4-0.000047 0.86668 0.46662 1.3 1.4 1.3h2.8l-1.4 2.5c-0.20005 0.26668-0.30005 0.53334-0.3 0.8-0.00005 0.33334 0.13328 0.63334 0.4 0.9 0.33328 0.26668 0.69995 0.40001 1.1 0.4 0.53328 0.00001 0.93328-0.26666 1.2-0.8l1.4-2.3 1.4 2.3c0.26661 0.53334 0.63328 0.80001 1.1 0.8m-4.1-7.5c0.46661-0.46665 0.99995-0.69998 1.6-0.7 0.59995 0.000019 1.1333 0.23335 1.6 0.7 0.46661 0.40002 0.69994 0.90002 0.7 1.5-0.000056 0.66668-0.23339 1.2333-0.7 1.7-0.46672 0.40001-1.0334 0.60001-1.7 0.6-0.60005 0.000014-1.1334-0.19999-1.6-0.6-0.40005-0.46665-0.60005-1.0333-0.6-1.7-0.000051-0.59998 0.23328-1.1 0.7-1.5m1.6 3c0.39995 0.000015 0.73328-0.13332 1-0.4 0.33328-0.26665 0.49994-0.59998 0.5-1-0.000055-0.46665-0.16672-0.83332-0.5-1.1-0.26672-0.33332-0.63339-0.49998-1.1-0.5-0.40005 0.000018-0.73339 0.16668-1 0.5-0.26672 0.26668-0.40005 0.60002-0.4 1-0.000052 0.46668 0.13328 0.83335 0.4 1.1 0.33328 0.26668 0.69995 0.40002 1.1 0.4m0.8-1.5c-0.000054 0.53335-0.26672 0.80002-0.8 0.8-0.46672 0.000016-0.70005-0.26665-0.7-0.8-0.000053-0.46665 0.23328-0.69998 0.7-0.7 0.53328 0.000017 0.79995 0.23335 0.8 0.7m9.7 22.3c-0.000064 3-1.0334 5.5-3.1 7.5-2.0667 2-4.5334 3-7.4 3-2.9334-0.000016-5.4-1.0333-7.4-3.1-2-2-3-4.4667-3-7.4-0.000043-2.8667 0.99996-5.3 3-7.3 2-2.0667 4.4666-3.1 7.4-3.1 2.9333 0.000005 5.3999 1.0333 7.4 3.1 2.0666 2 3.0999 4.4333 3.1 7.3m-0.8 0c-0.000063-2.6667-0.96673-4.9333-2.9-6.8-1.8667-1.9333-4.1667-2.9-6.9-2.9-2.6667 0.000004-4.9334 0.96667-6.8 2.9-1.8667 1.8667-2.8 4.1333-2.8 6.8-0.000044 2.8 0.93329 5.1 2.8 6.9 1.9333 1.8667 4.2333 2.8 6.9 2.8 2.7333-0.000016 5.0333-0.93335 6.9-2.8 1.8666-1.8667 2.7999-4.1667 2.8-6.9m-9.7-8.5c2.4666 0.000003 4.4999 0.83334 6.1 2.5 1.6666 1.6667 2.4999 3.6667 2.5 6-0.000062 2.4667-0.8334 4.5-2.5 6.1-1.6667 1.6667-3.7001 2.5-6.1 2.5-2.4001-0.000014-4.4334-0.83335-6.1-2.5-1.6667-1.6667-2.5-3.7-2.5-6.1-0.000045-2.4 0.83329-4.4 2.5-6 1.7333-1.6667 3.7666-2.5 6.1-2.5m-5.6 14.1c1.5333 1.5333 3.3666 2.3 5.5 2.3 2.1999-0.000014 4.0666-0.76668 5.6-2.3 1.5333-1.4667 2.2999-3.3333 2.3-5.6-0.000061-2.1333-0.76673-3.9667-2.3-5.5-1.4667-1.5333-3.3001-2.3-5.5-2.3-2.2001 0.000002-4.0667 0.76667-5.6 2.3-1.4667 1.5333-2.2 3.3667-2.2 5.5-0.000046 2.2667 0.73329 4.1333 2.2 5.6m10.8-7.7c0.59994-0.000004 1.0999 0.2 1.5 0.6 0.46661 0.46666 0.69994 1 0.7 1.6-0.000061 0.59999-0.20006 1.1-0.6 1.5-0.40006 0.39999-0.93339 0.59999-1.6 0.6h-1.5c0.73328 1.2 1.0999 2 1.1 2.4-0.000058 0.59999-0.23339 1.1-0.7 1.5-0.40006 0.46665-0.93339 0.69999-1.6 0.7-0.13339-0.000013-0.30006-0.03335-0.5-0.1-0.13339-0.000013-0.30006-0.06668-0.5-0.2-0.13339-0.13335-0.26672-0.26668-0.4-0.4-0.06672-0.06668-0.16672-0.20001-0.3-0.4-0.13339-0.13334-0.23339-0.26668-0.3-0.4-0.06672-0.06668-0.16672-0.23334-0.3-0.5-0.06672-0.20001-0.13339-0.33334-0.2-0.4-0.60005 1.0667-1.0667 1.7333-1.4 2-0.33338 0.19999-0.73338 0.29999-1.2 0.3-0.60005-0.000013-1.1334-0.20001-1.6-0.6-0.40005-0.40001-0.60005-0.86668-0.6-1.4-0.000049-0.46668 0.36662-1.3 1.1-2.5h-1.5c-0.60005-0.000008-1.1334-0.23334-1.6-0.7-0.40005-0.40001-0.60005-0.90001-0.6-1.5-0.000046-0.66667 0.19995-1.2 0.6-1.6 0.39995-0.33334 0.93329-0.5 1.6-0.5h1.5c-0.73338-1.2-1.1-2-1.1-2.4-0.000049-0.6 0.19995-1.1 0.6-1.5 0.46662-0.46667 1.0333-0.7 1.7-0.7 0.19995 0.000001 0.39995 0.06667 0.6 0.2 0.19995 0.06667 0.36662 0.13333 0.5 0.2 0.13328 0.06667 0.26661 0.23333 0.4 0.5 0.19995 0.2 0.29995 0.33333 0.3 0.4 0.06661 0.06667 0.16661 0.26667 0.3 0.6 0.19995 0.33333 0.33328 0.53333 0.4 0.6 0.66661-1.2 1.1333-1.9 1.4-2.1 0.33328-0.2 0.73328-0.3 1.2-0.3 0.59994 0.000001 1.0999 0.2 1.5 0.6 0.46661 0.4 0.69994 0.9 0.7 1.5-0.000058 0.33333-0.36672 1.1333-1.1 2.4h1.5m-2.7 8.1c0.39994-0.000012 0.73328-0.13334 1-0.4 0.33328-0.26668 0.49994-0.60001 0.5-1-0.000058-0.26668-0.06672-0.50001-0.2-0.7l-1.4-2.5h2.8c0.93327-0.000007 1.3999-0.46667 1.4-1.4-0.00006-0.86667-0.46673-1.3-1.4-1.3h-2.8l1.4-2.4c0.13328-0.33334 0.19994-0.63334 0.2-0.9-0.000058-0.33333-0.13339-0.63333-0.4-0.9-0.26672-0.26667-0.60006-0.4-1-0.4-0.53339 0-0.93339 0.23333-1.2 0.7l-1.4 2.5-1.4-2.5c-0.26672-0.46667-0.63338-0.7-1.1-0.7-0.40005 0-0.76672 0.13333-1.1 0.4-0.26672 0.26667-0.40005 0.6-0.4 1-0.00005 0.26666 0.06662 0.53333 0.2 0.8l1.4 2.4h-2.8c-0.93338-0.000005-1.4 0.43333-1.4 1.3-0.000047 0.93333 0.46662 1.4 1.4 1.4h2.8l-1.4 2.5c-0.20005 0.26666-0.30005 0.53332-0.3 0.8-0.00005 0.33332 0.13328 0.63332 0.4 0.9 0.33328 0.26666 0.69995 0.39999 1.1 0.4 0.53328-0.000012 0.93328-0.26668 1.2-0.8l1.4-2.3 1.4 2.3c0.26661 0.53332 0.63328 0.79999 1.1 0.8m-4.1-7.6c0.46661-0.4 0.99995-0.6 1.6-0.6 0.59995-0.000004 1.1333 0.2 1.6 0.6 0.46661 0.46666 0.69994 1 0.7 1.6-0.000056 0.66666-0.23339 1.2-0.7 1.6-0.46672 0.46666-1.0334 0.69999-1.7 0.7-0.60005-0.000008-1.1334-0.23334-1.6-0.7-0.40005-0.40001-0.60005-0.93334-0.6-1.6-0.000051-0.6 0.23328-1.1333 0.7-1.6m1.6 3.1c0.39995-0.000007 0.73328-0.13334 1-0.4 0.33328-0.26667 0.49994-0.63334 0.5-1.1-0.000055-0.4-0.16672-0.76667-0.5-1.1-0.26672-0.26667-0.63339-0.4-1.1-0.4-0.40005-0.000004-0.73339 0.13333-1 0.4-0.26672 0.33333-0.40005 0.7-0.4 1.1-0.000052 0.46666 0.13328 0.83333 0.4 1.1 0.33328 0.26666 0.69995 0.39999 1.1 0.4m0.8-1.5c-0.000054 0.53333-0.26672 0.79999-0.8 0.8-0.46672-0.000007-0.70005-0.26667-0.7-0.8-0.000053-0.46667 0.23328-0.7 0.7-0.7 0.53328-0.000005 0.79995 0.23333 0.8 0.7m9.7-67.2c-0.000064 3.0001-1.0334 5.5001-3.1 7.5-2.0667 2.0001-4.5334 3.0001-7.4 3-2.9334 0.000051-5.4-0.99995-7.4-3-2-2.0666-3-4.5333-3-7.4-0.000043-2.9333 0.99996-5.3999 3-7.4 2-2.0666 4.4666-3.0999 7.4-3.1 2.9333 0.0000722 5.3999 1.0334 7.4 3.1 2.0666 2.0001 3.0999 4.4334 3.1 7.3m-0.8 0c-0.000063-2.6666-0.96673-4.9333-2.9-6.8-1.8667-1.9333-4.1667-2.8999-6.9-2.9-2.6667 0.0000715-4.9334 0.96674-6.8 2.9-1.8667 1.8667-2.8 4.1334-2.8 6.8-0.000044 2.8001 0.93329 5.1334 2.8 7 1.9333 1.8001 4.2333 2.7001 6.9 2.7 2.7333 0.000052 5.0333-0.93328 6.9-2.8 1.8666-1.8666 2.7999-4.1666 2.8-6.9m-9.7-8.5c2.4666 0.0000703 4.4999 0.8334 6.1 2.5 1.6666 1.6667 2.4999 3.6667 2.5 6-0.000062 2.4667-0.8334 4.5334-2.5 6.2-1.6667 1.6001-3.7001 2.4001-6.1 2.4-2.4001 0.000053-4.4334-0.83328-6.1-2.5-1.6667-1.6666-2.5-3.6999-2.5-6.1-0.000045-2.3999 0.83329-4.3999 2.5-6 1.7333-1.6666 3.7666-2.4999 6.1-2.5m-5.6 14.2c1.5333 1.4667 3.3666 2.2001 5.5 2.2 2.1999 0.000053 4.0666-0.73328 5.6-2.2 1.5333-1.5333 2.2999-3.4333 2.3-5.7-0.000061-2.1333-0.76673-3.9666-2.3-5.5-1.4667-1.5333-3.3001-2.2999-5.5-2.3-2.2001 0.0000696-4.0667 0.76674-5.6 2.3-1.4667 1.5334-2.2 3.3667-2.2 5.5-0.000046 2.2667 0.73329 4.1667 2.2 5.7m10.8-7.8c0.59994 0.0000639 1.0999 0.2334 1.5 0.7 0.46661 0.40006 0.69994 0.90006 0.7 1.5-0.000061 0.60006-0.20006 1.1001-0.6 1.5-0.40006 0.40006-0.93339 0.60006-1.6 0.6h-1.5c0.73328 1.2001 1.0999 2.0001 1.1 2.4-0.000058 0.60006-0.23339 1.1334-0.7 1.6-0.40006 0.40006-0.93339 0.60006-1.6 0.6-0.13339 0.000055-0.30006 0.000055-0.5 0-0.13339-0.06661-0.30006-0.16661-0.5-0.3-0.13339-0.13328-0.26672-0.23328-0.4-0.3-0.06672-0.13328-0.16672-0.26661-0.3-0.4-0.13339-0.19994-0.23339-0.33328-0.3-0.4-0.06672-0.13328-0.16672-0.29994-0.3-0.5-0.06672-0.26661-0.13339-0.43328-0.2-0.5-0.60005 1.0667-1.0667 1.7334-1.4 2-0.33338 0.20006-0.73338 0.30006-1.2 0.3-0.60005 0.000055-1.1334-0.19994-1.6-0.6-0.40005-0.39994-0.60005-0.86661-0.6-1.4-0.000049-0.46661 0.36662-1.2999 1.1-2.5h-1.5c-0.60005 0.0000596-1.1334-0.19994-1.6-0.6-0.40005-0.46661-0.60005-0.99994-0.6-1.6-0.000046-0.6666 0.19995-1.1666 0.6-1.5 0.39995-0.39994 0.93329-0.59994 1.6-0.6h1.5c-0.73338-1.1999-1.1-1.9999-1.1-2.4-0.000049-0.59993 0.19995-1.0999 0.6-1.5 0.46662-0.4666 1.0333-0.69993 1.7-0.7 0.19995 0.0000685 0.39995 0.066735 0.6 0.2 0.19995 0.066735 0.36662 0.1334 0.5 0.2 0.13328 0.066735 0.26661 0.2334 0.4 0.5 0.19995 0.20007 0.29995 0.3334 0.3 0.4 0.06661 0.066734 0.16661 0.26673 0.3 0.6 0.19995 0.3334 0.33328 0.5334 0.4 0.6 0.66661-1.1999 1.1333-1.8999 1.4-2.1 0.33328-0.19993 0.73328-0.29993 1.2-0.3 0.59994 0.0000684 1.0999 0.20007 1.5 0.6 0.46661 0.40007 0.69994 0.90007 0.7 1.5-0.000058 0.3334-0.36672 1.1334-1.1 2.4h1.5m-2.7 8.1c0.39994 0.000055 0.73328-0.13328 1-0.4 0.33328-0.26661 0.49994-0.59994 0.5-1-0.000058-0.26661-0.06672-0.49994-0.2-0.7l-1.4-2.5h2.8c0.93327 0.0000604 1.3999-0.43327 1.4-1.3-0.00006-0.93327-0.46673-1.3999-1.4-1.4h-2.8l1.4-2.4c0.13328-0.33327 0.19994-0.63327 0.2-0.9-0.000058-0.33327-0.13339-0.63327-0.4-0.9-0.26672-0.2666-0.60006-0.39993-1-0.4-0.53339 0.0000677-0.93339 0.2334-1.2 0.7l-1.4 2.5-1.4-2.5c-0.26672-0.4666-0.63338-0.69993-1.1-0.7-0.40005 0.0000677-0.76672 0.1334-1.1 0.4-0.26672 0.26673-0.40005 0.60007-0.4 1-0.00005 0.26673 0.06662 0.5334 0.2 0.8l1.4 2.4h-2.8c-0.93338 0.0000631-1.4 0.46673-1.4 1.4-0.000047 0.86673 0.46662 1.3001 1.4 1.3h2.8l-1.4 2.5c-0.20005 0.26672-0.30005 0.53339-0.3 0.8-0.00005 0.33339 0.13328 0.63339 0.4 0.9 0.33328 0.26672 0.69995 0.40006 1.1 0.4 0.53328 0.000055 0.93328-0.26661 1.2-0.8l1.4-2.3 1.4 2.3c0.26661 0.53339 0.63328 0.80006 1.1 0.8m-4.1-7.5c0.46661-0.4666 0.99995-0.69994 1.6-0.7 0.59995 0.000064 1.1333 0.2334 1.6 0.7 0.46661 0.40006 0.69994 0.90006 0.7 1.5-0.000056 0.66673-0.23339 1.2334-0.7 1.7-0.46672 0.40006-1.0334 0.60006-1.7 0.6-0.60005 0.0000595-1.1334-0.19994-1.6-0.6-0.40005-0.46661-0.60005-1.0333-0.6-1.7-0.000051-0.59994 0.23328-1.0999 0.7-1.5m1.6 3c0.39995 0.0000603 0.73328-0.13327 1-0.4 0.33328-0.26661 0.49994-0.59994 0.5-1-0.000055-0.4666-0.16672-0.83327-0.5-1.1-0.26672-0.33327-0.63339-0.49994-1.1-0.5-0.40005 0.0000633-0.73339 0.16673-1 0.5-0.26672 0.26673-0.40005 0.60006-0.4 1-0.000052 0.46673 0.13328 0.83339 0.4 1.1 0.33328 0.26673 0.69995 0.40006 1.1 0.4m0.8-1.5c-0.000054 0.53339-0.26672 0.80006-0.8 0.8-0.46672 0.000061-0.70005-0.26661-0.7-0.8-0.000053-0.4666 0.23328-0.69994 0.7-0.7 0.53328 0.0000625 0.79995 0.2334 0.8 0.7m9.7 22.3c-0.000064 3-1.0334 5.5-3.1 7.5-2.0667 2-4.5334 3-7.4 3-2.9334 0.000029-5.4-0.99997-7.4-3-2-2.0666-3-4.5333-3-7.4-0.000043-2.9333 0.99996-5.4 3-7.4 2-2.0666 4.4666-3.1 7.4-3.1 2.9333 0.000049 5.3999 1.0334 7.4 3.1 2.0666 2 3.0999 4.4334 3.1 7.3m-0.8 0c-0.000063-2.6666-0.96673-4.9333-2.9-6.8-1.8667-1.9333-4.1667-2.9-6.9-2.9-2.6667 0.000049-4.9334 0.96671-6.8 2.9-1.8667 1.8667-2.8 4.1334-2.8 6.8-0.000044 2.8 0.93329 5.1334 2.8 7 1.9333 1.8 4.2333 2.7 6.9 2.7 2.7333 0.000029 5.0333-0.9333 6.9-2.8 1.8666-1.8666 2.7999-4.1666 2.8-6.9m-9.7-8.5c2.4666 0.000048 4.4999 0.83338 6.1 2.5 1.6666 1.6667 2.4999 3.6667 2.5 6-0.000062 2.4667-0.8334 4.5334-2.5 6.2-1.6667 1.6-3.7001 2.4-6.1 2.4-2.4001 0.00003-4.4334-0.8333-6.1-2.5-1.6667-1.6666-2.5-3.7-2.5-6.1-0.000045-2.4 0.83329-4.4 2.5-6 1.7333-1.6666 3.7666-2.5 6.1-2.5m-5.6 14.2c1.5333 1.4667 3.3666 2.2 5.5 2.2 2.1999 0.000031 4.0666-0.7333 5.6-2.2 1.5333-1.5333 2.2999-3.4333 2.3-5.7-0.000061-2.1333-0.76673-3.9666-2.3-5.5-1.4667-1.5333-3.3001-2.3-5.5-2.3-2.2001 0.000047-4.0667 0.76671-5.6 2.3-1.4667 1.5334-2.2 3.3667-2.2 5.5-0.000046 2.2667 0.73329 4.1667 2.2 5.7m10.8-7.8c0.59994 0.000041 1.0999 0.23337 1.5 0.7 0.46661 0.40004 0.69994 0.90004 0.7 1.5-0.000061 0.60004-0.20006 1.1-0.6 1.5-0.40006 0.40004-0.93339 0.60004-1.6 0.6h-1.5c0.73328 1.2 1.0999 2 1.1 2.4-0.000058 0.60003-0.23339 1.1334-0.7 1.6-0.40006 0.40003-0.93339 0.60003-1.6 0.6-0.13339 0.000032-0.30006 0.000032-0.5 0-0.13339-0.06663-0.30006-0.16663-0.5-0.3-0.13339-0.1333-0.26672-0.2333-0.4-0.3-0.06672-0.1333-0.16672-0.26663-0.3-0.4-0.13339-0.19997-0.23339-0.3333-0.3-0.4-0.06672-0.1333-0.16672-0.29997-0.3-0.5-0.06672-0.26663-0.13339-0.4333-0.2-0.5-0.60005 1.0667-1.0667 1.7334-1.4 2-0.33338 0.20003-0.73338 0.30003-1.2 0.3-0.60005 0.000032-1.1334-0.19997-1.6-0.6-0.40005-0.39997-0.60005-0.86663-0.6-1.4-0.000049-0.46663 0.36662-1.3 1.1-2.5h-1.5c-0.60005 0.000037-1.1334-0.19996-1.6-0.6-0.40005-0.46663-0.60005-0.99996-0.6-1.6-0.000046-0.66663 0.19995-1.1666 0.6-1.5 0.39995-0.39996 0.93329-0.59996 1.6-0.6h1.5c-0.73338-1.2-1.1-2-1.1-2.4-0.000049-0.59996 0.19995-1.1 0.6-1.5 0.46662-0.46662 1.0333-0.69995 1.7-0.7 0.19995 0.000046 0.39995 0.06671 0.6 0.2 0.19995 0.06671 0.36662 0.13338 0.5 0.2 0.13328 0.06671 0.26661 0.23338 0.4 0.5 0.19995 0.20004 0.29995 0.33338 0.3 0.4 0.06661 0.06671 0.16661 0.26671 0.3 0.6 0.19995 0.33338 0.33328 0.53338 0.4 0.6 0.66661-1.2 1.1333-1.9 1.4-2.1 0.33328-0.19995 0.73328-0.29995 1.2-0.3 0.59994 0.000046 1.0999 0.20004 1.5 0.6 0.46661 0.40004 0.69994 0.90004 0.7 1.5-0.000058 0.33338-0.36672 1.1334-1.1 2.4h1.5m-2.7 8.1c0.39994 0.000033 0.73328-0.1333 1-0.4 0.33328-0.26663 0.49994-0.59997 0.5-1-0.000058-0.26663-0.06672-0.49996-0.2-0.7l-1.4-2.5h2.8c0.93327 0.000038 1.3999-0.4333 1.4-1.3-0.00006-0.93329-0.46673-1.4-1.4-1.4h-2.8l1.4-2.4c0.13328-0.33329 0.19994-0.63329 0.2-0.9-0.000058-0.33329-0.13339-0.63329-0.4-0.9-0.26672-0.26662-0.60006-0.39996-1-0.4-0.53339 0.000045-0.93339 0.23338-1.2 0.7l-1.4 2.5-1.4-2.5c-0.26672-0.46662-0.63338-0.69996-1.1-0.7-0.40005 0.000045-0.76672 0.13338-1.1 0.4-0.26672 0.26671-0.40005 0.60004-0.4 1-0.00005 0.26671 0.06662 0.53338 0.2 0.8l1.4 2.4h-2.8c-0.93338 0.00004-1.4 0.46671-1.4 1.4-0.000047 0.8667 0.46662 1.3 1.4 1.3h2.8l-1.4 2.5c-0.20005 0.2667-0.30005 0.53337-0.3 0.8-0.00005 0.33337 0.13328 0.63337 0.4 0.9 0.33328 0.2667 0.69995 0.40003 1.1 0.4 0.53328 0.000033 0.93328-0.26663 1.2-0.8l1.4-2.3 1.4 2.3c0.26661 0.53337 0.63328 0.80003 1.1 0.8m-4.1-7.5c0.46661-0.46663 0.99995-0.69996 1.6-0.7 0.59995 0.000041 1.1333 0.23337 1.6 0.7 0.46661 0.40004 0.69994 0.90004 0.7 1.5-0.000056 0.6667-0.23339 1.2334-0.7 1.7-0.46672 0.40004-1.0334 0.60004-1.7 0.6-0.60005 0.000037-1.1334-0.19996-1.6-0.6-0.40005-0.46663-0.60005-1.0333-0.6-1.7-0.000051-0.59996 0.23328-1.1 0.7-1.5m1.6 3c0.39995 0.000038 0.73328-0.1333 1-0.4 0.33328-0.26663 0.49994-0.59996 0.5-1-0.000055-0.46663-0.16672-0.83329-0.5-1.1-0.26672-0.33329-0.63339-0.49996-1.1-0.5-0.40005 0.000041-0.73339 0.16671-1 0.5-0.26672 0.26671-0.40005 0.60004-0.4 1-0.000052 0.4667 0.13328 0.83337 0.4 1.1 0.33328 0.2667 0.69995 0.40004 1.1 0.4m0.8-1.5c-0.000054 0.53337-0.26672 0.80004-0.8 0.8-0.46672 0.000038-0.70005-0.26663-0.7-0.8-0.000053-0.46663 0.23328-0.69996 0.7-0.7 0.53328 0.00004 0.79995 0.23337 0.8 0.7m-17.7 22.6c-0.000037 3-1.0334 5.5-3.1 7.5-2.0667 2-4.5334 3-7.4 3-2.9334 0.000006-5.4-0.99999-7.4-3-2-2.0667-3-4.5333-3-7.4-0.000016-2.9333 0.99998-5.4 3-7.4 2-2.0666 4.4666-3.1 7.4-3.1 2.9333 0.000027 5.4 1.0334 7.4 3.1 2.0666 2 3.1 4.4334 3.1 7.3m-0.8 0c-0.000036-2.6666-0.9667-4.9333-2.9-6.8-1.8667-1.9333-4.1667-2.9-6.9-2.9-2.6667 0.000026-4.9334 0.96669-6.8 2.9-1.8667 1.8667-2.8 4.1334-2.8 6.8-0.000017 2.8 0.93332 5.1333 2.8 7 1.9333 1.8 4.2333 2.7 6.9 2.7 2.7333 0.000007 5.0333-0.93333 6.9-2.8 1.8666-1.8667 2.8-4.1667 2.8-6.9m-9.7-8.5c2.4666 0.000025 4.5 0.83336 6.1 2.5 1.6666 1.6667 2.5 3.6667 2.5 6-0.000035 2.4667-0.83337 4.5333-2.5 6.2-1.6667 1.6-3.7 2.4-6.1 2.4-2.4 0.000008-4.4334-0.83332-6.1-2.5-1.6667-1.6667-2.5-3.7-2.5-6.1-0.000018-2.4 0.83332-4.4 2.5-6 1.7333-1.6666 3.7666-2.5 6.1-2.5m-5.6 14.2c1.5333 1.4667 3.3666 2.2 5.5 2.2 2.2 0.000009 4.0666-0.73332 5.6-2.2 1.5333-1.5333 2.3-3.4333 2.3-5.7-0.000034-2.1333-0.7667-3.9666-2.3-5.5-1.4667-1.5333-3.3-2.3-5.5-2.3-2.2 0.000024-4.0667 0.76669-5.6 2.3-1.4667 1.5334-2.2 3.3667-2.2 5.5-0.000018 2.2667 0.73331 4.1667 2.2 5.7m10.8-7.8c0.59997 0.000019 1.1 0.23335 1.5 0.7 0.46663 0.40002 0.69997 0.90002 0.7 1.5-0.000034 0.60002-0.20003 1.1-0.6 1.5-0.40003 0.40001-0.93336 0.60001-1.6 0.6h-1.5c0.7333 1.2 1.1 2 1.1 2.4-0.000031 0.60001-0.23336 1.1333-0.7 1.6-0.40003 0.40001-0.93336 0.60001-1.6 0.6-0.13336 0.00001-0.30003 0.00001-0.5 0-0.13336-0.06666-0.30003-0.16666-0.5-0.3-0.13336-0.13332-0.26669-0.23332-0.4-0.3-0.06669-0.13332-0.16669-0.26666-0.3-0.4-0.13336-0.19999-0.23336-0.33332-0.3-0.4-0.06669-0.13332-0.16669-0.29999-0.3-0.5-0.06669-0.26666-0.13336-0.43332-0.2-0.5-0.60003 1.0667-1.0667 1.7333-1.4 2-0.33336 0.20001-0.73336 0.30001-1.2 0.3-0.60002 0.00001-1.1334-0.19999-1.6-0.6-0.40002-0.39999-0.60002-0.86666-0.6-1.4-0.000021-0.46665 0.36664-1.3 1.1-2.5h-1.5c-0.60002 0.000014-1.1334-0.19999-1.6-0.6-0.40002-0.46665-0.60002-0.99998-0.6-1.6-0.000019-0.66665 0.19998-1.1666 0.6-1.5 0.39998-0.39998 0.93331-0.59998 1.6-0.6h1.5c-0.73336-1.2-1.1-2-1.1-2.4-0.000021-0.59998 0.19998-1.1 0.6-1.5 0.46664-0.46664 1.0333-0.69998 1.7-0.7 0.19998 0.000023 0.39998 0.06669 0.6 0.2 0.19998 0.06669 0.36664 0.13336 0.5 0.2 0.13331 0.06669 0.26664 0.23336 0.4 0.5 0.19998 0.20002 0.29997 0.33336 0.3 0.4 0.06664 0.06669 0.16664 0.26669 0.3 0.6 0.19997 0.33335 0.33331 0.53335 0.4 0.6 0.66664-1.2 1.1333-1.9 1.4-2.1 0.3333-0.19998 0.7333-0.29998 1.2-0.3 0.59997 0.000023 1.1 0.20002 1.5 0.6 0.46664 0.40002 0.69997 0.90002 0.7 1.5-0.000031 0.33335-0.3667 1.1334-1.1 2.4h1.5m-2.7 8.1c0.39997 0.00001 0.7333-0.13332 1-0.4 0.3333-0.26666 0.49997-0.59999 0.5-1-0.00003-0.26666-0.0667-0.49999-0.2-0.7l-1.4-2.5h2.8c0.9333 0.000015 1.4-0.43332 1.4-1.3-0.000033-0.93332-0.4667-1.4-1.4-1.4h-2.8l1.4-2.4c0.1333-0.33331 0.19997-0.63331 0.2-0.9-0.00003-0.33331-0.13336-0.63331-0.4-0.9-0.2667-0.26664-0.60003-0.39998-1-0.4-0.53336 0.000022-0.93336 0.23336-1.2 0.7l-1.4 2.5-1.4-2.5c-0.26669-0.46664-0.63336-0.69998-1.1-0.7-0.40002 0.000022-0.76669 0.13336-1.1 0.4-0.26669 0.26669-0.40002 0.60002-0.4 1-0.000022 0.26669 0.06664 0.53335 0.2 0.8l1.4 2.4h-2.8c-0.93335 0.000018-1.4 0.46668-1.4 1.4-0.00002 0.86668 0.46665 1.3 1.4 1.3h2.8l-1.4 2.5c-0.20002 0.26668-0.30002 0.53334-0.3 0.8-0.000022 0.33334 0.13331 0.63334 0.4 0.9 0.33331 0.26668 0.69998 0.40001 1.1 0.4 0.53331 0.00001 0.93331-0.26666 1.2-0.8l1.4-2.3 1.4 2.3c0.26664 0.53334 0.6333 0.80001 1.1 0.8m-4.1-7.5c0.46664-0.46665 0.99997-0.69998 1.6-0.7 0.59997 0.000019 1.1333 0.23335 1.6 0.7 0.46664 0.40002 0.69997 0.90002 0.7 1.5-0.000029 0.66668-0.23336 1.2333-0.7 1.7-0.46669 0.40001-1.0334 0.60001-1.7 0.6-0.60003 0.000014-1.1334-0.19999-1.6-0.6-0.40002-0.46665-0.60002-1.0333-0.6-1.7-0.000024-0.59998 0.23331-1.1 0.7-1.5m1.6 3c0.39997 0.000015 0.73331-0.13332 1-0.4 0.33331-0.26665 0.49997-0.59998 0.5-1-0.000028-0.46665-0.16669-0.83332-0.5-1.1-0.26669-0.33332-0.63336-0.49998-1.1-0.5-0.40003 0.000018-0.73336 0.16668-1 0.5-0.26669 0.26668-0.40002 0.60002-0.4 1-0.000025 0.46668 0.13331 0.83335 0.4 1.1 0.33331 0.26668 0.69997 0.40002 1.1 0.4m0.8-1.5c-0.000027 0.53335-0.26669 0.80002-0.8 0.8-0.46669 0.000016-0.70003-0.26665-0.7-0.8-0.000026-0.46665 0.23331-0.69998 0.7-0.7 0.53331 0.000017 0.79997 0.23335 0.8 0.7m9.7 22.3c-0.000037 3-1.0334 5.5-3.1 7.5-2.0667 2-4.5334 3-7.4 3-2.9334-0.000016-5.4-1.0333-7.4-3.1-2-2-3-4.4667-3-7.4-0.000016-2.8667 0.99998-5.3 3-7.3 2-2.0667 4.4666-3.1 7.4-3.1 2.9333 0.000005 5.4 1.0333 7.4 3.1 2.0666 2 3.1 4.4333 3.1 7.3m-0.8 0c-0.000036-2.6667-0.9667-4.9333-2.9-6.8-1.8667-1.9333-4.1667-2.9-6.9-2.9-2.6667 0.000004-4.9334 0.96667-6.8 2.9-1.8667 1.8667-2.8 4.1333-2.8 6.8-0.000017 2.8 0.93332 5.1 2.8 6.9 1.9333 1.8667 4.2333 2.8 6.9 2.8 2.7333-0.000016 5.0333-0.93335 6.9-2.8 1.8666-1.8667 2.8-4.1667 2.8-6.9m-9.7-8.5c2.4666 0.000003 4.5 0.83334 6.1 2.5 1.6666 1.6667 2.5 3.6667 2.5 6-0.000035 2.4667-0.83337 4.5-2.5 6.1-1.6667 1.6667-3.7 2.5-6.1 2.5-2.4-0.000014-4.4334-0.83335-6.1-2.5-1.6667-1.6667-2.5-3.7-2.5-6.1-0.000018-2.4 0.83332-4.4 2.5-6 1.7333-1.6667 3.7666-2.5 6.1-2.5m-5.6 14.1c1.5333 1.5333 3.3666 2.3 5.5 2.3 2.2-0.000014 4.0666-0.76668 5.6-2.3 1.5333-1.4667 2.3-3.3333 2.3-5.6-0.000034-2.1333-0.7667-3.9667-2.3-5.5-1.4667-1.5333-3.3-2.3-5.5-2.3-2.2 0.000002-4.0667 0.76667-5.6 2.3-1.4667 1.5333-2.2 3.3667-2.2 5.5-0.000018 2.2667 0.73331 4.1333 2.2 5.6m10.8-7.7c0.59997-0.000004 1.1 0.2 1.5 0.6 0.46663 0.46666 0.69997 1 0.7 1.6-0.000034 0.59999-0.20003 1.1-0.6 1.5-0.40003 0.39999-0.93336 0.59999-1.6 0.6h-1.5c0.7333 1.2 1.1 2 1.1 2.4-0.000031 0.59999-0.23336 1.1-0.7 1.5-0.40003 0.46665-0.93336 0.69999-1.6 0.7-0.13336-0.000013-0.30003-0.03335-0.5-0.1-0.13336-0.000013-0.30003-0.06668-0.5-0.2-0.13336-0.13335-0.26669-0.26668-0.4-0.4-0.06669-0.06668-0.16669-0.20001-0.3-0.4-0.13336-0.13334-0.23336-0.26668-0.3-0.4-0.06669-0.06668-0.16669-0.23334-0.3-0.5-0.06669-0.20001-0.13336-0.33334-0.2-0.4-0.60003 1.0667-1.0667 1.7333-1.4 2-0.33336 0.19999-0.73336 0.29999-1.2 0.3-0.60002-0.000013-1.1334-0.20001-1.6-0.6-0.40002-0.40001-0.60002-0.86668-0.6-1.4-0.000021-0.46668 0.36664-1.3 1.1-2.5h-1.5c-0.60002-0.000008-1.1334-0.23334-1.6-0.7-0.40002-0.40001-0.60002-0.90001-0.6-1.5-0.000019-0.66667 0.19998-1.2 0.6-1.6 0.39998-0.33334 0.93331-0.5 1.6-0.5h1.5c-0.73336-1.2-1.1-2-1.1-2.4-0.000021-0.6 0.19998-1.1 0.6-1.5 0.46664-0.46667 1.0333-0.7 1.7-0.7 0.19998 0.000001 0.39998 0.06667 0.6 0.2 0.19998 0.06667 0.36664 0.13333 0.5 0.2 0.13331 0.06667 0.26664 0.23333 0.4 0.5 0.19998 0.2 0.29997 0.33333 0.3 0.4 0.06664 0.06667 0.16664 0.26667 0.3 0.6 0.19997 0.33333 0.33331 0.53333 0.4 0.6 0.66664-1.2 1.1333-1.9 1.4-2.1 0.3333-0.2 0.7333-0.3 1.2-0.3 0.59997 0.000001 1.1 0.2 1.5 0.6 0.46664 0.4 0.69997 0.9 0.7 1.5-0.000031 0.33333-0.3667 1.1333-1.1 2.4h1.5m-2.7 8.1c0.39997-0.000012 0.7333-0.13334 1-0.4 0.3333-0.26668 0.49997-0.60001 0.5-1-0.00003-0.26668-0.0667-0.50001-0.2-0.7l-1.4-2.5h2.8c0.9333-0.000007 1.4-0.46667 1.4-1.4-0.000033-0.86667-0.4667-1.3-1.4-1.3h-2.8l1.4-2.4c0.1333-0.33334 0.19997-0.63334 0.2-0.9-0.00003-0.33333-0.13336-0.63333-0.4-0.9-0.2667-0.26667-0.60003-0.4-1-0.4-0.53336 0-0.93336 0.23333-1.2 0.7l-1.4 2.5-1.4-2.5c-0.26669-0.46667-0.63336-0.7-1.1-0.7-0.40002 0-0.76669 0.13333-1.1 0.4-0.26669 0.26667-0.40002 0.6-0.4 1-0.000022 0.26666 0.06664 0.53333 0.2 0.8l1.4 2.4h-2.8c-0.93335-0.000005-1.4 0.43333-1.4 1.3-0.00002 0.93333 0.46665 1.4 1.4 1.4h2.8l-1.4 2.5c-0.20002 0.26666-0.30002 0.53332-0.3 0.8-0.000022 0.33332 0.13331 0.63332 0.4 0.9 0.33331 0.26666 0.69998 0.39999 1.1 0.4 0.53331-0.000012 0.93331-0.26668 1.2-0.8l1.4-2.3 1.4 2.3c0.26664 0.53332 0.6333 0.79999 1.1 0.8m-4.1-7.6c0.46664-0.4 0.99997-0.6 1.6-0.6 0.59997-0.000004 1.1333 0.2 1.6 0.6 0.46664 0.46666 0.69997 1 0.7 1.6-0.000029 0.66666-0.23336 1.2-0.7 1.6-0.46669 0.46666-1.0334 0.69999-1.7 0.7-0.60003-0.000008-1.1334-0.23334-1.6-0.7-0.40002-0.40001-0.60002-0.93334-0.6-1.6-0.000024-0.6 0.23331-1.1333 0.7-1.6m1.6 3.1c0.39997-0.000007 0.73331-0.13334 1-0.4 0.33331-0.26667 0.49997-0.63334 0.5-1.1-0.000028-0.4-0.16669-0.76667-0.5-1.1-0.26669-0.26667-0.63336-0.4-1.1-0.4-0.40003-0.000004-0.73336 0.13333-1 0.4-0.26669 0.33333-0.40002 0.7-0.4 1.1-0.000025 0.46666 0.13331 0.83333 0.4 1.1 0.33331 0.26666 0.69997 0.39999 1.1 0.4m0.8-1.5c-0.000027 0.53333-0.26669 0.79999-0.8 0.8-0.46669-0.000007-0.70003-0.26667-0.7-0.8-0.000026-0.46667 0.23331-0.7 0.7-0.7 0.53331-0.000005 0.79997 0.23333 0.8 0.7m9.7-67.2c-0.000037 3.0001-1.0334 5.5001-3.1 7.5-2.0667 2.0001-4.5334 3.0001-7.4 3-2.9334 0.000051-5.4-0.99995-7.4-3-2-2.0666-3-4.5333-3-7.4-0.000016-2.9333 0.99998-5.3999 3-7.4 2-2.0666 4.4666-3.0999 7.4-3.1 2.9333 0.0000722 5.4 1.0334 7.4 3.1 2.0666 2.0001 3.1 4.4334 3.1 7.3m-0.8 0c-0.000036-2.6666-0.9667-4.9333-2.9-6.8-1.8667-1.9333-4.1667-2.8999-6.9-2.9-2.6667 0.0000715-4.9334 0.96674-6.8 2.9-1.8667 1.8667-2.8 4.1334-2.8 6.8-0.000017 2.8001 0.93332 5.1334 2.8 7 1.9333 1.8001 4.2333 2.7001 6.9 2.7 2.7333 0.000052 5.0333-0.93328 6.9-2.8 1.8666-1.8666 2.8-4.1666 2.8-6.9m-9.7-8.5c2.4666 0.0000703 4.5 0.8334 6.1 2.5 1.6666 1.6667 2.5 3.6667 2.5 6-0.000035 2.4667-0.83337 4.5334-2.5 6.2-1.6667 1.6001-3.7 2.4001-6.1 2.4-2.4 0.000053-4.4334-0.83328-6.1-2.5-1.6667-1.6666-2.5-3.6999-2.5-6.1-0.000018-2.3999 0.83332-4.3999 2.5-6 1.7333-1.6666 3.7666-2.4999 6.1-2.5m-5.6 14.2c1.5333 1.4667 3.3666 2.2001 5.5 2.2 2.2 0.000053 4.0666-0.73328 5.6-2.2 1.5333-1.5333 2.3-3.4333 2.3-5.7-0.000034-2.1333-0.7667-3.9666-2.3-5.5-1.4667-1.5333-3.3-2.2999-5.5-2.3-2.2 0.0000696-4.0667 0.76674-5.6 2.3-1.4667 1.5334-2.2 3.3667-2.2 5.5-0.000018 2.2667 0.73331 4.1667 2.2 5.7m10.8-7.8c0.59997 0.0000639 1.1 0.2334 1.5 0.7 0.46663 0.40006 0.69997 0.90006 0.7 1.5-0.000034 0.60006-0.20003 1.1001-0.6 1.5-0.40003 0.40006-0.93336 0.60006-1.6 0.6h-1.5c0.7333 1.2001 1.1 2.0001 1.1 2.4-0.000031 0.60006-0.23336 1.1334-0.7 1.6-0.40003 0.40006-0.93336 0.60006-1.6 0.6-0.13336 0.000055-0.30003 0.000055-0.5 0-0.13336-0.06661-0.30003-0.16661-0.5-0.3-0.13336-0.13328-0.26669-0.23328-0.4-0.3-0.06669-0.13328-0.16669-0.26661-0.3-0.4-0.13336-0.19994-0.23336-0.33328-0.3-0.4-0.06669-0.13328-0.16669-0.29994-0.3-0.5-0.06669-0.26661-0.13336-0.43328-0.2-0.5-0.60003 1.0667-1.0667 1.7334-1.4 2-0.33336 0.20006-0.73336 0.30006-1.2 0.3-0.60002 0.000055-1.1334-0.19994-1.6-0.6-0.40002-0.39994-0.60002-0.86661-0.6-1.4-0.000021-0.46661 0.36664-1.2999 1.1-2.5h-1.5c-0.60002 0.0000596-1.1334-0.19994-1.6-0.6-0.40002-0.46661-0.60002-0.99994-0.6-1.6-0.000019-0.6666 0.19998-1.1666 0.6-1.5 0.39998-0.39994 0.93331-0.59994 1.6-0.6h1.5c-0.73336-1.1999-1.1-1.9999-1.1-2.4-0.000021-0.59993 0.19998-1.0999 0.6-1.5 0.46664-0.4666 1.0333-0.69993 1.7-0.7 0.19998 0.0000685 0.39998 0.066735 0.6 0.2 0.19998 0.066735 0.36664 0.1334 0.5 0.2 0.13331 0.066735 0.26664 0.2334 0.4 0.5 0.19998 0.20007 0.29997 0.3334 0.3 0.4 0.06664 0.066734 0.16664 0.26673 0.3 0.6 0.19997 0.3334 0.33331 0.5334 0.4 0.6 0.66664-1.1999 1.1333-1.8999 1.4-2.1 0.3333-0.19993 0.7333-0.29993 1.2-0.3 0.59997 0.0000684 1.1 0.20007 1.5 0.6 0.46664 0.40007 0.69997 0.90007 0.7 1.5-0.000031 0.3334-0.3667 1.1334-1.1 2.4h1.5m-2.7 8.1c0.39997 0.000055 0.7333-0.13328 1-0.4 0.3333-0.26661 0.49997-0.59994 0.5-1-0.00003-0.26661-0.0667-0.49994-0.2-0.7l-1.4-2.5h2.8c0.9333 0.0000604 1.4-0.43327 1.4-1.3-0.000033-0.93327-0.4667-1.3999-1.4-1.4h-2.8l1.4-2.4c0.1333-0.33327 0.19997-0.63327 0.2-0.9-0.00003-0.33327-0.13336-0.63327-0.4-0.9-0.2667-0.2666-0.60003-0.39993-1-0.4-0.53336 0.0000677-0.93336 0.2334-1.2 0.7l-1.4 2.5-1.4-2.5c-0.26669-0.4666-0.63336-0.69993-1.1-0.7-0.40002 0.0000677-0.76669 0.1334-1.1 0.4-0.26669 0.26673-0.40002 0.60007-0.4 1-0.000022 0.26673 0.06664 0.5334 0.2 0.8l1.4 2.4h-2.8c-0.93335 0.0000631-1.4 0.46673-1.4 1.4-0.00002 0.86673 0.46665 1.3001 1.4 1.3h2.8l-1.4 2.5c-0.20002 0.26672-0.30002 0.53339-0.3 0.8-0.000022 0.33339 0.13331 0.63339 0.4 0.9 0.33331 0.26672 0.69998 0.40006 1.1 0.4 0.53331 0.000055 0.93331-0.26661 1.2-0.8l1.4-2.3 1.4 2.3c0.26664 0.53339 0.6333 0.80006 1.1 0.8m-4.1-7.5c0.46664-0.4666 0.99997-0.69994 1.6-0.7 0.59997 0.000064 1.1333 0.2334 1.6 0.7 0.46664 0.40006 0.69997 0.90006 0.7 1.5-0.000029 0.66673-0.23336 1.2334-0.7 1.7-0.46669 0.40006-1.0334 0.60006-1.7 0.6-0.60003 0.0000595-1.1334-0.19994-1.6-0.6-0.40002-0.46661-0.60002-1.0333-0.6-1.7-0.000024-0.59994 0.23331-1.0999 0.7-1.5m1.6 3c0.39997 0.0000603 0.73331-0.13327 1-0.4 0.33331-0.26661 0.49997-0.59994 0.5-1-0.000028-0.4666-0.16669-0.83327-0.5-1.1-0.26669-0.33327-0.63336-0.49994-1.1-0.5-0.40003 0.0000633-0.73336 0.16673-1 0.5-0.26669 0.26673-0.40002 0.60006-0.4 1-0.000025 0.46673 0.13331 0.83339 0.4 1.1 0.33331 0.26673 0.69997 0.40006 1.1 0.4m0.8-1.5c-0.000027 0.53339-0.26669 0.80006-0.8 0.8-0.46669 0.000061-0.70003-0.26661-0.7-0.8-0.000026-0.4666 0.23331-0.69994 0.7-0.7 0.53331 0.0000625 0.79997 0.2334 0.8 0.7m9.7 22.3c-0.000037 3-1.0334 5.5-3.1 7.5-2.0667 2-4.5334 3-7.4 3-2.9334 0.000029-5.4-0.99997-7.4-3-2-2.0666-3-4.5333-3-7.4-0.000016-2.9333 0.99998-5.4 3-7.4 2-2.0666 4.4666-3.1 7.4-3.1 2.9333 0.000049 5.4 1.0334 7.4 3.1 2.0666 2 3.1 4.4334 3.1 7.3m-0.8 0c-0.000036-2.6666-0.9667-4.9333-2.9-6.8-1.8667-1.9333-4.1667-2.9-6.9-2.9-2.6667 0.000049-4.9334 0.96671-6.8 2.9-1.8667 1.8667-2.8 4.1334-2.8 6.8-0.000017 2.8 0.93332 5.1334 2.8 7 1.9333 1.8 4.2333 2.7 6.9 2.7 2.7333 0.000029 5.0333-0.9333 6.9-2.8 1.8666-1.8666 2.8-4.1666 2.8-6.9m-9.7-8.5c2.4666 0.000048 4.5 0.83338 6.1 2.5 1.6666 1.6667 2.5 3.6667 2.5 6-0.000035 2.4667-0.83337 4.5334-2.5 6.2-1.6667 1.6-3.7 2.4-6.1 2.4-2.4 0.00003-4.4334-0.8333-6.1-2.5-1.6667-1.6666-2.5-3.7-2.5-6.1-0.000018-2.4 0.83332-4.4 2.5-6 1.7333-1.6666 3.7666-2.5 6.1-2.5m-5.6 14.2c1.5333 1.4667 3.3666 2.2 5.5 2.2 2.2 0.000031 4.0666-0.7333 5.6-2.2 1.5333-1.5333 2.3-3.4333 2.3-5.7-0.000034-2.1333-0.7667-3.9666-2.3-5.5-1.4667-1.5333-3.3-2.3-5.5-2.3-2.2 0.000047-4.0667 0.76671-5.6 2.3-1.4667 1.5334-2.2 3.3667-2.2 5.5-0.000018 2.2667 0.73331 4.1667 2.2 5.7m10.8-7.8c0.59997 0.000041 1.1 0.23337 1.5 0.7 0.46663 0.40004 0.69997 0.90004 0.7 1.5-0.000034 0.60004-0.20003 1.1-0.6 1.5-0.40003 0.40004-0.93336 0.60004-1.6 0.6h-1.5c0.7333 1.2 1.1 2 1.1 2.4-0.000031 0.60003-0.23336 1.1334-0.7 1.6-0.40003 0.40003-0.93336 0.60003-1.6 0.6-0.13336 0.000032-0.30003 0.000032-0.5 0-0.13336-0.06663-0.30003-0.16663-0.5-0.3-0.13336-0.1333-0.26669-0.2333-0.4-0.3-0.06669-0.1333-0.16669-0.26663-0.3-0.4-0.13336-0.19997-0.23336-0.3333-0.3-0.4-0.06669-0.1333-0.16669-0.29997-0.3-0.5-0.06669-0.26663-0.13336-0.4333-0.2-0.5-0.60003 1.0667-1.0667 1.7334-1.4 2-0.33336 0.20003-0.73336 0.30003-1.2 0.3-0.60002 0.000032-1.1334-0.19997-1.6-0.6-0.40002-0.39997-0.60002-0.86663-0.6-1.4-0.000021-0.46663 0.36664-1.3 1.1-2.5h-1.5c-0.60002 0.000037-1.1334-0.19996-1.6-0.6-0.40002-0.46663-0.60002-0.99996-0.6-1.6-0.000019-0.66663 0.19998-1.1666 0.6-1.5 0.39998-0.39996 0.93331-0.59996 1.6-0.6h1.5c-0.73336-1.2-1.1-2-1.1-2.4-0.000021-0.59996 0.19998-1.1 0.6-1.5 0.46664-0.46662 1.0333-0.69995 1.7-0.7 0.19998 0.000046 0.39998 0.06671 0.6 0.2 0.19998 0.06671 0.36664 0.13338 0.5 0.2 0.13331 0.06671 0.26664 0.23338 0.4 0.5 0.19998 0.20004 0.29997 0.33338 0.3 0.4 0.06664 0.06671 0.16664 0.26671 0.3 0.6 0.19997 0.33338 0.33331 0.53338 0.4 0.6 0.66664-1.2 1.1333-1.9 1.4-2.1 0.3333-0.19995 0.7333-0.29995 1.2-0.3 0.59997 0.000046 1.1 0.20004 1.5 0.6 0.46664 0.40004 0.69997 0.90004 0.7 1.5-0.000031 0.33338-0.3667 1.1334-1.1 2.4h1.5m-2.7 8.1c0.39997 0.000033 0.7333-0.1333 1-0.4 0.3333-0.26663 0.49997-0.59997 0.5-1-0.00003-0.26663-0.0667-0.49996-0.2-0.7l-1.4-2.5h2.8c0.9333 0.000038 1.4-0.4333 1.4-1.3-0.000033-0.93329-0.4667-1.4-1.4-1.4h-2.8l1.4-2.4c0.1333-0.33329 0.19997-0.63329 0.2-0.9-0.00003-0.33329-0.13336-0.63329-0.4-0.9-0.2667-0.26662-0.60003-0.39996-1-0.4-0.53336 0.000045-0.93336 0.23338-1.2 0.7l-1.4 2.5-1.4-2.5c-0.26669-0.46662-0.63336-0.69996-1.1-0.7-0.40002 0.000045-0.76669 0.13338-1.1 0.4-0.26669 0.26671-0.40002 0.60004-0.4 1-0.000022 0.26671 0.06664 0.53338 0.2 0.8l1.4 2.4h-2.8c-0.93335 0.00004-1.4 0.46671-1.4 1.4-0.00002 0.8667 0.46665 1.3 1.4 1.3h2.8l-1.4 2.5c-0.20002 0.2667-0.30002 0.53337-0.3 0.8-0.000022 0.33337 0.13331 0.63337 0.4 0.9 0.33331 0.2667 0.69998 0.40003 1.1 0.4 0.53331 0.000033 0.93331-0.26663 1.2-0.8l1.4-2.3 1.4 2.3c0.26664 0.53337 0.6333 0.80003 1.1 0.8m-4.1-7.5c0.46664-0.46663 0.99997-0.69996 1.6-0.7 0.59997 0.000041 1.1333 0.23337 1.6 0.7 0.46664 0.40004 0.69997 0.90004 0.7 1.5-0.000029 0.6667-0.23336 1.2334-0.7 1.7-0.46669 0.40004-1.0334 0.60004-1.7 0.6-0.60003 0.000037-1.1334-0.19996-1.6-0.6-0.40002-0.46663-0.60002-1.0333-0.6-1.7-0.000024-0.59996 0.23331-1.1 0.7-1.5m1.6 3c0.39997 0.000038 0.73331-0.1333 1-0.4 0.33331-0.26663 0.49997-0.59996 0.5-1-0.000028-0.46663-0.16669-0.83329-0.5-1.1-0.26669-0.33329-0.63336-0.49996-1.1-0.5-0.40003 0.000041-0.73336 0.16671-1 0.5-0.26669 0.26671-0.40002 0.60004-0.4 1-0.000025 0.4667 0.13331 0.83337 0.4 1.1 0.33331 0.2667 0.69997 0.40004 1.1 0.4m0.8-1.5c-0.000027 0.53337-0.26669 0.80004-0.8 0.8-0.46669 0.000038-0.70003-0.26663-0.7-0.8-0.000026-0.46663 0.23331-0.69996 0.7-0.7 0.53331 0.00004 0.79997 0.23337 0.8 0.7" fill="#10106c"/></g></svg>
