<?xml version="1.0" encoding="UTF-8" standalone="no"?>\n<svg height="95" width="75" xmlns="http://www.w3.org/2000/svg" xmlns:xlink="http://www.w3.org/1999/xlink" shape-rendering="geometricPrecision"><rect width="100%" fill="#fff" height="100%"/><g stroke="#000" stroke-width=".7" fill="none"><g id="c"><path id="b" stroke="#116" d="m9.26 17.8a1.7 1.7 0 0 0 0 3.4h2.3l-1.15 2a1.7 1.7 0 0 0 2.94 1.7l1.15-2 1.15 2a1.7 1.7 0 0 0 2.94 -1.7l-1.15-2h2.3a1.7 1.7 0 0 0 0 -3.4h-2.3l1.15-2a1.7 1.7 0 0 0 -2.94 -1.7l-1.15 2-1.15-2a1.7 1.7 0 0 0 -2.94 1.7l1.15 2zm5.19-8.1a9.8 9.8 0 1 0 0.1 0zm0 1.8a8 8 0 1 0 0.1 0zm0 6a2 2 0 1 0 0.1 0zm0 1.65a0.35 0.35 0 1 0 0.1 0z"/><path stroke="#900" d="m9.26 45.8a1.7 1.7 0 0 0 0 3.4h2.3l-1.15 2a1.7 1.7 0 0 0 2.94 1.7l1.15-2 1.15 2a1.7 1.7 0 0 0 2.94 -1.7l-1.15-2h2.3a1.7 1.7 0 0 0 0 -3.4h-2.3l1.15-2a1.7 1.7 0 0 0 -2.94 -1.7l-1.15 2-1.15-2a1.7 1.7 0 0 0 -2.94 1.7l1.15 2zm5.19-8.1a9.8 9.8 0 1 0 0.1 0zm0 1.8a8 8 0 1 0 0.1 0zm0 6a2 2 0 1 0 0.1 0zm0 1.65a0.35 0.35 0 1 0 0.1 0z"/><use y="56" xlink:href="#b"/></g><use x="23" xlink:href="#c"/><use x="46" xlink:href="#c"/></g></svg>