<?xml version="1.0" encoding="UTF-8" standalone="no"?>
<svg xmlns="http://www.w3.org/2000/svg" shape-rendering="geometricPrecision" height="95" width="75" version="1.1"><rect width="100%" fill="#fff" height="100%"/><g transform="translate(-453.68 -379.26)"><g fill="#004c00" transform="translate(282.73 401.78)"><path d="m215.05 10.532c1.4666-0.79996 2.8333-2.0333 4.1-3.7 1.3333-1.6666 2.1333-3.1333 2.4-4.4 1.6 0.80005 3.1333 1.6667 4.6 2.6-0.20006 0.40005-0.46672 0.76671-0.8 1.1-0.33339 0.33338-0.66672 0.63338-1 0.9-0.33339 0.26671-0.83339 0.63338-1.5 1.1-0.66672 0.40004-1.2334 0.73338-1.7 1-0.40005 0.20004-1.1 0.60004-2.1 1.2-1 0.53338-1.8 0.96671-2.4 1.3 4.7333 5.8667 11.667 10.033 20.8 12.5l-3.8 0.9c-2.5334 0.60003-4.2334 0.90003-5.1 0.9-1.4001 0.000027-2.3667-0.19997-2.9-0.6-1.4-1.1333-4.8667-4.7-10.4-10.7l-5.3-6c-2.1334-2.3333-3.9667-4.1-5.5-5.3 0.59997-0.39995 1.1333-0.59995 1.6-0.6 1.4666 0.0000506 2.6333 0.70005 3.5 2.1 2-1.2666 3-3.4999 3-6.7 2.9333 0.0000552 4.7333 0.60005 5.4 1.8l-7 6c1.3333 1.6667 2.7 3.2 4.1 4.6m-6.7 7.9c0.46663 0.2667 0.76663 0.40003 0.9 0.4 0.13329 0.000034 0.96663-0.3333 2.5-1 1.5333-0.7333 2.3666-1.1 2.5-1.1 0.26662 0.000036 1.4666 0.60004 3.6 1.8-1.4667 3.4-2.2 5.6-2.2 6.6-0.00005 0.53336 0.26662 0.93336 0.8 1.2 0.53329 0.20003 1.8666 0.43336 4 0.7 1.7333 0.20003 2.6 0.50002 2.6 0.9-0.00005 0.33336-0.63339 0.76669-1.9 1.3-1.2667 0.46669-2.2334 0.70002-2.9 0.7-3.0667 0.000023-4.6-1.3333-4.6-4-0.00004-0.26664 0.0333-0.89997 0.1-1.9 0.0666-0.99997 0.1-1.6333 0.1-1.9-0.00004-1.2-0.20004-2.1333-0.6-2.8-1.7334 0.40003-2.9334 0.90003-3.6 1.5-0.0667 0.20003-0.16671 0.70003-0.3 1.5-0.13337 0.80003-0.23337 1.3334-0.3 1.6-0.00004 0.20003-0.0667 0.63336-0.2 1.3-0.13337 0.66669-0.2667 1.1334-0.4 1.4-0.0667 0.20003-0.20004 0.60003-0.4 1.2-0.20004 0.53336-0.40004 0.93336-0.6 1.2-0.20004 0.20002-0.4667 0.53336-0.8 1-0.2667 0.40002-0.5667 0.73336-0.9 1-0.33337 0.20002-0.73337 0.46669-1.2 0.8-0.40003 0.26669-0.8667 0.50002-1.4 0.7 2.3333-3.1333 3.5-6.4333 3.5-9.9-0.00004-1.5333-0.2667-3.1-0.8-4.7h1.8c0.0666 0.000035 0.29996 0.1667 0.7 0.5m11.8 16.9c-0.00005 0.20002-0.26672 0.76668-0.8 1.7-0.53338 0.86668-1.1667 1.8667-1.9 3-0.66671 1.0667-1.1 1.8-1.3 2.2l4.5 3.2c1.9333 1.7333 2.9 3.2333 2.9 4.5l-0.5 2c-1.7334-0.8-4.8-3.1-9.2-6.9-3.4667 3.1333-7.2667 4.7-11.4 4.7h-1.1c1.8-0.8 3.8333-1.9333 6.1-3.4 2.3333-1.5333 3.5-2.5 3.5-2.9-0.00004-0.39999-0.86671-1.2667-2.6-2.6l-3.8-2.8c1.6666 0.46668 4.3 1.3667 7.9 2.7 0.53329-0.19999 1.0333-0.83332 1.5-1.9 0.53329-1.1333 0.79996-2 0.8-2.6-0.00004-0.79998-0.46671-1.2-1.4-1.2-0.20004 0.000018-1.0334 0.23335-2.5 0.7-1.4667 0.46668-2.2667 0.70002-2.4 0.7-0.33337 0.000016-0.8667-0.16665-1.6-0.5-0.73337-0.33332-1.2-0.66665-1.4-1l10.6-3c2.7333 1.2 4.1 2.3334 4.1 3.4m-25.8-15.5c0.19998 0.000033 1.1666-0.29997 2.9-0.9 1.8-0.66663 2.8-0.99996 3-1 0.9333 0.000035 2.1666 0.7667 3.7 2.3l-4.3 5.4c0.19997 0.13336 0.76664 0.96669 1.7 2.5-2.9334 0.20002-5.0667 0.43336-6.4 0.7-1.3334 0.26669-2.0334 0.46669-2.1 0.6-0.0667 0.06669-0.23336 0.33336-0.5 0.8-0.13336 0.13336-0.50002 1.3-1.1 3.5 0.33331 0.000019 1.1333-0.06665 2.4-0.2 1.2666-0.13331 1.9333-0.19998 2-0.2 0.66664 0.00002 1.5333 0.30002 2.6 0.9 1.1333 0.53335 1.7 1.0334 1.7 1.5-0.00003 0.13335-0.1667 0.66668-0.5 1.6-0.33336 0.93335-0.50003 1.4667-0.5 1.6-0.26669 2-1.0667 5.0667-2.4 9.2-0.80003 1.9333-2 3.2-3.6 3.8-0.66669-0.66666-2.5-2.9-5.5-6.7l5 1.2c1.0666 0.000006 1.9333-0.89999 2.6-2.7 0.73331-1.8 1.1-3.7333 1.1-5.8-0.00003-1.6666-0.76669-2.5-2.3-2.5-1.2 0.000017-3.3334 1.1334-6.4 3.4-0.66668-0.19999-1-0.63332-1-1.3-0.00002-0.06665 0.19998-0.43332 0.6-1.1 0.46665-0.73332 0.96665-1.6666 1.5-2.8 0.59998-1.1333 1.0333-2.1 1.3-2.9 0.19998-0.53331 0.29998-2.1 0.3-4.7 1.8666 1.0667 3.3 1.6 4.3 1.6 0.86664 0.000025 1.7333-0.39997 2.6-1.2 0.86664-0.79997 1.3-1.5666 1.3-2.3v-2.6l-5.2-1.4c-4.4 5-9.0667 8.4667-14 10.4l12.2-12.6c-1.4-1.4-3.1-3.4-5.1-6h2.7c0.53331 0.000041 1.1666 0.46671 1.9 1.4l1.6 2c1.6-1.4666 3.1333-4.6666 4.6-9.6-0.26669-0.13329-0.53336-0.19995-0.8-0.2l-4.3 0.7c-0.46669 0.000047-1.5-0.36662-3.1-1.1 6-2.1999 9.0666-3.2999 9.2-3.3 0.26664 0.0000515 1.8 0.80005 4.6 2.4l-9.1 15.2c0.26664 0.2667 0.53331 0.40003 0.8 0.4" fill="#004c00"/></g></g></svg>
