<?xml version="1.0" ?>
<svg xmlns="http://www.w3.org/2000/svg" shape-rendering="geometricPrecision" height="95" width="75" version="1.1">
	<rect width="100%" fill="#fff" height="100%"/>
	<g transform="translate(-423.19 -397.1)">
		<g fill="#ba0000" transform="translate(295.94 431.06)">
			<path d="m165.45-11.913c-0.00004 0.33339-0.1667 1.1667-0.5 2.5-0.2667 1.3334-0.40003 2.0667-0.4 2.2v5.3c0.1333 0.06671 0.49996 0.10004 1.1 0.1l13-1.5c0.73328 0.0000452 2 0.50004 3.8 1.5 1.8 1 3.0999 1.9 3.9 2.7-0.20006 0.20004-0.60006 0.60004-1.2 1.2-0.60005 0.60004-1.0334 1.0334-1.3 1.3-0.20005 0.2667-0.56672 0.6667-1.1 1.2-0.46672 0.4667-0.83339 0.8667-1.1 1.2-0.20005 0.2667-0.50005 0.63337-0.9 1.1-0.33338 0.4667-0.60005 0.8667-0.8 1.2-0.13338 0.33337-0.30005 0.70003-0.5 1.1-0.20005 0.40003-0.33338 0.80003-0.4 1.2-0.0667 0.33336-0.10005 0.70003-0.1 1.1-0.00005 0.40003 0.1 1.1667 0.3 2.3h-5.4c-4.7334 0.33336-7.2 0.50003-7.4 0.5-0.8667 0.000028-1.5-0.1333-1.9-0.4l-0.1 15.5c-0.93337 6.8-1.7667 11.2-2.5 13.2-0.80003-1.4667-1.2-2.6-1.2-3.4v-5.8c-0.00003-0.06666 0.0666-0.66666 0.2-1.8 0.1333-1.1333 0.19997-1.8333 0.2-2.1v-13.5c-0.00003-0.46664-0.3667-0.69997-1.1-0.7-1.3334 0.000027-4.5 0.20003-9.5 0.6-0.66669 1.2667-1.1334 2.3-1.4 3.1-0.20002 0.000023-0.43335-0.19998-0.7-0.6-0.66668-1.6-1.2-3.7333-1.6-6.4-0.40002-2.6666-0.66668-4.1666-0.8-4.5l-3.2-7.3c0.59999 0.0000417 1.5666 0.066708 2.9 0.2 1.3333 0.13337 2.1666 0.20004 2.5 0.2 1.5333 0.0000413 5.6-0.56662 12.2-1.7 0.46664-0.33329 0.69997-0.79996 0.7-1.4-0.00003-3.4666-0.8667-7.7666-2.6-12.9h3.8c0.86663 0.000058 1.6 0.36672 2.2 1.1 0.59996 0.66672 0.89996 1.4667 0.9 2.4m12.1 14.8c-0.00005-1.2666-0.16671-2.1-0.5-2.5-0.26671-0.46662-0.86671-0.69996-1.8-0.7-0.26671 0.0000422-0.63338 0.033376-1.1 0.1l-8.6 0.7c-0.20004 0.0000414-0.50004-0.16663-0.9-0.5v12.4c0.19996 0.00003 0.59996 0.03336 1.2 0.1 0.59996 0.00003 1.0666 0.00003 1.4 0 0.0666 0.00003 0.16663-0.0333 0.3-0.1 0.19996-0.06664 0.49996-0.1333 0.9-0.2 0.39996-0.1333 0.83329-0.2333 1.3-0.3 5.2-0.79997 7.8-3.8 7.8-9m-16.6 10v-11.7l-12.1 1.7c0.33331 1.2667 0.56665 2.4334 0.7 3.5 0.19998 1.0667 0.33331 1.8667 0.4 2.4 0.0666 0.53337 0.1 1.3667 0.1 2.5 0.0666 1.1334 0.13331 2.0667 0.2 2.8l10.7-1.2" fill="#ba0000"/>
		</g>
	</g>
</svg>
