<?xml version="1.0" ?>
<svg xmlns="http://www.w3.org/2000/svg" shape-rendering="geometricPrecision" height="95" width="75" version="1.1">
	<rect width="100%" fill="#fff" height="100%"/>
	<g transform="translate(-415.69 -488.49)">
		<g fill="#9c0000" transform="translate(479.26 490.18)">
			<path d="m-10.702 25.26c1.1999 0.000034 2.2999 0.50003 3.3 1.5 1.0666 1 1.5999 2.1334 1.6 3.4-0.000061 1.1334-0.53339 2.0667-1.6 2.8l-15.8 10.4-0.7-0.7 10.4-15.8c0.73328-1.0666 1.6666-1.6 2.8-1.6m-7.4-4.7c1.2666 0.000038 2.3999 0.43337 3.4 1.3 1.0666 0.80004 1.5999 1.7667 1.6 2.9-0.000053 0.6667-0.20005 1.3-0.6 1.9l-10.6 15.7-0.9-0.4 3.5-18.6c0.46662-1.8666 1.6666-2.8 3.6-2.8m12.8 12c1.1333 0.000026 2.0999 0.53336 2.9 1.6 0.8666 1 1.2999 2.1334 1.3 3.4-0.000065 1.9334-0.9334 3.1334-2.8 3.6l-18.6 3.5-0.4-0.9 15.7-10.6c0.59994-0.39997 1.2333-0.59997 1.9-0.6m-16.6-10.1c-0.000044 0.2667-0.03338 0.53337-0.1 0.8l-3.8 18.6h-0.9l-3.9-18.6v-0.8c-0.000036-2.3333 1.4333-3.5 4.3-3.5 2.9333 0.00004 4.4 1.1667 4.4 3.5m22.4 23.3c-0.000067 2.8667-1.1667 4.3-3.5 4.3h-0.8l-18.6-3.9v-0.9l18.6-3.8c0.2666-0.06665 0.53327-0.09998 0.8-0.1 2.3333 0.000017 3.4999 1.4667 3.5 4.4m-39.9-21c-0.000027-1.1333 0.49997-2.1 1.5-2.9 1.0666-0.86663 2.2333-1.3 3.5-1.3 2 0.000038 3.2 0.93337 3.6 2.8l3.5 18.6-0.9 0.4-10.6-15.7c-0.40003-0.59997-0.60003-1.2333-0.6-1.9m38.3 29.1c-0.000065 1.2667-0.4334 2.4333-1.3 3.5-0.80006 1-1.7667 1.5-2.9 1.5-0.66673 0-1.3001-0.2-1.9-0.6l-15.7-10.6 0.4-0.9 18.6 3.5c1.8666 0.40001 2.7999 1.6 2.8 3.6m-21.9-8.1c-0.000043 2.1333-1.1 3.2-3.3 3.2-2.1334 0.00001-3.2-1.0667-3.2-3.2-0.000037-2.2 1.0666-3.3 3.2-3.3 2.2 0.000016 3.3 1.1 3.3 3.3m-23.7-15.6c-0.00002-1.2 0.49998-2.3 1.5-3.3 0.99998-1.0666 2.1333-1.6 3.4-1.6 1.1333 0.000034 2.0666 0.53337 2.8 1.6l10.4 15.8-0.7 0.7-15.9-10.4c-1-0.73331-1.5-1.6666-1.5-2.8m40.9 31.1c-0.000061 1.2-0.50006 2.3-1.5 3.3-1.0001 1.0667-2.1334 1.6-3.4 1.6-1.1334-0.000007-2.0667-0.53334-2.8-1.6l-10.4-15.8 0.7-0.7 15.8 10.4c1.0666 0.73333 1.5999 1.6667 1.6 2.8m-7.3 5.4c-0.000053 1.1333-0.53339 2.1-1.6 2.9-1.0001 0.86666-2.1334 1.3-3.4 1.3-2-0.000012-3.2-0.93334-3.6-2.8l-3.5-18.6 0.9-0.4 10.6 15.7c0.39995 0.59999 0.59995 1.2333 0.6 1.9m-38.3-29.1c-0.000015-1.2666 0.39998-2.4 1.2-3.4 0.86665-1.0666 1.8666-1.6 3-1.6 0.66665 0.000026 1.3 0.20003 1.9 0.6l15.7 10.6-0.4 0.9-18.6-3.5c-1.8667-0.39998-2.8-1.6-2.8-3.6m21.3 8.6-18.6 3.9h-0.8c-2.3333 0.000009-3.5-1.4333-3.5-4.3-0.000013-2.9333 1.1667-4.4 3.5-4.4 0.19998 0.000017 0.46665 0.03335 0.8 0.1l18.6 3.8v0.9m8.2 22.8c-0.000044 2.3333-1.4667 3.5-4.4 3.5-2.8667-0.000014-4.3-1.1667-4.3-3.5v-0.8l3.9-18.6h0.9l3.8 18.6c0.06662 0.33332 0.09996 0.59999 0.1 0.8m-12.5 1.9c-1.2667-0.000012-2.4334-0.43334-3.5-1.3-1-0.80001-1.5-1.7667-1.5-2.9-0.000027-0.66667 0.19997-1.3 0.6-1.9l10.6-15.7 0.9 0.4-3.5 18.6c-0.40004 1.8667-1.6 2.8-3.6 2.8m-12.8-12c-1.1334 0-2.1334-0.5-3-1.5-0.80002-1.0667-1.2-2.2333-1.2-3.5-0.000015-2 0.93332-3.2 2.8-3.6l18.6-3.5 0.4 0.9-15.7 10.6c-0.60002 0.4-1.2334 0.6-1.9 0.6m5.4 7.3c-1.2-0.000007-2.3334-0.50001-3.4-1.5-1-1-1.5-2.1333-1.5-3.4-0.00002-1.1333 0.49998-2.0667 1.5-2.8l15.9-10.4 0.7 0.7-10.4 15.8c-0.73336 1.0667-1.6667 1.6-2.8 1.6m35.5-36c-0.00006-1.0666-0.46673-2.0666-1.4-3-0.93339-0.9333-1.9334-1.4-3-1.4-0.93339 0.000033-1.7001 0.4667-2.3 1.4l-10.5 15.8 15.8-10.5c0.93327-0.59997 1.3999-1.3666 1.4-2.3m4.7 7.4c-0.000065-1.1333-0.36673-2.1666-1.1-3.1-0.7334-0.93331-1.6001-1.4-2.6-1.4-0.46673 0.000026-1.0001 0.16669-1.6 0.5l-15.7 10.6 18.6-3.5c1.5999-0.33332 2.3999-1.3666 2.4-3.1m-12-12.8c-0.000053-1.0666-0.46672-1.9333-1.4-2.6-0.93338-0.7333-1.9667-1.1-3.1-1.1-1.7334 0.000038-2.7667 0.80004-3.1 2.4l-3.5 18.6 10.6-15.7c0.33328-0.59997 0.49995-1.1333 0.5-1.6m-8.7-2.3c-0.000044-2-1.3334-3-4-3-2.6 0.000039-3.9 1-3.9 3-0.000036 0.20004 0.0333 0.43337 0.1 0.7l3.8 18.6 3.9-18.6c0.06662-0.26663 0.09996-0.49996 0.1-0.7m22.3 23.3c-0.000066-2.6667-1.0001-4-3-4-0.20006 0.000017-0.4334 0.03335-0.7 0.1l-18.6 3.9 18.6 3.8c0.2666 0.06668 0.49994 0.10001 0.7 0.1 1.9999 0.000009 2.9999-1.3 3-3.9m-34.4-24.7c-1.1334 0.000038-2.1667 0.3667-3.1 1.1-0.93336 0.73337-1.4 1.6-1.4 2.6-0.000027 0.4667 0.16664 1 0.5 1.6l10.6 15.7-3.5-18.6c-0.33337-1.6-1.3667-2.4-3.1-2.4m29.1 37.3c1.0666 0 1.9333-0.46667 2.6-1.4 0.73327-0.93333 1.0999-1.9667 1.1-3.1-0.000065-1.7333-0.80006-2.7667-2.4-3.1l-18.6-3.5 15.7 10.6c0.59994 0.33333 1.1333 0.5 1.6 0.5m-36.5-32.6c-1.0667 0.000033-2.0667 0.4667-3 1.4-0.93335 0.93336-1.4 1.9334-1.4 3-0.00002 0.93336 0.43331 1.7 1.3 2.3l15.9 10.5-10.5-15.8c-0.60003-0.9333-1.3667-1.4-2.3-1.4m18.3 20c-0.000043-1.8667-0.93338-2.8-2.8-2.8-1.8 0.000016-2.7 0.93335-2.7 2.8-0.000037 1.8 0.89996 2.7 2.7 2.7 1.8666 0.00001 2.8-0.89999 2.8-2.7m12.8 19.9c1.0666-0.000007 2.0666-0.46667 3-1.4 0.93327-0.93334 1.3999-1.9333 1.4-3-0.00006-0.93334-0.46673-1.7-1.4-2.3l-15.8-10.5 10.5 15.9c0.59995 0.86666 1.3666 1.3 2.3 1.3m-7.4 4.7c1.1333-0.000012 2.1666-0.36668 3.1-1.1 0.93328-0.73334 1.3999-1.6 1.4-2.6-0.000053-0.46667-0.16672-1-0.5-1.6l-10.6-15.7 3.5 18.6c0.33329 1.6 1.3666 2.4 3.1 2.4m-29.1-37.3c-1.0667 0.000026-1.9667 0.46669-2.7 1.4-0.66668 0.93336-1 1.9667-1 3.1-0.000015 1.7334 0.79998 2.7667 2.4 3.1l18.6 3.5-15.7-10.6c-0.60002-0.33331-1.1334-0.49997-1.6-0.5m17 12.7-18.6-3.9c-0.33335-0.06665-0.56668-0.09998-0.7-0.1-2 0.000017-3 1.3333-3 4-0.000014 2.6 0.99998 3.9 3 3.9 0.13332 0.000009 0.36665-0.03332 0.7-0.1l18.6-3.8m7.9 23.2c-0.000044-0.13334-0.03338-0.36668-0.1-0.7l-3.9-18.6-3.8 18.6c-0.0667 0.33332-0.10004 0.56666-0.1 0.7-0.000036 2 1.3 3 3.9 3 2.6666-0.000013 4-1 4-3m-16.6-2.3c-0.000027 1.0667 0.46664 1.9333 1.4 2.6 0.9333 0.73332 1.9666 1.1 3.1 1.1 1.7333-0.000012 2.7666-0.80001 3.1-2.4l3.5-18.6-10.6 15.7c-0.33336 0.59999-0.50003 1.1333-0.5 1.6m-12-12.8c-0.000015 1.1333 0.36665 2.1667 1.1 3.1 0.73332 0.93333 1.6 1.4 2.6 1.4 0.46665 0 0.99998-0.16667 1.6-0.5l15.7-10.6-18.6 3.5c-1.6 0.33334-2.4 1.3667-2.4 3.1m4.7 7.4c-0.00002 1.0667 0.46665 2.0667 1.4 3 0.93331 0.93333 1.9333 1.4 3 1.4 0.93331-0.000007 1.7-0.43334 2.3-1.3l10.5-15.9-15.9 10.5c-0.86669 0.6-1.3 1.3667-1.3 2.3" fill="#9c0000"/>
		</g>
	</g>
</svg>
