<?xml version="1.0" encoding="UTF-8" standalone="no"?>
<svg xmlns="http://www.w3.org/2000/svg" shape-rendering="geometricPrecision" height="95" width="75" version="1.1"><rect width="100%" fill="#fff" height="100%"/><g fill="#10106c" transform="translate(-21.845 -83.75)"><path d="m46.498 95.85c0.19997 0.000064 1.5666-0.3666 4.1-1.1 2.5333-0.73327 3.9-1.0999 4.1-1.1 0.26663 0.000066 0.79996 0.1334 1.6 0.4v0.8l-9.3 1.9c-0.13336 0.000063-0.33336-0.03327-0.6-0.1-0.26669-0.0666-0.50003-0.09994-0.7-0.1-0.46669 0.000063-1 0.30006-1.6 0.9l-2.3 2.2 2.7-5c1.0666-1.9999 1.6-3.5999 1.6-4.8-0.000026-0.39993-0.03336-0.73326-0.1-1h1.1c0.53331 0.000071 1.1333 0.56674 1.8 1.7l-3.1 5.2c0.06664 0.06673 0.29997 0.10006 0.7 0.1m9 7.6c0.19996 0.00006 0.6333-0.0999 1.3-0.3 0.66663-0.26661 1.1-0.39994 1.3-0.4 0.7333 0.00006 1.6 0.56672 2.6 1.7h-6.1c-0.60003 2.8-0.90003 4.4-0.9 4.8v0.6c0.3333 0.13338 0.76663 0.30005 1.3 0.5 0.59996 0.13338 1.0333 0.26672 1.3 0.4 0.3333 0.0667 0.66663 0.20005 1 0.4 0.3333 0.13338 0.56663 0.30005 0.7 0.5 0.19996 0.20005 0.3333 0.43338 0.4 0.7-0.13337 0.20005-0.40004 0.30005-0.8 0.3-0.0667 0.00005-0.23337-0.0333-0.5-0.1-0.20004-0.0666-0.63337-0.19995-1.3-0.4-0.60004-0.19995-1.3-0.39995-2.1-0.6l-1.2 3.5c-0.53336 1.4667-1.4334 2.5-2.7 3.1l-1.7-3.4c0.5333 0.20004 1.1 0.30004 1.7 0.3 0.46664 0.00004 0.89997-0.39995 1.3-1.2 0.39997-0.79995 0.59997-1.4333 0.6-1.9v-1.1h-7.7l-3.2 1.1c-0.13335-0.13329-0.20002-0.39995-0.2-0.8-0.000021-0.13328 0.56665-0.96662 1.7-2.5l1.3-2v-0.6l-1.9 0.4c-0.40002 0.00005-0.86669-0.29995-1.4-0.9 1.6666-0.19995 2.9-0.43328 3.7-0.7 0.39998-1.3999 0.59998-2.5999 0.6-3.6-0.000025-0.66661-0.10002-1.2333-0.3-1.7 1.4666 0.00006 3.1-0.26661 4.9-0.8 1.8-0.53327 2.7666-0.79994 2.9-0.8 0.9333 0.000061 1.9333 0.60006 3 1.8-0.4667 1.0001-0.70003 2.0334-0.7 3.1 0.46663 0.40006 0.8333 0.60006 1.1 0.6m-17.4-1.1c0.19998 0.00006 0.49998-0.0333 0.9-0.1 0.46665-0.13328 0.73331-0.19994 0.8-0.2 0.46665 0.00006 0.83331 0.33339 1.1 1v0.9h-1.6c-0.06669 0.00006-0.46668-0.53328-1.2-1.6m-1.9-2.6c-0.73335 0.00006-1.7 0.13339-2.9 0.4-1.2 0.26673-1.8333 0.40006-1.9 0.4-0.33334 0.00006-0.93334-0.23327-1.8-0.7 1.6667-0.39994 4-1.2666 7-2.6v-5.6c-0.20002-0.59993-0.56668-1.5333-1.1-2.8h1.2c0.19998 0.000071 0.86665 0.40007 2 1.2-0.20002 1.5334-0.53335 3.8001-1 6.8 0.26665 0.20006 0.73332 0.3334 1.4 0.4h1.8c-0.000021 0.20006-0.10002 0.40006-0.3 0.6-0.13335 0.1334-0.30002 0.26673-0.5 0.4-0.20002 0.06673-0.53335 0.23339-1 0.5-0.46668 0.20006-0.86668 0.40006-1.2 0.6-0.13335 0.66673-0.20002 1.1001-0.2 1.3v14.2c-0.000018 0.13338-0.33335 0.83338-1 2.1-0.86668-0.66662-1.3-1.5-1.3-2.5-0.000015-0.93329 0.19998-2.4 0.6-4.4 0.39998-2 0.59998-3.4666 0.6-4.4-0.000017-0.73328-0.06668-1.8666-0.2-3.4-2.4667 4.6-5.1 7.5334-7.9 8.8 4.1333-5 6.7-8.7666 7.7-11.3m16.3 4v-3.7c-0.53336-0.46661-1.0334-0.69994-1.5-0.7-0.40003 0.00006-1.2667 0.16673-2.6 0.5-1.3334 0.26673-2.1334 0.40006-2.4 0.4-0.20003 1.9334-0.43336 3.4001-0.7 4.4l7.2-0.9m-0.2 6.1v-5.1c-1.6667 0.20005-4.0667 0.53339-7.2 1-0.40002 1-0.90002 2.3667-1.5 4.1h8.7m-3.3-8.9c0.19997 0.00006 0.46664 0.16672 0.8 0.5 0.3333 0.26672 0.49997 0.50006 0.5 0.7-0.00003 0.60006-0.13336 1.0334-0.4 1.3-1-0.26661-1.5-0.76661-1.5-1.5v-1h0.6m0.2 6.9c-0.000029 0.33338-0.10003 0.76672-0.3 1.3-0.40003 0.00005-0.7667-0.13328-1.1-0.4-0.26669-0.33328-0.40003-0.63328-0.4-0.9v-1.6c1.2 0.20005 1.8 0.73339 1.8 1.6" fill="#10106c"/></g><g fill="#9c0000" transform="translate(-94.324 8.6792)"><path d="m147.92 44.321c2.9999 0.000023 5.5333 1.0667 7.6 3.2 2.1333 2.0667 3.1999 4.6 3.2 7.6-0.00006 3.0667-1.0667 5.6667-3.2 7.8-2.1334 2.0667-4.6667 3.1-7.6 3.1-1.2 0.000002-2.3334-0.16666-3.4-0.5 1.4 1.9333 2.1 4.0667 2.1 6.4-0.00005 3.0667-1.0667 5.6333-3.2 7.7-2.1334 2.1333-4.7 3.2-7.7 3.2-3.0667-0.000015-5.6667-1.0667-7.8-3.2-2.0667-2.1333-3.1-4.7-3.1-7.7-2.2 3-5.1334 4.5-8.8 4.5-3.0667-0.000009-5.6667-1.0667-7.8-3.2-2.0667-2.1333-3.1-4.7-3.1-7.7-0.00001-2.4667 0.69999-4.6333 2.1-6.5s3.2-3.1667 5.4-3.9c-2.2-0.66665-4-1.9333-5.4-3.8-1.4-1.8666-2.1-4.0333-2.1-6.5-0.00001-3.0666 1.0666-5.6333 3.2-7.7 2.1333-2.1333 4.7-3.2 7.7-3.2 3.6666 0.000034 6.6 1.5 8.8 4.5-0.00003-3.0666 1.0666-5.6333 3.2-7.7 2.1333-2.1333 4.7-3.2 7.7-3.2 3.0666 0.00004 5.6333 1.0667 7.7 3.2 2.1333 2.1334 3.2 4.7 3.2 7.7-0.00005 2.3334-0.70005 4.4667-2.1 6.4 1.0666-0.33331 2.2-0.49998 3.4-0.5m0 20.3c2.5999 0.000003 4.7999-0.9 6.6-2.7 1.8666-1.8667 2.7999-4.1333 2.8-6.8-0.00006-2.6667-0.9334-4.9-2.8-6.7-1.8001-1.8-4.0001-2.7-6.6-2.7-2.0667 0.000022-3.9334 0.60002-5.6 1.8-0.26671-0.46665-0.63338-0.96664-1.1-1.5 2.6-1.8666 3.9-4.4 3.9-7.6-0.00005-2.6666-0.93338-4.9-2.8-6.7-1.8-1.8-4-2.7-6.6-2.7-2.6667 0.000039-4.9 0.93337-6.7 2.8-1.8 1.8-2.7 4-2.7 6.6-0.00003 1 0.1333 1.9667 0.4 2.9-0.53337 0.13336-1.1 0.33336-1.7 0.6-0.60003-1.8-1.7334-3.3333-3.4-4.6-1.6667-1.2666-3.5334-1.9-5.6-1.9-2.6667 0.000032-4.9334 0.93336-6.8 2.8-1.8 1.8-2.7 4-2.7 6.6-0.00001 2.6 0.89999 4.8334 2.7 6.7 1.8666 1.8 4.1333 2.7 6.8 2.7-0.0667 0.46668-0.10002 0.76668-0.1 0.9-0.00002 0.13335 0.0333 0.46668 0.1 1-2.6667 0.000012-4.9334 0.93334-6.8 2.8-1.8 1.8-2.7 4-2.7 6.6-0.00001 2.6 0.89999 4.8 2.7 6.6 1.8666 1.8667 4.1333 2.8 6.8 2.8 2.0666-0.000007 3.9-0.63334 5.5-1.9 1.6666-1.2 2.8333-2.7333 3.5-4.6 0.59997 0.26667 1.1666 0.46667 1.7 0.6-0.2667 0.93333-0.40003 1.9-0.4 2.9-0.00003 2.6667 0.89997 4.9 2.7 6.7 1.8666 1.8667 4.1 2.8 6.7 2.8 2.6-0.000014 4.8-0.93335 6.6-2.8 1.8666-1.8 2.8-4.0333 2.8-6.7-0.00005-3.1333-1.3-5.6667-3.9-7.6 0.46662-0.53333 0.83329-1.0333 1.1-1.5 1.6666 1.2 3.5333 1.8 5.6 1.8m-17.7-20.3c3.0666 0.000023 5.6333 1.0667 7.7 3.2 2.1333 2.0667 3.2 4.6 3.2 7.6-0.00005 3.0667-1.0667 5.6667-3.2 7.8-2.1334 2.0667-4.7 3.1-7.7 3.1-3.0667 0.000002-5.6667-1.0667-7.8-3.2-2.0667-2.1333-3.1-4.7-3.1-7.7-0.00003-3.0667 1.0666-5.6333 3.2-7.7 2.1333-2.0666 4.7-3.1 7.7-3.1m0 20.3c2.6666 0.000003 4.9-0.93333 6.7-2.8 1.8666-1.8667 2.8-4.1 2.8-6.7-0.00005-2.6-0.93338-4.8-2.8-6.6-1.8-1.8666-4.0334-2.8-6.7-2.8-2.6667 0.000022-4.9 0.93335-6.7 2.8-1.8 1.8-2.7 4-2.7 6.6-0.00003 2.6667 0.89997 4.9333 2.7 6.8 1.8666 1.8 4.1 2.7 6.7 2.7" fill="#9c0000"/></g></svg>
