<?xml version="1.0" encoding="UTF-8" standalone="no"?>
<svg xmlns="http://www.w3.org/2000/svg" shape-rendering="geometricPrecision" height="95" width="75" version="1.1"><rect width="100%" fill="#fff" height="100%"/><g transform="translate(-359.54 -493.51)"><g fill="#10106c" transform="translate(52.735 2.2852)"><path d="m329.34 504.01c0.79998 0.00006 2.1666-0.0999 4.1-0.3 1.9333-0.19994 3.0333-0.29994 3.3-0.3-0.00003 1.2001 0.1 4.2001 0.3 9 0.19997 4.7334 0.29997 7.7 0.3 8.9-0.00003 1.2667-0.5667 2.7-1.7 4.3-0.53336-0.59996-1.7667-1.8666-3.7-3.8 1.2666 0.00004 2.2333-0.0333 2.9-0.1 0.33331-0.99996 0.49997-4.9333 0.5-11.8-2.3334 0.00005-4.0334 0.23339-5.1 0.7-0.60002-1.4-0.90002-3.5999-0.9-6.6m-1.2 0.1c0.33331-1.3999 0.63331-2.3666 0.9-2.9-0.46669 0.00006-1.4334 0.0667-2.9 0.2-1.4 0.0667-2.1667 0.13339-2.3 0.2v2.4c-0.33335-0.0666-0.60002-0.23327-0.8-0.5-0.13335-0.26661-0.30002-0.56661-0.5-0.9-0.13335-0.39994-0.23335-0.66661-0.3-0.8-0.13335 0.00006-1.0334 0.16673-2.7 0.5-1.6667 0.33339-2.6333 0.50006-2.9 0.5-0.66668 0.00006-1.3667-0.39994-2.1-1.2 2.0667-0.26661 3.6-0.43327 4.6-0.5 0.99999-0.13327 1.9666-0.2666 2.9-0.4-0.13335-0.19994-0.80001-1.2999-2-3.3 1.2666 0.00007 2.3333 0.30007 3.2 0.9 0.19998 1.2001 0.33332 1.9667 0.4 2.3 0.86665-0.0666 2.8666-0.33327 6-0.8l0.4-4.1c0.66664 0.00007 1.5333 0.4334 2.6 1.3l-1.4 2.7c0.66664-0.0666 1.6-0.19994 2.8-0.4 1.2-0.19994 1.9-0.29994 2.1-0.3 1.6 0.00006 2.4 0.60006 2.4 1.8l-7.8 0.1c-1.3334 2.1334-2.2 3.2001-2.6 3.2m-1.3 8.3c2.2666-0.53328 3.4666-0.79995 3.6-0.8 0.79998 0.00005 1.4666 0.30005 2 0.9l-2.3 4.9c-0.40002-0.19995-1.5334-0.29995-3.4-0.3-0.00002 4.2-0.20002 6.6334-0.6 7.3-0.66668-0.46663-1-1.1-1-1.9-0.00002-0.19996 0.0666-0.66663 0.2-1.4 0.13332-0.73329 0.19998-1.6 0.2-2.6-1.8 1.8667-3.7667 3.0667-5.9 3.6 0.93332-0.73329 2.5666-2.2666 4.9-4.6-0.26668 0.00005-1.0667 0.16671-2.4 0.5-0.0667-0.19995-0.36668-0.86662-0.9-2-0.46668-1.2-0.70001-2.2-0.7-3l5.1-0.3v-0.8c-0.46668-0.19995-1.1334-0.53328-2-1 0.86665-0.19995 1.5333-0.43328 2-0.7-0.00002-0.93328-0.20002-1.8-0.6-2.6 1.1333 0.33339 1.8666 0.60005 2.2 0.8-0.13335 0.53339-0.23335 1.1334-0.3 1.8h0.6c0.39998 0.0667 0.89998 0.10005 1.5 0.1-0.20002 0.0667-0.90002 0.53339-2.1 1.4-0.00002 0.13338-0.0334 0.36672-0.1 0.7m4.8 8.7c-1.2-0.33329-2.7-1.2333-4.5-2.7 1.0666 0.00004 1.8 0.0667 2.2 0.2 0.39998 0.13338 1.1666 0.56671 2.3 1.3v1.2m-14-15.9c0.26666 0.00006 1.0667-0.0999 2.4-0.3 1.3333-0.26661 2-0.39994 2-0.4 0.19999 0.00006 0.89998 0.30006 2.1 0.9-0.26668 0.53339-0.46668 1.0334-0.6 1.5-0.0667 0.40006-0.16668 1.0667-0.3 2-0.13335 0.93339-0.30002 1.8667-0.5 2.8-2.4667 0.00005-4 0.16672-4.6 0.5-0.00001 4.8667-0.43334 8.9-1.3 12.1-0.86668-0.46663-1.3-1.2666-1.3-2.4l0.1-0.4c0.0667-0.26662 0.16666-0.63329 0.3-1.1 0.13332-0.53329 0.26666-1.1333 0.4-1.8 0.13332-0.73329 0.23332-1.6666 0.3-2.8 0.0667-1.2 0.1-2.4666 0.1-3.8-0.00001-2.9333-0.26668-5.2666-0.8-7 0.46666 0.00006 0.79999 0.0334 1 0.1 0.19999 0.0667 0.43332 0.10006 0.7 0.1m13.3-0.7v2.2l2-0.5c0.39997 0.00006 0.69997 0.30006 0.9 0.9-1.2 0.46672-2.1667 0.70006-2.9 0.7-0.00002 0.40005 0.0333 0.80005 0.1 1.2 0.99998-0.13328 2.4-0.19995 4.2-0.2l-0.2-3.2c-0.00003-0.53328-0.26669-0.83328-0.8-0.9-0.46669-0.13327-1.5667-0.19994-3.3-0.2m-0.8 8.1c-1.2 0.0667-2.2667 0.26672-3.2 0.6-0.00002 1.3334-0.0334 2.2334-0.1 2.7 1.4-0.19995 2.3666-0.29995 2.9-0.3-0.00002-0.73329 0.13331-1.7333 0.4-3m-12-1.6c1.8666-0.26661 2.9666-0.63328 3.3-1.1 0.33332-0.46661 0.49999-1.8666 0.5-4.2-1 0.00006-1.9334 0.0667-2.8 0.2-0.80001 0.13339-1.2667 0.20006-1.4 0.2-0.00001 0.40006 0.0667 1.0667 0.2 2 1.1333-0.19994 1.9-0.29994 2.3-0.3 0.79999 0.00006 1.2333 0.20005 1.3 0.6-1.0667 0.46672-2.2334 0.70005-3.5 0.7 0.0667 0.46672 0.1 1.1 0.1 1.9m7.6 5.1-0.1-2.6c-1.4667 0.13338-2.5667 0.30005-3.3 0.5-0.00001 0.60005 0.0333 1.2 0.1 1.8 0.13332 0.60005 0.19998 0.93338 0.2 1 0.73332-0.0666 1.3666-0.16662 1.9-0.3 0.59998-0.19995 0.99998-0.33329 1.2-0.4m3.3-2.4c-0.33335 0.46672-0.90002 1-1.7 1.6l0.7-2c0.19998 0.00005 0.53331 0.13338 1 0.4m-4.4 2.2c-0.80002 0.00005-1.3334-0.56662-1.6-1.7 0.59998 0.00005 0.99998 0.10005 1.2 0.3 0.26665 0.20005 0.39998 0.66671 0.4 1.4" fill="#10106c"/></g><g fill="#9c0000" transform="translate(-107.43 23.3)"><path d="m93.656-81.188c-3.2 0.00003-5.673 3.3604-7.4062 10.094-2.0667-2.8666-4.5938-4.2812-7.5938-4.2812-4.3334 0.00003-7.9729 1.8334-10.906 5.5-2.9333 3.6-4.4063 7.7938-4.4062 12.594-0.00001 4.0667 1.2521 7.8729 3.7188 11.406 2.5333 3.5333 5.6146 5.2812 9.2812 5.2812 1.7333-0.00001 3.2062-0.72084 4.4062-2.1875 1.2666-1.4 2.1854-2.9542 2.7188-4.6875 0.59997-1.8 1.3208-3.4125 2.1875-4.8125 0.9333-1.4667 1.9333-2.1875 3-2.1875 1.1333 0.00001 1.6875 0.86042 1.6875 2.5938-1.2667-0.8-2.1813-1.3271-2.7812-1.5938 0.19997 0.40001 0.28122 0.64792 0.28125 0.78125-0.00003 0.8-0.33336 1.9396-1 3.4062-0.60003 1.4667-0.87503 2.5208-0.875 3.1875-0.00003 0.13333-0.00003 0.27291 0 0.40625 0.06664 0.06666 0.1208 0.17916 0.1875 0.3125 0.1333 0.06666 0.2458 0.1208 0.3125 0.1875 0.1333 0.06666 0.24164 0.17916 0.375 0.3125 0.19997 0.06666 0.36664 0.1208 0.5 0.1875l0.625 0.3125c0.26663 0.13333 0.46038 0.21455 0.59375 0.28125-0.40003 0.2-0.87295 0.67291-1.4062 1.4062-0.53336 0.79999-0.81253 1.4937-0.8125 2.0938-0.00003 0.46666 0.49997 1.6333 1.5 3.5l1.625 2.7188c-0.00003 0.53332-0.33337 0.78124-1 0.78125-1-0.00001-2-1-3-3-0.93336-2-1.5729-3.8875-1.9062-5.6875-0.1334 0.93333-0.21878 1.6542-0.21875 2.1875-0.00003 2.3333 0.49997 4.4458 1.5 6.3125 1.0666 1.9333 2.4854 2.9062 4.2188 2.9062 0.5333-0.00002 1.4208-0.33335 2.6875-1l1.9062-0.90625c0.06663-0.00001 0.70621 0.30623 1.9062 0.90625 1.2666 0.66665 2.1541 0.99998 2.6875 1 1.7333-0.00002 3.0937-0.97293 4.0938-2.9062 1.0666-1.8667 1.625-3.9792 1.625-6.3125-0.00005-0.80001-0.11255-1.5208-0.3125-2.1875-0.20005 1.7333-0.83963 3.5937-1.9062 5.5938-1 2.0666-1.973 3.0937-2.9062 3.0938-0.66671-0.00001-1-0.24793-1-0.78125l1.625-2.7188c0.99996-1.8667 1.5-3.0333 1.5-3.5-0.00004-0.60001-0.27921-1.2938-0.8125-2.0938-0.53338-0.73334-1.0063-1.2062-1.4062-1.4062 1.7333-0.93334 2.5937-1.6 2.5938-2-0.00004-0.66667-0.33338-1.7208-1-3.1875-0.60004-1.4667-0.87504-2.6062-0.875-3.4062-0.00004-0.13333 0.08121-0.38124 0.28125-0.78125-1.0667 0.40001-1.9813 0.92709-2.7812 1.5938-0.00004-1.7333 0.55413-2.5937 1.6875-2.5938 1.0666 0.00001 2.0395 0.72084 2.9062 2.1875 0.93329 1.4 1.6541 3.0125 2.1875 4.8125 0.59995 1.7333 1.5187 3.2875 2.7188 4.6875 1.2666 1.4667 2.7666 2.1875 4.5 2.1875 3.6666-0.00001 6.7208-1.7479 9.1875-5.2812 2.5333-3.5333 3.8124-7.3396 3.8125-11.406-0.00007-4.8-1.473-8.9937-4.4062-12.594-2.9334-3.6666-6.573-5.5-10.906-5.5-3 0.00003-5.5271 1.4146-7.5938 4.2812-1.7334-6.7333-4.2063-10.094-7.4062-10.094zm0 1.5c1.8 0.00003 3.3 1.1667 4.5 3.5 1.2666 2.3334 1.9062 4.2792 1.9062 5.8125-0.00004 1.0667-1.7792 4.7604-5.3125 11.094-0.00004 0.26668 0.19371 0.40626 0.59375 0.40625 0.99996-0.99999 1.9729-2.4458 2.9062-4.3125 0.99996-1.9333 1.8333-3.6271 2.5-5.0938 0.66662-1.4666 1.6666-2.7729 3-3.9062 1.4-1.1333 3.0395-1.6875 4.9062-1.6875 3.7999 0.00003 7.1062 1.6938 9.9062 5.0938 2.8666 3.3334 4.2812 7.0542 4.2812 11.188-0.00007 3.8-1.1667 7.4125-3.5 10.812-2.2667 3.4-5.0146 5.0937-8.2812 5.0938-1.6-0.00001-2.9605-0.69376-4.0938-2.0938-1.0667-1.4667-1.873-3.0792-2.4062-4.8125-0.46671-1.8-1.2459-3.3812-2.3125-4.7812-1-1.4667-2.1938-2.2187-3.5938-2.2188-0.26671 0-0.48754 0.0583-0.6875 0.125-0.20004 0.00001-0.42504 0.05417-0.625 0.1875-0.20004 0.13334-0.36671 0.27292-0.5 0.40625-0.13337 0.13334-0.24171 0.32709-0.375 0.59375-0.13337 0.26667-0.2459 0.48751-0.3125 0.6875-0.06671 0.20001-0.17921 0.53334-0.3125 1-0.13337 0.4-0.21465 0.73334-0.28125 1-0.06671 0.2-0.20629 0.61875-0.40625 1.2188-0.13337 0.6-0.2459 1.0729-0.3125 1.4062h-2.375c-0.33337-2.4-0.7792-4.125-1.3125-5.125-0.4667-0.99999-1.3-1.5-2.5-1.5-1.4 0.00001-2.6209 0.75209-3.6875 2.2188-1 1.4-1.7792 2.9812-2.3125 4.7812-0.46669 1.7333-1.2729 3.3458-2.4062 4.8125-1.0667 1.4-2.4 2.0937-4 2.0938-3.2-0.00001-6.0063-1.6938-8.4062-5.0938-2.3333-3.4667-3.5-7.0792-3.5-10.812-0.00001-4.1333 1.4187-7.8542 4.2188-11.188 2.8666-3.4 6.2271-5.0937 10.094-5.0938 1.8666 0.00003 3.4791 0.55419 4.8125 1.6875 1.4 1.1334 2.427 2.4396 3.0938 3.9062 0.66664 1.4667 1.4729 3.1604 2.4062 5.0938 0.99997 1.8667 2 3.3125 3 4.3125 0.39996 0.00001 0.59371-0.13957 0.59375-0.40625-3.6-6.2666-5.4063-9.9604-5.4062-11.094-0.00003-1.4666 0.63955-3.3854 1.9062-5.7188 1.3333-2.4 2.8604-3.5937 4.5938-3.5938zm-4.5 27.906c0.26663 0.53334 0.40622 0.97917 0.40625 1.3125-0.00003 0.26667-0.30628 0.84792-0.90625 1.7812-0.53337 0.86667-0.81253 1.7-0.8125 2.5 0.06664-0.06667 0.29163-0.4 0.625-1 0.3333-0.6 0.66663-1.0729 1-1.4062 0.39997-0.4 0.81455-0.675 1.2812-0.875-0.53337 0.93333-0.78128 1.8479-0.78125 2.7812-0.00003 0.2 0.05413 0.47917 0.1875 0.8125 0.1333 0.26666 0.18747 0.46041 0.1875 0.59375l-1.0938 0.5c-0.8667-0.4-1.4209-0.70625-1.6875-0.90625-0.2667-0.26667-0.40628-0.57292-0.40625-0.90625-0.00003-0.2 0.66664-1.9208 2-5.1875zm9 0c1.2666 3.1333 1.9062 4.8542 1.9062 5.1875-0.00004 0.66666-0.66671 1.2792-2 1.8125l-1-0.59375c0.19996-0.33334 0.28121-0.77917 0.28125-1.3125-0.00004-0.93333-0.24796-1.8479-0.78125-2.7812 0.53329 0.2 1.5062 1.2542 2.9062 3.1875-0.00004-0.66667-0.30629-1.4458-0.90625-2.3125-0.60004-0.93333-0.90629-1.5417-0.90625-1.875-0.00004-0.2 0.16663-0.64583 0.5-1.3125zm-6.906 3.594c0.1333 0.33333 0.2458 0.69375 0.3125 1.0938 0.1333 0.4 0.21455 0.73333 0.28125 1 0.1333 0.2 0.2458 0.45208 0.3125 0.71875 0.1333 0.26666 0.27288 0.46041 0.40625 0.59375 0.1333 0.0667 0.29996 0.09375 0.5 0.09375-0.4667-0.86667-0.71879-1.9208-0.71875-3.1875h2.625c-0.00004 1.2667-0.25212 2.3208-0.71875 3.1875 0.1333 0 0.27288-0.02705 0.40625-0.09375 0.13329-0.13334 0.2458-0.32709 0.3125-0.59375 0.13329-0.26667 0.21455-0.51875 0.28125-0.71875 0.13329-0.26667 0.27288-0.6 0.40625-1 0.13329-0.4 0.27288-0.76042 0.40625-1.0938-0.00004 1.2-0.25212 2.3667-0.71875 3.5 0.99996 0.06666 1.9729 0.5125 2.9062 1.3125 0.99996 0.86666 1.5 1.7812 1.5 2.7812-0.00004 0.26666-0.52713 1.3521-1.5938 3.2188-1.0667 1.9333-1.5938 2.9875-1.5938 3.1875-0.00004 0.93332 0.66663 1.4062 2 1.4062 0.86662-0.00001 1.7-0.50001 2.5-1.5-0.13338 1.5333-1.0792 2.3125-2.8125 2.3125-1.2-0.00002-2.7271-0.66668-4.5938-2-1.8667 1.3333-3.3938 2-4.5938 2-1.7334-0.00002-2.6792-0.77918-2.8125-2.3125 0.79997 0.99999 1.6333 1.5 2.5 1.5 1.3333-0.00001 2-0.47293 2-1.4062-0.00003-0.26668-0.52712-1.3479-1.5938-3.2812-1.0667-1.8667-1.5938-2.925-1.5938-3.125-0.00003-1 0.47289-1.9146 1.4062-2.7812 0.99997-0.8 2-1.2458 3-1.3125-0.4667-1.1333-0.71878-2.3-0.71875-3.5z" transform="translate(410.99 589.97)" fill="#9c0000"/></g><g fill="#006c00" transform="translate(-107.41 23.277)"><path fill="#006c00" d="m498.53 536.5c0.19997 0.40001 0.31247 0.64792 0.3125 0.78125-0.00003 0.8-0.33336 1.9396-1 3.4062-0.60003 1.4667-0.90628 2.5521-0.90625 3.2188-0.00003 0.13333-0.00003 0.24166 0 0.375 0.0666 0.0667 0.15205 0.17916 0.21875 0.3125 0.1333 0.0667 0.21455 0.1208 0.28125 0.1875 0.1333 0.0667 0.27289 0.17916 0.40625 0.3125 0.19997 0.0667 0.36664 0.1208 0.5 0.1875l0.59375 0.3125c0.26663 0.13333 0.46038 0.2458 0.59375 0.3125-0.40003 0.2-0.8417 0.64166-1.375 1.375-0.53336 0.79999-0.81253 1.525-0.8125 2.125-0.00003 0.46666 0.49997 1.6333 1.5 3.5l1.5938 2.6875c-0.00003 0.53332-0.33337 0.81249-1 0.8125-1-0.00001-2-1-3-3-0.93336-2-1.5729-3.9188-1.9062-5.7188-0.1334 0.93333-0.18753 1.6854-0.1875 2.2188-0.00003 2.3333 0.49997 4.4146 1.5 6.2812 1.0666 1.9333 2.4541 2.9062 4.1875 2.9062 0.5333-0.00002 1.452-0.33335 2.7188-1l1.9062-0.90625c0.0666-0.00001 0.67496 0.30623 1.875 0.90625 1.2666 0.66665 2.1854 0.99998 2.7188 1 1.7333-0.00002 3.0937-0.97293 4.0938-2.9062 1.0666-1.8667 1.5937-3.9479 1.5938-6.2812-0.00005-0.80001-0.0813-1.5521-0.28125-2.2188-0.20005 1.7333-0.83963 3.5937-1.9062 5.5938-1 2.0666-1.973 3.125-2.9062 3.125-0.66671-0.00001-1-0.27918-1-0.8125l1.5938-2.6875c0.99996-1.8667 1.5-3.0333 1.5-3.5-0.00004-0.60001-0.24796-1.325-0.78125-2.125-0.53338-0.73334-1.0063-1.175-1.4062-1.375 1.7333-0.93334 2.5937-1.6 2.5938-2-0.00004-0.66667-0.33338-1.7521-1-3.2188-0.60004-1.4667-0.90629-2.6062-0.90625-3.4062-0.00004-0.13333 0.11246-0.38124 0.3125-0.78125-1.0667 0.40001-2.0125 0.92709-2.8125 1.5938h-6.5938c-1.2667-0.8-2.2125-1.3271-2.8125-1.5938zm1.625 1.6875c0.26663 0.53334 0.37497 0.97917 0.375 1.3125-0.00003 0.26667-0.27503 0.84792-0.875 1.7812-0.53337 0.86667-0.81253 1.7-0.8125 2.5 0.0666-0.0667 0.26038-0.4 0.59375-1 0.3333-0.6 0.66663-1.0417 1-1.375 0.39997-0.4 0.8458-0.70625 1.3125-0.90625-0.53337 0.93333-0.81253 1.8479-0.8125 2.7812-0.00003 0.2 0.0854 0.47917 0.21875 0.8125 0.1333 0.26666 0.18747 0.46041 0.1875 0.59375l-1.0938 0.5c-0.8667-0.4-1.4521-0.70625-1.7188-0.90625-0.2667-0.26667-0.37503-0.54167-0.375-0.875-0.00003-0.2 0.66664-1.9521 2-5.2188zm9 0c1.2666 3.1333 1.875 4.8854 1.875 5.2188-0.00004 0.66666-0.66671 1.2479-2 1.7812l-1-0.59375c0.19996-0.33334 0.31246-0.77917 0.3125-1.3125-0.00004-0.93333-0.27921-1.8479-0.8125-2.7812 0.53329 0.2 1.5062 1.2542 2.9062 3.1875-0.00004-0.66667-0.30629-1.4146-0.90625-2.2812-0.60004-0.93333-0.87504-1.5729-0.875-1.9062-0.00004-0.2 0.16663-0.64583 0.5-1.3125zm-6.9062 3.5938c0.1333 0.33333 0.21455 0.725 0.28125 1.125 0.1333 0.4 0.2458 0.73333 0.3125 1 0.1333 0.2 0.2458 0.42083 0.3125 0.6875 0.1333 0.26666 0.24163 0.46041 0.375 0.59375 0.1333 0.0667 0.29996 0.0937 0.5 0.0937-0.4667-0.86667-0.68754-1.9208-0.6875-3.1875h2.5938c-0.00004 1.2667-0.22087 2.3208-0.6875 3.1875 0.1333 0 0.27288-0.0271 0.40625-0.0937 0.13329-0.13334 0.21455-0.32709 0.28125-0.59375 0.13329-0.26667 0.2458-0.4875 0.3125-0.6875 0.13329-0.26667 0.27288-0.6 0.40625-1 0.13329-0.4 0.24163-0.79167 0.375-1.125-0.00004 1.2-0.22087 2.3667-0.6875 3.5 0.99996 0.0667 1.9729 0.5125 2.9062 1.3125 0.99996 0.86666 1.5 1.8125 1.5 2.8125-0.00004 0.26666-0.52713 1.3208-1.5938 3.1875-1.0667 1.9333-1.625 2.9875-1.625 3.1875-0.00004 0.93332 0.66663 1.4062 2 1.4062 0.86662-0.00001 1.7-0.50001 2.5-1.5-0.13338 1.5333-1.048 2.3125-2.7812 2.3125-1.2-0.00002-2.7271-0.66668-4.5938-2-1.8667 1.3333-3.425 2-4.625 2-1.7334-0.00002-2.648-0.77918-2.7812-2.3125 0.79997 0.99999 1.6333 1.5 2.5 1.5 1.3333-0.00001 2-0.47293 2-1.4062-0.00003-0.26668-0.52712-1.3479-1.5938-3.2812-1.0667-1.8667-1.625-2.8938-1.625-3.0938-0.00003-1 0.47289-1.9458 1.4062-2.8125 0.99997-0.8 2-1.2458 3-1.3125-0.4667-1.1333-0.68753-2.3-0.6875-3.5z"/></g></g></svg>
