<?xml version="1.0" ?>
<svg xmlns="http://www.w3.org/2000/svg" shape-rendering="geometricPrecision" height="95" width="75" version="1.1">
	<rect width="100%" fill="#fff" height="100%"/>
	<g transform="translate(37.7 47.2) scale(1.055) translate(-429.33 -523.02)">
		<path d="m424.78 489.9c-0.00003 0.40006-0.20003 0.70006-0.6 0.9-0.33336 0.13339-1.2 0.30006-2.6 0.5-1.8667 0.26673-3.5667 0.53339-5.1 0.8 0.46664 0.26672 1.2333 0.73339 2.3 1.4-0.00003 3.2-0.00003 5.8 0 7.8 0.0666 2 0.1 3.3 0.1 3.9-0.00003 0.53338-0.00003 1 0 1.4 0.0666 0.33338 0.1 0.60004 0.1 0.8-0.00003 0.60004-0.10003 1.0334-0.3 1.3-1.8667-0.53329-3.4667-1.9666-4.8-4.3 0.39998 0.13338 0.93331 0.20005 1.6 0.2 1.0666 0.00005 1.6-1.1 1.6-3.3-0.00002-4.8666-0.60002-7.9333-1.8-9.2h-1.7c-0.73335 1.6001-2 3.0001-3.8 4.2 3.7333-6.6666 5.6-11.433 5.6-14.3-0.00002-0.53326-0.0334-0.99993-0.1-1.4h1.1c0.33331 0.00007 1.1 0.60007 2.3 1.8l-4.5 8.6c0.13331 0.20006 0.33331 0.30006 0.6 0.3l7.6-2.3c0.66664 0.13339 1.4666 0.43339 2.4 0.9m-22.9 2.8c0.0667 0.0667 0.19999 0.10006 0.4 0.1 0.19999 0.00006 1.2667-0.26661 3.2-0.8 2-0.59994 3.1-0.89994 3.3-0.9 0.53332 0.00006 1.0666 0.20006 1.6 0.6-0.53335 0.60006-1.6 1.1334-3.2 1.6l-2.3 0.7c0.59999 1.5334 0.89999 2.8334 0.9 3.9-0.00001 1.0667-0.16668 2.7-0.5 4.9-0.33335 2.2-0.66668 3.4334-1 3.7-0.66668-0.33329-1.0333-1.1666-1.1-2.5l1-7.5c-0.00001-0.86661-0.16668-1.4999-0.5-1.9-0.33334-0.46661-0.66668-0.73328-1-0.8-0.26668-0.0666-0.63334-0.0999-1.1-0.1-1.8667 2.6-3.6333 4.1334-5.3 4.6 5.0667-6.9999 7.7-12.333 7.9-16h1.1c0.46665 0.00007 1.0666 0.70007 1.8 2.1l-5.2 8.3" fill="#10106c"/>
		<path d="m38.301 1.6992c1.266 1.7334 2.999 5.1346 5.199 10.201 0.53329-0.0666 0.86662-0.09954 1-0.09961-0.0667-0.2666-0.09966-0.5011-0.09961-0.70117-0.00005-0.39993 0.03291-0.73326 0.09961-1 0.133-0.3327 0.333-0.633 0.6-0.8998 0.333-0.3332 0.6-0.5658 0.8-0.6992 0.2-0.1999 0.567-0.4325 1.1-0.6992 0.59995-0.26659 1.0341-0.4333 1.3008-0.5 0.333-0.1333 0.899-0.3348 1.699-0.6016 0.8-0.3332 1.366-0.5658 1.699-0.6992l-3.5996-4.3008h-1.5c0.19995 0.00008 1.3666 1.2675 3.5 3.8008-0.26672 0.06674-0.66594 0.20046-1.1992 0.40039-0.53339 0.20007-0.93455 0.33379-1.2012 0.40039-0.26672 0.06674-0.63299 0.19851-1.0996 0.39844-0.40005 0.13341-0.73338 0.30007-1 0.5-0.26672 0.13341-0.5671 0.30007-0.90039 0.5-0.266 0.2001-0.499 0.4017-0.699 0.6016-0.133 0.2001-0.267 0.4326-0.4 0.6992l-3.5-7.3008zm16.299 0c0.0666 1.2001 0.09955 2.5334 0.09961 4-0.0001 1.6001-0.03301 3.0342-0.09961 4.3008-0.20006-0.19993-0.43261-0.50032-0.69922-0.90039-0.26672-0.39993-0.46633-0.66542-0.59961-0.79883-0.06672-0.13326-0.23339-0.29993-0.5-0.5-0.20006-0.19993-0.40162-0.33369-0.60156-0.40039-0.13339-0.06659-0.333-0.13447-0.59961-0.20117-0.20005-0.0666-0.46555-0.099539-0.79883-0.099609-2.4667 0.00007-4.5346 1.8334-6.2012 5.5l11.1 14.6c-0.33339 0.53339-0.63183 0.93456-0.89844 1.2012-0.00006 1.8667 0.03291 5.5004 0.09961 10.9 0.1333 5.3334 0.19916 9.1318 0.19922 11.398 0.19994-0.26664 0.50033-0.39841 0.90039-0.39844-0.80006 0.80003-1.1993 1.8-1.1992 3 0.99994-0.99997 1.6317-1.6337 1.8984-1.9004 0.33327-0.33331 0.86817-0.66665 1.6016-1 0.73327-0.39998 1.4988-0.59958 2.2988-0.59961l1.201 0.2c0.73327 0.13339 1.3321 0.19925 1.7988 0.19922-1.0001-0.86664-1.8993-1.2988-2.6992-1.2988l-4.5996 1c1.5999-1.2 3.065-1.8008 4.3984-1.8008 0.13327 0.00003 0.43366 0.06787 0.90039 0.20117 0.4666 0.06671 0.76699 0.09963 0.90039 0.09961 0.53327 0.00002 0.80071-0.33331 0.80078-1-0.00007-0.39998-0.13379-1.367-0.40039-2.9004-0.2001-1.5333-0.30085-2.5004-0.30078-2.9004v-3.1992c4.7999 8.0667 7.5344 13.466 8.2012 16.199 0.8-0.266 1.532-0.499 2.199-0.699v-3.2012c-0.133-0.266-1.6-2.499-4.4-6.699-2.7334-4.2666-5.9989-9.2007-9.7988-14.801-3.7334-5.5999-6.4001-9.4992-8-11.699-0.53339-0.73327-1.1012-1.3999-1.7012-2-0.53339-0.6666-0.96555-1.1995-1.2988-1.5996-0.267-0.4-0.534-0.932-0.801-1.599 0.333-0.8 0.967-1.568 1.9-2.301 0.934-0.7333 1.8-1.0995 2.6-1.0996 0.06661 0.06674 1.2003 1.7005 3.4004 4.9004 2.2666 3.2001 3.9003 5.5663 4.9004 7.0996 1.0666 1.5334 2.5317 3.8667 4.3984 7 1.9333 3.0667 3.5999 5.933 5 8.5996 0.13326 0.13338 0.50149 0.46671 1.1016 1 0.66659 0.46671 1.2984 0.90082 1.8984 1.3008l0.801 0.699v-2.199c-1.333-2.067-3.467-5.168-6.4-9.301-2.8667-4.1333-4.7659-6.8658-5.6992-8.1992-0.0001-0.26661-0.03301-0.93327-0.09961-2-0.00006-1.0666-0.00006-2.9348 0-5.6016-0.00006-2.7333-0.00006-6.2333 0-10.5h-0.70117l0.099 15.801c-0.40006-0.59994-1.0997-1.5999-2.0996-3-0.93339-1.4666-1.6001-2.5674-2-3.3008-0.399-0.733-0.599-1.266-0.599-1.5994l0.5-7.9004zm-18.1 7 5.6 4.3008c-0.267-1.467-0.866-2.5-1.799-3.0996 0.466 0.8666 0.699 1.3666 0.699 1.4996-1.867-1.4662-3.367-2.3674-4.5-2.7008zm19.4 20c0.33327 0.00005 0.56583 0.13377 0.69922 0.40039 2.7999 4.2 4.6662 7.1342 5.5996 8.8008v0.09961c-0.00007 0.06671-0.00007 0.16749 0 0.30078-0.0001 0.13338-0.03301 0.26515-0.09961 0.39844-0.00006 0.13337-0.00006 0.33494 0 0.60156-0.00006 0.20004-0.00006 0.43259 0 0.69922-0.00006 1.6667 0.06777 3.1996 0.20117 4.5996 0.1333 1.4 0.19915 2.2334 0.19922 2.5-2.9334 0.40003-5.2667 1.0996-7 2.0996zm-24.5 14.301c-1 0.00003-3.0679 0.63375-6.2012 1.9004-3.1334 1.2-4.7322 1.7989-4.7988 1.7988-0.13336 0.00003-0.49963-0.06586-1.0996-0.19922-0.53336-0.13331-0.93453-0.19919-1.2012-0.19922-1.5334 0.00003-4.0004 0.96514-7.4004 2.8984-3.3331 1.934-6.3331 4.034-8.9998 6.301v2.5996l11.602-6.1 5.5-4.8008h1l-7.5 8.3008 3.7988-2.5c7.2-3.8666 11.2-5.8008 12-5.8008 0.5333 0.00003 1.4674 0.50003 2.8008 1.5-11.067 4.6667-17.6 9.1338-19.6 13.4 1.133-0.733 2.366-1.432 3.699-2.099 1.3333-0.73331 2.467-1.2663 3.4004-1.5996 0.93331-0.39999 2.1988-0.89999 3.7988-1.5 1.6-0.59999 2.7666-1.0341 3.5-1.3008l11.5-3.7988c0.06663 0.00003 0.36702-0.16664 0.90039-0.5 0.53329-0.39997 0.93446-0.60153 1.2012-0.60156 0.06662 0.00003 0.23329 0.06786 0.5 0.20117 0.33329 0.13339 0.56584 0.19925 0.69922 0.19922 0.13329 0.00003 0.36584-0.13369 0.69922-0.40039 1.9333 0.80003 3.5341 2.8349 4.8008 6.1016-1.9334-0.26664-3.9993-0.40038-6.1992-0.40039-2.4667 0.00001-5.7342 0.46708-9.8008 1.4004-4 0.93335-7.2326 1.9663-9.6992 3.0996l-3.3008 2c-6 3.3333-10.2 5.8004-12.6 7.4004-0.00001 0.20001 0.098818 0.39961 0.29883 0.59961l8.401-5.301c-5.4671 5.6-8.4341 10.233-8.9008 13.9l12.901-13.1c0.19998 0 0.30076 0.13374 0.30078 0.40039-1.8667 1.8667-2.8008 3.7659-2.8008 5.6992 1.2 8.2 1.8996 12.301 2.0996 12.301 0.86665 0 1.3666-0.36823 1.5-1.1016 0.86664-3.9333 1.3666-6.7318 1.5-8.3984 0.199-1.667 0.3-5.068 0.3-10.201-0.133-0.067-0.5-0.1-1.1-0.1-0.73335 0.00002-1.1675 0.39923-1.3008 1.1992v-3.3984c6.8-3.4 11.534-5.1015 14.201-5.1016h1.5996c0.46663 1.4 0.76702 2.4679 0.90039 3.2012 0.79996 0.53334 2.3 1.3667 4.5 2.5s4.1651 2.3329 5.8984 3.5996c1.7333 1.2 3.2003 2.6671 4.4004 4.4004 0.0666-0.06667 0.09956-0.36706 0.09961-0.90039-0.00005-0.73333-1.0989-2.5008-3.2988-5.3008-2.2-2.8666-3.6012-4.5333-4.2012-5-0.40004-0.26665-0.83221-0.46626-1.2988-0.59961-0.46671-0.19998-1.2342-0.46548-2.3008-0.79883-1-0.33331-2.0659-0.73448-3.1992-1.2012 1.5333-0.13329 3.0333-0.19921 4.5-0.19922 5 0.00001 10.5 1.1338 16.5 3.4004 1.6666 10.133 2.4999 21.033 2.5 32.699h1.1c-0.00006-7.0667-0.26751-13.534-0.80078-19.4-0.53339-5.8666-1.0663-10.334-1.5996-13.4-0.53339-3.0666-0.79889-4.6984-0.79883-4.8984-0.00006-2.1333 1.1666-3.2011 3.5-3.2012 1.7999 0.00003 2.765 0.46707 2.8984 1.4004 1.2666 8.8667 2.2337 21.367 2.9004 37.5-0.00007 0.66664 0.26738 1.3333 0.80078 2h1.1055c0.12484 0 0.24643-0.0095 0.36914-0.01758-0.716-0.462-1.11-0.957-1.176-1.483-1.467-25.2-2.399-38.5-2.799-39.9-0.26673-0.9333-1.3675-1.4004-3.3008-1.4004-1.5334 0.00003-2.8338 0.46709-3.9004 1.4004-1.0001 0.93336-1.5001 2.2008-1.5 3.8008-0.00006 0.33335 0.03486 0.76552 0.10156 1.2988 0.1333 0.46669 0.19916 1.0016 0.19922 1.6016-2.667-1.067-5.566-1.668-8.699-1.801-0.267-2-1.868-4.399-4.801-7.199s-5.367-4.535-7.301-5.201l6.4004 5.0996h-1.6992c-1.9334-1.0666-3.3345-1.5996-4.2012-1.5996-0.20004 0.00003-0.66514 0.06787-1.3984 0.20117-0.73337 0.06671-1.2004 0.09963-1.4004 0.09961-0.4667 0.00002-1.3679-0.43408-2.7012-1.3008 1.0666-0.3333 2.2004-0.86625 3.4004-1.5996v-1.8008c-0.266-0.067-0.832-0.3-1.699-0.7zm-16.201 2.8008c-3.4667 0.00004-7.9667 1.3334-13.5 4v0.69922c1.0667-0.26665 2.4-0.56703 4-0.90039 1.6002-0.4 2.701-0.666 3.301-0.799 0.66665-0.1333 1.4341-0.33486 2.3008-0.60156 0.93332-0.3333 1.6988-0.66663 2.2988-1 0.66665-0.3333 1.3663-0.76547 2.0996-1.2988-0.06669-0.06661-0.23335-0.09957-0.5-0.09961zm14.4 13c-1.466 0.266-2.666 0.898-3.599 1.898-0.93336 1-1.633 2.3682-2.0996 4.1016-0.40003 1.7334-0.66747 3.433-0.80078 5.0996-0.13336 1.6667-0.30003 3.7326-0.5 6.1992-0.13336 2.4667-0.30003 4.4667-0.5 6l8.9-19.099v-2c-1.0667 0.00002-1.7663-0.30037-2.0996-0.90039 0.39997-0.53331 0.63252-0.96548 0.69922-1.2988zm-24.599 4.299c-0.20001 0.00002-1.3008 0.33335-3.3008 1v3.7012c0.2-0.067 0.4675-0.135 0.8008-0.201 5.9333-1.0666 8.9004-2.1325 8.9004-3.1992v-0.70117c-1.733-0.401-3.8667-0.6-6.4-0.6zm-3.3008 9.5v2.4004c0.79999-0.46666 1.2012-0.90077 1.2012-1.3008-0.00001-0.66666-0.40118-1.0329-1.2012-1.0996z" transform="translate(391.83 475.82)" fill="#006c00"/>
	</g>
</svg>
