<?xml version="1.0" ?>
<svg xmlns="http://www.w3.org/2000/svg" shape-rendering="geometricPrecision" height="95" width="75" version="1.1">
	<rect width="100%" fill="#fff" height="100%"/>
	<g transform="translate(-466.81 -466.36)">
		<path d="m517.63 488.77c0.79995 0.00005 1.9333 0.36672 3.4 1.1 1.5333 0.66672 2.2999 1.3667 2.3 2.1-0.00006 0.73338-0.90006 1.1-2.7 1.1-0.33339 0.00005-1.2334-0.1-2.7-0.3-1.4-0.26662-2.2667-0.39995-2.6-0.4-5.3334 0.00005-14.467 1.1667-27.4 3.5-0.60002 0.00004-1.5-0.29996-2.7-0.9-1.2-0.59995-1.8-1.2333-1.8-1.9-0.00002-0.53329 0.59998-0.79995 1.8-0.8l2.2 0.1h2.2c3.0666 0.00005 5.8666-0.16662 8.4-0.5 2.5333-0.33329 9.0666-1.3666 19.6-3.1" fill="#20208c"/>
		<path d="m517.15 516.39c0.46662 0.00002 1.1 0.26669 1.9 0.8 0.86661 0.46669 1.3666 0.80002 1.5 1v0.8c-0.33339 0.33335-0.80005 0.50002-1.4 0.5-0.33338 0.00002-1.1667-0.0333-2.5-0.1-1.3334-0.13331-2.1667-0.19998-2.5-0.2-2.3334 0.00002-3.9 0.30002-4.7 0.9l-3.4 3.5c0.13329-0.26665 0.49996-1.3666 1.1-3.3-0.20004-0.19998-0.83337-0.29998-1.9-0.3-0.60004 0.00002-2.1667 0.10002-4.7 0.3-0.00003 0.93335-0.2667 2.3-0.8 4.1l-0.3-0.9c-0.2667-0.66665-0.5667-1.2666-0.9-1.8-0.2667-0.53331-0.53336-0.79998-0.8-0.8-0.60003 0.00002-1.9 0.20002-3.9 0.6-1.9334 0.40002-3.2 0.60002-3.8 0.6-1.1334 0.00002-2.2334-0.56665-3.3-1.7l11-1.2-2.2-4.3h2.5c0.0666 0.00003 0.59997 0.23336 1.6 0.7-0.00003 0.80002 0.2333 2 0.7 3.6 0.5333-0.0666 2.9333-0.43331 7.2-1.1 0.66663-2.2 1.0666-4.2 1.2-6 2.4666 1.4 3.7 2.2667 3.7 2.6l-1.6 2.5c0.19996 0.20002 0.56662 0.30002 1.1 0.3 0.33329 0.00002 1.2-0.16664 2.6-0.5 1.4-0.39998 2.2666-0.59998 2.6-0.6m-24.7 9.4c3.9333-0.19999 7.2-0.53332 9.8-1 2.6-0.46665 4.4666-0.86665 5.6-1.2 1.1333-0.33332 2-0.49998 2.6-0.5 0.99996 0.00002 2.3333 0.83335 4 2.5-0.86671 1.6-1.5667 2.9667-2.1 4.1-0.53338 1.0667-0.90004 1.7667-1.1 2.1-0.13338 0.33334-0.36671 0.76667-0.7 1.3-0.33338 0.53334-0.83338 1.3333-1.5 2.4-0.73337-0.66666-1.4334-0.99999-2.1-1-1 0.00001-2.1667 0.26667-3.5 0.8v2.2c0.1333 0.0667 0.49996 0.1 1.1 0.1 0.0666 0 2.1333-0.2 6.2-0.6 4.0666-0.46666 6.1666-0.7 6.3-0.7 0.66662 0 2.0666 0.7 4.2 2.1-0.46672 0.93333-0.83339 2.4333-1.1 4.5-0.26672 2.0667-0.70005 4.0333-1.3 5.9-0.53338 1.9333-1.5334 3.5333-3 4.8-0.80005-1-2.4-2.8-4.8-5.4 2 0.33332 3.1333 0.49999 3.4 0.5 1.1333-0.00001 1.8333-0.60001 2.1-1.8 0.26662-1.1333 0.39995-3.5 0.4-7.1-0.53338-0.73333-1.4334-1.1-2.7-1.1-4.4 0-8.1 0.43333-11.1 1.3v2.7c0.39996 0.4 0.76663 0.6 1.1 0.6 0.9333 0 2-0.3 3.2-0.9-0.33337-0.26667-0.50004-0.8-0.5-1.6 0.79996 0.0667 1.7666 0.53333 2.9 1.4 1.1333 0.8 1.7 1.6 1.7 2.4-0.00004 1.0667-0.40004 1.6-1.2 1.6-0.33338-0.00001-0.90004-0.43334-1.7-1.3-0.73337-0.8-1.1667-1.2333-1.3-1.3-6.8 2-10.267 3-10.4 3-0.40003-0.00001-0.83336-0.20001-1.3-0.6-0.40003-0.40001-0.66669-0.83334-0.8-1.3 1.4666-0.2 3.6-0.6 6.4-1.2v-2.4c-0.0667-0.6-0.50003-0.9-1.3-0.9-3.4 0-6.0334 0.26667-7.9 0.8-0.00002 1.8667-0.00002 3.3333 0 4.4 0.0666 1.1333 0.1 1.8333 0.1 2.1 0.0666 0.26666 0.1 0.49999 0.1 0.7 0.0666 0.26666 0.1 0.56666 0.1 0.9-0.00002 0.13332-0.10002 0.53332-0.3 1.2-0.13336 0.66665-0.20002 1.1-0.2 1.3-0.00002 0.26665 0.0666 0.46665 0.2 0.6h-1.1c-0.40002-0.00001-0.63336-0.23335-0.7-0.7-0.40002-5.5333-0.96669-9.6333-1.7-12.3 0.59998 0.0667 1.5333 0.23333 2.8 0.5l10-1.5 0.1-0.2v-2.2c-0.20003-0.2-0.60003-0.3-1.2-0.3-1.6667 0-2.7334 0.26667-3.2 0.8-0.6667-0.6-1.4667-2.3-2.4-5.1-0.93336-2.8666-1.6667-4.6666-2.2-5.4m14.2 7.3c0.86663 0.00001 1.6-0.63333 2.2-1.9 0.66662-1.2667 0.99996-2.5333 1-3.8-0.00004-0.46665-0.13338-1.0666-0.4-1.8h-5.9v2.5c0.39996 0.20001 0.7333 0.30001 1 0.3 0.19996 0.00001 0.39996-0.0333 0.6-0.1 0.26663-0.0666 0.46663-0.1 0.6-0.1 0.79996 0.00001 1.3666 0.40001 1.7 1.2-0.80004 0.60001-2.1 1.1-3.9 1.5v2.2h3.1m-5.3-6.8c-0.2667 0.00001-0.90003 0.10001-1.9 0.3-1 0.20001-1.6334 0.30001-1.9 0.3-0.20003 0.00001-0.63336-0.16665-1.3-0.5l1.2 7.8c1.6666-0.19999 3-0.46666 4-0.8v-2.3c-0.4667-0.0666-0.93337-0.1-1.4-0.1-0.40003 0.00001-0.7667 0.0333-1.1 0.1-0.20003-0.19999-0.4667-0.49999-0.8-0.9 0.0666-0.0666 1.1666-0.43332 3.3-1.1-0.0667-1.7333-0.10003-2.6666-0.1-2.8" fill="#ba0000"/>
	</g>
</svg>
