<?xml version="1.0" encoding="UTF-8" standalone="no"?>
<svg xmlns="http://www.w3.org/2000/svg" shape-rendering="geometricPrecision" height="95" width="75" version="1.1"><rect width="100%" fill="#fff" height="100%"/><g transform="translate(-163.91 -402.25)"><g fill="#20208c" transform="translate(313.11 428.86)"><path d="m-98.286-14.693c0.53328 0.000064 1.5666 0.50006 3.1 1.5 1.5333 1.0001 2.2999 1.8001 2.3 2.4-0.000059 0.06673-0.16672 0.36673-0.5 0.9-0.26672 0.46673-0.63339 1.0334-1.1 1.7-0.40006 0.60006-0.66672 1.1001-0.8 1.5-0.06672 0.66672-0.16672 1.3667-0.3 2.1-0.13339 0.66672-0.40006 1.9001-0.8 3.7-0.40006 1.8-0.80006 3.8-1.2 6-0.93339 3.6-2.4334 6.3-4.5 8.1-0.46672-0.3333-0.73339-0.6333-0.8-0.9-0.73339-3-1.3-4.7-1.7-5.1-0.40005-0.46662-1.6-0.69996-3.6-0.7l-14.9 1.4c-0.4667 0.000041-1.1667-0.13329-2.1-0.4-0.2667 0.46671-0.50003 1.1-0.7 1.9h-0.6c-0.33336 0.000039-0.5667-0.19996-0.7-0.6-0.0667-0.39996-0.23336-1.7666-0.5-4.1-0.40003-3.4-0.80003-6.5666-1.2-9.5-0.13336-0.99994-0.36669-1.8999-0.7-2.7-0.26669-0.86661-0.60003-1.6333-1-2.3-0.33336-0.73327-0.53336-1.1999-0.6-1.4-0.00003-0.73327 0.19997-1.0999 0.6-1.1 0.0666 0.000062 0.59997 0.1334 1.6 0.4 1.0666 0.20006 1.7333 0.30006 2 0.3l28.7-3.1m-4.2 21.7c0.59995-0.59996 1.3999-2.8333 2.4-6.7 0.99994-3.8666 1.4999-6.8999 1.5-9.1-0.000053-1.2666-0.30005-2.0999-0.9-2.5-0.53338-0.39994-1.5667-0.59994-3.1-0.6l-7.9 0.7c0.59995 0.33339 1.4 0.90006 2.4 1.7-0.53338 2.8001-0.80005 4.4667-0.8 5-0.00005 0.86672 0.16662 1.4667 0.5 1.8 0.39995 0.26672 1.0666 0.40005 2 0.4 0.19995 0.0000515 0.63328-0.066615 1.3-0.2 0.73328-0.13328 1.2-0.19995 1.4-0.2 1.2666 0.0000519 2.1666 0.63338 2.7 1.9-0.86672 0.86672-2.5334 1.3-5 1.3-3.6667 0.0000487-5.5-1.6666-5.5-5-0.00004-0.26661 0.0333-0.89995 0.1-1.9 0.0666-1.0666 0.1-1.7333 0.1-2-0.00005-1.8666-0.80004-2.7999-2.4-2.8-0.0667 0.000061-0.63338 0.06673-1.7 0.2-1 0.06673-1.8334 0.10006-2.5 0.1 0.13329 0.26673 0.43329 0.66673 0.9 1.2 0.53329 0.53339 0.79996 1.1001 0.8 1.7-0.00004 0.93339-0.60004 2.7001-1.8 5.3-1.2 2.6-2.6667 4.3-4.4 5.1l-1.1 0.7c-0.20003 0.0000461-0.30003-0.066621-0.3-0.2-0.00003-0.19995 0.0666-0.39995 0.2-0.6 3-3.3999 4.5-6.8666 4.5-10.4-0.00004-0.13328-0.0334-0.46661-0.1-1-0.0667-0.53327-0.10004-0.93327-0.1-1.2l0.2-0.2c-0.93337 0.00006-3.6334 0.23339-8.1 0.7l1.7 15.9h3.7l15.2-2.2c0.73328 0.066712 2.1 1.1 4.1 3.1" fill="#20208c"/></g><g fill="#ba0000" transform="translate(234.19 529.58)"><path d="m-19.779-77.829c0.46661 0.000026 1.0999 0.26669 1.9 0.8 0.86661 0.46669 1.3666 0.80002 1.5 1v0.8c-0.33339 0.33336-0.80006 0.50002-1.4 0.5-0.33339 0.000023-1.1667-0.03331-2.5-0.1-1.3334-0.13331-2.1667-0.19998-2.5-0.2-2.3334 0.000023-3.9 0.30002-4.7 0.9l-3.4 3.5c0.13329-0.26665 0.49996-1.3666 1.1-3.3-0.20004-0.19998-0.83338-0.29998-1.9-0.3-0.60004 0.000023-2.1667 0.10002-4.7 0.3-0.000036 0.93336-0.2667 2.3-0.8 4.1l-0.3-0.9c-0.2667-0.66665-0.5667-1.2666-0.9-1.8-0.2667-0.53331-0.53337-0.79998-0.8-0.8-0.60003 0.000022-1.9 0.20002-3.9 0.6-1.9334 0.40002-3.2 0.60002-3.8 0.6-1.1334 0.00002-2.2334-0.56665-3.3-1.7l11-1.2-2.2-4.3h2.5c0.06663 0.000028 0.59997 0.23336 1.6 0.7-0.000035 0.80003 0.2333 2 0.7 3.6 0.5333-0.06664 2.9333-0.43331 7.2-1.1 0.66662-2.2 1.0666-4.2 1.2-6 2.4666 1.4 3.7 2.2667 3.7 2.6l-1.6 2.5c0.19995 0.20002 0.56662 0.30002 1.1 0.3 0.33328 0.000025 1.2-0.16664 2.6-0.5 1.3999-0.39997 2.2666-0.59997 2.6-0.6m-24.7 9.4c3.9333-0.19998 7.2-0.53332 9.8-1 2.6-0.46665 4.4666-0.86665 5.6-1.2 1.1333-0.33331 2-0.49998 2.6-0.5 0.99995 0.000019 2.3333 0.83335 4 2.5-0.86672 1.6-1.5667 2.9667-2.1 4.1-0.53338 1.0667-0.90005 1.7667-1.1 2.1-0.13338 0.33334-0.36671 0.76668-0.7 1.3-0.33338 0.53334-0.83338 1.3333-1.5 2.4-0.73338-0.66666-1.4334-0.99999-2.1-1-1 0.000008-2.1667 0.26667-3.5 0.8v2.2c0.13329 0.06667 0.49996 0.1 1.1 0.1 0.06663 0.000005 2.1333-0.2 6.2-0.6 4.0666-0.46666 6.1666-0.69999 6.3-0.7 0.66661 0.000006 2.0666 0.70001 4.2 2.1-0.46672 0.93334-0.83339 2.4333-1.1 4.5-0.26672 2.0667-0.70006 4.0333-1.3 5.9-0.53339 1.9333-1.5334 3.5333-3 4.8-0.80005-1-2.4-2.8-4.8-5.4 2 0.33333 3.1333 0.49999 3.4 0.5 1.1333-0.000006 1.8333-0.60001 2.1-1.8 0.26661-1.1333 0.39995-3.5 0.4-7.1-0.53339-0.73333-1.4334-1.1-2.7-1.1-4.4 0.000004-8.1 0.43334-11.1 1.3v2.7c0.39996 0.4 0.76663 0.6 1.1 0.6 0.93329-0.000001 2-0.3 3.2-0.9-0.33338-0.26667-0.50004-0.8-0.5-1.6 0.79996 0.06667 1.7666 0.53334 2.9 1.4 1.1333 0.8 1.7 1.6 1.7 2.4-0.000047 1.0667-0.40005 1.6-1.2 1.6-0.33338-0.000004-0.90004-0.43334-1.7-1.3-0.73338-0.8-1.1667-1.2333-1.3-1.3-6.8 2-10.267 3-10.4 3-0.40003-0.000004-0.83336-0.2-1.3-0.6-0.40003-0.4-0.6667-0.83334-0.8-1.3 1.4666-0.2 3.6-0.6 6.4-1.2v-2.4c-0.0667-0.6-0.50004-0.9-1.3-0.9-3.4 0.000002-6.0334 0.26667-7.9 0.8-0.000028 1.8667-0.000028 3.3333 0 4.4 0.06664 1.1333 0.09997 1.8333 0.1 2.1 0.06664 0.26666 0.09997 0.5 0.1 0.7 0.06664 0.26666 0.09997 0.56666 0.1 0.9-0.000028 0.13333-0.10003 0.53333-0.3 1.2-0.13336 0.66666-0.20003 1.1-0.2 1.3-0.000028 0.26666 0.06664 0.46666 0.2 0.6h-1.1c-0.40003-0.00001-0.63336-0.23334-0.7-0.7-0.40003-5.5333-0.96669-9.6333-1.7-12.3 0.59998 0.06667 1.5333 0.23334 2.8 0.5l10-1.5 0.1-0.2v-2.2c-0.20004-0.19999-0.60004-0.29999-1.2-0.3-1.6667 0.000007-2.7334 0.26667-3.2 0.8-0.6667-0.59999-1.4667-2.3-2.4-5.1-0.93336-2.8667-1.6667-4.6667-2.2-5.4m14.2 7.3c0.86662 0.000009 1.6-0.63332 2.2-1.9 0.66662-1.2667 0.99995-2.5333 1-3.8-0.000046-0.46665-0.13338-1.0666-0.4-1.8h-5.9v2.5c0.39996 0.20001 0.73329 0.30001 1 0.3 0.19996 0.000014 0.39996-0.03332 0.6-0.1 0.26663-0.06665 0.46662-0.09999 0.6-0.1 0.79996 0.000014 1.3666 0.40001 1.7 1.2-0.80004 0.60001-2.1 1.1-3.9 1.5v2.2h3.1m-5.3-6.8c-0.2667 0.000016-0.90004 0.10002-1.9 0.3-1 0.20002-1.6334 0.30002-1.9 0.3-0.20003 0.000016-0.63337-0.16665-1.3-0.5l1.2 7.8c1.6666-0.19999 3-0.46666 4-0.8v-2.3c-0.4667-0.06666-0.93337-0.09999-1.4-0.1-0.40004 0.000012-0.7667 0.03334-1.1 0.1-0.20003-0.19999-0.4667-0.49999-0.8-0.9 0.06663-0.06665 1.1666-0.43332 3.3-1.1-0.0667-1.7333-0.10004-2.6667-0.1-2.8" fill="#ba0000"/></g></g><g transform="translate(-251.41 -401)"></g></svg>
