<?xml version="1.0" encoding="UTF-8" standalone="no"?>
<svg xmlns="http://www.w3.org/2000/svg" shape-rendering="geometricPrecision" height="95" width="75" version="1.1"><rect width="100%" fill="#fff" height="100%"/><g transform="translate(-380.42 -383.54)"><g fill="#20208c" transform="translate(447.03 414.47)"><path d="m-18.211 4.7219c0.86662 0.0000406 1.9666-0.066626 3.3-0.2 1.3999-0.13329 2.1333-0.19996 2.2-0.2 2.5333 0.000041 4.3666 0.96671 5.5 2.9-0.46673 0.066705-1.0667 0.20004-1.8 0.4l-16.3 0.2c-0.80004 0.13337-2.1667 0.33337-4.1 0.6-1.8667 0.2667-3.4 0.50004-4.6 0.7-1.1334 0.20004-1.7334 0.30004-1.8 0.3-0.53337 0.0000359-1.1-0.2333-1.7-0.7-0.60003-0.46663-0.93336-0.9333-1-1.4l7.4-0.6c0.3333-0.26663 0.93329-1.9333 1.8-5 0.93329-3.1333 1.4-5.0333 1.4-5.7-0.000042-0.46662-0.16671-0.69995-0.5-0.7-0.20004 0.00005-0.70004 0.10005-1.5 0.3-0.73337 0.20005-1.2 0.30005-1.4 0.3-0.93337 0.0000494-1.8-0.23328-2.6-0.7-0.000036-0.33328 0.06663-0.53328 0.2-0.6 1.3333-0.13328 3.2333-0.46662 5.7-1 0.46662-0.13328 0.89996-1.0333 1.3-2.7 0.39996-1.6666 0.59996-3.4333 0.6-5.3l-5-1.5v-0.6l14.5-3.3c0.86661 0.20006 1.7666 0.5334 2.7 1v0.9c-1.4667 0.60006-3.4001 1.2001-5.8 1.8-2.4 0.53339-3.7334 0.83339-4 0.9 0.79995 1.2001 1.2 1.8334 1.2 1.9-0.000047 0.06672-0.13338 0.43339-0.4 1.1-0.20005 0.66672-0.50005 1.5001-0.9 2.5l-0.8 2.4c0.93329 0.0000526 2.2666-0.26661 4-0.8l2.5-0.7c0.33328 0.0000541 1.0999 0.40005 2.3 1.2 1.2666 0.73339 1.8999 1.3001 1.9 1.7-0.000056 0.13338-0.20006 0.43338-0.6 0.9-0.40006 0.46672-0.96672 1.5334-1.7 3.2-0.73339 1.6-1.4001 3.7667-2 6.5m-33.1-7.5c3.7333-4.0666 6.6-7.6333 8.6-10.7 2.0666-3.1333 3.2333-5.1999 3.5-6.2 0.26664-1.0666 0.49997-2.3999 0.7-4-0.000031-0.33326 0.2333-0.59993 0.7-0.8 2.4666 1.1334 3.7 2.2001 3.7 3.2-0.000035 0.60007-0.7667 1.9001-2.3 3.9l-3.2 4.2c0.06664 0.000059 0.16664 0.20006 0.3 0.6 0.1333 0.40006 0.26664 0.90006 0.4 1.5 0.1333 0.53339 0.19997 1.0334 0.2 1.5l-0.2 7.6c-0.000031 0.13338-0.30003 3.8334-0.9 11.1-0.20003 3.2667-0.70003 4.9-1.5 4.9-0.46669 0.000032-0.90003-0.46664-1.3-1.4-0.33336-0.99997-0.50003-1.8666-0.5-2.6l2.1-18.4c-0.000028-0.53328-0.10003-1.1666-0.3-1.9l-4.8 4.6c-2 1.8667-3.7334 2.8334-5.2 2.9m32.4-2c-0.000051-0.39995-0.06672-0.69995-0.2-0.9h-3.9c-0.20005 0.000051-0.56671 0.13338-1.1 0.4-0.53338 0.26672-0.83338 0.46672-0.9 0.6l-2.8 10.9c0.93329 0.0000391 2.1666-0.099961 3.7-0.3 1.6-0.26663 2.5666-0.39996 2.9-0.4 0.46662-1.0666 0.79995-2.0333 1-2.9 0.19995-0.93329 0.36662-1.9333 0.5-3 0.13328-1.0666 0.29995-1.9666 0.5-2.7 0.19995-1.0666 0.29995-1.6333 0.3-1.7" fill="#20208c"/></g><g fill="#ba0000" transform="translate(262.42 512.71)"><path d="m168.49-79.921c0.46661 0.000027 1.0999 0.26669 1.9 0.8 0.86661 0.46669 1.3666 0.80002 1.5 1v0.8c-0.33339 0.33336-0.80006 0.50002-1.4 0.5-0.33339 0.000024-1.1667-0.03331-2.5-0.1-1.3334-0.13331-2.1667-0.19998-2.5-0.2-2.3334 0.000024-3.9 0.30002-4.7 0.9l-3.4 3.5c0.13329-0.26665 0.49996-1.3666 1.1-3.3-0.20004-0.19998-0.83338-0.29998-1.9-0.3-0.60004 0.000023-2.1667 0.10002-4.7 0.3-0.00004 0.93336-0.2667 2.3-0.8 4.1l-0.3-0.9c-0.2667-0.66665-0.5667-1.2666-0.9-1.8-0.2667-0.53331-0.53337-0.79998-0.8-0.8-0.60003 0.000022-1.9 0.20002-3.9 0.6-1.9334 0.40002-3.2 0.60002-3.8 0.6-1.1334 0.000021-2.2334-0.56664-3.3-1.7l11-1.2-2.2-4.3h2.5c0.0666 0.000028 0.59996 0.23336 1.6 0.7-0.00004 0.80003 0.2333 2 0.7 3.6 0.53329-0.06664 2.9333-0.43331 7.2-1.1 0.66662-2.2 1.0666-4.2 1.2-6 2.4666 1.4 3.7 2.2667 3.7 2.6l-1.6 2.5c0.19995 0.20003 0.56662 0.30003 1.1 0.3 0.33328 0.000026 1.2-0.16664 2.6-0.5 1.4-0.39997 2.2666-0.59997 2.6-0.6m-24.7 9.4c3.9333-0.19998 7.2-0.53332 9.8-1 2.6-0.46665 4.4666-0.86665 5.6-1.2 1.1333-0.33331 2-0.49998 2.6-0.5 0.99995 0.00002 2.3333 0.83335 4 2.5-0.86672 1.6-1.5667 2.9667-2.1 4.1-0.53338 1.0667-0.90005 1.7667-1.1 2.1-0.13338 0.33334-0.36672 0.76668-0.7 1.3-0.33338 0.53334-0.83338 1.3333-1.5 2.4-0.73338-0.66666-1.4334-0.99999-2.1-1-1 0.000009-2.1667 0.26668-3.5 0.8v2.2c0.13329 0.06667 0.49996 0.10001 1.1 0.1 0.0666 0.000006 2.1333-0.19999 6.2-0.6 4.0666-0.46666 6.1666-0.69999 6.3-0.7 0.66661 0.000007 2.0666 0.70001 4.2 2.1-0.46673 0.93334-0.83339 2.4333-1.1 4.5-0.26672 2.0667-0.70006 4.0333-1.3 5.9-0.53339 1.9333-1.5334 3.5333-3 4.8-0.80005-1-2.4-2.8-4.8-5.4 2 0.33333 3.1333 0.49999 3.4 0.5 1.1333-0.000006 1.8333-0.6 2.1-1.8 0.26661-1.1333 0.39995-3.5 0.4-7.1-0.53339-0.73333-1.4334-1.1-2.7-1.1-4.4 0.000004-8.1 0.43334-11.1 1.3v2.7c0.39996 0.4 0.76663 0.6 1.1 0.6 0.93329 0 2-0.3 3.2-0.9-0.33338-0.26667-0.50004-0.8-0.5-1.6 0.79995 0.06667 1.7666 0.53334 2.9 1.4 1.1333 0.8 1.7 1.6 1.7 2.4-0.00005 1.0667-0.40005 1.6-1.2 1.6-0.33338-0.000003-0.90005-0.43334-1.7-1.3-0.73338-0.8-1.1667-1.2333-1.3-1.3-6.8 2-10.267 3-10.4 3-0.40003-0.000003-0.83337-0.2-1.3-0.6-0.40003-0.4-0.6667-0.83334-0.8-1.3 1.4666-0.2 3.6-0.6 6.4-1.2v-2.4c-0.0667-0.6-0.50004-0.9-1.3-0.9-3.4 0.000003-6.0334 0.26667-7.9 0.8-0.00003 1.8667-0.00003 3.3333 0 4.4 0.0666 1.1333 0.1 1.8333 0.1 2.1 0.0666 0.26666 0.1 0.5 0.1 0.7 0.0666 0.26666 0.1 0.56666 0.1 0.9-0.00003 0.13333-0.10003 0.53333-0.3 1.2-0.13336 0.66666-0.20003 1.1-0.2 1.3-0.00003 0.26666 0.0666 0.46666 0.2 0.6h-1.1c-0.40003-0.000009-0.63336-0.23334-0.7-0.7-0.40003-5.5333-0.96669-9.6333-1.7-12.3 0.59997 0.06667 1.5333 0.23334 2.8 0.5l10-1.5 0.1-0.2v-2.2c-0.20004-0.19999-0.60004-0.29999-1.2-0.3-1.6667 0.000008-2.7334 0.26667-3.2 0.8-0.6667-0.59999-1.4667-2.3-2.4-5.1-0.93336-2.8667-1.6667-4.6666-2.2-5.4m14.2 7.3c0.86662 0.00001 1.6-0.63332 2.2-1.9 0.66662-1.2667 0.99995-2.5333 1-3.8-0.00005-0.46665-0.13338-1.0666-0.4-1.8h-5.9v2.5c0.39996 0.20002 0.73329 0.30002 1 0.3 0.19996 0.000015 0.39996-0.03332 0.6-0.1 0.26662-0.06665 0.46662-0.09999 0.6-0.1 0.79996 0.000015 1.3666 0.40002 1.7 1.2-0.80004 0.60001-2.1 1.1-3.9 1.5v2.2h3.1m-5.3-6.8c-0.26671 0.000017-0.90004 0.10002-1.9 0.3-1 0.20002-1.6334 0.30002-1.9 0.3-0.20004 0.000016-0.63337-0.16665-1.3-0.5l1.2 7.8c1.6666-0.19999 3-0.46666 4-0.8v-2.3c-0.46671-0.06666-0.93337-0.09999-1.4-0.1-0.40004 0.000012-0.7667 0.03334-1.1 0.1-0.20004-0.19999-0.4667-0.49999-0.8-0.9 0.0666-0.06665 1.1666-0.43332 3.3-1.1-0.0667-1.7333-0.10004-2.6666-0.1-2.8" fill="#ba0000"/></g></g></svg>
