<?xml version="1.0" encoding="UTF-8" standalone="no"?>
<svg xmlns="http://www.w3.org/2000/svg" shape-rendering="geometricPrecision" height="95" width="75" version="1.1"><rect width="100%" fill="#fff" height="100%"/><g transform="translate(74 119) scale(1.25) translate(-516.8 -583.93)"><g fill="#9c0000" transform="translate(515.17 402.18)"><path d="m-30.28 96.168c-1.8 4.6-2.7 7.3667-2.7 8.3-0.000042 1.2667 1.1333 4.6667 3.4 10.2 0.26662 0.86669 0.49995 2.2667 0.7 4.2 0.59995-1.4666 1.8666-3.8333 3.8-7.1 1.9999-3.2666 2.9999-5.7 3-7.3-0.000053-1.2666-0.20005-3-0.6-5.2 1.8666 1.8 3.2999 3.9 4.3 6.3 1.9999-1.3333 4.4999-2.2 7.5-2.6-0.3334 0.2667-0.8334 0.70003-1.5 1.3-0.66673 0.60003-1.2001 1.1-1.6 1.5-0.40006 0.33336-0.83339 0.7667-1.3 1.3-0.46673 0.4667-0.80006 0.93336-1 1.4-0.20006 0.46669-0.33339 0.93336-0.4 1.4-0.06672 0.80003-0.16672 1.9-0.3 3.3-0.06672 1.4-0.13339 2.4334-0.2 3.1-0.000057 0.66669-0.06672 1.5667-0.2 2.7-0.13339 1.0667-0.26672 1.8667-0.4 2.4-0.13339 0.53335-0.33339 1.1667-0.6 1.9-0.20006 0.73335-0.46672 1.3-0.8 1.7-0.26672 0.33334-0.63339 0.70001-1.1 1.1-0.46672 0.33334-1.0001 0.56668-1.6 0.7-0.60005 0.13334-1.2667 0.20001-2 0.2-3.3334 0.00001-5.1334-2-5.4-6-1.1334 2.6667-3 4-5.6 4-3.7334 0.00001-6.9995-2.7866-6-8.1l1.9-10.1c-0.13337-3.0666-1.5334-6.2666-4.2-9.6 0.39997 0.20004 1.0333 0.53337 1.9 1 0.9333 0.40004 1.6 0.73337 2 1 0.46663 0.20004 0.99996 0.5667 1.6 1.1 0.59996 0.4667 1.1 1 1.5 1.6 1.3333-2.4 3.3-4.3 5.9-5.7m9.6 7.7c-0.000054 0.2667-0.000054 0.50003 0 0.7-0.000054 1.7334-0.60005 3.6334-1.8 5.7-1.1334 2.0667-2.3 4.1-3.5 6.1-1.2 1.9334-1.8 3.6-1.8 5-0.000047 2.7334 1.3333 4.1 4 4.1 3.3999 0.00001 5.1-2.8333 5.1-8.5v-5.4c-0.000056-0.53331 0.29994-1.4666 0.9-2.8 0.59994-1.3333 1.2333-2.3 1.9-2.9-1.1334 0.60003-2.3667 1.3667-3.7 2.3-0.000055-1.6666-0.36672-3.1-1.1-4.3m-18.8 12.9c-0.000035 1.8667 0.39996 3.4667 1.2 4.8 0.86663 1.3334 1.9666 2 3.3 2 3.0666 0.00001 4.6-1.8 4.6-5.4-0.000044-1.4666-0.66671-3.9-2-7.3-1.3334-3.4-2-5.5666-2-6.5-0.00004-0.99997 0.23329-2.2333 0.7-3.7-1.0667 1.4667-1.7334 3.0667-2 4.8-0.60004-1.0666-1.6334-2.4666-3.1-4.2 0.79996 2.2667 1.2 4.0667 1.2 5.4-0.000037 0.2667-0.33337 1.9667-1 5.1-0.60004 3.0667-0.90004 4.7334-0.9 5" fill="#9c0000"/></g><g fill="#006c00" transform="translate(359.23 470.28)"><path d="m150.85 58.023-2.3 1.5c-0.40006 0.26668-0.70006 0.50001-0.9 0.7-0.1334 0.20001-0.30006 0.43334-0.5 0.7-0.20006 0.20001-0.43339 0.60001-0.7 1.2-0.26673 0.53334-0.56673 1.1333-0.9 1.8-0.26673 0.66667-0.76673 1.7333-1.5 3.2-0.66672 1.4667-1.4001 3-2.2 4.6-0.33339 0.66666-1.0334 1.4-2.1 2.2-1.0667 0.8-2.6334 1.8667-4.7 3.2-2 1.4-3.7667 2.7-5.3 3.9l1.1-4.9c0.66662-3.6 1.7333-6.6 3.2-9 1.4666-2.4667 3.2666-4.2667 5.4-5.4 2.1999-1.2 4.0666-2.0333 5.6-2.5 1.5333-0.46666 3.4666-0.86666 5.8-1.2m-19.1 1.9c-0.73338 2.1333-1.2 3.8667-1.4 5.2-0.20004 1.3333-0.30004 3.1667-0.3 5.5-0.00004 0.33333-0.00004 0.93333 0 1.8-0.00004 0.86666-0.00004 1.5667 0 2.1h-4c-0.00004-0.86667-0.00004-1.8333 0-2.9-0.00004-1-0.00004-1.6333 0-1.9-0.00004-0.46667-0.00004-0.83333 0-1.1-0.00004-0.33333-0.00004-0.7 0-1.1 0.0666-0.4 0.0999-0.73333 0.1-1 0.0666-0.26666 0.16663-0.7 0.3-1.3 0.19996-0.66666 0.33329-1.2 0.4-1.6 0.0666-0.46666 0.23329-1.2667 0.5-2.4 0.26662-1.1333 0.49996-2.1333 0.7-3 0.79996 0.40001 2.0333 0.96668 3.7 1.7m-8.1-1.8c0.0666 0.46668 0.1333 1.5667 0.2 3.3 0.1333 1.6667 0.2333 2.7667 0.3 3.3 0.0666 0.53334 0.16663 1.5333 0.3 3 0.13329 1.4667 0.26663 2.5 0.4 3.1 0.13329 0.66666 0.29996 1.6333 0.5 2.9 0.26663 1.2667 0.53329 2.2667 0.8 3 0.33329 0.79999 0.69996 1.7333 1.1 2.8 0.46662 1.0667 0.96662 2.0333 1.5 2.9 0.53329 0.93332 1.1333 1.8667 1.8 2.8l-3.2 2.3c-5-6.2667-7.5-16.067-7.5-29.4 0.19997 0.33334 0.46663 0.40001 0.8 0.2 0.59996 0.000012 1.6-0.06665 3-0.2m22.2 2.1c-0.33339 0.00001-0.83339 0.10001-1.5 0.3-0.66672 0.13334-1.6334 0.56668-2.9 1.3-1.2 0.66667-2.4 1.5667-3.6 2.7-1.1334 1.0667-2.2667 2.7-3.4 4.9-1.0667 2.1333-1.8334 4.6-2.3 7.4 3-1.6 5.3-3.1 6.9-4.5 1.6-1.3333 2.6333-2.4333 3.1-3.3 0.46661-0.93333 0.99994-2.2667 1.6-4 0.66661-1.8 1.3666-3.4 2.1-4.8m-16.2 0.1c-0.0667 0.00001-0.20004 0.00001-0.4 0-0.20004-0.06666-0.33338-0.09999-0.4-0.1-0.93338 3.2-1.4 6.1667-1.4 8.9-0.00004 0.26667-0.00004 0.83333 0 1.7-0.00004 0.86666-0.6 2.2 0 2.2h1.2c-0.0667-0.8-0.10004-1.6-0.1-2.4-0.00004-1.6667 0.36662-5.1 1.1-10.3m-1.7 25.2 0.5-0.6c-2.1334-3.5333-3.6-7.1667-4.4-10.9-0.80004-3.6667-1.3334-8.4333-1.6-14.3-0.13337 0.000011-0.4667 0.03334-1 0.1-0.00004 5.0667 0.49996 9.7 1.5 13.9 0.99996 4.2667 1.9666 7.3 2.9 9.1 0.99996 1.8 1.7 2.7 2.1 2.7" fill="#006c00"/></g></g></svg>
