<?xml version="1.0" encoding="UTF-8" standalone="no"?>
<svg xmlns="http://www.w3.org/2000/svg" shape-rendering="geometricPrecision" height="95" width="75" version="1.1"><rect width="100%" fill="#fff" height="100%"/><g transform="translate(-489.34 -446.32)"><g fill="#9c0000" transform="translate(442.8 464.93)"><path d="m65.541 5.896c0.26664 0.0000515 1.4-0.23328 3.4-0.7 2.0666-0.53328 3.2333-0.79995 3.5-0.8 0.3333 0.000053 1.3666 0.46672 3.1 1.4l-4.4 5.4c2.3333 2.4 7.0666 4.1667 14.2 5.3 0.33329 0.06671 0.69996 0.26671 1.1 0.6-2.8667 1.0667-5.1667 1.6-6.9 1.6-0.8667 0.000038-2.1-0.49996-3.7-1.5-1.5334-1.0666-2.9334-2.1-4.2-3.1-1.2-0.99996-1.8334-1.5-1.9-1.5-0.66669 0.73338-2.2 1.6334-4.6 2.7-2.4 1-3.8667 1.5-4.4 1.5-0.13335 0.00004-0.50002-0.06663-1.1-0.2-0.53335-0.19996-1-0.29996-1.4-0.3 3.8666-0.79996 7.2333-2.4 10.1-4.8-0.000024-0.19995-0.73336-0.79995-2.2-1.8-1.4-1.0666-2.3667-1.6-2.9-1.6-0.20002 0.0000493-0.56668 0.30005-1.1 0.9-0.53335 0.60005-1.4333 1.4334-2.7 2.5-1.2 1.0667-2.6 2-4.2 2.8-1.4667 0.73338-2.3 1.1-2.5 1.1h-0.7c5.8667-3.7333 9.7666-7.7 11.7-11.9v-0.4c-0.20002-0.19995-0.33335-0.29995-0.4-0.3l-1.3 0.2v-7.3c-0.000017-0.39994-0.30002-1.4666-0.9-3.2 0.13332 0.0000649 0.46665 0.033398 1 0.1 0.53332 0.066731 0.83332 0.10006 0.9 0.1 0.19998 0.0000647 0.39998-0.033269 0.6-0.1 0.19998-0.066602 0.36665-0.13327 0.5-0.2 0.13331-0.066602 0.26665-0.1666 0.4-0.3 0.13331-0.19993 0.23331-0.33327 0.3-0.4 0.13331-0.13327 0.23331-0.33327 0.3-0.6 0.13331-0.2666 0.23331-0.43327 0.3-0.5 0.06665-0.13327 0.13331-0.33327 0.2-0.6 0.13331-0.33327 0.23331-0.53327 0.3-0.6v-0.5c-0.06669-0.0666-0.40002-0.09993-1-0.1-0.33335 0.000068-1.3667 0.16674-3.1 0.5-1.7333 0.26673-2.7667 0.40007-3.1 0.4-0.20001 0.000067-0.66668-0.1666-1.4-0.5-0.66668-0.39993-1.0667-0.79993-1.2-1.2l22.1-2.6c1.8666 0.000072 3 0.56674 3.4 1.7l-13.8 1.5c0.19998 0.06674 0.43331 0.2334 0.7 0.5-0.60002 0.7334-1.5334 1.7001-2.8 2.9 0.06664 0.066732 0.16664 0.10007 0.3 0.1 0.53331 0.0000653 1.8666-0.19993 4-0.6 2.1333-0.39993 3.3-0.59993 3.5-0.6 0.86664 0.0000665 1.9 0.50007 3.1 1.5-0.53336 0.9334-0.9667 2.7667-1.3 5.5-0.33336 2.7334-0.80003 4.4334-1.4 5.1-1.1334-0.73328-1.8334-1.0999-2.1-1.1-0.20003 0.0000555-1.1667 0.13339-2.9 0.4-1.6667 0.26672-2.8667 0.43339-3.6 0.5l-0.3 0.3 1.1 1-1.2 1.7c-0.00002 0.066718 0.19998 0.10005 0.6 0.1m28.4 31.6c-1.3334 0.00002-2-0.66665-2-2-0.000047-0.66664 0.19995-1.1333 0.6-1.4l6.4-3.6-3.7 6.3c-0.26672 0.40002-0.70005 0.63335-1.3 0.7m-8.2-5.5c-0.000041 1.2667-0.66671 1.9-2 1.9-1.2667 0.000023-1.9-0.63331-1.9-1.9v-0.2l1.9-12.4 2 12.6m24.3 13.6-12.7 1.9c-1.2001 0.00001-1.8001-0.63332-1.8-1.9-0.000051-1.3333 0.59995-2 1.8-2h0.3l12.4 2m-11.1 15.1-6.4-3.7c-0.40005-0.26667-0.60005-0.73333-0.6-1.4-0.000047-1.3333 0.66662-2 2-2 0.59995 0.06667 1.0333 0.3 1.3 0.7l3.7 6.4m-23.2-25.2c-0.000031 1.3334-0.6667 2-2 2-0.6667-0.06665-1.1334-0.29998-1.4-0.7l-3.6-6.3 6.3 3.6c0.39997 0.26669 0.6333 0.73336 0.7 1.4m8-0.7c3.0666 0.000022 5.6333 1.0667 7.7 3.2 2.0666 2.0667 3.1 4.6 3.1 7.6-0.00005 2.9333-1.0334 5.4667-3.1 7.6-2.0667 2.0667-4.6334 3.1-7.7 3.1-2.9334 0.000001-5.4667-1.0333-7.6-3.1-2.0667-2.0667-3.1-4.6-3.1-7.6-0.000028-3.0667 1.0333-5.6333 3.1-7.7 2.1333-2.0666 4.6666-3.1 7.6-3.1m-11.7 10.8c-0.000027 1.2667-0.63336 1.9-1.9 1.9l-12.6-1.9 12.7-2c1.2 0.000013 1.8 0.66668 1.8 2m13.7 13.8-2 12.4-1.9-12.6c-0.000037-1.2667 0.6333-1.9 1.9-1.9 1.3333 0 2 0.63333 2 1.9v0.2m-12-5.8c1.3333 0.000003 2 0.66667 2 2-0.0667 0.66667-0.30003 1.1333-0.7 1.4l-6.3 3.7 3.6-6.4c0.26664-0.4 0.7333-0.63333 1.4-0.7m-8.9-51.5c0.06665 0.0000553 0.43331-0.066611 1.1-0.2 0.73331-0.19994 1.7-0.36661 2.9-0.5 1.2666-0.19994 2.5333-0.29994 3.8-0.3 0.59997-1.5333 0.89997-2.4666 0.9-2.8v-5.6c-0.6667-0.2666-1.2-0.39993-1.6-0.4l-8.1 1.2c-0.000019 0.7334 0.03331 1.4667 0.1 2.2 3-0.79994 4.9666-1.1999 5.9-1.2 0.66664 0.0000629 1.1333 0.26673 1.4 0.8l-0.2 0.3c-2.4 0.60006-4.7667 0.90006-7.1 0.9v2.5l6.2-1.4c0.26664 0.066726 0.63331 0.16673 1.1 0.3v0.6c-0.53336 0.26673-1.1 0.50006-1.7 0.7-0.60002 0.13339-1.1334 0.23339-1.6 0.3-0.40002 0.066724-1.0667 0.13339-2 0.2-0.93335 0.066724-1.7334 0.13339-2.4 0.2v2.2h1.3m4.6 8.1c0.46664 0.000047 0.96664-0.46662 1.5-1.4 0.59997-0.99995 0.89997-1.6999 0.9-2.1-0.000027-0.19995-0.03336-0.39995-0.1-0.6-0.06669-0.19995-0.10003-0.33328-0.1-0.4-2.0667 0.73338-3.7 1.1001-4.9 1.1-0.13336 0.0000506-0.43336-0.033283-0.9-0.1-0.46669-0.066616-0.76669-0.099949-0.9-0.1-0.53335 0.0000508-1.0667 0.26672-1.6 0.8 0.53331 0.20005 1.2666 0.56672 2.2 1.1 0.99998 0.46672 1.8666 0.86671 2.6 1.2 0.73331 0.33338 1.1666 0.50005 1.3 0.5m14.3 43.6c2.4 0.000003 4.3666-0.8 5.9-2.4 1.6-1.6 2.4-3.5333 2.4-5.8-0.000047-2.2667-0.80005-4.2-2.4-5.8-1.5334-1.6-3.5-2.4-5.9-2.4-2.3334 0.00002-4.3 0.80002-5.9 2.4-1.5334 1.6-2.3 3.5333-2.3 5.8-0.000031 2.3333 0.79997 4.3 2.4 5.9 1.6 1.5333 3.5333 2.3 5.8 2.3" fill="#9c0000"/></g></g></svg>
