<?xml version="1.0" encoding="UTF-8" standalone="no"?>
<svg xmlns="http://www.w3.org/2000/svg" shape-rendering="geometricPrecision" height="95" width="75" version="1.1"><rect width="100%" fill="#fff" height="100%"/><g transform="translate(-539.1 -439.21)"><g fill="#9c0000" transform="translate(339.44 453.22)"><path d="m236.65 0.36341c-3.3334 2.0001-5.1667 3.0001-5.5 3h-0.7c2.3333-3.0666 3.5-4.9333 3.5-5.6 1.8 1.1334 2.7 2.0001 2.7 2.6m-18.6 17.5c6.2-3.8 9.3-10.867 9.3-21.2-0.00003-3.1333-0.33337-5.0999-1-5.9h1.6c0.46663 0.000072 0.96663 0.16674 1.5 0.5 0.5333 0.3334 0.79996 0.76674 0.8 1.3-0.00004 0.06674-0.00004 0.1334 0 0.2l-2 12.9c0.7333 2.2667 2.3 4.6334 4.7 7.1 2.4 2.4667 4.6333 4 6.7 4.6 0.26662 0.20004 0.66662 0.43338 1.2 0.7-1 0.40004-2 0.60004-3 0.6-2.1334 0.000044-3.6-0.36662-4.4-1.1-0.80004-0.79995-1.6-2.2333-2.4-4.3-0.73337-2.0666-1.7-3.8666-2.9-5.4-0.73337 2.2001-2.1334 4.4334-4.2 6.7-2 2.2667-3.9 3.5-5.7 3.7-0.13336-0.13329-0.20003-0.26662-0.2-0.4m6.2-12c-0.60003-0.06661-1.2334-0.53328-1.9-1.4-0.60003-0.93327-0.90003-1.6333-0.9-2.1-0.00003-0.26661 0.16664-0.39994 0.5-0.4 0.5333 0.00006 1.1333 0.26673 1.8 0.8 0.66664 0.53339 0.99997 1.0667 1 1.6-0.13336 0.26672-0.30003 0.76672-0.5 1.5m-10.5-2.7c-0.20002 0.000059-1.1334 0.26673-2.8 0.8-1.6 0.46672-2.5 0.70006-2.7 0.7-0.66668 0.000058-1.5-0.46661-2.5-1.4l9.4-1.6v-5.1c-0.0667-0.0666-0.26669-0.09993-0.6-0.1l-3.9 1.1 4.1-2.8c1.6-1.1333 2.6-2.2999 3-3.5 0.86664 0.3334 2 0.9334 3.4 1.8l-5.2 2.8c0.26664 0.26673 0.79998 0.6334 1.6 1.1-0.40002 2.3334-0.63336 3.5001-0.7 3.5-0.00002 0.1334 0.1 0.30006 0.3 0.5h0.4c0.13331 0.000061 0.43331-0.13327 0.9-0.4 0.53331-0.33327 0.89997-0.49994 1.1-0.5 0.19997 0.1334 0.53331 0.3334 1 0.6-0.20003 0.40006-0.93336 0.80006-2.2 1.2-1.2 0.33339-1.8 1.1667-1.8 2.5l0.1 2.1c0.0667 0.06672 0.46664 0.20006 1.2 0.4 0.79997 0.13339 1.5 0.36672 2.1 0.7 0.66664 0.26672 0.99997 0.70005 1 1.3-0.00003 0.40005-0.20003 0.80005-0.6 1.2-1.2-0.79995-2.3334-1.6666-3.4-2.6-0.33336 0.60005-0.50002 1.3334-0.5 2.2v7.4c-0.00002 0.60004-0.40002 2.1667-1.2 4.7-0.86669-0.33329-1.3-1.2666-1.3-2.8-0.00002-0.06662 0.19998-1.4333 0.6-4.1 0.46664-2.6666 0.69998-4.7666 0.7-6.3-0.00002-1.3333-0.10002-2.3999-0.3-3.2-0.33335 0.80006-1 2.0001-2 3.6-0.86669 1.0001-2.1334 2.1667-3.8 3.5-1.6667 1.3334-2.6667 2-3 2h-0.9c5.4-4.2666 8.4333-7.9999 9.1-11.2-0.00002-0.06661-0.20002-0.09994-0.6-0.1" fill="#9c0000"/></g><g fill="#006c00" transform="translate(400.75 440.48)"><path d="m189.02 42.044c1.8 1.8 2.7 3.6 2.7 5.4-0.00005 0.46669-0.50005 2.3-1.5 5.5 0.13328 0.20002 0.23328 0.30002 0.3 0.3 0.99995 0.000022 5.7999-2.5666 14.4-7.7v2.3c-1.0667 0.46669-2.1667 1.0334-3.3 1.7-1.1334 0.66669-2.5001 1.5334-4.1 2.6-1.6001 1-2.9 1.8-3.9 2.4l2.2 1c0.39994 0.13335 0.66661 0.26669 0.8 0.4 0.13328 0.06669 0.33328 0.23335 0.6 0.5 0.26661 0.26668 0.49994 0.63335 0.7 1.1 0.19994 0.46668 0.39994 1.1334 0.6 2 0.26661 0.80002 0.56661 1.8333 0.9 3.1-0.46673 0.000013-0.76672 0.06668-0.9 0.2 0.46661 0.86668 0.69994 1.9667 0.7 3.3-0.00006 0.13334-0.00006 0.36668 0 0.7-0.00006 0.26668-0.00006 0.46668 0 0.6-0.00006 0.66667 0.0666 1.1667 0.2 1.5h-1c-0.0667 0.33334-0.10006 0.66667-0.1 1-0.00006 0.26667 0.0333 0.73334 0.1 1.4-0.26672 0.13334-0.50006 0.36667-0.7 0.7-0.20006 0.33334-0.33339 0.63334-0.4 0.9-0.0667 0.26667-0.13339 0.6-0.2 1-0.0667 0.4-0.10006 0.66667-0.1 0.8-0.80006-0.6-2.0667-1.3667-3.8-2.3-0.00005 0.6-0.26672 1.4333-0.8 2.5-0.46672 1.0667-0.70005 2-0.7 2.8l-0.9-0.9c-0.60005 0.73333-1.2334 1.6-1.9 2.6-0.66671 1-1.1334 1.6333-1.4 1.9-0.20005-0.000006-0.66672-0.23334-1.4-0.7-0.20005 0.33333-0.53339 0.79999-1 1.4-0.0667-0.000007-0.46672 0.06666-1.2 0.2l-2 2.2-0.4-0.5-7 5c1.1333-2.8667 1.7-4.7 1.7-5.5-0.00004-0.06667-0.16671-0.16668-0.5-0.3-0.00004-0.80001 0.1-1.4333 0.3-1.9-0.00004-0.06667-0.10004-0.16667-0.3-0.3-0.13338-0.13334-0.20004-0.23334-0.2-0.3-0.00004-0.13334 0.1-0.46667 0.3-1 0.26662-0.46667 0.39996-0.76667 0.4-0.9-0.00004-0.6-0.33338-0.9-1-0.9-0.46671-0.46667-1-1.6-1.6-3.4l-2.9 2.3c0.0666-0.6 0.0666-1.0333 0-1.3-0.8667 0.53333-1.4 0.8-1.6 0.8-0.13337-0.000001-0.2667-0.06667-0.4-0.2-0.13337-0.13333-0.2667-0.2-0.4-0.2-0.13337-0.000001-0.43337 0.13333-0.9 0.4-0.4667 0.33333-0.7667 0.5-0.9 0.5-0.13337-0.000002-0.30003-0.06667-0.5-0.2-0.13337-0.13334-0.2667-0.2-0.4-0.2-0.00003 0.06667-1.3667 0.4-4.1 1 0.39997-1.1333 0.63331-1.7 0.7-1.7-0.00003-0.26667-0.20003-0.6-0.6-1-0.66669 0.33333-1.3667 0.5-2.1 0.5-0.0667 0-0.30003-0.06667-0.7-0.2-0.40002-0.13333-0.63336-0.2-0.7-0.2-0.20002 0.13333-0.93336 0.36667-2.2 0.7-0.00002-0.66667-0.0667-1-0.2-1-0.0667 0.000001-0.53335 0.06667-1.4 0.2-0.80002 0.13333-1.3334 0.2-1.6 0.2-0.0667 0-0.23335 0.06667-0.5 0.2-0.26668 0.2-0.46668 0.3-0.6 0.3-0.13335 0-0.30002-0.03333-0.5-0.1-0.20002-0.06667-0.36668-0.1-0.5-0.1-0.0667 0-1.3 0.33333-3.7 1 0.86665-0.8 1.7333-1.7333 2.6-2.8 0.93332-1.1333 2.3333-2.6333 4.2-4.5-0.00002-0.66666 0.26665-1.5333 0.8-2.6 0.59998-1.0667 1.1666-1.7333 1.7-2-0.33336-0.46666-1.1334-0.69999-2.4-0.7 0.59998-1.3333 1.4-2.4667 2.4-3.4-0.00002-0.33332 0.29998-0.69998 0.9-1.1 0.59998-0.39998 0.93331-0.69998 1-0.9-0.00002-0.06665-0.0667-0.16665-0.2-0.3 1.8666-2.0666 3.3666-3.4333 4.5-4.1-0.93336-1.1333-2.5-2.7-4.7-4.7 0.26664-0.13331 0.63331-0.36664 1.1-0.7-0.26669-0.26664-1.3334-0.99997-3.2-2.2l0.2-0.2c-2.0667-1.0666-3.9-1.8666-5.5-2.4h4c0.19998 0.000032 0.79998-0.1333 1.8-0.4 0.99998-0.26663 2.2333-0.39997 3.7-0.4 0.26664-0.3333 0.39997-0.66663 0.4-1 0.86664 0.000033 1.5666 0.03337 2.1 0.1-0.00003-0.1333-0.0667-0.26663-0.2-0.4h3.2c-0.13336-0.39997-0.30003-1.1333-0.5-2.2 1.3333 0.2667 2.2333 0.40004 2.7 0.4 0.1333 0.000036 0.29997-0.0333 0.5-0.1 0.26663-0.1333 0.46663-0.19996 0.6-0.2 0.19997 0.000036 0.7333 0.13337 1.6 0.4 0.19996-0.06663 0.4333-0.39996 0.7-1l1.3 0.7c0.0666 0.000036 0.19996 0.000036 0.4 0 0.19996-0.06663 0.36663-0.09996 0.5-0.1l1.6 0.5c-0.00004-0.66663-0.13337-2.0666-0.4-4.2h2.1c0.19996 0.00004 0.63329 0.20004 1.3 0.6 0.66662 0.33337 1.1 0.50004 1.3 0.5 0.0666 0.000038 0.13329-0.03329 0.2-0.1 0.13329-0.06663 0.23329-0.09996 0.3-0.1l0.8 0.5c0.46662 0.33337 0.76662 0.50004 0.9 0.5 0.13329 0.000038 0.23329-0.0333 0.3-0.1 0.0666-0.06663 0.16662-0.09996 0.3-0.1 0.0666 0.000038 0.39995 0.3667 1 1.1v-1.2c0.73328 0.53337 1.7333 1.3334 3 2.4 0.0666 0.13337 0.16661 0.40004 0.3 0.8 0.0666 0.0667 0.36661 0.10004 0.9 0.1l1.2 2.7c0.26661-0.26663 0.53328-0.66663 0.79999-1.2m2 31.7c0.73328-0.93333 1.1-1.8 1.1-2.6 0.13328-0.2 0.43328-0.3 0.9-0.3 0.79995 0.000004 1.8 0.46667 3 1.4 0.19994-0.4 0.46661-1 0.8-1.8-0.00006-0.73333 0.0666-1.8 0.2-3.2h0.9c-0.00006-1.2-0.23339-2.3-0.7-3.3-0.46672-0.99999-0.70006-1.6-0.7-1.8-0.00006-0.39999 0.36661-0.79999 1.1-1.2-0.46672-1.2-0.76672-1.9333-0.9-2.2-0.0667-0.33332-0.36672-0.76665-0.9-1.3-0.53339-0.53332-1.1667-0.89998-1.9-1.1-0.66672-0.19998-1.7667-0.49998-3.3-0.9-0.0667-0.19998-0.16672-0.43331-0.3-0.7-1.1334-0.33331-1.7-0.89998-1.7-1.7-0.00005-0.06664 0.26661-0.83331 0.79999-2.3 0.53328-1.4666 0.79995-2.5333 0.8-3.2-0.00005-0.46664-0.16672-1.0333-0.5-1.7-0.26672-0.7333-0.50005-1.1333-0.7-1.2-0.53338 0.40003-0.96671 0.70003-1.3 0.9-0.26672-0.7333-0.80005-1.7666-1.6-3.1-0.33339-0.1333-0.76672-0.4333-1.3-0.9-0.0667-0.3333-0.26672-0.7333-0.6-1.2-0.33338 0.33337-0.63338 0.50003-0.9 0.5-0.26672 0.000034-0.86672-0.5333-1.8-1.6-0.40005 0.000036-0.76671-0.06663-1.1-0.2-0.26671-0.19996-0.50005-0.36663-0.7-0.5-0.13338-0.19996-0.23338-0.29996-0.3-0.3-0.0667 0.000037-0.13338 0.03337-0.2 0.1-0.0667 0.0667-0.13338 0.10004-0.2 0.1-0.46671 0.000037-1.4-0.29996-2.8-0.9 0.19996 1.4 0.29996 2.4 0.3 3-0.00004 0.60003-0.10004 1.0334-0.3 1.3h-1.1c-0.0667 0.000033-0.40004-0.16663-1-0.5-0.60004-0.3333-0.96671-0.49997-1.1-0.5-0.20004 0.000034-0.63337 0.0667-1.3 0.2-0.6667 0.13337-1.0667 0.20003-1.2 0.2-0.0667 0.000034-0.13337 0.000034-0.2 0-0.0667 0.000034-0.1667 0.000034-0.3 0-0.0667-0.06663-0.20004-0.09997-0.4-0.1-0.13337-0.06663-0.43337-0.09997-0.9-0.1-0.40003 0.000034-0.93337 0.000034-1.6 0 0.1333 0.40003 0.16663 0.70003 0.1 0.9-0.2667 0.33337-2.1 0.8667-5.5 1.6-0.0667 0.13336-0.23336 0.43336-0.5 0.9-0.66669-0.19997-1.2334-0.29997-1.7-0.3-1.5334 0.000031-2.3 0.2667-2.3 0.8 0.66664 0.20003 1.1666 0.53336 1.5 1-0.00002 0.20003 0.1 0.40003 0.3 0.6 0.26664 0.20003 0.59997 0.4667 1 0.8 0.39997 0.33336 0.73331 0.66669 1 1-0.46669 0.46669-0.70003 0.76669-0.7 0.9 0.99997 1.0667 2.4 2.6667 4.2 4.8-2.8 2.2-4.2 3.7667-4.2 4.7-2 1.1333-3.3 2.3333-3.9 3.6 0.53331 0.26668 1.2666 0.66668 2.2 1.2-0.66669 0.60001-1.2667 1.2667-1.8 2-0.53336 0.73334-0.90002 1.3-1.1 1.7-0.20002 0.33334-0.30002 0.53334-0.3 0.6-0.00002 0.33334 0.13331 0.73334 0.4 1.2l-2.8 2.5c-0.20002 0.53334-0.56669 1.1333-1.1 1.8 0.39998-0.2 0.73331-0.3 1-0.3 0.13331 0.000002 0.26665 0.06667 0.4 0.2 0.13331 0.13334 0.26665 0.2 0.4 0.2 0.19998 0.000002 0.66665-0.13333 1.4-0.4 0.79998-0.33333 1.3-0.5 1.5-0.5 0.13331 0.000003 0.29998 0.3 0.5 0.9l1.4-0.4c0.0666 0.000002 0.26664 0.1 0.6 0.3 0.33331 0.2 0.53331 0.3 0.6 0.3 0.46664 0.000002 0.89997-0.2 1.3-0.6 0.39997-0.46666 0.66664-0.73333 0.8-0.8l2.4 3.4c0.66664-0.46667 1.2-0.7 1.6-0.7 0.1333 0 0.2333 0.03333 0.3 0.1 0.1333 0.06667 0.26663 0.1 0.4 0.1 0.19997 0 0.9333-0.63333 2.2-1.9 0.19996 0.2 0.4333 0.6 0.7 1.2 0.39996-0.26667 1.1-0.66666 2.1-1.2 0.26663 0.33334 0.49996 0.5 0.7 0.5 0.93329-0.86666 1.6666-1.5 2.2-1.9 0.33329 1.0667 0.86663 2.6333 1.6 4.7h1.3c0.13329 0.46666 0.19996 1 0.2 1.6-0.00004 0.26666-0.0667 0.96666-0.2 2.1 0.13329 1.5333 0.19996 2.7333 0.2 3.6-0.00004 0.59999-0.0334 1.0333-0.1 1.3 1.4-1.2 2.7-2.1667 3.9-2.9 0.19995-0.000007 0.43329-0.03334 0.7-0.1l1.7-2.2 0.5 0.6c0.53328-0.73334 1.1666-1.3667 1.9-1.9 0.19995 0.2 0.56661 0.46666 1.1 0.8 0.59995-0.86667 1.1666-1.6667 1.7-2.4 0.53328-0.66667 0.89995-1.1333 1.1-1.4 0.26662-0.26667 0.46662-0.53333 0.6-0.8 0.19995-0.26667 0.29995-0.43333 0.3-0.5 0.0666-0.13333 0.0999-0.33333 0.1-0.6m-5.5-16.8c-1.6667 2.3333-3.5334 4.0333-5.6 5.1-2 1-4.2667 1.8-6.8 2.4-2.5334 0.53334-4.5334 1.1667-6 1.9-0.2667-0.26666-0.40003-0.53332-0.4-0.8 0.99997-0.33332 2.3333-0.79999 4-1.4 1.7333-0.59999 2.9-0.99999 3.5-1.2 0.66663-0.19999 1.5666-0.53332 2.7-1 1.1333-0.46665 1.9333-0.83332 2.4-1.1 0.53329-0.26665 1.1666-0.63332 1.9-1.1 0.79995-0.46665 1.4666-0.93332 2-1.4 0.53328-0.53332 1.1-1.1333 1.7-1.8 0.26662 0.26668 0.46662 0.40002 0.6 0.4" fill="#006c00"/></g></g></svg>
