<?xml version="1.0" encoding="UTF-8" standalone="no"?>
<svg xmlns="http://www.w3.org/2000/svg" shape-rendering="geometricPrecision" height="95" width="75" version="1.1"><rect width="100%" fill="#fff" height="100%"/><g transform="translate(-566.53 -444.01)"><g fill="#9c0000" transform="translate(476.67 484.73)"><path d="m112.66-21.724c-1.4667 1.5334-3.8334 3.1667-7.1 4.9-3.2 1.7334-5.7333 2.6-7.6 2.6-0.06668 0.000049-0.16668 0.000049-0.3 0-0.06668 0.000049-0.23334 0.000049-0.5 0-0.26668 0.000049-0.60001 0.000049-1 0 0.19999-0.06662 0.89999-0.36662 2.1-0.9 1.2667-0.53328 2.1333-0.89995 2.6-1.1 0.46665-0.26662 1.2666-0.69995 2.4-1.3 1.1333-0.59995 2.0333-1.0999 2.7-1.5 0.66665-0.46661 1.4333-1.0666 2.3-1.8 0.86665-0.73328 1.6666-1.4666 2.4-2.2-2.1334-2.2666-3.6334-3.3999-4.5-3.4l-3.8 2.2 5-5.9c2-2.5999 3-4.7999 3-6.6 1.4 0.46674 2.5333 0.96674 3.4 1.5v1.1c-1.6 1.4667-2.7334 2.7001-3.4 3.7-0.00002 0.06673 0.16664 0.10006 0.5 0.1l6.2-1.9c0.79997 0.000067 1.6666 0.8334 2.6 2.5l-6.1 6.6c-0.00003 0.20006 0.39997 0.56672 1.2 1.1 0.79997 0.53339 1.9 1.1334 3.3 1.8 1.4666 0.66672 2.8666 1.2334 4.2 1.7l8.6 2.4c-3.0667 0.86672-5.1667 1.3-6.3 1.3-1.7334 0.00005-3.8-0.86662-6.2-2.6l-5.7-4.3m2.6 9.1c-0.40003 0.13338-0.66669 0.20005-0.8 0.2-0.73336 0.000048-1.8-0.63328-3.2-1.9l-2.9-2.5c0.73331 0.000052 1.3333 0.000052 1.8 0 0.46664 0.000052 0.76664 0.000052 0.9 0 0.19998 0.000052 0.33331 0.000052 0.4 0 0.66664 0.000052 1.4666 0.43338 2.4 1.3 0.93331 0.80005 1.4 1.4 1.4 1.8v1.1m0.9 7.4c-0.33336 0.40004-0.80003 0.60004-1.4 0.6-0.80003 0.00004-2.2334-0.83329-4.3-2.5l-3.6-3c0.79998 0.000045 1.4333 0.000045 1.9 0 0.53331 0.000045 0.89998 0.000045 1.1 0 0.19998 0.000045 0.29998 0.000045 0.3 0 0.99998 0.000045 2.4666 0.63338 4.4 1.9 0.86664 0.66671 1.4 1.6667 1.6 3m-0.9-24.4c-1.7334 0.20006-2.8334 0.30006-3.3 0.3-0.93336 0.000064-1.7334-0.1666-2.4-0.5-0.86669 0.80006-1.7 1.7334-2.5 2.8 0.99998 0.46673 1.8 0.90006 2.4 1.3l2.3 1.4c0.99997-1.1333 2.1666-2.8999 3.5-5.3" fill="#9c0000"/></g><g fill="#10106c" transform="translate(430.18 443.11)"><path d="m197.78 75.793-1.9 2.8-7.4-4.4 0.3 8.1-2.3-0.8-0.7-9-10.4-6.2v12.3l7.9 5.2-1 2.3-6.9-4.6 0.1 8.9h-2.9l0.1-8.9-6.9 4.6-1-2.3 7.9-5.2v-12.3l-10.4 6.2-0.7 9-2.3 0.8 0.3-8.1-7.4 4.4-1.8-2.8 7.6-4.3-7.3-3.5 1.5-2.1 8.4 4.1 11.1-6.2-11.1-6.1-8.4 4-1.5-2.1 7.3-3.4-7.6-4.4 1.8-2.7 7.4 4.4-0.3-8.2 2.3 0.7 0.7 9.2 10.4 6.2v-12.3l-7.9-5.4 1-2.2 6.9 4.5-0.1-8.8h2.9l-0.1 8.8 6.9-4.5 1 2.2-7.9 5.4v12.3l10.4-6.2 0.7-9.2 2.3-0.7-0.3 8.2 7.4-4.4 1.9 2.7-7.6 4.4 7.2 3.4-1.5 2.1-8.5-4-11 6.1 11 6.2 8.5-4.1 1.5 2.1-7.2 3.5 7.6 4.3" fill="#10106c"/></g></g></svg>
