<?xml version="1.0" encoding="UTF-8" standalone="no"?>
<svg xmlns="http://www.w3.org/2000/svg" shape-rendering="geometricPrecision" height="95" width="75" version="1.1"><rect width="100%" fill="#fff" height="100%"/><g transform="translate(-227.95 -511.74)"><path d="m271.85 563.59c-0.33338-0.86665-0.60005-1.3666-0.8-1.5-0.20005-0.13331-0.70004-0.19998-1.5-0.2-0.40004 0.00002-2.3 0.26669-5.7 0.8l-0.3 0.3c1.1333 1.0667 2.3 2.0667 3.5 3 1.2 0.93335 2.3 1.7667 3.3 2.5 1.0666 0.66668 2.2 1.3334 3.4 2 1.2 0.60001 2.2 1.1334 3 1.6 0.86661 0.40001 1.9 0.83334 3.1 1.3 1.2666 0.40001 2.1666 0.73334 2.7 1 0.59994 0.20001 1.4999 0.43334 2.7 0.7 1.1999 0.26667 1.9666 0.46667 2.3 0.6 0.33327 0.0667 1.0666 0.23334 2.2 0.5 1.1999 0.20001 1.8333 0.30001 1.9 0.3 0.39993 0.0667 0.7666 0.40001 1.1 1-4.6667 1.2-7.9667 1.8-9.9 1.8h-0.6-0.5c-0.80006 0-1.7-0.2-2.7-0.6-1-0.46666-2.8-1.7667-5.4-3.9-2.6-2.2-5.8667-5.3-9.8-9.3-0.20004 0.20002-0.30004 0.33335-0.3 0.4v10.3c-0.00004 0.33334 0.0666 1.1333 0.2 2.4 0.1333 1.2 0.19996 1.9667 0.2 2.3-0.00004 2.2-0.60004 4.4333-1.8 6.7-1.9334-1.2667-2.9-2.7333-2.9-4.4-0.00003-0.13333 0.0333-0.36667 0.1-0.7 0.1333-0.4 0.29997-1.1333 0.5-2.2 0.26663-1.0667 0.5333-2.4 0.8-4l-0.1-8.7c-0.73337 0.60002-1.8334 1.5-3.3 2.7-1.4667 1.1334-2.6334 2.0333-3.5 2.7-0.86669 0.66668-1.9334 1.5-3.2 2.5-1.2667 0.93334-2.3334 1.7-3.2 2.3-0.80002 0.53334-1.7 1.1-2.7 1.7-0.93335 0.53334-1.7667 0.93334-2.5 1.2-0.66668 0.26667-1.2334 0.4-1.7 0.4h-2.6c1.0666-0.73333 2.5-1.7333 4.3-3 1.8666-1.2667 3.1666-2.1333 3.9-2.6 0.73331-0.53332 1.7333-1.2667 3-2.2 1.3333-0.93332 2.2666-1.6 2.8-2 0.53331-0.46665 1.2333-1.0666 2.1-1.8 0.9333-0.79999 1.6333-1.4666 2.1-2 0.46664-0.53332 0.96664-1.1333 1.5-1.8 0.5333-0.73331 1.0333-1.4666 1.5-2.2-0.13337-0.13331-0.4667-0.19998-1-0.2-1.3334 0.00002-2.3667 0.13335-3.1 0.4-0.73336 0.20002-1.1667 0.40002-1.3 0.6-0.0667 0.20002-0.16669 0.53335-0.3 1-0.80003 0.00002-1.5334-0.73331-2.2-2.2-0.60003-1.4666-1.4-3.4-2.4-5.8-1-2.4666-2.1667-4.4666-3.5-6v-1.6h2.7l1.4 0.7c0.0666 0.0667 0.43331 0.10003 1.1 0.1 1.3333 0.00003 4.8333-0.8333 10.5-2.5v-3.9c-0.40004 0.00004-1.3667 0.13337-2.9 0.4-1.5334 0.20004-2.5 0.30004-2.9 0.3-0.93336 0.00004-2.2667-0.43329-4-1.3l9.8-1.9v-4l-2-6.6c2.2 0.53339 4.2666 1.4 6.2 2.6l-1.2 5.5c-0.00004 0.40004 0.23329 0.73338 0.7 1l6.6-1.4c1.0666 0.0667 2.2666 0.50004 3.6 1.3-1.7334 0.93338-5.0334 2.0334-9.9 3.3-0.53337 0.13337-1 0.50004-1.4 1.1v3c0.0666 0.13337 0.29996 0.20004 0.7 0.2 0.26663 0.00004 1.9333-0.29996 5-0.9 3.1333-0.66663 4.8333-0.99996 5.1-1 0.53328 0.00004 1.6666 0.40004 3.4 1.2 1.8 0.73337 2.7 1.5334 2.7 2.4-0.00005 0.33337-0.23339 0.90003-0.7 1.7-0.46672 0.80003-1 1.6667-1.6 2.6-0.60005 0.8667-0.96672 1.4334-1.1 1.7l-3.5 8.3h-1.7m-8.3-10.5c0.79996 0.20003 1.4666 0.30003 2 0.3 0.33329 0.00003 0.63329-0.0333 0.9-0.1 0.33329-0.1333 0.53329-0.19997 0.6-0.2 2 0.00003 3.1333 0.4667 3.4 1.4-1 0.53336-3.3 1.2667-6.9 2.2v2.9c0.3333 0.40002 1.1 0.60002 2.3 0.6l6-0.6c1.1333-4.4666 1.7-7.1666 1.7-8.1-0.00005-1.2-0.16671-1.9333-0.5-2.2h-6.1c-0.46671 0.00003-1.6 0.30003-3.4 0.9v2.9m-2.7 1.3v-3.7h-1.4l-9 1.7 3.1 9.5 5.5-0.9c0.46663 0.13336 1.0333 0.36669 1.7 0.7v-4.1c-0.00004-0.19997-0.10004-0.29997-0.3-0.3-1.8 0.20003-2.8667 0.30003-3.2 0.3-0.0667 0.00003-0.20003 0.00003-0.4 0-0.13336 0.00003-0.20003 0.00003-0.2 0-0.73336 0.00003-1.2667-0.0666-1.6-0.2-0.33336-0.19997-0.73336-0.59997-1.2-1.2l7-1.8" fill="#20208c"/></g></svg>
