<?xml version="1.0" ?>
<svg xmlns="http://www.w3.org/2000/svg" shape-rendering="geometricPrecision" height="95" width="75" version="1.1">
	<rect width="100%" fill="#fff" height="100%"/>
	<g transform="translate(-295.94 -431.06)">
		<path d="m346.04 496.51c2.9999 0.00002 5.2333-0.73332 6.7-2.2 1.4666-1.4666 2.8333-4.1666 4.1-8.1 0.0666 2.7334 0.73326 6.2667 2 10.6-1.0001 1-2.7001 1.9334-5.1 2.8-2.3334 0.86668-4.5334 1.3-6.6 1.3-5.6 0.00001-9.0667-1.5666-10.4-4.7-0.66671-1.5333-1-2.3666-1-2.5v-34.5c-0.00005-0.19995-0.20005-0.86661-0.6-2-0.40005-1.1333-0.60005-1.7999-0.6-2v-0.9c2.9333 0.93339 4.8666 2.0334 5.8 3.3l-1.9 15.1v5.8l0.3 0.1c5.5333-3.6 8.4666-6.8 8.8-9.6h1.5c0.46661 0.00004 1.1666 0.40004 2.1 1.2 0.99994 0.80004 1.6666 1.5 2 2.1l-14.9 8.3v12.4c-0.00005 0.33335 0.16662 0.73335 0.5 1.2 0.33328 0.46668 1.1333 0.96668 2.4 1.5 1.2666 0.53335 2.9 0.80002 4.9 0.8m-22.6 2.2c-0.00003-0.33332 0.1333-1.4 0.4-3.2 0.3333-1.8666 0.49996-2.9666 0.5-3.3-0.00004-0.53331-0.10004-1.2666-0.3-2.2l-11.8 8.3c-0.66669-0.0667-2.1667-1.3333-4.5-3.8 6.8-1.6666 12.5-3.9666 17.1-6.9v-11c-0.20004-0.19996-0.43337-0.29997-0.7-0.3-5.7334 1.7334-8.6334 2.6-8.7 2.6-0.86669 0.00003-1.9334-0.6333-3.2-1.9 4.7333-2 8.7666-3.1 12.1-3.3 0.3333-0.39996 0.49996-0.89996 0.5-1.5-0.00004-1.5333-0.33337-3.7-1-6.5l-1.6-6.3h1.8c0.26663 0.00005 0.89996 0.43338 1.9 1.3 1.0666 0.86672 1.6666 1.4 1.8 1.6 0.13329 0.26671 0.29996 0.70005 0.5 1.3l-0.8 5.8v29.7c-0.00004 0.13334-0.20004 0.66668-0.6 1.6l-0.9 2.2c-1.6667-0.53332-2.5-1.9333-2.5-4.2" fill="#20208c"/>
	</g>
</svg>
