<?xml version="1.0" encoding="UTF-8" standalone="no"?>
<svg xmlns="http://www.w3.org/2000/svg" shape-rendering="geometricPrecision" height="95" width="75" version="1.1"><rect width="100%" fill="#fff" height="100%"/><g transform="translate(-273.83 -427.79)"><g fill="#20208c" transform="translate(-92.934 .81015)"><path d="m420.66 466.88c0.93327 0.0667 2.2666 0.53337 4 1.4 1.7333 0.8667 2.5999 1.7667 2.6 2.7-0.00006 0.0667-0.16673 0.4667-0.5 1.2-0.26673 0.6667-0.60006 1.4334-1 2.3-0.3334 0.8667-0.5334 1.5334-0.6 2-0.00006 0.93336-0.0667 2.4334-0.2 4.5-0.1334 2-0.40006 4.8-0.8 8.4-0.33339 3.5333-1.0001 6.5667-2 9.1-0.93339 2.4667-2.1001 3.7-3.5 3.7-0.13339 0-0.30006-0.0333-0.5-0.1l-5.8-7.8c1.2 0.26668 2.5 0.40001 3.9 0.4h1.4c0.59994-0.39999 1.0999-0.83332 1.5-1.3 0.39994-0.46666 0.69994-1.1 0.9-1.9 0.26661-0.86665 0.43328-1.5 0.5-1.9 0.13328-0.39999 0.26661-1.2 0.4-2.4 0.13327-1.2666 0.19994-2.0333 0.2-2.3-0.00006-2.1333-0.00006-3.8333 0-5.1-0.00006-1.3333-0.00006-2.1666 0-2.5 0.0666-0.33331 0.0999-0.63331 0.1-0.9-0.00006-0.26664-0.00006-0.56664 0-0.9-0.00006-1.8666-0.40006-3.2666-1.2-4.2-0.73339-0.99997-2.0667-1.5-4-1.5-2.3334 0.00003-5.0334 0.40003-8.1 1.2 0.19995 0.40003 0.76662 0.9667 1.7 1.7l-5.1 6.1h7.2c-0.60005 0.66669-2.1334 1.2334-4.6 1.7-2.4667 0.46669-3.8334 0.76669-4.1 0.9v3.7c0.26663 0.00002 1.2666-0.13331 3-0.4 1.8-0.26665 2.8333-0.39998 3.1-0.4 1.7333 0.00002 3.2 0.50002 4.4 1.5-0.00005 0.20002-0.16672 0.50002-0.5 0.9-0.33338 0.40002-0.60005 0.60002-0.8 0.6l-8.7 0.2c-0.26671 0.46668-0.50004 1.0667-0.7 1.8-0.13337 0.66668-0.23337 1.3-0.3 1.9-0.0667 0.53335-0.13337 0.83335-0.2 0.9-0.00004 0.20001-0.0334 0.66668-0.1 1.4-0.0667 0.73334-0.16671 1.3-0.3 1.7-0.0667 0.33334-0.26671 0.76667-0.6 1.3-0.26671 0.46667-0.63337 0.83334-1.1 1.1-0.0667-2.9333-0.30004-5.9333-0.7-9-0.0667-0.13332-0.20004-0.26665-0.4-0.4-3.2667 0.86668-5.2 1.3-5.8 1.3-0.53336 0.00001-1.1667-0.19999-1.9-0.6-0.73336-0.46665-1.1334-0.93332-1.2-1.4 2.1333-0.33332 5.3-0.96665 9.5-1.9v-3.8c-1.6667 0.40002-2.9667 0.60002-3.9 0.6-1.2667 0.00002-2.4334-0.29998-3.5-0.9 2.1333-0.26664 5.1-0.83331 8.9-1.7 0.26663-0.0666 0.99996-0.96664 2.2-2.7 1.2666-1.8 1.9-2.8666 1.9-3.2v-2.2c-0.26671-0.1333-0.66671-0.16663-1.2-0.1l-18 2.3v20.6c-0.00002 0.26668-0.46669 1.2-1.4 2.8-1.6-0.46666-2.4-1.8333-2.4-4.1-0.00002-0.46666 0.13331-2.0333 0.4-4.7 0.26665-2.6666 0.39998-4.2333 0.4-4.7-0.00002-4.4666-0.53335-7.8333-1.6-10.1l-0.6-1.2v-1.8h1.8c0.13331 0.00003 0.53331 0.23337 1.2 0.7 0.73331 0.4667 1.2 0.70003 1.4 0.7-0.00002-0.1333 4.0333-0.7333 12.1-1.8 1.5333-1.4666 2.3-3.7666 2.3-6.9-0.20004-0.19996-0.7667-0.29996-1.7-0.3-0.20004 0.00004-0.70003 0.0334-1.5 0.1-0.80003 0.0667-1.3 0.10004-1.5 0.1-1.4 0.00004-2.7667-0.49996-4.1-1.5 0.46664-0.0666 1.2333-0.16662 2.3-0.3 1.0666-0.19996 1.9-0.36662 2.5-0.5 0.66663-0.13329 1.3666-0.29996 2.1-0.5 0.79996-0.19996 1.4-0.46662 1.8-0.8 0.46663-0.33329 0.76663-0.73329 0.9-1.2 0.66663-3.6666 0.99996-5.8 1-6.4-0.00004-1.7333-0.30004-3.4666-0.9-5.2h2.7c0.33329 0.00006 0.96663 0.36672 1.9 1.1 0.99996 0.73339 1.6 1.2334 1.8 1.5l-3 8.6c1.4666 0.00005 3.0333-0.19995 4.7-0.6 1.7333-0.39995 2.6333-0.59995 2.7-0.6 0.33328 0.00005 1.5 0.30005 3.5 0.9-0.60005 1.0667-2.5334 2-5.8 2.8-3.2667 0.73338-5.0667 1.2334-5.4 1.5-0.53337 0.40004-0.96671 0.96671-1.3 1.7-0.33337 0.66671-1.1334 2.5667-2.4 5.7 0.7333 0.20003 1.4666 0.30003 2.2 0.3l18.4-2.9m-23.1 11.7c-0.53337 0.00003-1.2-0.46664-2-1.4-0.73337-0.99997-1.1-1.7-1.1-2.1v-1.6h2.1c0.66663 0.00003 1.2 0.4667 1.6 1.4 0.46663 0.86669 0.69996 1.7 0.7 2.5-0.00004 0.33336-0.0334 0.56669-0.1 0.7-0.40004 0.33336-0.80004 0.50003-1.2 0.5" fill="#20208c"/></g></g></svg>
