<?xml version="1.0" ?>
<svg xmlns="http://www.w3.org/2000/svg" shape-rendering="geometricPrecision" height="95" width="75" version="1.1">
	<rect width="100%" fill="#fff" height="100%"/>
	<g transform="translate(-186.33 -334.93)">
		<path d="m240.73 372.78c0.79994 0.00004 2.2999 0.6667 4.5 2 2.1999 1.3334 3.2999 2.3667 3.3 3.1-0.00006 0.2667-0.2334 0.63336-0.7 1.1-0.40006 0.4667-0.96673 1.5334-1.7 3.2-0.66673 1.6-1.2667 3.8-1.8 6.6-0.86673 5.1334-1.6001 8.5667-2.2 10.3-0.60006 1.7333-1.5667 3.4667-2.9 5.2-1.2 1.4667-2.0334 2.2-2.5 2.2-0.60005 0-1-0.23333-1.2-0.7l-2.2-6.6c-0.73338-1.6-2.3-2.4-4.7-2.4-0.73338 0.00001-7.7 0.56668-20.9 1.7-0.13336 0.0667-0.26669 0.23334-0.4 0.5-0.0667 0.20001-0.26669 0.63334-0.6 1.3-0.26669 0.66667-0.70002 1.4-1.3 2.2-0.66669-2.4667-1.2667-5.4667-1.8-9-0.53335-3.5333-1.1334-6.4666-1.8-8.8-0.66668-2.4-1.6667-4.6333-3-6.7l6.3 0.5c0.0667 0.00003 0.13331 0.00003 0.2 0 1.1333 0.00003 4.0333-0.4333 8.7-1.3v-7.2c-0.00003-0.46663-0.23336-1.2-0.7-2.2-0.40003-0.99996-0.73336-1.5333-1-1.6-0.00003-0.0666-0.43336-0.13329-1.3-0.2-0.80003-0.13329-1.8334-0.36662-3.1-0.7-1.2-0.39996-2.1667-0.99996-2.9-1.8 3.2 0.00004 7.7-0.59996 13.5-1.8l15.4-3.2c2.7333 0.00005 4.1 0.53338 4.1 1.6-0.00005 0.46671-0.63339 1-1.9 1.6-1.2 0.53338-2.2667 0.90005-3.2 1.1-1.6667 0.20004-4.1667 0.63338-7.5 1.3 0.93329 1.0667 1.9666 2.4667 3.1 4.2l-1.9 6.3c0.0666 0.0667 0.33329 0.10003 0.8 0.1l13.3-1.9m-17.1 2.6v-11.2l-9.1 1.4c1.9333 1.3334 2.9 2.3 2.9 2.9v7.8h1.5c0.46663 0.00003 2.0333-0.29997 4.7-0.9m13.8 22.8c0.93328-1.2 1.7666-3.6333 2.5-7.3 0.79994-3.6666 1.1999-6.8 1.2-9.4-0.00006-2.4666-0.33339-3.9333-1-4.4-0.53339-0.39997-2.1334-0.59997-4.8-0.6h-9.1v7.2c1.2 0.66669 2.0333 1 2.5 1 0.19995 0.00002 0.63329-0.0666 1.3-0.2 0.73329-0.19998 1.2-0.29998 1.4-0.3 1.8666 0.00002 3.0333 0.73336 3.5 2.2-1.1334 0.86669-2.7 1.3-4.7 1.3-2.6 0.00002-4.5-0.49998-5.7-1.5-1.1334-0.99998-1.7-2.7333-1.7-5.2-0.00004-1.2666 0.1-2.4666 0.3-3.6-1.2667 0.2667-3.2667 0.53336-6 0.8-0.33337 2.0667-0.60003 3.6334-0.8 4.7-0.20003 1-0.5667 2.2-1.1 3.6-0.53336 1.4-1.2334 2.5334-2.1 3.4-0.80003 0.86668-1.8334 1.5667-3.1 2.1v-0.6c0.39997-0.66665 1.1666-2.3666 2.3-5.1 1.1333-2.7333 1.7-4.3 1.7-4.7v-2.5l-8.7 1.4v0.9c-0.00002 0.13336 0.1 0.76669 0.3 1.9l0.4 2.4c0.39998 4.2667 0.66664 7.8 0.8 10.6l23.4-2.4c0.93329 0.00001 1.7333 0.20001 2.4 0.6 0.73328 0.40001 1.2333 0.80001 1.5 1.2 0.33328 0.33335 0.96662 1.1667 1.9 2.5h1.4" fill="#20208c"/>
	</g>
</svg>
